<svg xmlns="http://www.w3.org/2000/svg" xmlns:xlink="http://www.w3.org/1999/xlink" width="1052.83" height="1052.83" viewBox="0 0 1052.83 1052.83"><defs><style>.cls-1,.cls-3,.cls-7,.cls-8,.cls-9{fill:none;}.cls-2{fill:#112378;}.cls-3,.cls-5,.cls-7,.cls-8,.cls-9{stroke:#fff;}.cls-3,.cls-5,.cls-7,.cls-9{stroke-miterlimit:10;}.cls-3{stroke-dasharray:5 5;}.cls-4{fill:#fff;}.cls-5{fill:url(#New_Pattern_Swatch_3);}.cls-6{fill:url(#New_Pattern_Swatch_3-9);}.cls-9{stroke-dasharray:5.03 5.03;}</style><pattern id="New_Pattern_Swatch_3" data-name="New Pattern Swatch 3" width="85.28" height="85.28" patternTransform="translate(-118.77 -24.66)" patternUnits="userSpaceOnUse" viewBox="0 0 85.28 85.28"><rect class="cls-1" width="85.28" height="85.28"/><rect class="cls-2" width="85.28" height="85.28"/></pattern><pattern id="New_Pattern_Swatch_3-9" data-name="New Pattern Swatch 3" width="85.28" height="85.28" patternTransform="translate(-8.49 -61.32)" patternUnits="userSpaceOnUse" viewBox="0 0 85.28 85.28"><rect class="cls-1" width="85.28" height="85.28"/><rect class="cls-2" width="85.28" height="85.28"/></pattern></defs><g id="Layer_1" data-name="Layer 1"><path class="cls-3" d="M548.83,274.57c38.33-37.16,43.25-83.94,25.89-111.1-21-32.9-75.91-37.89-86.3-16.18-11.86,24.81,1.6,41.35,11.87,50.7,31.38,28.58,92.22-36.68,75.5-73.35-22.3-48.92-76.49-48.9-83-50.7C474.8,69,452,65.47,445.28,49.13c-2.54-6.21-2-12.4-1.08-16.72"/><rect class="cls-4" x="324.09" y="662.62" width="175.69" height="1" transform="translate(-72.43 50.9) rotate(-6.5)"/><rect class="cls-4" x="282.11" y="628.44" width="1" height="199.79" transform="translate(-498.47 744.13) rotate(-69.95)"/><rect class="cls-4" x="437.79" y="748.36" width="361.65" height="1" transform="translate(-91.33 85.94) rotate(-7.4)"/><rect class="cls-4" x="517.9" y="626.93" width="1" height="6.7" transform="translate(-293.84 551.17) rotate(-45)"/><rect class="cls-4" x="417.94" y="783.44" width="1" height="226.88"/><path class="cls-4" d="M418.3,1022.33a6.21,6.21,0,0,1-2.15-.43L176.94,916.08V687.82L38.43,540.4l5.27-6.17.32.1,218.88,71a9.31,9.31,0,0,1,3.41,1.72c1.34,1.16,138.26,155,139.64,156.58l.31.36-6.71,6.71-.36-.4c-5.63-6.33-138-155.12-139.81-156.78a8.39,8.39,0,0,0-3-1.51L41.65,542.36,177.94,687.42v228L416.53,1021a4.22,4.22,0,0,0,2.42.29l394.26-66.42V722.51l.1-.13,99-134.42L521,633.13,429.37,770.51,424,765.1l.22-.34,91.66-137.48.23,0,392.59-45.32,5.34,5.34-.25.35L814.21,722.84V955.68l-.42.07-394.64,66.49A3.89,3.89,0,0,1,418.3,1022.33ZM40.23,540.85l216.41,70.21a9,9,0,0,1,3.4,1.72c1.31,1.13,123.78,138.76,139.55,156.47l5.3-5.29c-13.4-15.07-137.59-154.59-139.24-156.15a8,8,0,0,0-3-1.5L44,535.39l-4.26,5ZM425.25,765l4,3.95,91.16-136.74.23,0L912.27,587l-4-4L516.42,628.22Z"/><path class="cls-4" d="M415.73,778a7.36,7.36,0,0,1-5.4-2.57l-7.67-8.59.75-.67,7.66,8.59a6.3,6.3,0,0,0,4.66,2.24c2,0,3.63-1.32,4.94-2.61l6.31-7,.74.67-6.33,7C419.91,776.54,418.1,778,415.73,778Z"/><path class="cls-4" d="M440.29,826.19c0,3.78-1.94,6.75-5.88,7.26-4.69.6-5.84-2.77-5.84-5.74v-9.86c0-3.81,1.91-6.74,5.84-7.25,4.73-.61,5.88,2.73,5.88,5.74v1l-3.34.43v-1c0-.93,0-3.2-2.54-2.88s-2.54,2.61-2.54,3.53v9.86c0,.93,0,3.19,2.54,2.87s2.54-2.6,2.54-3.53v-1l3.34-.43Z"/><path class="cls-4" d="M451.19,830.86l-.63-4.24-4.38.57-.64,4.4-3.33.43,3.43-22.46,5.46-.7,3.43,21.57Zm-4.5-6.87,3.36-.44-1.68-11.11Z"/><path class="cls-4" d="M459.65,823.68c0,1.06.19,3.21,2.64,2.89s2.63-2.61,2.63-3.38a3.35,3.35,0,0,0-2.73-3.29c-3.78-1.21-5.74-1.92-5.74-6,0-3.84,1.87-6.42,5.84-6.93,4.73-.61,5.87,2.73,5.87,5.74v.76l-3.24.42v-.77c0-1-.25-3.23-2.63-2.92-2.8.36-2.64,2.84-2.64,3.51,0,1.06.57,2.17,3,2.79,2.8.76,5.56,1.77,5.56,6.25,0,3.78-1.94,6.56-5.87,7.07-4.7.6-5.84-2.77-5.84-5.74v-2l3.2-.41Z"/><path class="cls-4" d="M482.17,820.77c0,3.78-1.94,6.74-5.87,7.25-4.7.61-5.84-2.76-5.84-5.74v-9.85c0-3.81,1.9-6.74,5.84-7.25,4.73-.61,5.87,2.73,5.87,5.73v1l-3.33.43v-1c0-.92,0-3.19-2.54-2.87s-2.54,2.6-2.54,3.53v9.86c0,.92,0,3.19,2.54,2.87s2.54-2.6,2.54-3.53v-1l3.33-.43Z"/><path class="cls-4" d="M493.07,825.44l-.63-4.24-4.38.56-.64,4.41-3.33.43,3.43-22.46,5.46-.71L496.4,825Zm-4.51-6.88,3.37-.43L490.25,807Z"/><path class="cls-4" d="M498.39,802.73l5.36-.69c4.48-.58,6.35,2.09,6.35,5.39v9.63a6.72,6.72,0,0,1-6.35,7l-5.36.7Zm3.23,18.37,2.19-.29a3.27,3.27,0,0,0,3-3.43v-9.44a2.46,2.46,0,0,0-3-2.68l-2.19.29Z"/><path class="cls-4" d="M524.05,818.19v3.24l-11.71,1.51v-3.23l4.12-.53V803.63l-4,.51v-3.23L524,799.42v3.23l-4,.52v15.55Z"/><path class="cls-4" d="M535,820l-.63-4.24-4.38.57-.64,4.4-3.33.43,3.43-22.46,5.46-.7,3.43,21.57Zm-4.5-6.87,3.36-.44-1.68-11.11Z"/><path class="cls-4" d="M551.94,798.93v12.8c0,4.07-1.9,6.71-5.87,7.26s-5.84-1.68-5.84-5.74v-2.18l3.21-.41v2.17c0,1.19.19,3.28,2.63,3s2.64-2.58,2.64-3.73V799.45l-7.49,1v-3.23l10.72-1.39Z"/><path class="cls-4" d="M557.41,811c0,1.06.19,3.21,2.64,2.89s2.63-2.61,2.63-3.38a3.36,3.36,0,0,0-2.73-3.29c-3.78-1.21-5.74-1.91-5.74-6,0-3.84,1.87-6.42,5.84-6.93,4.73-.61,5.87,2.73,5.87,5.74v.77l-3.24.42v-.77c0-1-.25-3.23-2.63-2.93-2.8.37-2.64,2.84-2.64,3.51,0,1.06.57,2.17,3,2.79,2.8.76,5.56,1.78,5.56,6.26,0,3.77-1.94,6.55-5.87,7.06-4.7.61-5.84-2.77-5.84-5.74v-2l3.2-.41Z"/><path class="cls-4" d="M431.76,856.92c0,1.05.2,3.2,2.64,2.89s2.63-2.62,2.63-3.38a3.36,3.36,0,0,0-2.73-3.3c-3.77-1.2-5.74-1.91-5.74-6,0-3.84,1.87-6.42,5.84-6.94,4.73-.61,5.87,2.73,5.87,5.74v.77l-3.24.42v-.77c0-1-.25-3.23-2.63-2.92-2.79.36-2.64,2.83-2.64,3.51,0,1,.58,2.16,3,2.78,2.79.76,5.55,1.78,5.55,6.26,0,3.77-1.94,6.55-5.87,7.06-4.7.61-5.84-2.76-5.84-5.74v-2l3.2-.42Z"/><path class="cls-4" d="M442.57,861.6v-22l11.71-1.51v3.33l-8.22,1.06v6l7.24-.93v3.33l-7.24.93v6l8.22-1.07v3.36Z"/><path class="cls-4" d="M465.17,858.67l-.63-4.24-4.38.57-.64,4.4-3.33.43,3.43-22.46,5.46-.7,3.43,21.57Zm-4.5-6.87,3.36-.44-1.68-11.11Z"/><path class="cls-4" d="M474.55,838.87l-4.13.53V836l11.78-1.53v3.43l-4.13.53V857l-3.52.46Z"/><path class="cls-4" d="M488.5,837.06l-4.12.53v-3.42l11.77-1.52v3.42l-4.12.53v18.59l-3.53.46Z"/><path class="cls-4" d="M498.39,832.35l3.49-.45v18.5l8.22-1.06v3.51l-11.71,1.52Z"/><path class="cls-4" d="M512.36,852.56v-22L524.07,829v3.33l-8.22,1.06v6l7.24-.94v3.33l-7.24.94v6l8.22-1.06v3.36Z"/><path class="cls-4" d="M530.23,846.34l3.91-.5v1.79l-2.64,5.24-1.27.16Z"/><path class="cls-4" d="M555,847l-.79-21.92,3.33-.43.57,13.24,2-6.91,1.94,6.41.57-13.39,3.33-.43-.79,22.12-3.3.42-1.75-6.49-1.78,7Z"/><path class="cls-4" d="M576.89,844.21l-.63-4.24-4.38.56-.64,4.41-3.33.43,3.43-22.46,5.46-.71,3.42,21.57Zm-4.51-6.88,3.37-.43-1.68-11.11Z"/><path class="cls-5" d="M430.72,786.34v6.51l6.62-.86v1.18l-6.62.85v7.71l-1.28.17V785.33l8.33-1.07v1.17Z"/><path class="cls-5" d="M449,799.36l-4.86-7.05-2.09.27v7.68l-1.29.17V783.87l3.81-.49c3.09-.41,5.12,1,5.12,3.77a5.09,5.09,0,0,1-4.05,4.92l5,7.08Zm-1.88-14.44a4.79,4.79,0,0,0-3.26-.28l-1.81.24v6.53l1.81-.24a5.8,5.8,0,0,0,3.26-1.09,3.37,3.37,0,0,0,1.21-2.75A2.5,2.5,0,0,0,447.1,784.92Z"/><path class="cls-5" d="M459.94,798.23c-4.45.58-8.33-2.18-8.33-7.46a9.59,9.59,0,0,1,8.33-9.63c4.47-.57,8.33,2.19,8.33,7.47A9.56,9.56,0,0,1,459.94,798.23Zm0-15.93a8.05,8.05,0,0,0-7,8.27c0,4.61,3.26,6.92,7,6.44a8.07,8.07,0,0,0,7-8.25C466.93,784.13,463.7,781.81,459.94,782.3Z"/><path class="cls-5" d="M486.82,794.46l-1.41-14.19-6.07,15.45-.12,0-6.09-13.9-1.36,14.57-1.28.17,1.66-16.78,1.48-.19L479.27,793l5.67-14.87,1.5-.2,1.66,16.35Z"/><line class="cls-6" x1="193.8" y1="806.07" x2="389.43" y2="877.47"/><path class="cls-4" d="M224,796.06l-5.41-2v-7.34l12.51,4.56V806c0,8.57-4.13,13.11-12.51,10-10-3.65-12.45-12.46-12.45-19.16V774.71c0-8.57,4.06-13.13,12.45-10.07,10.48,3.83,12.51,12.41,12.51,19.18v.87L224,782.1v-.87c0-2.16-.07-7.37-5.41-9.32s-5.42,3.21-5.42,5.37v22.18c0,2.09.07,7.3,5.42,9.25s5.41-3.21,5.41-5.3Z"/><path class="cls-4" d="M260.77,794.66v22.17c0,8.5-4.12,13.12-12.51,10.06s-12.45-10.67-12.45-19.17V785.55c0-8.57,4.06-13.14,12.45-10.08S260.77,786.3,260.77,794.66Zm-7.1-2.6c0-2.08-.07-7.22-5.41-9.17s-5.41,3.14-5.41,5.22v22.18c0,2.09.13,7.25,5.41,9.18s5.41-3.14,5.41-5.23Z"/><path class="cls-4" d="M290.54,805.52V827.7c0,8.5-4.12,13.11-12.51,10s-12.45-10.66-12.45-19.16V796.41c0-8.57,4.06-13.13,12.45-10.07S290.54,797.17,290.54,805.52Zm-7.1-2.59c0-2.09-.07-7.23-5.41-9.18s-5.41,3.14-5.41,5.23v22.18c0,2.08.13,7.25,5.41,9.17s5.41-3.13,5.41-5.22Z"/><path class="cls-4" d="M295.4,793.61l11.43,4.18a19.73,19.73,0,0,1,13.53,18.9v21.68c0,7.2-4,12.65-13.53,9l-11.43-4.18Zm6.9,44.79,4.67,1.7c5.68,2.08,6.42-2.48,6.42-4.49V814.37a9.58,9.58,0,0,0-6.42-9.26l-4.67-1.71Z"/><path class="cls-4" d="M350.13,855.86v7.27l-25-9.11v-7.28L334,850V815l-8.52-3.11v-7.27l24.56,9v7.27l-8.53-3.11v35Z"/><path class="cls-4" d="M354.93,864.88V815.34l25,9.11v7.48l-17.52-6.39v13.54l15.42,5.63v7.49l-15.42-5.63V860l17.52,6.4V874Z"/><line class="cls-6" x1="237.61" y1="884.31" x2="345.62" y2="923.73"/><path class="cls-4" d="M270.41,882.38c0,7.27-4,12.44-13.53,9l-11.43-4.17V837.63l10.62,3.87c9.47,3.46,12.85,11.25,12.85,17.94,0,4.83-1.22,7.77-3.72,8.8C268.44,871.66,270.41,876,270.41,882.38ZM252.07,847.1v14l3.79,1.39c6.16,2.24,6.23-3.21,6.23-5s-.07-6.72-6.23-9Zm4.4,22.49-4.4-1.6v14.54l4.81,1.75c5.68,2.08,6.42-2.55,6.42-4.64S263.17,872,256.47,869.59Z"/><path class="cls-4" d="M300.15,871.27v22.18c0,8.5-4.13,13.11-12.51,10s-12.45-10.66-12.45-19.16V862.16c0-8.57,4.06-13.13,12.45-10.07S300.15,862.92,300.15,871.27Zm-7.1-2.59c0-2.09-.07-7.22-5.41-9.17s-5.42,3.13-5.42,5.22v22.18c0,2.09.14,7.25,5.42,9.18s5.41-3.14,5.41-5.23Z"/><path class="cls-4" d="M329.94,868.46,322.83,890l7.11,28-7.71-2.81-4.81-20.48-4.8,17L305,908.89l7.17-22.8L305,859.35l7.64,2.79,4.8,18.89,4.81-15.38Z"/><path class="cls-4" d="M633.73,971.4a4.12,4.12,0,0,0,3.69-3.93c0-1.46-1.13-2.06-2.24-2.48-.71-.26-1.49-.47-2.16-.72a3,3,0,0,1-2.06-3c0-2.93,2.51-5.32,5.54-5.83a3.87,3.87,0,0,1,4,1.47l-1.21,1.4a3,3,0,0,0-3.1-1.25,3.78,3.78,0,0,0-3.36,3.56c0,1.4.9,1.8,1.77,2.11l1.9.66a7.44,7.44,0,0,1,1,.45,3.05,3.05,0,0,1,1.77,2.87c0,3.22-2.44,5.74-6,6.34a4,4,0,0,1-4.43-2.21l1.35-1.4A3.51,3.51,0,0,0,633.73,971.4Z"/><path class="cls-4" d="M648.07,953.7c2.7-.45,4.43.69,4.43,3.12,0,3.67-2.86,5.76-6.11,6.31l-2.06.34-1.15,7.62-1.78.29,2.58-17Zm2.58,3.64c0-1.72-1.23-2.33-2.91-2.05l-2.22.38-.95,6.23,2.16-.37C649,961.15,650.65,959.79,650.65,957.34Z"/><path class="cls-4" d="M664.59,950.92l-.24,1.6-7,1.18-.85,5.61,6.6-1.11-.24,1.6-6.6,1.11-1,6.58,7.15-1.2-.24,1.6-8.92,1.5,2.58-17Z"/><path class="cls-4" d="M672,966.52c-4.05.68-6.63-1.74-6.63-6A11.79,11.79,0,0,1,674.73,949c2.79-.47,4.37.51,5.18,1.43l-1.09,1.6a4.22,4.22,0,0,0-4.28-1.39c-4.07.68-7.34,4.62-7.34,9.27,0,3.44,2.06,5.39,5.18,4.87a8.55,8.55,0,0,0,5.07-2.92l.68,1.16A10.32,10.32,0,0,1,672,966.52Z"/><path class="cls-4" d="M684.7,947.53l-2.58,17-1.77.3,2.58-17Z"/><path class="cls-4" d="M688.44,958.83l-2.44,5-1.84.31,9-18.13,1.39-.24,3.84,16-2,.34-1-4.47Zm6.65-2.71-1.65-7.66-4.17,8.64Z"/><path class="cls-4" d="M704.75,944.15l-2.32,15.34,5.49-.92-.26,1.65-7.26,1.22,2.58-17Z"/><path class="cls-4" d="M721.36,941.35c2.7-.45,4.57.34,5.47,1.29a6.51,6.51,0,0,1,1.51,4.54,11.85,11.85,0,0,1-9.56,11.17l-4.52.76,2.58-17Zm2.25,12.94a9.49,9.49,0,0,0,2.86-6.6,5.61,5.61,0,0,0-1.15-3.72,4.65,4.65,0,0,0-4.24-1l-2.7.46-2.11,13.74,2.7-.45A8.33,8.33,0,0,0,723.61,954.29Z"/><path class="cls-4" d="M741.15,938l-.23,1.6-7,1.18-.85,5.61,6.6-1.11-.23,1.6L732.82,948l-1,6.58,7.15-1.2-.23,1.6-8.93,1.5,2.58-17Z"/><path class="cls-4" d="M746,937.2l-2.32,15.35,5.49-.93-.26,1.65-7.27,1.23,2.58-17Z"/><path class="cls-4" d="M755.35,935.62l-2.57,17-1.78.3,2.58-17Z"/><path class="cls-4" d="M759.27,935l2.41,13.4,6.7-14.93,1.87-.31-8.28,18-1.52.26-3.1-16.06Z"/><path class="cls-4" d="M781,931.3l-.24,1.6-7,1.18-.85,5.61,6.6-1.11-.24,1.6-6.6,1.11-1,6.58,7.15-1.2-.24,1.6-8.92,1.5,2.58-17Z"/><path class="cls-4" d="M784.46,939.89l-1.16,7.59-1.78.3,2.58-17,4.24-.71c2.65-.45,4.26.65,4.26,3.1a6.51,6.51,0,0,1-4.45,6l3.41,7-2.2.37-3.08-6.88Zm6.27-6.19c0-1.73-1.19-2.3-3.27-2l-1.82.31-.95,6.23,1.64-.28C788.88,937.58,790.73,936.41,790.73,933.7Z"/><path class="cls-4" d="M794.12,929.09l2-.34,3,7.44,5.52-8.88,2-.34-6.91,10.72-1.09,7.19-1.77.3L798,938Z"/><polygon class="cls-4" points="777.62 756.41 782.6 761.39 783.85 760.15 777.62 753.92 771.39 760.15 772.64 761.39 777.62 756.41"/><polygon class="cls-4" points="777.62 761.39 786.34 770.11 787.58 768.87 777.62 758.91 767.66 768.87 768.91 770.11 777.62 761.39"/><polygon class="cls-4" points="790.07 778.83 791.32 777.58 777.62 763.89 763.92 777.58 765.17 778.83 777.62 766.38 790.07 778.83"/><polygon class="cls-4" points="786.34 780.07 787.58 778.83 777.62 768.87 767.66 778.83 768.91 780.07 777.62 771.36 786.34 780.07"/><path class="cls-4" d="M752.53,798.53h0l50.18-6.42v-56c0-.09-35.15,4.48-50.17,6.42C752.53,745.27,752.53,738.3,752.53,798.53Zm50.18-62.42,0,56-1.9-1.67-22.28,2.85V777.2l4.11,4.12,1.25-1.25-6.23-6.22-6.23,6.22,1.25,1.25,4.05-4.09v16.29l-22.3,2.85V744.43c16.48-2.4,6.38-1,46.38-6.16Z"/><path class="cls-4" d="M624.91,426l25.46-17.63,3,4.28-20.52,14.21,10.38,15,19.33-13.39,3,4.28-19.33,13.39,12.16,17.56,21-14.53,3,4.28-25.92,17.94Z"/><path class="cls-4" d="M696.06,418l-1.89,28.47-6.39,3.32,3-33.58-27.33-16,6.32-3.28,22.54,13.89L694,384.3l6.32-3.28-2.63,31.57L727,429.39l-6.46,3.35Z"/><path class="cls-4" d="M723.35,377.33l-15,5.8-1.84-4.78L742,364.63l1.85,4.78-14.93,5.76,18,46.72-5.59,2.16Z"/><path class="cls-4" d="M779.09,385.45l22.36,20-7.19,1.93-21.15-19.83-6.33,1.7,6.39,23.8-5.79,1.55-14.33-53.3,14.45-3.89c9.27-2.49,17.76.12,20.48,10.24C790.12,375.61,786,381.93,779.09,385.45Zm-18.91-20.76,5.25,19.54,5.64-1.51c6.87-1.85,13.22-5.05,11-13.39-2.12-7.88-8.74-8.17-15.46-6.37Z"/><path class="cls-4" d="M841.54,384.34l-25,3.06-4.24,16.07-6.19.76,16.07-57.74,4.52-.55,29.59,52.15-6.75.83Zm-16.32-30L818,381.91l20.89-2.56Z"/><path class="cls-4" d="M646.16,579.05c4.47-4.91,5.1-10.83.48-15-4.26-3.88-9.46-2.33-14.56,0L624,567.64c-6.1,2.78-11.22,2.34-16.19-2.18-6.87-6.25-4.77-15.81.94-22.08A19.28,19.28,0,0,1,624.18,537l.59,5.29c-3.69-.11-8.47.52-12.4,4.84s-4.8,9.91-.78,13.57c4.26,3.88,8.56,2.37,12.16.67l7.42-3.41c6.66-3,13.1-4.41,19,.92,7.22,6.56,6.61,16.28-.61,24.21-5.65,6.21-13.83,6.88-18.85,6.1l-.16-5.65C634.85,584.23,642.18,583.43,646.16,579.05Z"/><path class="cls-4" d="M662.41,495.26l20.92,25.26c4.19,5.05,7.39,9.67,7.42,15.47s-2.8,11-8.16,15.48-11.05,6.35-16.63,5.26c-5.81-1.12-9.74-5.24-13.92-10.29l-20.93-25.26,4.62-3.82,20.83,25.13c2.8,3.39,6,7,10.32,8.07a14.25,14.25,0,0,0,12.24-3.28c4-3.32,5.69-7.42,5.51-11.53-.22-4.28-3.21-8.14-6-11.53l-20.82-25.14Z"/><path class="cls-4" d="M709.4,500.64l27.14,12.79-6.34,3.9-25.92-13-5.59,3.44,12.92,21-5.11,3.14-28.94-47,12.74-7.84c8.17-5,17.05-4.95,22.54,4C717.16,488.06,715,495.29,709.4,500.64Zm-24-14.5L696,503.37l5-3.06c6.06-3.73,11.23-8.61,6.7-16-4.28-7-10.71-5.34-16.63-1.69Z"/><path class="cls-4" d="M717.81,461.45l13-6c8.65-4,18.25-3.18,22.62,6.35,4.67,10.18-2,17.72-10.87,21.79l-6.61,3,10.3,22.47-5.46,2.5Zm30.08,3c-2.8-6.11-8.82-7.14-15.15-4.24l-7.34,3.37,8.43,18.4,7.06-3.23C746.92,476,751,471.31,747.89,464.47Z"/><path class="cls-4" d="M787.35,466.1,810.62,485l-7.09,2.26-22.06-18.81-6.25,2L782.73,494,777,495.78,760.2,443.2l14.25-4.56c9.14-2.93,17.74-.72,20.94,9.26C797.9,455.75,794.1,462.26,787.35,466.1Zm-19.88-19.85,6.17,19.27,5.56-1.77c6.78-2.17,13-5.67,10.34-13.9-2.48-7.77-9.11-7.75-15.74-5.63Z"/><path class="cls-4" d="M803.5,430.64l5.85-1.31,12.11,53.85-5.86,1.32Z"/><path class="cls-4" d="M847.14,474.47c6.58-.87,10.88-5,10.07-11.17-.75-5.71-5.72-7.88-11.09-9.43l-8.54-2.43c-6.45-1.82-10.08-5.45-11-12.12-1.2-9.2,6.57-15.14,15-16.24a19.34,19.34,0,0,1,15.92,5.08l-3,4.43c-2.74-2.46-6.79-5.08-12.59-4.32s-10.06,4.47-9.35,9.86c.75,5.71,5,7.34,8.84,8.36l7.88,2.2c7,2,12.85,5.09,13.88,12.94,1.27,9.67-5.47,16.69-16.1,18.09-8.33,1.09-15-3.68-18.33-7.52l3.53-4.42C835.16,471.12,841.27,475.24,847.14,474.47Z"/><path class="cls-4" d="M872.77,420.86l31-.18,0,5.2-25,.14.1,18.24,23.52-.13,0,5.2-23.52.13.12,21.36,25.52-.14,0,5.2-31.52.18Z"/><path class="cls-4" d="M928.51,474.07c6.59.79,11.77-2.14,12.51-8.33.68-5.72-3.59-9.05-8.41-11.88l-7.69-4.46c-5.8-3.35-8.41-7.77-7.62-14.45,1.1-9.21,10.1-13.05,18.52-12A19.32,19.32,0,0,1,950,431.77l-4,3.55c-2-3.06-5.34-6.6-11.13-7.29s-10.86,1.85-11.5,7.25c-.68,5.72,3,8.34,6.5,10.28l7.09,4.07c6.33,3.65,11.2,8.1,10.26,16-1.16,9.69-9.42,14.83-20.07,13.56-8.33-1-13.63-7.26-15.91-11.81l4.52-3.4C917.73,467.87,922.63,473.37,928.51,474.07Z"/><path class="cls-4" d="M64.26,425.76C48.09,428.53,34.88,419.19,32,402.4s7.32-30.15,22.85-32.82c9.78-1.68,16.71,1.35,20.78,4.22L73.43,379c-3-2.74-9.94-5.44-17.51-4.14C43.15,377,35.73,387.72,38,401.2s13.11,21,25.65,18.89c7.33-1.26,12.55-4.91,15.63-9.66L83,414.09C80.1,418.73,74.35,424,64.26,425.76Z"/><path class="cls-4" d="M122.46,404.67l-25.19.73L91.56,421l-6.24.18,21.35-56,4.56-.13,24.63,54.67-6.8.2ZM109,373.29l-9.79,26.77,21-.61Z"/><path class="cls-4" d="M154.73,417.63c6.62.61,11.72-2.46,12.29-8.67.53-5.74-3.84-8.95-8.73-11.65l-7.8-4.25c-5.89-3.19-8.63-7.54-8-14.23.85-9.24,9.74-13.33,18.18-12.55a19.3,19.3,0,0,1,14.41,8.48l-3.87,3.66c-2.14-3-5.52-6.46-11.33-7s-10.8,2.14-11.3,7.56c-.53,5.73,3.26,8.25,6.78,10.1l7.2,3.87c6.42,3.49,11.41,7.8,10.68,15.69-.89,9.72-9,15.07-19.69,14.09-8.36-.77-13.83-6.89-16.22-11.37l4.42-3.53C143.79,411.72,148.84,417.09,154.73,417.63Z"/><path class="cls-4" d="M203.54,430.84c-16-3.57-24.68-17.23-21-33.86s18.23-25.11,33.61-21.67c9.68,2.16,14.94,7.6,17.61,11.8l-4,3.94c-1.72-3.66-7.13-8.8-14.62-10.48-12.65-2.82-23.57,4.25-26.56,17.6s4.13,24.44,16.55,27.22c7.26,1.62,13.47.22,18.13-3l2,4.8C220.86,430.37,213.53,433.08,203.54,430.84Z"/><path class="cls-4" d="M265.46,433.51l-23.54-9-11.27,12.22-5.83-2.23L266,391l4.26,1.63L272,452.56l-6.35-2.43Zm-.39-34.16-19.32,21,19.65,7.51Z"/><path class="cls-4" d="M302.8,406.21l14,7.6C331.4,421.77,337.14,437,329,452c-7.95,14.62-24.39,18.06-38.59,10.34l-14-7.61Zm20.76,42.71c6.65-12.23,2.58-24-9.44-30.54l-8.57-4.67-21.33,39.22,8.57,4.66C304.39,463.9,317.1,460.79,323.56,448.92Z"/><path class="cls-4" d="M353.4,435.66l5,3.37-31,45.68-5-3.37Z"/><path class="cls-4" d="M371.21,499.17l-19.44-16-14.58,8-4.81-4,52.94-28.09,3.52,2.9-17.46,57.37L366.14,515Zm10.52-32.49-25,13.7L373,493.77Z"/><path class="cls-4" d="M361.18,524.91a10.06,10.06,0,0,0,2.14,2.94c3.62,3.63,7.7.68,11.66-3.27l39.31-39.31,4.24,4.24-39.08,39.08c-3.79,3.79-6.91,5.88-9.62,6.56a9.39,9.39,0,0,1-9.05-2.49,12.22,12.22,0,0,1-3.11-4.35Z"/><path class="cls-4" d="M400.82,545.61c4.29,5.07,10.08,6.45,14.84,2.41,4.39-3.73,3.52-9.08,1.92-14.43l-2.6-8.5c-2-6.4-.88-11.42,4.24-15.77,7.08-6,16.29-2.7,21.77,3.77a19.32,19.32,0,0,1,4.36,16.13l-5.33-.09c.58-3.64.58-8.47-3.2-12.92s-9.21-6-13.36-2.51c-4.39,3.72-3.45,8.17-2.22,12l2.42,7.81c2.15,7,2.69,13.55-3.34,18.68-7.45,6.31-17,4.45-23.94-3.72-5.43-6.4-5-14.6-3.62-19.48l5.63.57C397.13,533.73,397,541.1,400.82,545.61Z"/><polygon class="cls-4" points="123.17 500.5 122.12 500.52 142.89 567.24 143.85 566.94 123.17 500.5"/><path class="cls-4" d="M117.33,471l-31.68.45L86,498l-6,.09-.8-55.2,6-.08.34,23.35,31.67-.45-.33-23.36,6-.09.8,55.19-6,.09Z"/><path class="cls-4" d="M135.69,470.33c2.87-17.36,17.5-26,32.5-23.5s26.09,15.34,23.23,32.7-17.43,26-32.5,23.5S132.81,487.78,135.69,470.33Zm49.66,8.12c2.36-14.29-6.19-24.38-18-26.33s-23.17,4.77-25.54,19.14c-2.34,14.21,6.34,24.48,18,26.41C171.64,499.62,183,492.66,185.35,478.45Z"/><path class="cls-4" d="M199.51,482.05c5.75-16.63,21.63-22.65,36-17.68s23.14,19.5,17.39,36.14-21.56,22.68-36,17.69S193.73,498.76,199.51,482.05Zm47.58,16.37c4.73-13.68-2-25.07-13.34-29s-23.64.8-28.39,14.56,2.12,25.2,13.31,29.07C230,517,242.39,512,247.09,498.42Z"/><path class="cls-4" d="M277.79,482.75l13.82,7.91c14.43,8.27,19.84,23.63,11.37,38.41-8.28,14.44-24.79,17.52-38.81,9.49l-13.81-7.92ZM297.6,525.9c6.92-12.07,3.11-23.94-8.76-30.73l-8.47-4.86-22.18,38.74,8.46,4.85C278.11,540.46,290.88,537.63,297.6,525.9Z"/><path class="cls-4" d="M328,513.7l4.85,3.53-32.48,44.64-4.85-3.53Z"/><path class="cls-4" d="M346.08,527.15l23.3,20.39L366,551.45,347.17,535l-12,13.72,17.7,15.49-3.42,3.91-17.7-15.49-14.07,16.08,19.2,16.8-3.42,3.91-23.72-20.75Z"/><path class="cls-4" d="M346.27,291.91c5.53,3.69,11.47,3.42,14.93-1.78,3.2-4.79.89-9.69-2.13-14.39l-4.84-7.46c-3.66-5.61-4-10.73-.27-16.33,5.14-7.72,14.9-7.08,22-2.38a19.35,19.35,0,0,1,8.64,14.31l-5.15,1.38c-.45-3.67-1.78-8.3-6.64-11.54s-10.52-3.26-13.53,1.27c-3.19,4.79-1.06,8.81,1.16,12.11l4.48,6.84c4,6.12,6.33,12.29,1.94,18.88-5.41,8.12-15.11,9-24,3-7-4.65-8.88-12.64-8.86-17.72l5.57-1C339.46,281.51,341.35,288.63,346.27,291.91Z"/><path class="cls-4" d="M404.32,277.94,392,267.64l3.28-3.93,29.26,24.38L421.22,292l-12.3-10.24-32.06,38.47-4.61-3.84Z"/><path class="cls-4" d="M431.69,295.42l4.3,4.19-38.52,39.53-4.3-4.18Z"/><path class="cls-4" d="M421.1,366.42c-10.59-12.52-9.24-28.64,3.77-39.65s29.7-9,39.88,3.06c6.4,7.57,7.3,15.08,6.89,20.05l-5.57.72c.84-4-.36-11.32-5.31-17.19-8.37-9.9-21.35-10.87-31.79-2s-11.49,22-3.28,31.69c4.8,5.68,10.6,8.32,16.26,8.57l-1.28,5.06C435.18,376.51,427.71,374.24,421.1,366.42Z"/><path class="cls-4" d="M442,392.4l-3.25-5,46.39-29.91,3.25,5-21,13.57,34.13,6.74,4.12,6.39-29.84-6.28-15.69,37.53-4-6.25,13.79-32.5-8.47-1.77Z"/><path class="cls-4" d="M511.11,399.78l13.69,27.77-4.66,2.3-11-22.39-16.36,8.07,10.4,21.09-4.67,2.3-10.4-21.09-19.16,9.44,11.29,22.89-4.67,2.3-13.94-28.27Z"/><path class="cls-4" d="M508.86,469.76l-18.05,24-2.53-7,18-22.75L504,457.81l-23.17,8.39-2-5.65,51.91-18.77,5.09,14.06c3.26,9,1.38,17.71-8.47,21.27C519.59,479.92,512.94,476.37,508.86,469.76Zm19.08-20.6-19,6.89,2,5.49c2.42,6.69,6.14,12.75,14.27,9.81,7.67-2.78,7.4-9.4,5-16Z"/><polygon class="cls-4" points="500.57 466.33 499.37 462.69 498.43 463.03 499.83 467.27 500.57 466.33"/><polygon class="cls-4" points="494.21 451.79 481.64 452.8 479.21 454 490.65 453.08 494.21 451.79"/><path class="cls-4" d="M515.84,512.51,505,479.83l-.73,1,11,33.18A13,13,0,0,0,515.84,512.51Z"/><path class="cls-4" d="M519.71,527.4l31.87,96.36.95-.31-31.95-96.62C520.3,527,520,527.21,519.71,527.4Z"/><path class="cls-4" d="M499.44,512c1.54,6.46,6.08,10.3,12.15,8.85,5.6-1.34,7.25-6.5,8.23-12l1.53-8.76c1.13-6.61,4.37-10.59,10.91-12.15,9-2.16,15.74,4.95,17.72,13.2a19.32,19.32,0,0,1-3.41,16.36L541.86,515c2.17-3,4.35-7.3,3-13s-5.5-9.54-10.79-8.27c-5.6,1.34-6.77,5.73-7.39,9.66l-1.36,8.06c-1.24,7.21-3.73,13.31-11.43,15.16-9.49,2.27-17.17-3.71-19.67-14.13-1.95-8.17,2.1-15.31,5.57-19l4.76,3.05C501.52,499.69,498.06,506.19,499.44,512Z"/><path class="cls-7" d="M453,302.89c-2.82-12-6.68-28.43-5-41,1.31-10,7.4-18.49,15.89-22,6.82-2.82,14.13-2,19.54,2.14,3.43,2.63,7.37,7.54,8.54,16.47,7.1-1,13.35.3,18,3.88a19.61,19.61,0,0,1,7.43,16.88,25.62,25.62,0,0,1-12.44,20.25c-13.79,8.55-46.57,8.28-47.87,8l-3.13-.65Z"/><path class="cls-7" d="M458,302.6c-2.75-11.74-6.71-28.12-5.15-40.07,3.08-23.69,34.81-28.56,34.34,2.12,26.94-8.36,32.68,19.65,15,30.58C490.25,302.68,459,302.8,458,302.6Z"/><path class="cls-8" d="M896.84,331.9c-4.7,3.13-10,5.21-12.06,7-1.26,1.17-1.63,2.09-1.92,4.25l-.9,5.6-16.27-2.25,1-7.79c.9-7.43,4.05-10.78,9.56-13.67l8-4.25c2.89-1.56,5.83-3.34,6.29-6.69.69-5-3.23-8.37-10.41-9.37a24.79,24.79,0,0,0-17.86,4.85l-3.65-14.16c2.89-2.4,11.44-7.8,26.87-5.67s24.26,13.23,22.67,24.71C906.78,324.38,902.1,328.24,896.84,331.9Zm-26.7,42.39c-6.7-.92-10.72-5.38-9.82-11.84s6-9.66,12.66-8.73,10.72,5.38,9.82,11.84S876.84,375.22,870.14,374.29Z"/><path class="cls-8" d="M961.34,337.33c-7.31,2.82-15.09,4-18.44,5.82-2.06,1.2-2.84,2.34-3.89,5.17l-2.91,7.32-21.35-8,3.65-10.27c3.47-9.79,8.74-13.37,17.08-15.62l12.16-3.33c4.39-1.23,8.89-2.77,10.53-7.16,2.46-6.59-1.84-12.31-11.26-15.82-9.58-3.57-19-1.73-25.65,1.16l-.66-20.27c4.64-2.38,17.85-7.11,38.1.44,20.09,7.49,28.85,25.24,23.23,40.31C977.07,330.15,969.57,334,961.34,337.33Zm-49,49.33c-8.79-3.28-12.88-10.52-9.72-19s11-11.28,19.79-8,12.88,10.53,9.72,19S921.16,389.94,912.37,386.66Z"/><path class="cls-8" d="M996.32,387.68c-5.63-.41-11.08-2-13.81-1.87-1.71.15-2.57.65-4.12,2.17l-4.15,3.87L962.77,380.1l5.53-5.57c5.27-5.31,9.81-6,15.94-4.93l9,1.56c3.24.55,6.65.93,9.07-1.43,3.63-3.54,2.58-8.59-2.49-13.78a24.77,24.77,0,0,0-17.07-7.12l5.79-13.42c3.76-.12,13.83.85,24.71,12s11,25.32,2.76,33.42C1008.79,387.83,1002.72,388,996.32,387.68Zm-47.08,17.11c-4.73-4.84-5.17-10.82-.5-15.37s10.63-4,15.36.86,5.16,10.82.5,15.38S954,409.63,949.24,404.79Z"/><polygon class="cls-7" points="260.51 287.47 275.31 305.35 298.43 303.3 286 322.89 295.1 344.25 272.61 338.48 255.12 353.73 253.66 330.56 233.75 318.64 255.32 310.09 260.51 287.47"/><polygon class="cls-7" points="258.34 278.32 277.07 300.95 306.33 298.35 290.6 323.16 302.11 350.18 273.66 342.88 251.51 362.19 249.66 332.87 224.47 317.77 251.78 306.95 258.34 278.32"/><polygon class="cls-7" points="487.45 557.09 486.16 579.78 504.12 593.7 482.14 599.49 474.45 620.88 462.16 601.76 439.44 601.05 453.82 583.45 447.47 561.63 468.65 569.87 487.45 557.09"/><polygon class="cls-7" points="491.98 549.08 490.35 577.8 513.09 595.42 485.27 602.75 475.53 629.81 459.97 605.62 431.22 604.73 449.42 582.45 441.39 554.83 468.2 565.25 491.98 549.08"/><path class="cls-7" d="M579,446.08c-.09-.84-.17-1.67-.25-2.49"/><path class="cls-9" d="M578.32,438.58c-8.23-93.51,13.83-133,37.92-151.07,49-36.83,112.65,10,181.22-37.21,5.13-3.54,63.3-44.72,53.39-92.22-5.6-26.83-30.24-42.89-42.46-49.49"/><path class="cls-7" d="M806.16,107.42c-.84-.43-1.59-.81-2.23-1.12"/><path class="cls-3" d="M469.55,531.92c-11.33-49.92-48.65-118.41-96-153.8A231.28,231.28,0,0,0,321.77,349"/><path class="cls-3" d="M197.71,313.4c-25.33-1.08-62.55,3.91-79.8-14.56-14.71-15.75-16.43-26.14-16.18-69.57.12-21.32-16.5-75.71-55-98.7"/><path class="cls-4" d="M329.91,465l-10.36.83a26,26,0,0,1-2.43,1.19l12.07-1Z"/><polygon class="cls-4" points="392.29 460.92 392.28 460.96 473.18 454.48 472.71 453.51 391.23 460.04 392.29 460.92"/><polygon class="cls-4" points="374.55 461.37 345.24 463.72 344.52 464.78 372.33 462.55 374.55 461.37"/><path class="cls-4" d="M144.72,479.78c.06.33.13.66.2,1l37.5-3c.05-.34.08-.68.12-1Z"/><path class="cls-4" d="M251.54,472.23l46.79-3.75c-1-.22-1.91-.47-2.86-.77l-44.69,3.57C251,471.59,251.29,471.91,251.54,472.23Z"/><path class="cls-4" d="M216.22,474.05c-.52.35-1,.72-1.5,1.12l20.88-1.67c-.6-.31-1.22-.59-1.86-.85Z"/><path class="cls-4" d="M199.22,475.41l-4.4.35c0,.34,0,.67-.06,1l3.88-.31C198.82,476.1,199,475.76,199.22,475.41Z"/><polygon class="cls-4" points="114.56 486.87 114 485.08 114.53 484.73 114.51 483.55 112.82 484.65 114.61 490.4 114.56 486.87"/><path class="cls-4" d="M126.49,482.24l6.28-.5c-.06-.33-.12-.66-.17-1l-6.12.49Z"/><polygon class="cls-4" points="118.82 500.56 117.78 500.58 138.04 565.66 139 565.37 118.82 500.56"/><path class="cls-4" d="M612.13,571.57l-28.32,48.07.86.5,28.45-48.27Z"/><polygon class="cls-4" points="642.23 520.5 642.91 521.32 655.13 500.58 654.45 499.76 642.23 520.5"/><path class="cls-4" d="M635.75,531.49,628,544.57l.09.81h-.55L619,559.94a10.7,10.7,0,0,0,1.41-.41l16-27.22Z"/><path class="cls-4" d="M732,470.86l.53,1.15,10,2.39c.37-.27.7-.53,1-.79Z"/><polygon class="cls-4" points="717.2 467.32 680.21 458.49 677.78 460.18 656.53 496.23 658.8 494.35 679.44 459.33 717.73 468.47 717.2 467.32"/><polygon class="cls-4" points="799.81 488.06 798.13 486.63 782.34 482.86 782.69 483.97 799.81 488.06"/><path class="cls-4" d="M768.69,479.61l-13-3.11c-.18.3-.37.6-.57.89l13.95,3.33Z"/><polygon class="cls-4" points="808.05 489 806.21 489.59 930 519.13 891.76 584.01 892.62 584.52 931.55 518.47 808.05 489"/></g></svg>