<svg id="Layer_1" data-name="Layer 1" xmlns="http://www.w3.org/2000/svg" width="660" height="860" viewBox="0 0 660 860"><defs><style>.cls-1{fill:#112378;}.cls-2{fill:#ffce09;}.cls-3{fill:#1bc17a;}.cls-4,.cls-6{fill:none;stroke:#112378;}.cls-4{stroke-linecap:round;stroke-linejoin:round;}.cls-5{fill:#0133fd;}.cls-6{stroke-miterlimit:10;}.cls-7{fill:#03f;}</style></defs><path class="cls-1" d="M418.83,48.83c2,.28,3.59-.58,3.86-2.46.24-1.73-1-2.77-2.49-3.66l-2.31-1.41a4.08,4.08,0,0,1-2.22-4.44c.39-2.8,3.15-3.91,5.71-3.55a5.89,5.89,0,0,1,4.25,2.79l-1.23,1a4.61,4.61,0,0,0-3.34-2.28c-1.78-.26-3.31.49-3.54,2.13s.87,2.55,1.91,3.17l2.13,1.28c1.9,1.15,3.36,2.54,3,4.92-.41,2.94-3,4.45-6.19,4a6.5,6.5,0,0,1-4.77-3.7l1.4-1A5.67,5.67,0,0,0,418.83,48.83Z"/><path class="cls-1" d="M436.47,51.09a4.81,4.81,0,0,1-4,1.22c-2.15-.31-3.69-1.92-3.4-4,.27-1.92,1.88-3.07,5-2.78l3.08.28.07-.5c.27-1.91-.89-2.93-2.6-3.17a6.8,6.8,0,0,0-3.48.42l-.42-1.37a8.51,8.51,0,0,1,4.18-.54c3.3.47,4.49,2.38,4,5.56L438,52.84l-1.76-.25Zm-2.4-4.24c-2.11-.2-2.93.54-3.09,1.7a2.19,2.19,0,0,0,2.1,2.39,4.42,4.42,0,0,0,3.57-1.15l.38-2.67Z"/><polygon class="cls-1" points="443.23 42.04 445.08 42.3 447.45 51.8 452.33 43.32 454.19 43.58 447.85 54.22 446.36 54.01 443.23 42.04"/><path class="cls-1" d="M458.48,44.19l1.78.25-1.59,11.3-1.78-.25Zm1.26-2.53a1.24,1.24,0,1,1,1.43-1A1.23,1.23,0,0,1,459.74,41.66Z"/><path class="cls-1" d="M474.91,51.05l-1,6.84-1.78-.25.94-6.72c.3-2.1-.21-3.35-2.31-3.64s-3.27,1.23-3.54,3.18l-.9,6.37-1.78-.26,1.59-11.3,1.78.25-.26,1.83h.07a3.79,3.79,0,0,1,3.81-1.55C474.8,46.27,475.29,48.35,474.91,51.05Z"/><path class="cls-1" d="M488.74,57.72a4.57,4.57,0,0,1-4.42,1.56c-3-.42-5.17-2.72-4.64-6.48a5.42,5.42,0,0,1,6.21-5,4.72,4.72,0,0,1,3.88,2.76h.05l.25-2,1.79.25-1.26,8.89c-.35,2.53-.9,3.83-1.77,4.72a5.65,5.65,0,0,1-5.29,1.61,8.1,8.1,0,0,1-4.65-2.4L480,60.56a7.3,7.3,0,0,0,3.89,2c3.11.43,4.46-1.44,4.86-4.26l.08-.63Zm.63-3.58c.36-2.58-.95-4.41-3.39-4.75s-4.14,1.31-4.47,3.65.78,4.43,3.34,4.79S489,56.5,489.37,54.14Z"/><path class="cls-1" d="M505.86,45.43l4.79.67c5,.71,8.28,4.44,7.55,9.57s-5,7.75-9.89,7.06l-4.79-.67Zm10.47,10c.59-4.19-1.83-7.11-6-7.69l-2.94-.42-1.89,13.45,2.94.41C512.47,61.69,515.75,59.45,516.33,55.38Z"/><path class="cls-1" d="M529.32,64.17a4.83,4.83,0,0,1-4,1.21c-2.14-.3-3.68-1.92-3.39-4s1.88-3.08,5-2.79l3.08.29.07-.51c.27-1.9-.89-2.93-2.6-3.17a6.8,6.8,0,0,0-3.48.42l-.42-1.36a8.39,8.39,0,0,1,4.18-.54c3.3.46,4.48,2.37,4,5.55l-.94,6.63-1.76-.25Zm-2.4-4.25c-2.11-.2-2.93.55-3.09,1.7a2.18,2.18,0,0,0,2.1,2.39,4.39,4.39,0,0,0,3.57-1.15l.38-2.67Z"/><path class="cls-1" d="M539.53,67.37c-2.7-.38-2.34-2.91-2-5l.77-5.44-1.69-.24.21-1.49,1.69.23L539,52l1.81.25-.5,3.5,2.78.39-.22,1.49L540,57.22,539.21,63a4.13,4.13,0,0,0,0,2.29,1.39,1.39,0,0,0,1.09.6,3.41,3.41,0,0,0,1.29-.09l-.1,1.46A4.88,4.88,0,0,1,539.53,67.37Z"/><path class="cls-1" d="M552.72,67.46a4.8,4.8,0,0,1-4,1.21c-2.14-.3-3.68-1.92-3.39-4s1.88-3.08,5-2.79l3.08.29.07-.51c.27-1.9-.89-2.92-2.6-3.16a6.69,6.69,0,0,0-3.48.42L547,57.56a8.39,8.39,0,0,1,4.18-.54c3.3.47,4.48,2.38,4,5.56l-.93,6.63L552.53,69Zm-2.4-4.24c-2.11-.2-2.93.54-3.09,1.7a2.17,2.17,0,0,0,2.09,2.38,4.4,4.4,0,0,0,3.58-1.14l.38-2.68Z"/><path class="cls-1" d="M570.14,71.68c-2.7-.38-2.34-2.91-2.06-5l.77-5.44L567.16,61l.21-1.49,1.69.23.49-3.49,1.81.25-.49,3.5,2.77.39-.21,1.49-2.8-.39-.81,5.81a4.24,4.24,0,0,0,0,2.29,1.43,1.43,0,0,0,1.1.6,3.41,3.41,0,0,0,1.29-.09l-.11,1.46A4.83,4.83,0,0,1,570.14,71.68Z"/><path class="cls-1" d="M576.58,66.62a5.95,5.95,0,1,1,5,6.68A5.74,5.74,0,0,1,576.58,66.62Zm10,1.35a4.11,4.11,0,1,0-4.69,3.76A4.06,4.06,0,0,0,586.54,68Z"/><path class="cls-1" d="M602.84,76.29c-2.7-.38-2.34-2.91-2.06-5l.77-5.45-1.69-.24.21-1.49,1.69.24.49-3.5,1.81.26-.49,3.49,2.77.39-.21,1.5-2.8-.4-.81,5.81a4.23,4.23,0,0,0,0,2.29,1.4,1.4,0,0,0,1.1.6,3.19,3.19,0,0,0,1.29-.09l-.11,1.46A4.65,4.65,0,0,1,602.84,76.29Z"/><path class="cls-1" d="M619.74,71.44l-1,6.85L617,78l1-6.72c.3-2.1-.22-3.35-2.31-3.64s-3.27,1.23-3.55,3.18l-.9,6.37L609.4,77l2.34-16.63,1.79.25-1,7.15.07,0a3.79,3.79,0,0,1,3.81-1.56C619.63,66.66,620.12,68.74,619.74,71.44Z"/><path class="cls-1" d="M629.3,80c-3.33-.47-5.25-3.07-4.74-6.71a5.6,5.6,0,0,1,6.39-5,5.14,5.14,0,0,1,4.5,6.09,7.24,7.24,0,0,1-.2.93L626.33,74a3.88,3.88,0,0,0,3.49,4.54,6.35,6.35,0,0,0,4-.88l.62,1.17A6.13,6.13,0,0,1,629.3,80Zm1.37-10.27a3.57,3.57,0,0,0-4.12,2.93l7.15,1A3.37,3.37,0,0,0,630.67,69.74Z"/><path class="cls-1" d="M412.39,61.76l4.79.67c5,.71,8.27,4.44,7.55,9.57s-5,7.75-9.89,7.06l-4.8-.67Zm10.46,9.95c.59-4.19-1.82-7.11-5.94-7.69L414,63.6l-1.89,13.45,2.93.41C419,78,422.28,75.78,422.85,71.71Z"/><polygon class="cls-1" points="439.46 68.42 433.3 81.69 431.46 81.43 429.08 64.11 430.96 64.37 432.93 78.73 438.96 65.5 440.73 65.75 443 80.3 448.97 66.91 450.85 67.17 443.56 83.11 441.73 82.85 439.46 68.42"/><path class="cls-1" d="M457.07,85.25c-3.32-.46-5.24-3.07-4.73-6.71a5.59,5.59,0,0,1,6.39-5.05,5.14,5.14,0,0,1,4.5,6.09,8.53,8.53,0,0,1-.21.93l-8.91-1.25a3.87,3.87,0,0,0,3.49,4.54,6.26,6.26,0,0,0,4-.88l.63,1.17A6.12,6.12,0,0,1,457.07,85.25ZM458.45,75a3.58,3.58,0,0,0-4.13,2.93l7.16,1A3.38,3.38,0,0,0,458.45,75Z"/><path class="cls-1" d="M469.71,69.83l1.79.25-1,7.3h0a4.88,4.88,0,0,1,4.43-1.62c3.47.49,5.12,3.26,4.65,6.61s-3.1,5.61-6.26,5.16a4.72,4.72,0,0,1-3.88-2.78h-.05l-.27,2-1.74-.24Zm8,12.31c.34-2.46-.81-4.56-3.32-4.91A4.11,4.11,0,0,0,469.88,81c-.34,2.43.76,4.53,3.27,4.88S477.39,84.58,477.74,82.14Z"/><path class="cls-1" d="M485.58,89.27a1.34,1.34,0,1,1,1.56-1.11A1.3,1.3,0,0,1,485.58,89.27Zm1.28-9.06a1.31,1.31,0,0,1-1.19-1.52,1.39,1.39,0,0,1,2.75.38A1.31,1.31,0,0,1,486.86,80.21Z"/><path class="cls-1" d="M510.85,87.84l-7.59-1.07-2.51,4.39-1.88-.27,9.26-15.7,1.38.19L514.1,93l-2.05-.29Zm-2.44-10.1-4.3,7.53,6.34.89Z"/><path class="cls-1" d="M528.1,78.05l4.32.61c2.86.4,5.19,2.18,4.75,5.34-.48,3.37-3.42,4.21-6.36,3.8l-2.19-.31-1,7.44-1.81-.25Zm7.21,5.71c.29-2-1.09-3.27-3.18-3.57l-2.44-.34-.86,6.09,2.34.33C533.17,86.56,535,86,535.31,83.76Z"/><path class="cls-1" d="M541.88,85.42l1.79.25-.28,1.93a3.1,3.1,0,0,1,3.17-1.74,3.57,3.57,0,0,1,1.18.36l-.36,1.67h-.07a3.44,3.44,0,0,0-1.2-.39,2.51,2.51,0,0,0-2,.72,4.57,4.57,0,0,0-1.17,2.91L542.07,97l-1.78-.25Z"/><path class="cls-1" d="M552.05,86.85l1.79.25-1.6,11.31-1.78-.25Zm1.27-2.52a1.24,1.24,0,1,1,.34-2.46,1.22,1.22,0,0,1,1.08,1.41A1.23,1.23,0,0,1,553.32,84.33Z"/><path class="cls-1" d="M571.77,89.41c3.3.47,3.6,2.89,3.27,5.25l-1,6.82-1.78-.25.94-6.72c.2-1.38.1-3.31-1.93-3.59-1.85-.26-3.14,1.4-3.46,3.62l-.83,5.95-1.79-.25.95-6.73c.19-1.37.1-3.3-1.93-3.59-1.85-.26-3.17,1.4-3.48,3.62l-.84,5.95-1.78-.25,1.59-11.3,1.78.25-.28,1.8h.08a3.51,3.51,0,0,1,3.39-1.58c2.22.31,3.08,1.49,3.3,2.94A3.67,3.67,0,0,1,571.77,89.41Z"/><path class="cls-1" d="M584.48,103.19c-3.33-.47-5.25-3.07-4.74-6.71a5.59,5.59,0,0,1,6.39-5,5.14,5.14,0,0,1,4.5,6.09,7.24,7.24,0,0,1-.2.93l-8.92-1.25a3.88,3.88,0,0,0,3.49,4.54,6.35,6.35,0,0,0,4-.88l.62,1.17A6.14,6.14,0,0,1,584.48,103.19Zm1.37-10.27a3.57,3.57,0,0,0-4.12,2.93l7.15,1A3.37,3.37,0,0,0,585.85,92.92Z"/><path class="cls-1" d="M596.25,93.08l1.78.25-.27,1.93a3.09,3.09,0,0,1,3.17-1.74,3.3,3.3,0,0,1,1.18.36l-.36,1.67h-.07a3.12,3.12,0,0,0-1.2-.39,2.45,2.45,0,0,0-2,.72,4.5,4.5,0,0,0-1.18,2.9l-.82,5.86-1.78-.25Z"/><path class="cls-1" d="M412.47,106.7a4.82,4.82,0,0,1-4,1.21c-2.15-.3-3.69-1.92-3.4-4s1.89-3.08,5-2.79l3.08.28.07-.5c.27-1.91-.89-2.93-2.6-3.17a6.73,6.73,0,0,0-3.47.42l-.43-1.36a8.39,8.39,0,0,1,4.18-.54c3.31.46,4.49,2.37,4,5.55l-.93,6.63-1.76-.25Zm-2.4-4.25c-2.11-.2-2.93.55-3.09,1.7a2.18,2.18,0,0,0,2.1,2.39,4.39,4.39,0,0,0,3.57-1.15l.38-2.67Z"/><path class="cls-1" d="M430,103.7l-1,6.84-1.79-.25.95-6.72c.29-2.1-.22-3.35-2.31-3.64s-3.27,1.23-3.55,3.18l-.9,6.37-1.78-.25,1.59-11.31,1.79.25-.26,1.83h.07a3.78,3.78,0,0,1,3.81-1.55C429.84,98.92,430.33,101,430,103.7Z"/><path class="cls-1" d="M443.84,110.65h0a4.8,4.8,0,0,1-4.55,1.6c-3.44-.49-5-3.24-4.57-6.64s3-5.58,6.33-5.11a4.71,4.71,0,0,1,3.77,2.72h0l1-7.26,1.78.25-2.34,16.63-1.74-.24Zm.53-3.74c.34-2.46-.8-4.51-3.3-4.86s-4.19,1.27-4.53,3.73.82,4.62,3.3,5S444,109.34,444.37,106.91Z"/><path class="cls-1" d="M465.17,114.12a4.82,4.82,0,0,1-3.95,1.21c-2.15-.3-3.69-1.92-3.4-4s1.89-3.08,5-2.79l3.08.29.07-.51c.27-1.9-.89-2.93-2.6-3.17a6.75,6.75,0,0,0-3.47.42l-.43-1.36a8.42,8.42,0,0,1,4.19-.54c3.3.46,4.48,2.37,4,5.55l-.93,6.63-1.76-.25Zm-2.4-4.25c-2.11-.2-2.92.55-3.09,1.7a2.18,2.18,0,0,0,2.1,2.39,4.42,4.42,0,0,0,3.58-1.15l.37-2.67Z"/><path class="cls-1" d="M482.12,101.07l4.32.61c2.86.4,5.2,2.18,4.75,5.33-.47,3.38-3.42,4.22-6.36,3.8l-2.19-.31L481.59,118l-1.81-.25Zm7.21,5.71c.29-2-1.09-3.28-3.18-3.57l-2.44-.34-.85,6.09,2.33.33C487.19,109.57,489,109,489.33,106.78Z"/><path class="cls-1" d="M495.91,108.44l1.78.25-.27,1.93a3.09,3.09,0,0,1,3.17-1.74,3.29,3.29,0,0,1,1.17.36l-.35,1.67h-.08a3.45,3.45,0,0,0-1.19-.39,2.48,2.48,0,0,0-2.05.72,4.54,4.54,0,0,0-1.17,2.91L496.1,120l-1.79-.25Z"/><path class="cls-1" d="M510.62,120.52a4.82,4.82,0,0,1-3.95,1.21c-2.15-.3-3.69-1.92-3.4-4s1.88-3.08,5-2.79l3.08.28.07-.5c.27-1.91-.89-2.93-2.6-3.17a6.73,6.73,0,0,0-3.47.42l-.43-1.36a8.39,8.39,0,0,1,4.18-.54c3.3.46,4.49,2.37,4,5.55l-.93,6.63-1.76-.25Zm-2.4-4.25c-2.11-.2-2.93.55-3.09,1.7a2.18,2.18,0,0,0,2.1,2.39,4.42,4.42,0,0,0,3.57-1.15l.38-2.67Z"/><path class="cls-1" d="M522.54,124a5.58,5.58,0,0,1-4.78-6.7,6.12,6.12,0,0,1,10.69-2.94l-1,1.29a4.71,4.71,0,0,0-3.31-1.8,4,4,0,0,0-4.55,3.69,4.08,4.08,0,0,0,3.52,4.89,4.52,4.52,0,0,0,3.68-1l.59,1.41A5.64,5.64,0,0,1,522.54,124Z"/><path class="cls-1" d="M534.62,125.66c-2.7-.38-2.34-2.91-2.06-5l.77-5.44-1.69-.24.21-1.49,1.69.23.49-3.49,1.81.25-.49,3.5,2.77.39-.21,1.49-2.8-.39-.81,5.81a4.24,4.24,0,0,0,0,2.29,1.43,1.43,0,0,0,1.1.6,3.41,3.41,0,0,0,1.29-.09l-.11,1.46A4.83,4.83,0,0,1,534.62,125.66Z"/><path class="cls-1" d="M542.77,115l1.79.25L543,126.59l-1.79-.25Zm1.27-2.53a1.24,1.24,0,1,1,1.43-1.05A1.23,1.23,0,0,1,544,112.51Z"/><path class="cls-1" d="M553.65,128.37a5.58,5.58,0,0,1-4.78-6.7,6.12,6.12,0,0,1,10.69-2.94l-1,1.29a4.71,4.71,0,0,0-3.31-1.8,4,4,0,0,0-4.55,3.69,4.08,4.08,0,0,0,3.52,4.89,4.52,4.52,0,0,0,3.68-1l.59,1.41A5.64,5.64,0,0,1,553.65,128.37Z"/><path class="cls-1" d="M569.88,128.86a4.83,4.83,0,0,1-4,1.21c-2.14-.3-3.69-1.92-3.39-4s1.88-3.08,5-2.79l3.09.29.07-.51c.27-1.9-.89-2.93-2.6-3.17a6.89,6.89,0,0,0-3.48.42l-.42-1.36a8.39,8.39,0,0,1,4.18-.54c3.3.46,4.48,2.38,4,5.56l-.93,6.62-1.76-.24Zm-2.4-4.25c-2.11-.2-2.93.55-3.09,1.71a2.17,2.17,0,0,0,2.09,2.38,4.4,4.4,0,0,0,3.58-1.14l.38-2.68Z"/><rect class="cls-1" x="570.8" y="122.32" width="16.79" height="1.8" transform="translate(376.46 679.59) rotate(-81.99)"/><path class="cls-1" d="M404.27,119.6l4.31.6c2.87.41,5.2,2.19,4.75,5.34-.47,3.38-3.42,4.22-6.36,3.8l-2.19-.31-1,7.45-1.8-.25Zm7.2,5.71c.29-2-1.08-3.28-3.18-3.57l-2.43-.35-.86,6.1,2.34.33C409.34,128.1,411.15,127.57,411.47,125.31Z"/><path class="cls-1" d="M420.59,139.1c-3.33-.47-5.24-3.07-4.73-6.71a5.58,5.58,0,0,1,6.39-5,5.14,5.14,0,0,1,4.5,6.09,8.53,8.53,0,0,1-.21.93l-8.91-1.26a3.87,3.87,0,0,0,3.48,4.55,6.32,6.32,0,0,0,4-.89l.62,1.17C424.54,139,422.81,139.41,420.59,139.1ZM422,128.82a3.59,3.59,0,0,0-4.12,2.94l7.16,1A3.39,3.39,0,0,0,422,128.82Z"/><path class="cls-1" d="M432.36,129l1.78.25-.27,1.93a3.11,3.11,0,0,1,3.17-1.74,3.57,3.57,0,0,1,1.18.36l-.36,1.67h-.07a3.44,3.44,0,0,0-1.2-.39,2.51,2.51,0,0,0-2,.72,4.51,4.51,0,0,0-1.17,2.91l-.83,5.86-1.78-.25Z"/><path class="cls-1" d="M443.78,140.91c1.23.18,2.48-.19,2.67-1.54s-1.65-2.07-2.47-2.48-3.12-1.28-2.78-3.66c.29-2.08,2.25-2.91,4.08-2.65a5.2,5.2,0,0,1,3.53,1.85l-1,1a4.51,4.51,0,0,0-2.7-1.43c-1.18-.17-2.08.27-2.23,1.33s.95,1.68,2.14,2.27,3.5,1.47,3.16,3.91c-.3,2.17-2.29,3.19-4.63,2.86a5,5,0,0,1-3.91-2.59l1.1-1A4.39,4.39,0,0,0,443.78,140.91Z"/><path class="cls-1" d="M454.27,132l1.78.25-.28,2h0a4.87,4.87,0,0,1,4.43-1.61c3.48.48,5.15,3.28,4.67,6.63s-3.12,5.58-6.27,5.13a4.66,4.66,0,0,1-3.87-2.75l0,0-.91,6.48L452,147.9Zm8.77,7c.35-2.45-.81-4.56-3.32-4.91a4.11,4.11,0,0,0-4.54,3.81c-.34,2.43.74,4.53,3.27,4.88S462.7,141.49,463,139.05Z"/><path class="cls-1" d="M473.8,146.59c-3.33-.47-5.25-3.07-4.73-6.71a5.57,5.57,0,0,1,6.38-5,5.14,5.14,0,0,1,4.5,6.09,7.24,7.24,0,0,1-.2.93l-8.92-1.26a3.88,3.88,0,0,0,3.49,4.55,6.35,6.35,0,0,0,4-.88l.62,1.16Q477.14,147.06,473.8,146.59Zm1.37-10.28a3.59,3.59,0,0,0-4.12,2.94l7.16,1A3.4,3.4,0,0,0,475.17,136.31Z"/><path class="cls-1" d="M488.88,148.74a5.57,5.57,0,0,1-4.78-6.7,6.11,6.11,0,0,1,10.68-2.94l-1,1.29a4.74,4.74,0,0,0-3.31-1.8,4,4,0,0,0-4.55,3.69,4.08,4.08,0,0,0,3.51,4.89,4.53,4.53,0,0,0,3.69-1l.58,1.41A5.62,5.62,0,0,1,488.88,148.74Z"/><path class="cls-1" d="M501,150.41c-2.7-.38-2.35-2.91-2.06-4.95l.77-5.45-1.69-.24.21-1.49,1.69.24.49-3.5,1.81.25-.49,3.5,2.77.39-.21,1.49-2.8-.39-.82,5.81a4.23,4.23,0,0,0,.05,2.29,1.37,1.37,0,0,0,1.1.6,3.16,3.16,0,0,0,1.28-.09l-.1,1.46A4.84,4.84,0,0,1,501,150.41Z"/><path class="cls-1" d="M509.11,139.79l1.78.25-1.59,11.3-1.78-.25Zm1.27-2.53a1.24,1.24,0,1,1,.34-2.45,1.24,1.24,0,1,1-.34,2.45Z"/><polygon class="cls-1" points="515.18 140.65 517.04 140.91 519.41 150.41 524.29 141.93 526.15 142.19 519.81 152.82 518.32 152.61 515.18 140.65"/><path class="cls-1" d="M533.39,155c-3.32-.47-5.24-3.07-4.73-6.71a5.58,5.58,0,0,1,6.39-5.05,5.14,5.14,0,0,1,4.5,6.09,8.53,8.53,0,0,1-.21.93L530.43,149a3.87,3.87,0,0,0,3.48,4.55,6.35,6.35,0,0,0,4-.88l.62,1.16C537.34,154.9,535.61,155.29,533.39,155Zm1.37-10.28a3.59,3.59,0,0,0-4.12,2.94l7.16,1A3.4,3.4,0,0,0,534.76,144.7Z"/><path class="cls-2" d="M571.7,690.34a5.2,5.2,0,0,1-3.13,1.14,3.23,3.23,0,0,1-3.41-3.35H570c-.36-.45-.64-.82-.88-1.13h-4a3,3,0,0,1,3.07-2.9,4.17,4.17,0,0,1,.52,0l0-.06a2.17,2.17,0,0,0,.19-.33c.13-.27.25-.54.36-.8a4.44,4.44,0,0,0-1.05-.12,4.66,4.66,0,0,0-4.69,4.91c0,3.06,1.89,5,4.69,5a5.14,5.14,0,0,0,4-1.49C572.13,690.94,571.92,690.64,571.7,690.34Z"/><path class="cls-3" d="M492.38,616.73c1.4,2.23,1.26,4.56-1.09,6-2.79,1.75-4.78.1-5.88-1.65l-3.66-5.82c-1.41-2.25-1.27-4.55,1.07-6,2.82-1.77,4.79-.14,5.9,1.64l.36.57-2,1.24-.36-.57c-.34-.54-1.2-1.87-2.7-.93s-.67,2.29-.32,2.83l3.65,5.82c.35.55,1.21,1.88,2.7.94s.67-2.29.33-2.84l-.37-.58,2-1.25Z"/><path class="cls-3" d="M501.14,617.2l-1.68-2.54-2.79,1.3.87,2.92-2.12,1L491.1,605l3.48-1.63,8.68,12.88Zm-5.07-3.37,2.14-1-4.42-6.65Z"/><path class="cls-3" d="M504.94,611.15c.22.7.82,2.1,2.45,1.57a1.91,1.91,0,0,0,1.11-2.59,2.74,2.74,0,0,0-2.61-1.82c-2.89-.3-4.41-.51-5.29-3.21-.83-2.54-.08-4.5,2.57-5.36,3.16-1,4.68,1,5.33,3l.16.51-2.16.7-.17-.51c-.21-.63-.87-2.1-2.46-1.59a1.82,1.82,0,0,0-1.08,2.68c.23.7.86,1.36,2.66,1.45,2.1.14,4.25.45,5.21,3.42.82,2.5.07,4.6-2.56,5.46-3.14,1-4.66-1.07-5.31-3l-.42-1.32,2.14-.69Z"/><path class="cls-3" d="M520.3,607.33c.5,2.58-.47,4.7-3.19,5.23-3.24.63-4.5-1.63-4.89-3.67l-1.31-6.75c-.5-2.6.46-4.7,3.18-5.22,3.26-.64,4.51,1.6,4.91,3.66l.13.66-2.3.44-.13-.66c-.12-.63-.45-2.18-2.18-1.85s-1.45,1.9-1.33,2.53l1.31,6.75c.12.64.44,2.19,2.18,1.85s1.45-1.89,1.32-2.53l-.13-.68,2.3-.44Z"/><polygon class="cls-3" points="549.39 610.56 549 612.78 540.89 611.34 541.28 609.13 544.14 609.63 546.03 598.95 543.26 598.46 543.65 596.24 551.63 597.65 551.24 599.87 548.47 599.38 546.58 610.06 549.39 610.56"/><path class="cls-3" d="M555.91,614.83l.46-3-2.94-.91-1.31,2.75-2.24-.69,6.82-14,3.66,1.13-2.21,15.37Zm-1.5-5.9,2.26.7,1.2-7.9Z"/><path class="cls-3" d="M571.88,607.22l-3.66,8.14c-1.16,2.58-3.07,3.56-5.62,2.44s-3.05-3.23-1.89-5.82l.63-1.38,2,.93-.62,1.38c-.34.75-.82,2.15.75,2.85s2.32-.66,2.65-1.39l3.61-8-4.8-2.16.92-2.05,6.88,3.09Z"/><path class="cls-3" d="M571.59,617.28c-.38.63-1.05,2,.42,2.89a1.9,1.9,0,0,0,2.68-.85,2.76,2.76,0,0,0-.32-3.17c-1.68-2.38-2.49-3.68-1-6.1s3.35-3,5.74-1.55c2.84,1.72,2.27,4.22,1.18,6L580,615l-1.94-1.18.27-.46c.35-.57,1-2-.4-2.91a1.82,1.82,0,0,0-2.73.93c-.38.63-.47,1.54.63,3,1.27,1.69,2.44,3.52.82,6.19-1.37,2.25-3.45,3-5.81,1.62-2.83-1.72-2.24-4.23-1.16-6l.71-1.18,1.93,1.17Z"/><path class="cls-3" d="M526,600.69l1.12,5.11-2.36.17.46-5.66a10.08,10.08,0,0,1-2.14-1.48L522,611.36l2.34-.16.24-3,3.07-.21.65,3,2.33-.16-2.12-9.32A9.42,9.42,0,0,1,526,600.69Z"/><path class="cls-3" d="M539.42,597.06l-3,.9a2,2,0,0,1,1.65,2.19l-.34,6.58a2,2,0,0,1-2.23,2l-1.54-.08.53-10.08a3.51,3.51,0,0,0-.94.43,7.45,7.45,0,0,0-.67.62c-.23.23-.48.47-.76.7l-.55,10.46,3.77.2a4,4,0,0,0,4.68-4.06l.35-6.71A4.42,4.42,0,0,0,539.42,597.06Z"/><polygon class="cls-4" points="496.03 610.44 493 604.61 497.31 609.57 496.03 610.44"/><polygon class="cls-5" points="495.86 610.44 497.13 609.57 492.82 604.61 495.86 610.44"/><path class="cls-5" d="M610.91,688c.62-1.23.77-3.94.77-13.38,0-6.29-3.36-19.64-3.36-42.92,0-15,1.52-6,1.3-22.62-.14-9.78-1.63-10.7-.83-16.11.59-3.94,1.5-8.44-12.37-37.18-2-4.22-11.23-10.6-11.26-11-.29-5.59-2.6-6.41-4.69-9.75-1-1.65,1.09-5.76-7.1-8.3-1.33-.41-2.5.5-2.72-.33s-5.84-7.93-13.38-8.46a18.4,18.4,0,0,1-2.68,0c-.25-.16-.34-.37-.63-.46s-2.4,0-3.11-.13-2-.59-2.8-.68-3.89.87-4.95.53-3.36-2.61-4-2.8a3.82,3.82,0,0,0-1.85.28c-1.38-.87-8.45-1.44-8.63-1.58C516,503.33,490,515.16,490.49,515c-2.86-.56-8.3.25-13.08,3.86a4.08,4.08,0,0,0-1.46,2.6,15.21,15.21,0,0,0-5.47.87c-2.49.8-1.42,4.45-1.42,4.45-14.78,1.54-29.55,12.13-29.38,19.45.11,4.57-4.21,12.39-4.21,28.05,0,1.65-2.45,24.06-2.61,26.38-.79,11.5.3,12.6-1.72,26.58-.45,3.09,1.18,7.74,1.15,8.09s-4.28,4.42-4.67,7.15c-.26,1.76,1,6.46.84,7a8.62,8.62,0,0,0-.64,1.5,11.16,11.16,0,0,0-.12,2.29c-2,1.69-2.71,7.08-2.71,7.08.17,1.4,1.37,4.2,1.56,5.48.6,4-1.08,6.67-1.53,8.92-.06.31.94,12.64,3.06,15.3s7.14,5.1,7.14,5.1c1.52,2.48,1.79,3.69,9.56,4.2,0,0-2.49,7.21-2.81,8.93-.39,2.12,1.35,12.16-2.42,22-1.94,5.09-5.13,4.35-5.29,8.09-.12,2.7.4,7.29.26,11.6-.12,3.55-5.11,8.49-2.94,12.11.58,1,6.06,7,7.91,8.93s12.36,6.82,32.25,11.85S533,781,533,781c2.52-.17,32.9-8.41,38.34-9.79s12.5-7.82,12.5-7.82l.08.32c.13.48.8,25,.87,25,.43.46,7.76.91,8,.89,12-.92,5.28-5.94,7.88-20.59.17-.95,3.4-3.95,3.62-5.82s-1.11-3-1.32-3.74,2.88-4.17,1.57-7.22c-1.91-4.44,1.67-5.58,2.78-6.93,3.62-4.38-.63-6.63-.72-12.06,0-1.87,2.17-6.32,2.17-12.64,0-3.11,1.43-9.67.47-12.45-1.38-4,1.43-5,2-8.57C611.92,695.86,607.22,695.39,610.91,688Z"/><path class="cls-4" d="M472.44,453.78c1.15,2.13,4,7.25,3,10.12a139.3,139.3,0,0,1-7.76,15.39c-2.09,3,3.07,4.55,3.59,4.58,1.92.1,2.74,1.39,2.39,2.38s-1.58,2.25-1.45,3.14.6,2.17,1.36,2.47c1.77.68-.72,2.3-.05,4.09.92,2.44,2.57,1.1,2.64,2.58.05.85-2.23,8.62.09,10.62,6.88,5.93,11.28,1.13,19,4.06"/><path class="cls-4" d="M477.13,489.93a14.5,14.5,0,0,1-2.95,2.34"/><path class="cls-4" d="M492.26,514.33c.08,0,30,12.32,34.24,13.11,3.64.69-1.15,2,14.45,3.23,11.06.85,26.28,12.72,33.9,8.08-1.33-6.36-1.1-10.71-.72-10.71"/><path class="cls-4" d="M573.83,530.25A23.27,23.27,0,0,0,561.94,524"/><path class="cls-4" d="M537.39,514.68c3.18,1.63,1.84,12.36,1,15.81"/><path class="cls-4" d="M477.59,518.81s2.94-2.33,9.9,1.16,17.51,8.71,19.89,10.28c10.44,6.9,54,15.74,62.84,18.52,1.49.47,8-1.36,8.58-1.95,4.42-4.76,2.88-6.06,3.24-9.92"/><path class="cls-4" d="M585.35,544.78s-.34,12.83-4.42,19c-20.34,30.93-45.28,32.72-47.76,34.71-1.06.85-2.12,2.59-4.42,2.38s-5.56-2.13-6.2-3.57-13.3-9.14-14.66-11.34c-.05-.08-37.22-50.18-38.65-59.27"/><path class="cls-4" d="M540.39,566.53c2.27-2.45,7-1.5,8.67.6"/><path class="cls-4" d="M542.86,565.06c-.33,12.88-8.23,17.1-8.75,18.9-2.89,9.81-6.38,13.71-6.46,13.76-1.8,1.12-5.5-1-5.85-1.18"/><path class="cls-4" d="M578.8,546.82c-1.28,15.56-14.57,32.7-18.44,34.67"/><path class="cls-4" d="M581.54,562.79c14.79,17.46,10.66,26.49,12.09,32.21,2.85,11.37.77,5.85-.08,10.12-1.51,7.55-2.58,4.69-3.74,8.07-3.44,10-6.68,7.1-8.27,11,0,.1-5.83,30.52-5.67,36.67,0,.14,2.36,4.56-5.52,10.62-2.25,1.73,2.48,5.64-.9,12.58-.25.51-.76.93-.55,1.7.27,1,5.43,6.28,6,9.69,1.32,7.4.41,7.86.85,8.66,1.58,2.94-.44,2,.08,4.59.35,1.75,3-1.21,2.17,12.2-.17,2.8-.59,3.44-.17,4.76s2.68,9.26,2.68,10.19c0,2.3,2.63-2.11,2.21,8.5,0,1.07.68,3.91.68,4.68a8.84,8.84,0,0,0-.17,3.31c.34,1.83,1.7,4.67,1.7,6.29a30.68,30.68,0,0,1-.9,5.12c.13.48.8,25,.87,25,.43.46,7.76.91,8,.89,12-.92,5.27-5.94,7.88-20.59.17-.95,3.4-3.95,3.61-5.82s-1.11-3-1.32-3.74,2.89-4.17,1.57-7.22c-1.91-4.44,1.67-5.58,2.79-6.93,3.62-4.38-.63-6.63-.73-12.06,0-1.87,2.17-6.32,2.17-12.64,0-3.11,1.44-9.67.47-12.45-1.38-4,1.43-5,2-8.57.64-3.77-4.06-4.24-.36-11.64.61-1.23.76-3.94.76-13.38,0-6.29-3.35-19.64-3.35-42.92,0-15,1.52-6,1.29-22.62-.13-9.78-1.63-10.7-.83-16.11.59-3.94,1.5-8.44-12.36-37.18-2-4.22-11.24-10.6-11.26-11-.3-5.59-2.61-6.41-4.7-9.75-1-1.65,1.09-5.76-7.09-8.3-1.34-.41-2.51.5-2.72-.33s-5.85-7.93-13.39-8.46a18.26,18.26,0,0,1-2.67,0c-.26-.16-.34-.37-.64-.46s-2.4,0-3.1-.13-2-.59-2.81-.68-3.88.87-5,.53-3.35-2.61-4-2.8a3.87,3.87,0,0,0-1.86.28c-1.38-.87-8.45-1.44-8.63-1.58-12.57-9.77-38.6,2.06-38.09,1.85-2.85-.56-8.3.25-13.08,3.86a4,4,0,0,0-1.45,2.6,15.29,15.29,0,0,0-5.48.87c-2.49.8-1.42,4.45-1.42,4.45-14.77,1.54-29.55,12.13-29.38,19.45.11,4.57-4.2,12.39-4.2,28.05,0,1.65-2.46,24.06-2.62,26.38-.78,11.5.3,12.6-1.72,26.58-.44,3.09,1.18,7.74,1.15,8.09s-4.28,4.42-4.67,7.15c-.25,1.76,1,6.46.85,7a7.91,7.91,0,0,0-.64,1.5,11.47,11.47,0,0,0-.13,2.29c-2,1.69-2.7,7.08-2.7,7.08.16,1.4,1.36,4.2,1.55,5.48.6,4-1.08,6.67-1.53,8.92-.06.31.94,12.64,3.06,15.3s7.14,5.1,7.14,5.1c1.52,2.48,1.79,3.69,9.56,4.2,0,0-2.48,7.21-2.8,8.93-.4,2.12,1.34,12.16-2.42,22-1.94,5.09-5.13,4.35-5.29,8.09-.12,2.7.39,7.29.25,11.6-.11,3.55-5.11,8.49-2.93,12.11.57,1,6.05,7,7.9,8.93s12.37,6.82,32.25,11.85S533.15,781,533.15,781c2.53-.17,32.91-8.41,38.35-9.79S584,763.39,584,763.39"/><path class="cls-4" d="M600.86,769.06s-5.13,2.55-8,2.49A34.46,34.46,0,0,1,584.3,770"/><path class="cls-4" d="M605.45,582.64s-4.53,18.61-6.12,22.18S588.16,617,587.94,617.41"/><line class="cls-4" x1="598.18" y1="615.21" x2="586.5" y2="619.82"/><path class="cls-4" d="M608.76,597s-4.65,17-4.59,18.17c.16,3,3.49,2.39-10.07,14.33"/><path class="cls-4" d="M609.23,620.94s-2.64,13-3.78,15.55"/><path class="cls-4" d="M608.57,637.3s-.43,28.19-1.23,29.53-3.61,13.26-4.19,14"/><path class="cls-4" d="M469.24,581.49a61.37,61.37,0,0,1,1.28,6.76c.43,5.14,7.43,13.16,7.07,19.37-.12,2.23-3.24,6.38-4.17,7.59-1.48,1.94,1.26,4.34,1.05,7.52a70.59,70.59,0,0,1-1.78,8.67c-.2.44-1.34.76-.77,2.42,2.3,6.63-2.14,8.72-2.68,14-.19,1.85,2.81,3.82,2.81,6.37s-1.15,4.08-1.4,5.1,1,3-.13,5.1-2.74,3.19-3.06,4c-2.19,5.27.3,2.23-1,4.34-1,1.53.19,4-1.53,5s-3.44,1.34-3.57,2.16-2.1,1.28-2.29,2.11-.13,3.31-1,3.95-1.72.25-2.17,1-.51,4.21-2.8,4.46c-5.59.62-4-2.35-8.1,7.9"/><path class="cls-4" d="M435.4,695.07c5.37,2.29,10.89.94,11,.7"/><path class="cls-4" d="M426.35,684.52c3,1.34,1.43,3.72,5,5.89,1.08.66,9.19,6.93,15.93,3.13"/><path class="cls-4" d="M426,681.05a8,8,0,0,0,6.95,4.71c.58,0,6.26,5.09,10.45,5.23"/><path class="cls-4" d="M429.7,684.83c2.71,3.21,6.16,7.45,11.19,9.68"/><path class="cls-4" d="M426.73,669.32s.13,5.51,2.14,8.19"/><path class="cls-4" d="M426.8,666.37s4.9,6.29,10.93,7.57"/><path class="cls-4" d="M427.88,653.19a5.55,5.55,0,0,0,.29,1.88c.06.12-1,5,.38,7"/><path class="cls-4" d="M430.46,651.44a19.87,19.87,0,0,1-1.81-2s0,5.39,1.43,6.88"/><path class="cls-4" d="M469.24,647.84s-1.24,6.21-1.81,7.93"/><path class="cls-4" d="M470.65,659.31c-1.92,1.15-4.69,2.94-4.69,5.2"/><path class="cls-4" d="M471.77,632.85s-.9-.24-1.12,1.13-.8,4.27-.8,4.52"/><path class="cls-4" d="M490.72,562.37c-9.56,20.49-7.86,18.53-8.89,19.76-10,11.91-4.05,11-5.84,18"/><path class="cls-4" d="M453.37,547.71c10.3,7.89,9.45,10.41,12.62,20.27"/><path class="cls-4" d="M581.74,736.83c-2.83,15.57-93.26,25.11-107.46,22-11.17-2.42-45.68-15-37.6-24.29"/><path class="cls-4" d="M477.26,466.12s-4.62,8.09-4,13,1.38,6.73,2,7.46c1.32,1.6,2.65,4.39,2,6.37"/><path class="cls-4" d="M469.32,482.08c1-1.5,3.1-.43,3.41,0"/><path class="cls-4" d="M473.7,459.73c2.09.08,1.19-.35,4.77,1.07h-1.09c.78,1.86-1.36,2.31-1.36.92S475.89,460.66,473.7,459.73Z"/><path class="cls-4" d="M511.44,472.91s-3.82,4.84-4.67,5.69-1,2-2.38,1.7-3.9-2.54-4.08-4.68"/><path class="cls-4" d="M506.31,486.93c0,13-14.76,13-14.76,0S506.31,473.88,506.31,486.93Z"/><path class="cls-4" d="M488.92,444.18c33.86,42.58,20.11,28.36,36.23,46.92.37.43,11.55,21.71,14.1,23.3"/><path class="cls-4" d="M508.09,477.07c16.06,11.56,5.77,7.85,13.89,19.71,2.42,3.54,8.16,6.57,10.71,8.06"/><path class="cls-4" d="M495.89,461.13c-10.71-3.75-16.48-23.62-16.48-23.62"/><path class="cls-4" d="M475.83,446.18s5.78,12.47,17.85,14.95"/><path class="cls-4" d="M478.05,453.78c-2.2.68-12-1.07-7-11.13.38-.76,2.43,5.87-.38-1.36-4.26-11,29.85-27.06,34.08-27.28,12.06-.62,20.84-1.51,25.09-.2,4,1.22,18,10.18,24.11,19.83,6.4,10.12,10.58,24.48,10,30.6-1.5,14.34-11.82,38-4.59,51.49l1.65,3.1"/><path class="cls-4" d="M472.73,446.18c-1.43,4.52,3.25,6.28,4.4,6.33"/><path class="cls-4" d="M504.05,464.49c2.16,1.25,2.81,3.33,1.83,4.25-3,2.77-3,2.77-3.53,2.64-1.06-.26-1.32-1-.77-1.79s2,.17.85-1.61-1.74-3.36-3-3.49"/><path class="cls-4" d="M501.54,418.48c-2.91.5-4.86,6.13,2.3,19.35,8.61,15.91,25.79,32.59,29.72,55.79.77,4.59.58,6.79,2.4,9.75"/><path class="cls-4" d="M527.3,432.43c4.29,15.17,2.21,22.45,10.09,32.06,1.58,1.93,13.78,13.79,14.06,26.61,0,2.17.07,18.43,4.59,23.23"/><path class="cls-4" d="M549.06,445.24c4.78,20.28,8.38,13.24,7,25.63-.58,5.06-2.39,4.92-2.3,10.4s-1,13.52,0,15.51"/><path class="cls-4" d="M598,788.67c2,12.13-.11,10.22.49,13.53,1.36,7.47,1.46,3.18-.49,12-.29,1.32-.51,3.49-.63,3.91a27,27,0,0,0-1.11,2.55c-.17.77-.38,3.23-1.61,3.91s-5,2.85-5.53,3.06-1.61-.38-2,0-2.34,2.13-3.23,2.21c-4,.38-5.65,6.24-11.39,6.71"/><path class="cls-4" d="M584.94,788.76c.34,14.32-1.31,12.9-1.18,14.63,0,.55.42,8,0,8.84s-3.31,5.74-3.4,6.2c-1.81,10-3.47,7.69-6.2,12.67-.47.85-2.21,6.58-3,7.9s-2.67,4.46-3,5,.51,6-2.21,9.89"/><path class="cls-4" d="M431.77,762.05c1.14,3.69-2.75,5-2.84,8.5-.05,1.61,1.36,3.06,1.19,4.25-.27,1.86-4.95,13.38-4.94,15.29.11,19.56-3.95,28.26-4.5,39.77-1.12,23.54-1.78,21.59-1.78,24"/><path class="cls-4" d="M439.67,771s-5.22,33.47-5.26,36.32,17.76,18.36,17.76,18.36l39.77-5.1,10.11-36.2"/><polyline class="cls-4" points="442.05 772.58 437.3 806.37 452.51 822.34 489.81 816.9 498.3 784.54"/><path class="cls-4" d="M516,817c.92-1,5.3-1.51,6.53-2.32s3.06-8.75,3.49-10,0-22.18,0-22.18"/><path class="cls-4" d="M521.56,782.61c.17,7.38.88,24.5-1.75,30a18.87,18.87,0,0,1-2.89,3.41"/><path class="cls-4" d="M516.92,816c-1.67,2-22,20.73-25.62,31.4a50.91,50.91,0,0,1-3.06,6.49"/><path class="cls-4" d="M499.27,835c-.15,21.08.09,13.85.45,18.94"/><path class="cls-4" d="M502.58,830.84c-2.77,5.71.63,8-.53,13.59-.42,2-1.91.06-1.32,9.47"/><path class="cls-4" d="M516,817c12.49,4.7,22,8.68,39.16,9.2"/><path class="cls-4" d="M524.48,820.14s12.5,1.19,13.94,1.19"/><path class="cls-4" d="M539,822.94c14.29,1,29.92-7.13,29.65-6.93"/><path class="cls-4" d="M576.79,822.94c-6.68,7.36-8.77,9.5-26.94,12"/><path class="cls-4" d="M573.65,831.86s-2.37,4.67-3.57,5.86-4.85,3.7-6.76,4"/><path class="cls-4" d="M568.21,844c-1.27,2.3-3.94,6.58-6.29,7.82"/><path class="cls-4" d="M544.4,778.34s4.56,13.45,4.69,16.21,1.61,16.87,1.44,17.6S577.81,816,577.81,816l3.49-5.42"/><path class="cls-4" d="M548,777.41c8.25,27.32,4,22.82,5.86,32.78.1.55,24.41,2.41,24.41,2.41s5.22-11.71,5.69-15.41"/><path class="cls-4" d="M572.54,817.07c-23.47,12.23-9.07,4.35-5.31,4.26,5.29-.14,10.91-2.94,11.47-3.62"/><path class="cls-4" d="M575.52,822.05c-3.34,2.77-8.89,3.69-13.22,4.12"/><path class="cls-4" d="M584,809.38c4.14-3,4.5-.88,8.34-.8,2.17,0,2.81.25,3.4,0"/><path class="cls-4" d="M583.83,804.78s2.9-.24,3.88-1.09"/><path class="cls-4" d="M596.38,813.8c-4.35,1.26-4.35,1.26-5.18,2.24-.59.7-5.19-.44-7.24,1.93h-1.52"/><path class="cls-4" d="M586,828.08c-2.74-1-1.49-.77-5.61-.77,0,0-.68-2.16,0-2.72,3-2.43,9-2.12,9.43-.48"/><path class="cls-4" d="M588.05,822.94s1.41-2.24,2.13-2.26c.91,0,2.93-.08,3.23,0"/><path class="cls-4" d="M590.18,820.68s-.81-2.92,0-4.37"/><path class="cls-4" d="M584,818c-.73,1.52-.57,1.78-.58,5"/><path class="cls-4" d="M580.11,832c-9.67-2-3.67-.46-11,2.37"/><line class="cls-4" x1="580.4" y1="827.31" x2="578.07" y2="826"/><path class="cls-4" d="M580.4,826.66s1.62.23,2-.66"/><path class="cls-1" d="M492.65,615.75c1.4,2.23,1.25,4.56-1.09,6-2.8,1.75-4.78.1-5.88-1.65L482,614.31c-1.41-2.25-1.28-4.55,1.07-6,2.81-1.77,4.79-.14,5.9,1.64l.36.57-2,1.24-.35-.57c-.35-.54-1.21-1.87-2.7-.94s-.67,2.3-.33,2.84l3.66,5.82c.34.55,1.2,1.88,2.7.94s.67-2.29.32-2.84l-.37-.58,2-1.25Z"/><path class="cls-1" d="M501.41,616.22l-1.68-2.54-2.79,1.3.87,2.92-2.12,1L491.37,604l3.47-1.63,8.69,12.88Zm-5.08-3.37,2.15-1-4.42-6.65Z"/><path class="cls-1" d="M505.2,610.17c.23.7.83,2.1,2.46,1.57a1.9,1.9,0,0,0,1.1-2.59,2.72,2.72,0,0,0-2.61-1.82c-2.89-.3-4.41-.51-5.28-3.21-.83-2.54-.09-4.5,2.57-5.36,3.16-1,4.67,1,5.32,3l.17.51-2.17.7-.16-.51c-.21-.63-.88-2.1-2.47-1.59a1.82,1.82,0,0,0-1.07,2.68c.22.7.86,1.36,2.65,1.45,2.11.14,4.25.45,5.22,3.42.81,2.5.06,4.6-2.57,5.46-3.14,1-4.66-1.07-5.3-3l-.43-1.32,2.14-.69Z"/><path class="cls-1" d="M520.57,606.35c.5,2.58-.47,4.7-3.19,5.23-3.24.63-4.5-1.63-4.89-3.67l-1.31-6.75c-.5-2.6.46-4.7,3.17-5.22,3.27-.64,4.52,1.6,4.92,3.66l.12.66-2.3.44L517,600c-.12-.63-.44-2.18-2.17-1.85s-1.45,1.9-1.33,2.53l1.3,6.75c.13.63.45,2.19,2.18,1.85s1.45-1.89,1.33-2.53l-.13-.68,2.3-.44Z"/><polygon class="cls-1" points="549.66 609.58 549.27 611.8 541.16 610.36 541.55 608.14 544.41 608.65 546.29 597.97 543.53 597.48 543.92 595.26 551.89 596.67 551.5 598.89 548.73 598.4 546.85 609.08 549.66 609.58"/><path class="cls-1" d="M556.18,613.85l.46-3-2.94-.9-1.32,2.75-2.24-.69L557,598l3.67,1.13-2.21,15.37Zm-1.5-5.9,2.26.7,1.19-7.9Z"/><path class="cls-1" d="M572.15,606.24l-3.66,8.14c-1.16,2.58-3.07,3.56-5.62,2.44s-3-3.23-1.89-5.82l.62-1.38,2.06.92-.62,1.39c-.34.75-.82,2.15.74,2.85s2.33-.66,2.66-1.4l3.6-8-4.8-2.16.92-2.05,6.88,3.09Z"/><path class="cls-1" d="M571.86,616.3c-.38.63-1.06,2,.41,2.89a1.91,1.91,0,0,0,2.69-.85,2.77,2.77,0,0,0-.33-3.17c-1.67-2.38-2.49-3.68-1-6.1s3.36-3,5.74-1.56c2.85,1.73,2.27,4.23,1.18,6l-.27.46-2-1.18.28-.46c.35-.57,1-2-.4-2.91a1.82,1.82,0,0,0-2.73.93c-.39.63-.47,1.54.62,3,1.28,1.69,2.44,3.52.82,6.19-1.36,2.25-3.44,3.05-5.81,1.62-2.82-1.72-2.24-4.23-1.16-6l.72-1.18,1.93,1.17Z"/><path class="cls-1" d="M528.69,601.4a8.4,8.4,0,0,1-2.14-.54l.87,4-2.36.16.37-4.61a11.4,11.4,0,0,1-2.15-1.4l-1,11.41,2.33-.16.24-3,3.07-.21.65,3,2.34-.16L529,601.42Z"/><path class="cls-1" d="M537.75,597.46a2.25,2.25,0,0,1,.6,1.71l-.35,6.58a2,2,0,0,1-2.23,2l-1.53-.08.49-9.29a4.55,4.55,0,0,0-1.25.54,7.5,7.5,0,0,0-.68.62l-.43.42-.52,9.84,3.76.2a4,4,0,0,0,4.68-4.06l.36-6.71a4.72,4.72,0,0,0-.52-2.51C539.27,597,538.48,597.24,537.75,597.46Z"/><polygon class="cls-3" points="489.64 647.11 491.24 630.32 493.34 630.32 498.64 643.97 503.95 630.32 506.16 630.32 507.77 647.11 505.94 647.11 504.68 633.09 499.03 647.33 498.18 647.33 492.7 633.28 491.46 647.11 489.64 647.11"/><path class="cls-3" d="M520.2,635.67v11.44h-1.75l0-1.83a3.84,3.84,0,0,1-3.61,2c-3.26,0-4.06-2-4.06-4.72v-6.91h1.82v6.79c0,2.12.69,3.29,2.8,3.29s3-1.76,3-3.75v-6.33Z"/><path class="cls-3" d="M526.75,645.92c1.24,0,2.43-.54,2.43-1.9s-1.92-1.83-2.8-2.12-3.26-.83-3.26-3.24c0-2.09,1.83-3.19,3.68-3.19a5.16,5.16,0,0,1,3.74,1.34l-.87,1.1a4.49,4.49,0,0,0-2.87-1c-1.2,0-2,.56-2,1.63s1.16,1.54,2.43,2,3.68,1,3.68,3.43c0,2.19-1.83,3.48-4.19,3.48a5.06,5.06,0,0,1-4.24-2l.95-1.14A4.44,4.44,0,0,0,526.75,645.92Z"/><path class="cls-3" d="M534.36,633a1.25,1.25,0,1,1,1.27-1.24A1.23,1.23,0,0,1,534.36,633Zm-.9,2.67h1.8v11.42h-1.8Z"/><path class="cls-3" d="M543.66,647.38a5.57,5.57,0,0,1-5.67-6,6.11,6.11,0,0,1,10.17-4.4l-.8,1.41a4.72,4.72,0,0,0-3.53-1.31,4,4,0,0,0-4,4.28,4.08,4.08,0,0,0,4.16,4.36,4.52,4.52,0,0,0,3.51-1.51l.78,1.31A5.62,5.62,0,0,1,543.66,647.38Z"/><path class="cls-3" d="M557.36,645.6a4.81,4.81,0,0,1-3.75,1.75c-2.16,0-3.91-1.38-3.91-3.48,0-1.94,1.43-3.31,4.55-3.45l3.09-.15v-.51c0-1.92-1.29-2.78-3-2.78a6.84,6.84,0,0,0-3.38.9l-.61-1.29a8.44,8.44,0,0,1,4.06-1.12c3.34,0,4.77,1.73,4.77,4.95v6.69h-1.77Zm-3-3.87c-2.12.1-2.82.95-2.82,2.12a2.18,2.18,0,0,0,2.41,2.07,4.4,4.4,0,0,0,3.38-1.63v-2.71Z"/><rect class="cls-3" x="562.47" y="630.32" width="1.8" height="16.79"/><path class="cls-3" d="M488.75,676.6c-5,0-8.47-3.48-8.47-8.66a8.34,8.34,0,0,1,8.54-8.67,8.25,8.25,0,0,1,6,2.34l-.92,1.44a6.73,6.73,0,0,0-5-2.14c-3.94,0-6.72,2.82-6.72,7s2.85,7,6.72,7a6.82,6.82,0,0,0,5.18-2.1l.93,1.29A8.13,8.13,0,0,1,488.75,676.6Z"/><path class="cls-3" d="M497.34,664.9h1.8v1.94a3.11,3.11,0,0,1,2.9-2.16,3.45,3.45,0,0,1,1.21.19l-.12,1.71h-.07a3.35,3.35,0,0,0-1.24-.22,2.54,2.54,0,0,0-1.93,1,4.6,4.6,0,0,0-.75,3v5.91h-1.8Z"/><path class="cls-3" d="M509.75,676.56c-3.36,0-5.62-2.32-5.62-6a5.58,5.58,0,0,1,5.62-5.89,5.14,5.14,0,0,1,5.31,5.4,7.9,7.9,0,0,1-.08.95h-9a3.88,3.88,0,0,0,4.09,4,6.28,6.28,0,0,0,3.84-1.44l.78,1.07A6.13,6.13,0,0,1,509.75,676.56Zm-.07-10.37a3.59,3.59,0,0,0-3.68,3.48h7.23A3.38,3.38,0,0,0,509.68,666.19Z"/><path class="cls-3" d="M524.4,674.8a4.81,4.81,0,0,1-3.75,1.76c-2.16,0-3.92-1.39-3.92-3.49,0-1.94,1.44-3.31,4.55-3.45l3.1-.15V669c0-1.92-1.29-2.77-3-2.77a6.69,6.69,0,0,0-3.38.9l-.61-1.29a8.33,8.33,0,0,1,4.06-1.12c3.34,0,4.77,1.73,4.77,4.94v6.69h-1.78Zm-3-3.87c-2.12.1-2.82,1-2.82,2.12a2.18,2.18,0,0,0,2.41,2.07,4.42,4.42,0,0,0,3.38-1.63v-2.7Z"/><path class="cls-3" d="M532.53,676.56c-2.73,0-2.73-2.56-2.73-4.63v-5.5h-1.7v-1.51h1.7v-3.53h1.83v3.53h2.8v1.51H531.6v5.87a4.23,4.23,0,0,0,.37,2.26,1.37,1.37,0,0,0,1.17.44,3.21,3.21,0,0,0,1.26-.27l.1,1.46A4.81,4.81,0,0,1,532.53,676.56Z"/><path class="cls-3" d="M537.59,662.22a1.24,1.24,0,1,1,1.27-1.24A1.25,1.25,0,0,1,537.59,662.22Zm-.9,2.68h1.8v11.41h-1.8Z"/><polygon class="cls-3" points="540.39 664.9 542.26 664.9 545.94 673.98 549.59 664.9 551.46 664.9 546.67 676.31 545.16 676.31 540.39 664.9"/><path class="cls-3" d="M554.26,662.22a1.24,1.24,0,1,1,1.27-1.24A1.25,1.25,0,0,1,554.26,662.22Zm-.9,2.68h1.8v11.41h-1.8Z"/><path class="cls-3" d="M561.83,676.56c-2.73,0-2.73-2.56-2.73-4.63v-5.5h-1.7v-1.51h1.7v-3.53h1.83v3.53h2.8v1.51H560.9v5.87a4.23,4.23,0,0,0,.37,2.26,1.37,1.37,0,0,0,1.17.44,3.21,3.21,0,0,0,1.26-.27l.1,1.46A4.81,4.81,0,0,1,561.83,676.56Z"/><path class="cls-3" d="M502.07,691.42a1.24,1.24,0,1,1,1.27-1.24A1.24,1.24,0,0,1,502.07,691.42Zm-.9,2.68H503v11.41h-1.8Z"/><path class="cls-3" d="M516,698.6v6.91h-1.8v-6.79c0-2.11-.68-3.28-2.8-3.28s-3.07,1.68-3.07,3.65v6.42h-1.8V694.1h1.8V696h.08a3.77,3.77,0,0,1,3.55-2.07C515.19,693.88,516,695.88,516,698.6Z"/><path class="cls-3" d="M527.28,705.76c-2.72,0-2.72-2.56-2.72-4.63v-5.5h-1.71v-1.51h1.71V690.6h1.82v3.52h2.8v1.51h-2.82v5.87a4.24,4.24,0,0,0,.36,2.26,1.4,1.4,0,0,0,1.17.44,3.23,3.23,0,0,0,1.27-.27l.1,1.46A4.7,4.7,0,0,1,527.28,705.76Z"/><path class="cls-3" d="M540.91,698.6v6.91h-1.8v-6.79c0-2.11-.68-3.28-2.8-3.28s-3.06,1.68-3.06,3.65v6.42h-1.81V688.72h1.81V696h.07a3.77,3.77,0,0,1,3.55-2.07C540.13,693.88,540.91,695.88,540.91,698.6Z"/><path class="cls-3" d="M549.14,705.76c-3.36,0-5.63-2.31-5.63-6a5.59,5.59,0,0,1,5.63-5.89,5.13,5.13,0,0,1,5.3,5.4,8.74,8.74,0,0,1-.07,1h-9a3.89,3.89,0,0,0,4.09,4,6.32,6.32,0,0,0,3.85-1.44l.78,1.07A6.1,6.1,0,0,1,549.14,705.76Zm-.08-10.37a3.58,3.58,0,0,0-3.67,3.48h7.23A3.38,3.38,0,0,0,549.06,695.39Z"/><path class="cls-3" d="M492.79,734.72h-5v-16.8h4.41c3,0,5.38,1,5.38,4.21a3.87,3.87,0,0,1-2.75,3.68c2.51.41,3.89,1.9,3.89,4.19a4.43,4.43,0,0,1-2,3.91A7.11,7.11,0,0,1,492.79,734.72Zm-.66-15.26h-2.48v5.81h2.14c2,0,3.94-.6,3.94-3C495.73,720.16,494.23,719.46,492.13,719.46Zm.27,7.3h-2.75v6.4h2.85c2.29,0,4.38-.34,4.38-3.16C496.88,727.66,495,726.76,492.4,726.76Z"/><path class="cls-3" d="M501.67,723.3h1.8v2a3.11,3.11,0,0,1,2.9-2.17,3.39,3.39,0,0,1,1.22.2l-.13,1.7h-.07a3.35,3.35,0,0,0-1.24-.22,2.46,2.46,0,0,0-1.92,1,4.5,4.5,0,0,0-.76,3v5.92h-1.8Z"/><path class="cls-3" d="M508.46,729.05A6,6,0,1,1,514.4,735,5.75,5.75,0,0,1,508.46,729.05Zm10.05,0a4.11,4.11,0,1,0-4.11,4.38A4.05,4.05,0,0,0,518.51,729Z"/><polygon class="cls-3" points="524.77 734.72 521.09 723.3 522.94 723.3 525.84 732.38 529.2 723.28 530.7 723.28 534.04 732.4 536.91 723.3 538.76 723.3 534.96 734.72 533.19 734.72 529.9 725.69 526.54 734.72 524.77 734.72"/><path class="cls-3" d="M543.48,733.52c1.24,0,2.43-.53,2.43-1.89s-1.92-1.83-2.8-2.12-3.26-.83-3.26-3.24c0-2.09,1.83-3.19,3.68-3.19a5.2,5.2,0,0,1,3.75,1.34l-.88,1.1a4.49,4.49,0,0,0-2.87-1c-1.19,0-2,.56-2,1.63s1.17,1.53,2.43,1.95,3.68,1,3.68,3.43c0,2.19-1.83,3.48-4.19,3.48a5,5,0,0,1-4.23-2l.94-1.14A4.42,4.42,0,0,0,543.48,733.52Z"/><path class="cls-3" d="M554.89,735c-3.36,0-5.62-2.31-5.62-6a5.59,5.59,0,0,1,5.62-5.89,5.15,5.15,0,0,1,5.31,5.41,9,9,0,0,1-.07,1h-9a3.88,3.88,0,0,0,4.09,4,6.34,6.34,0,0,0,3.85-1.43l.77,1.07A6.12,6.12,0,0,1,554.89,735Zm-.07-10.37a3.58,3.58,0,0,0-3.67,3.48h7.22A3.38,3.38,0,0,0,554.82,724.59Z"/><path class="cls-3" d="M562.7,723.3h1.81v2a3.09,3.09,0,0,1,2.89-2.17,3.32,3.32,0,0,1,1.22.2l-.12,1.7h-.08a3.35,3.35,0,0,0-1.24-.22,2.48,2.48,0,0,0-1.92,1,4.51,4.51,0,0,0-.75,3v5.92H562.7Z"/><path class="cls-3" d="M575.24,664.9l-1.8,0-1.89,4.9A13.11,13.11,0,0,0,575.24,664.9Z"/><path class="cls-3" d="M569.74,678.38l.37-.9a20.22,20.22,0,0,0-.52-2.52,9.2,9.2,0,0,1-.39-2.21l-3.09-7.85-1.87,0,4.65,11.44-.64,1.49c-.65,1.55-1.07,1.58-1.65,1.58a3.62,3.62,0,0,1-1.15-.27l-.36,1.53a4.22,4.22,0,0,0,1.78.39C568.08,681,568.86,680.47,569.74,678.38Z"/><line class="cls-4" x1="391.31" y1="853.97" x2="595.7" y2="853.97"/><path class="cls-1" d="M281.87,596.31c2,0,3.48-1.07,3.48-3s-1.41-2.6-3-3.28L279.9,589a4.09,4.09,0,0,1-2.83-4.09c0-2.83,2.58-4.31,5.16-4.31a5.89,5.89,0,0,1,4.6,2.16L285.76,584a4.64,4.64,0,0,0-3.62-1.8c-1.8,0-3.21,1-3.21,2.6s1.21,2.41,2.33,2.88l2.29,1c2,.88,3.67,2,3.67,4.45,0,3-2.31,4.82-5.57,4.82a6.47,6.47,0,0,1-5.23-3l1.24-1.19A5.66,5.66,0,0,0,281.87,596.31Z"/><path class="cls-1" d="M299.37,590.69v6.91h-1.8v-6.79c0-2.12-.68-3.29-2.8-3.29s-3.07,1.68-3.07,3.66v6.42h-1.8V586.19h1.8V588h.07a3.8,3.8,0,0,1,3.56-2.07C298.59,586,299.37,588,299.37,590.69Z"/><path class="cls-1" d="M301.9,591.93a6,6,0,1,1,5.94,5.91A5.8,5.8,0,0,1,301.9,591.93Zm10.05,0a4.11,4.11,0,1,0-4.11,4.38A4.05,4.05,0,0,0,312,591.88Z"/><polygon class="cls-1" points="318.2 597.6 314.53 586.19 316.38 586.19 319.27 595.26 322.63 586.16 324.14 586.16 327.48 595.29 330.35 586.19 332.2 586.19 328.4 597.6 326.62 597.6 323.34 588.57 319.98 597.6 318.2 597.6"/><path class="cls-1" d="M334.21,586.16H336v2h0A4.88,4.88,0,0,1,340.2,586c3.51,0,5.55,2.53,5.55,5.91s-2.31,6-5.5,6a4.65,4.65,0,0,1-4.21-2.19l0,0v6.55h-1.8Zm9.67,5.72c0-2.48-1.44-4.4-4-4.4a4.11,4.11,0,0,0-4,4.4c0,2.46,1.36,4.38,3.92,4.38S343.88,594.34,343.88,591.88Z"/><path class="cls-1" d="M354.92,596.09a4.78,4.78,0,0,1-3.74,1.75c-2.17,0-3.92-1.38-3.92-3.48,0-1.94,1.43-3.31,4.55-3.45l3.09-.15v-.51c0-1.92-1.29-2.77-3-2.77a6.77,6.77,0,0,0-3.38.9l-.61-1.29A8.38,8.38,0,0,1,352,586c3.33,0,4.77,1.73,4.77,4.94v6.69H355Zm-3-3.87c-2.12.1-2.83.95-2.83,2.12a2.18,2.18,0,0,0,2.41,2.07,4.4,4.4,0,0,0,3.38-1.63v-2.7Z"/><path class="cls-1" d="M364.78,597.87a5.57,5.57,0,0,1-5.67-6,6.12,6.12,0,0,1,10.17-4.41l-.8,1.41A4.78,4.78,0,0,0,365,587.6a4,4,0,0,0-4,4.28,4.08,4.08,0,0,0,4.16,4.36,4.52,4.52,0,0,0,3.51-1.51l.77,1.31A5.58,5.58,0,0,1,364.78,597.87Z"/><polygon class="cls-1" points="373.32 597.6 371.52 597.6 371.52 580.81 373.32 580.81 373.32 591.08 378.31 586.19 380.55 586.19 375.95 590.52 381.21 597.6 379.04 597.6 374.73 591.66 373.32 593 373.32 597.6"/><path class="cls-1" d="M384.32,595.34h1.92L384.15,601h-1.41C383.27,599.11,383.81,597.24,384.32,595.34Z"/><polygon class="cls-1" points="289.66 612.83 285.4 626.83 283.55 626.83 278.78 610.01 280.68 610.01 284.63 623.96 288.76 610.01 290.54 610.01 294.82 624.1 298.86 610.01 300.76 610.01 295.77 626.8 293.92 626.8 289.66 612.83"/><path class="cls-1" d="M307,627.05c-3.35,0-5.62-2.31-5.62-6a5.58,5.58,0,0,1,5.62-5.89,5.14,5.14,0,0,1,5.31,5.4,8.74,8.74,0,0,1-.07.95h-9a3.89,3.89,0,0,0,4.09,4,6.32,6.32,0,0,0,3.85-1.44l.77,1.07A6.12,6.12,0,0,1,307,627.05Zm-.07-10.37a3.58,3.58,0,0,0-3.67,3.48h7.22A3.37,3.37,0,0,0,306.94,616.68Z"/><path class="cls-1" d="M315,610h1.8v7.37h0a4.88,4.88,0,0,1,4.16-2.21c3.51,0,5.53,2.51,5.53,5.89s-2.29,6-5.48,6a4.7,4.7,0,0,1-4.23-2.22h-.05v2H315Zm9.66,11.07c0-2.48-1.44-4.4-4-4.4a4.1,4.1,0,0,0-4,4.4c0,2.46,1.38,4.38,3.91,4.38S324.61,623.54,324.61,621.08Z"/><path class="cls-1" d="M329.21,615.37H331v2h0a4.89,4.89,0,0,1,4.16-2.21c3.51,0,5.55,2.53,5.55,5.91s-2.31,6-5.5,6a4.67,4.67,0,0,1-4.21-2.19l0,0v6.55h-1.8Zm9.66,5.71c0-2.48-1.44-4.4-4-4.4a4.1,4.1,0,0,0-4,4.4c0,2.46,1.36,4.38,3.91,4.38S338.87,623.54,338.87,621.08Z"/><path class="cls-1" d="M349.92,625.29a4.81,4.81,0,0,1-3.75,1.76c-2.17,0-3.92-1.39-3.92-3.48s1.44-3.31,4.55-3.46l3.09-.15v-.51c0-1.92-1.29-2.77-3-2.77a6.78,6.78,0,0,0-3.39.9l-.61-1.29a8.41,8.41,0,0,1,4.07-1.12c3.33,0,4.77,1.73,4.77,4.94v6.69h-1.78Zm-3-3.87c-2.12.1-2.82,1-2.82,2.12a2.17,2.17,0,0,0,2.4,2.07,4.44,4.44,0,0,0,3.39-1.63v-2.7Z"/><path class="cls-1" d="M359.77,627.07a5.58,5.58,0,0,1-5.67-6,5.76,5.76,0,0,1,5.77-5.94,5.83,5.83,0,0,1,4.41,1.53l-.81,1.42a4.72,4.72,0,0,0-3.53-1.32,4,4,0,0,0-4,4.28,4.08,4.08,0,0,0,4.16,4.36,4.52,4.52,0,0,0,3.51-1.51l.78,1.32A5.64,5.64,0,0,1,359.77,627.07Z"/><polygon class="cls-1" points="368.31 626.8 366.51 626.8 366.51 610.01 368.31 610.01 368.31 620.28 373.3 615.39 375.54 615.39 370.94 619.72 376.2 626.8 374.03 626.8 369.73 620.87 368.31 622.2 368.31 626.8"/><path class="cls-1" d="M389.17,625.29a4.81,4.81,0,0,1-3.75,1.76c-2.16,0-3.92-1.39-3.92-3.48s1.44-3.31,4.55-3.46l3.1-.15v-.51c0-1.92-1.29-2.77-3-2.77a6.73,6.73,0,0,0-3.38.9l-.61-1.29a8.33,8.33,0,0,1,4.06-1.12c3.34,0,4.77,1.73,4.77,4.94v6.69h-1.78Zm-3-3.87c-2.12.1-2.82,1-2.82,2.12a2.18,2.18,0,0,0,2.41,2.07,4.4,4.4,0,0,0,3.38-1.63v-2.7Z"/><path class="cls-1" d="M403.63,619.89v6.91h-1.8V620c0-2.11-.69-3.28-2.8-3.28s-3.07,1.68-3.07,3.65v6.42h-1.8V615.39H396v1.85H396a3.79,3.79,0,0,1,3.56-2.07C402.85,615.17,403.63,617.17,403.63,619.89Z"/><path class="cls-1" d="M415.92,624.83h0a4.82,4.82,0,0,1-4.28,2.22c-3.48,0-5.45-2.51-5.45-5.94s2.19-5.94,5.54-5.94a4.7,4.7,0,0,1,4.12,2.17h.05V610h1.8V626.8h-1.75Zm0-3.77c0-2.48-1.42-4.36-3.95-4.36s-4,1.85-4,4.34,1.46,4.45,4,4.45S415.92,623.52,415.92,621.06Z"/><path class="cls-1" d="M303.26,656.25c-2.73,0-2.73-2.56-2.73-4.62v-5.5h-1.7v-1.51h1.7v-3.53h1.83v3.53h2.8v1.51h-2.83V652a4.19,4.19,0,0,0,.37,2.26,1.36,1.36,0,0,0,1.17.44,3.21,3.21,0,0,0,1.26-.27l.1,1.46A4.65,4.65,0,0,1,303.26,656.25Z"/><path class="cls-1" d="M316.89,649.09V656h-1.8v-6.79c0-2.12-.69-3.29-2.8-3.29s-3.07,1.68-3.07,3.65V656h-1.8v-16.8h1.8v7.23h.07a3.8,3.8,0,0,1,3.56-2.07C316.11,644.37,316.89,646.37,316.89,649.09Z"/><path class="cls-1" d="M325.11,656.25c-3.36,0-5.62-2.31-5.62-6a5.58,5.58,0,0,1,5.62-5.89,5.15,5.15,0,0,1,5.31,5.41,7.9,7.9,0,0,1-.08,1h-9a3.87,3.87,0,0,0,4.09,4,6.3,6.3,0,0,0,3.84-1.43l.78,1.07A6.12,6.12,0,0,1,325.11,656.25ZM325,645.88a3.6,3.6,0,0,0-3.68,3.48h7.23A3.38,3.38,0,0,0,325,645.88Z"/><polygon class="cls-1" points="341.15 640.77 336.26 640.77 336.26 639.21 347.84 639.21 347.84 640.77 342.97 640.77 342.97 656.01 341.15 656.01 341.15 640.77"/><path class="cls-1" d="M359.33,649.09V656h-1.8v-6.79c0-2.12-.68-3.29-2.8-3.29s-3.07,1.68-3.07,3.65V656h-1.8v-16.8h1.8v7.23h.07a3.8,3.8,0,0,1,3.56-2.07C358.55,644.37,359.33,646.37,359.33,649.09Z"/><path class="cls-1" d="M363.76,641.92a1.25,1.25,0,1,1,1.26-1.25A1.23,1.23,0,0,1,363.76,641.92Zm-.91,2.67h1.81V656h-1.81Z"/><path class="cls-1" d="M368.18,644.59H370v1.95a3.09,3.09,0,0,1,2.89-2.17,3.32,3.32,0,0,1,1.22.2l-.12,1.7h-.08a3.35,3.35,0,0,0-1.24-.22,2.48,2.48,0,0,0-1.92,1,4.51,4.51,0,0,0-.75,3V656h-1.81Z"/><path class="cls-1" d="M384.73,654h0a4.84,4.84,0,0,1-4.28,2.21c-3.48,0-5.46-2.51-5.46-5.94s2.19-5.94,5.55-5.94a4.72,4.72,0,0,1,4.12,2.17h0v-7.33h1.81V656h-1.76Zm0-3.78c0-2.48-1.41-4.35-3.94-4.35s-4,1.85-4,4.33,1.46,4.45,4,4.45S384.73,652.72,384.73,650.26Z"/><path class="cls-1" d="M325.35,680.51h-7.67l-1.87,4.7h-1.9l7-16.84h1.39l7,16.84h-2.07Zm-3.82-9.66-3.21,8.06h6.4Z"/><path class="cls-1" d="M339.71,683a4.58,4.58,0,0,1-4.16,2.17c-3,0-5.5-2-5.5-5.77a5.42,5.42,0,0,1,5.45-5.79,4.71,4.71,0,0,1,4.23,2.19h0l0-2h1.8v9c0,2.55-.37,3.91-1.1,4.91a5.68,5.68,0,0,1-5,2.34,8.15,8.15,0,0,1-4.94-1.73l.9-1.29a7.26,7.26,0,0,0,4.14,1.49c3.13,0,4.21-2,4.21-4.9V683Zm.12-3.63c0-2.6-1.56-4.23-4-4.23s-3.92,1.87-3.92,4.23,1.39,4.29,4,4.29S339.83,681.73,339.83,679.34Z"/><path class="cls-1" d="M349.81,685.45c-3.36,0-5.63-2.31-5.63-6a5.59,5.59,0,0,1,5.63-5.89,5.13,5.13,0,0,1,5.3,5.4,9,9,0,0,1-.07.95h-9a3.88,3.88,0,0,0,4.09,4,6.34,6.34,0,0,0,3.85-1.43l.78,1.07A6.13,6.13,0,0,1,349.81,685.45Zm-.08-10.37a3.59,3.59,0,0,0-3.67,3.49h7.23A3.39,3.39,0,0,0,349.73,675.08Z"/><path class="cls-1" d="M361.66,679.54a6,6,0,1,1,5.94,5.91A5.8,5.8,0,0,1,361.66,679.54Zm10,0a4.11,4.11,0,1,0-4.11,4.38A4.05,4.05,0,0,0,371.71,679.49Z"/><path class="cls-1" d="M376.55,675.33H374.9v-1.51h1.65v-1.34c0-2.36.8-4.31,3.46-4.31a5.2,5.2,0,0,1,1.68.22l-.18,1.41a5.22,5.22,0,0,0-1.26-.19c-1.68,0-1.9,1.29-1.9,2.75v1.46h2.82v1.51h-2.82v9.88h-1.8Z"/><path class="cls-1" d="M320.82,717.58a3.28,3.28,0,0,0,1.1.17c1.55,0,1.8-1.51,1.8-3.22V697.62h1.82v16.82a7,7,0,0,1-.65,3.48,2.89,2.89,0,0,1-2.49,1.41,3.7,3.7,0,0,1-1.6-.27Z"/><path class="cls-1" d="M335.81,712.9a4.81,4.81,0,0,1-3.75,1.76,3.61,3.61,0,0,1-3.91-3.49c0-1.94,1.43-3.3,4.55-3.45l3.09-.15v-.51c0-1.92-1.29-2.77-3-2.77a6.73,6.73,0,0,0-3.38.9l-.61-1.29a8.33,8.33,0,0,1,4.06-1.12c3.34,0,4.77,1.73,4.77,4.94v6.69h-1.77Zm-3-3.87c-2.11.1-2.82,1-2.82,2.12a2.18,2.18,0,0,0,2.41,2.07,4.4,4.4,0,0,0,3.38-1.63v-2.7Z"/><polygon class="cls-1" points="338.81 703 340.68 703 344.35 712.08 348 703 349.88 703 345.08 714.41 343.57 714.41 338.81 703"/><path class="cls-1" d="M358.49,712.9a4.81,4.81,0,0,1-3.75,1.76,3.61,3.61,0,0,1-3.91-3.49c0-1.94,1.43-3.3,4.55-3.45l3.09-.15v-.51c0-1.92-1.29-2.77-3-2.77a6.73,6.73,0,0,0-3.38.9l-.61-1.29a8.33,8.33,0,0,1,4.06-1.12c3.34,0,4.77,1.73,4.77,4.94v6.69h-1.77Zm-3-3.87c-2.11.1-2.82,1-2.82,2.12a2.18,2.18,0,0,0,2.41,2.07,4.4,4.4,0,0,0,3.38-1.63v-2.7Z"/><path class="cls-1" d="M368.3,713.12c2,0,3.48-1.07,3.48-3s-1.41-2.6-3-3.28l-2.48-1.07a4.08,4.08,0,0,1-2.82-4.09c0-2.83,2.58-4.31,5.16-4.31a5.85,5.85,0,0,1,4.59,2.17l-1.07,1.21a4.64,4.64,0,0,0-3.62-1.8c-1.8,0-3.21.95-3.21,2.61s1.21,2.41,2.33,2.87l2.29,1c2,.88,3.67,2.05,3.67,4.46,0,3-2.31,4.81-5.57,4.81a6.47,6.47,0,0,1-5.23-3l1.24-1.19A5.66,5.66,0,0,0,368.3,713.12Z"/><path class="cls-1" d="M381.2,714.68a5.57,5.57,0,0,1-5.67-6,6.12,6.12,0,0,1,10.17-4.41l-.8,1.41a4.78,4.78,0,0,0-3.53-1.31,4,4,0,0,0-4,4.28,4.08,4.08,0,0,0,4.16,4.36,4.49,4.49,0,0,0,3.5-1.51l.78,1.31A5.58,5.58,0,0,1,381.2,714.68Z"/><path class="cls-1" d="M387.94,703h1.8v1.94a3.11,3.11,0,0,1,2.9-2.16,3.45,3.45,0,0,1,1.21.19l-.12,1.71h-.07a3.35,3.35,0,0,0-1.24-.22,2.51,2.51,0,0,0-1.93,1,4.55,4.55,0,0,0-.75,3v5.91h-1.8Z"/><path class="cls-1" d="M396.68,700.32a1.24,1.24,0,1,1,1.26-1.24A1.22,1.22,0,0,1,396.68,700.32Zm-.91,2.68h1.81v11.41h-1.81Z"/><path class="cls-1" d="M401.23,703H403v2h0a4.88,4.88,0,0,1,4.16-2.21c3.51,0,5.55,2.53,5.55,5.91s-2.31,6-5.5,6a4.66,4.66,0,0,1-4.21-2.2l0,0V719h-1.8Zm9.66,5.72c0-2.48-1.44-4.4-4-4.4a4.11,4.11,0,0,0-4,4.4c0,2.46,1.37,4.38,3.92,4.38S410.89,711.15,410.89,708.69Z"/><path class="cls-1" d="M418.48,714.66c-2.73,0-2.73-2.56-2.73-4.63v-5.5h-1.7V703h1.7v-3.53h1.83V703h2.8v1.51h-2.83v5.87a4.23,4.23,0,0,0,.37,2.26,1.38,1.38,0,0,0,1.17.44,3.21,3.21,0,0,0,1.26-.27l.1,1.46A4.78,4.78,0,0,1,418.48,714.66Z"/><polygon class="cls-1" points="107.52 130.82 104.17 134.38 103.03 133.31 110.97 124.88 112.11 125.95 108.77 129.49 119.86 139.93 118.61 141.26 107.52 130.82"/><path class="cls-1" d="M127.52,124.24l4.24,5.46-1.42,1.1-4.16-5.36c-1.3-1.67-2.56-2.17-4.23-.87s-1.39,3.21-.18,4.76l3.94,5.07-1.42,1.11L114,122.25l1.43-1.1,4.43,5.7.06,0a3.79,3.79,0,0,1,1.53-3.81C124,121,125.85,122.09,127.52,124.24Z"/><path class="cls-1" d="M138.4,126.11c-3,1.61-6,.68-7.81-2.55a5.58,5.58,0,0,1,2.09-7.86,5.14,5.14,0,0,1,7.25,2.18c.2.37.4.87.4.87l-7.9,4.33a3.88,3.88,0,0,0,5.52,1.55,6.3,6.3,0,0,0,2.68-3.1l1.19.56A6.13,6.13,0,0,1,138.4,126.11Zm-5.05-9a3.57,3.57,0,0,0-1.55,4.81l6.33-3.47A3.36,3.36,0,0,0,133.35,117.06Z"/><polygon class="cls-1" points="147.58 119.83 153 103.98 144.06 106.53 143.62 104.99 154.81 101.79 155.15 102.99 149.59 119.08 159.12 116.36 159.56 117.91 147.97 121.21 147.58 119.83"/><path class="cls-1" d="M166,117.38c-3.34.39-5.85-1.64-6.28-5.29a5.58,5.58,0,0,1,4.91-6.5,5.13,5.13,0,0,1,5.89,4.75c0,.41,0,1,0,1l-8.94,1a3.89,3.89,0,0,0,4.53,3.52,6.32,6.32,0,0,0,3.65-1.87l.9,1A6.12,6.12,0,0,1,166,117.38Zm-1.27-10.29a3.59,3.59,0,0,0-3.25,3.89l7.18-.84A3.39,3.39,0,0,0,164.76,107.09Z"/><path class="cls-1" d="M182.89,110l-.28,6.91-1.8-.07.28-6.79c.09-2.12-.55-3.31-2.66-3.4s-3.14,1.55-3.22,3.52L175,116.6l-1.8-.07.47-11.41,1.8.08-.08,1.84h.07a3.78,3.78,0,0,1,3.64-1.92C182.31,105.26,183,107.29,182.89,110Z"/><path class="cls-1" d="M190.48,112.29a6,6,0,1,1,4.17,7.27A5.73,5.73,0,0,1,190.48,112.29Zm9.71,2.6a4.11,4.11,0,1,0-5.13,3.15A4.1,4.1,0,0,0,200.19,114.89Z"/><path class="cls-1" d="M206.5,112.86l-1.53-.63.58-1.39,1.53.63.51-1.24c.9-2.18,2.39-3.67,4.84-2.66a4.88,4.88,0,0,1,1.47.85l-.7,1.23a5.1,5.1,0,0,0-1.09-.66c-1.56-.64-2.25.47-2.81,1.82l-.56,1.35,2.61,1.08-.57,1.39-2.61-1.08-3.77,9.13-1.67-.68Z"/><path class="cls-1" d="M222.59,124.65l.88-1.29,5.45,3.77-3.63,5.24c-.44.14-3.37.9-7.29-1.81s-5-7.69-2.07-12a8.71,8.71,0,0,1,15.77,4l-1.73.32a7,7,0,0,0-3.07-5.23c-3-2.09-7-1.55-9.43,2a6.58,6.58,0,0,0,1.58,9.61c3.09,2.13,5.17,1.56,5.17,1.56l2.35-3.4Z"/><path class="cls-1" d="M233.71,128.16l1.32,1.23-7.79,8.35-1.32-1.23Zm2.48-1.34a1.24,1.24,0,1,1,1.78,0A1.23,1.23,0,0,1,236.19,126.82Z"/><path class="cls-1" d="M231.46,142.47c-1.84-2,0-3.74,1.57-5.13l4.06-3.72-1.15-1.25,1.11-1,1.15,1.25,2.6-2.38,1.23,1.35-2.6,2.38,1.89,2.06-1.11,1L238.3,135l-4.32,4a4.11,4.11,0,0,0-1.42,1.8,1.34,1.34,0,0,0,.46,1.15,3.4,3.4,0,0,0,1,.76l-1,1A4.82,4.82,0,0,1,231.46,142.47Z"/><path class="cls-6" d="M401.43,184.87l-22.75-5.09c-2.09-.46-3.39-1.68-3.05-3.8L401.87,11.23a4.05,4.05,0,0,1,4.57-3.37l249.08,35.3a4.05,4.05,0,0,1,3.41,4.77L624,230.1a4,4,0,0,1-4.85,3.19l-30.43-6.67"/><polygon class="cls-6" points="454.53 303.31 354.93 275.24 393.5 243.14 487.06 266.72 454.53 303.31"/><path class="cls-6" d="M609.38,224.38,389.46,176.29a4,4,0,0,1-3.13-4.59L409.62,24.78a4.06,4.06,0,0,1,4.58-3.38L642,53.93a4,4,0,0,1,3.4,4.78L614.23,221.18A4.06,4.06,0,0,1,609.38,224.38Z"/><polyline class="cls-6" points="588.73 226.74 590.36 223.88 403.53 183.12 401.43 184.87"/><line class="cls-6" x1="401.39" y1="184.89" x2="400.36" y2="184.66"/><polyline class="cls-6" points="588.73 226.74 586.37 230.89 397.17 188.41 401.39 184.9"/><line class="cls-6" x1="401.39" y1="184.89" x2="401.43" y2="184.87"/><polygon class="cls-6" points="329.65 222.24 342.71 225.47 351.54 219.21 338.7 216.09 329.65 222.24"/><polygon class="cls-6" points="345.46 226.15 357.27 229.06 366.16 222.77 354.3 219.88 345.46 226.15"/><polygon class="cls-6" points="360.51 229.87 372.71 232.88 381.66 226.54 369.41 223.56 360.51 229.87"/><polygon class="cls-6" points="375.78 233.64 392.92 237.87 401.94 231.48 384.74 227.29 375.78 233.64"/><polygon class="cls-6" points="395.51 238.51 477.21 258.69 484.22 251.51 404.54 232.11 395.51 238.51"/><polygon class="cls-6" points="479.75 259.32 498.63 263.98 505.7 256.74 486.76 252.13 479.75 259.32"/><polygon class="cls-6" points="501.13 264.6 515.9 268.25 523.02 260.96 508.21 257.35 501.13 264.6"/><polygon class="cls-6" points="519.69 269.18 534.53 272.85 538.38 268.9 523.5 265.28 519.69 269.18"/><polygon class="cls-6" points="559.85 269.92 553.8 277.61 538.37 273.8 544.38 266.16 559.85 269.92"/><polygon class="cls-6" points="556.57 278.29 559.38 274.01 575.18 277.86 572.34 282.19 556.57 278.29"/><polygon class="cls-6" points="340.74 214.7 371.39 222.16 378.55 217.09 347.96 209.78 340.74 214.7"/><polygon class="cls-6" points="389.35 226.53 402.58 229.75 409.89 224.57 396.59 221.4 389.35 226.53"/><polygon class="cls-6" points="405.76 230.52 413.08 225.34 426.22 228.47 418.83 233.71 405.76 230.52"/><polygon class="cls-6" points="434.47 237.51 441.95 232.22 429 229.14 421.6 234.38 434.47 237.51"/><line class="cls-6" x1="444.71" y1="232.89" x2="445.04" y2="232.6"/><polygon class="cls-6" points="444.71 232.89 457.9 236.04 451.37 241.63 438.23 238.43 444.71 232.89"/><line class="cls-6" x1="453.89" y1="242.52" x2="454.14" y2="242.3"/><polygon class="cls-6" points="437.45 229.37 443.66 224.06 457.55 227.38 451.32 232.7 437.45 229.37"/><polygon class="cls-6" points="421.48 225.53 427.67 220.25 440.87 223.4 434.66 228.7 421.48 225.53"/><polygon class="cls-6" points="406.21 221.87 412.38 216.59 424.88 219.58 418.7 224.87 406.21 221.87"/><polygon class="cls-6" points="391.64 218.37 397.79 213.11 409.6 215.93 403.43 221.2 391.64 218.37"/><polygon class="cls-6" points="357.28 203.44 350.03 208.37 373.59 214.03 379.72 208.79 357.28 203.44"/><polygon class="cls-6" points="382.51 209.46 376.37 214.7 388.86 217.7 395.01 212.44 382.51 209.46"/><polygon class="cls-6" points="377.75 206.8 383.05 202.27 365.1 198.12 358.86 202.36 377.75 206.8"/><polygon class="cls-6" points="367.29 196.63 378.71 199.26 384.02 194.73 373.56 192.36 367.29 196.63"/><polygon class="cls-6" points="374.93 191.43 387.97 194.39 391.16 191.66 378.74 188.84 374.93 191.43"/><polygon class="cls-6" points="390.08 194.87 402.74 197.74 405.93 195.01 393.28 192.14 390.08 194.87"/><polygon class="cls-6" points="404.85 198.22 418.19 201.25 421.38 198.52 408.04 195.49 404.85 198.22"/><polygon class="cls-6" points="420.3 201.73 432.95 204.6 436.14 201.87 423.49 199 420.3 201.73"/><polygon class="cls-6" points="450.53 208.59 463.87 211.62 467.06 208.9 453.73 205.87 450.53 208.59"/><polygon class="cls-6" points="451.61 205.39 438.26 202.35 435.06 205.08 448.42 208.11 451.61 205.39"/><polygon class="cls-6" points="466 212.09 480.03 215.29 483.22 212.56 469.18 209.38 466 212.09"/><polygon class="cls-6" points="482.14 215.77 496.19 218.96 499.38 216.23 485.33 213.04 482.14 215.77"/><polygon class="cls-6" points="393.42 202.66 398.78 198.08 386.84 195.37 381.52 199.91 393.42 202.66"/><polygon class="cls-6" points="393.11 210.4 380.55 207.46 385.86 202.91 398.47 205.83 393.11 210.4"/><polygon class="cls-6" points="407.75 213.84 413.16 209.22 401.27 206.48 395.91 211.06 407.75 213.84"/><polygon class="cls-6" points="428.56 212.78 423.1 217.44 410.55 214.5 415.97 209.87 428.56 212.78"/><polygon class="cls-6" points="439.14 221.21 425.89 218.1 431.36 213.43 444.65 216.5 439.14 221.21"/><polygon class="cls-6" points="460.05 220.06 454.49 224.81 441.94 221.87 447.46 217.15 460.05 220.06"/><polygon class="cls-6" points="469.83 228.41 475.45 223.62 462.86 220.71 457.28 225.47 469.83 228.41"/><polygon class="cls-6" points="486.59 232.35 492.26 227.5 478.25 224.26 472.63 229.07 486.59 232.35"/><polygon class="cls-6" points="502.63 236.12 508.36 231.22 495.07 228.15 489.38 233.01 502.63 236.12"/><polygon class="cls-6" points="454.11 233.37 467.29 236.53 473.54 231.19 460.34 228.04 454.11 233.37"/><polygon class="cls-6" points="386.72 225.89 393.95 220.77 381.82 217.87 374.64 222.95 386.72 225.89"/><polygon class="cls-6" points="454.14 242.3 467.68 245.6 474.29 239.96 460.69 236.71 454.14 242.3"/><polygon class="cls-6" points="484.29 249.64 490.97 243.94 477.77 240.79 471.15 246.44 484.29 249.64"/><polygon class="cls-6" points="501.59 253.85 507.66 247.93 493.81 244.62 487.79 250.49 501.59 253.85"/><polygon class="cls-6" points="518.92 258.07 525.06 252.08 511.2 248.77 505.12 254.71 518.92 258.07"/><polygon class="cls-6" points="528.49 252.9 523.04 259.08 537 262.48 542.5 256.25 528.49 252.9"/><polygon class="cls-6" points="578.62 272.61 583.01 265.92 545.9 257.06 540.4 263.3 578.62 272.61"/><polygon class="cls-6" points="587.88 258.5 560.48 251.96 555.41 257.7 583.91 264.54 587.88 258.5"/><polygon class="cls-6" points="538.02 253.52 543.07 247.8 556.36 250.97 551.32 256.69 538.02 253.52"/><polygon class="cls-6" points="520.63 249.34 525.66 243.64 538.95 246.81 533.9 252.53 520.63 249.34"/><polygon class="cls-6" points="508.62 239.57 502.95 245.1 516.89 248.45 522.58 242.9 508.62 239.57"/><line class="cls-6" x1="500.23" y1="244.45" x2="499.9" y2="244.77"/><polygon class="cls-6" points="500.23 244.44 505.89 238.92 492.03 235.61 486.39 241.12 500.23 244.44"/><polygon class="cls-6" points="469.72 237.12 475.35 231.63 489.2 234.94 483.56 240.44 469.72 237.12"/><polygon class="cls-6" points="408.24 206.09 413.66 201.46 401.6 198.72 396.23 203.31 408.24 206.09"/><polygon class="cls-6" points="422.94 209.48 428.41 204.81 416.48 202.1 411.05 206.74 422.94 209.48"/><polygon class="cls-6" points="439.07 213.21 444.61 208.48 431.23 205.45 425.74 210.13 439.07 213.21"/><polygon class="cls-6" points="453.08 216.45 441.88 213.86 447.43 209.12 458.67 211.67 453.08 216.45"/><polygon class="cls-6" points="469.18 220.17 474.83 215.34 461.49 212.31 455.89 217.1 469.18 220.17"/><polygon class="cls-6" points="485.28 223.89 490.94 219.05 477.65 215.98 471.99 220.82 485.28 223.89"/><polygon class="cls-6" points="500.69 227.45 506.46 222.52 493.81 219.65 488.08 224.54 500.69 227.45"/><polygon class="cls-6" points="498.3 219.44 512.35 222.63 515.54 219.9 501.49 216.71 498.3 219.44"/><polygon class="cls-6" points="517.49 231.33 523.33 226.35 509.28 223.16 503.5 228.1 517.49 231.33"/><polygon class="cls-6" points="533.59 235.05 539.49 230.01 526.14 226.99 520.29 231.98 533.59 235.05"/><polygon class="cls-6" points="550.38 238.94 556.34 233.85 542.3 230.65 536.39 235.7 550.38 238.94"/><polygon class="cls-6" points="520.12 240.22 524.73 235 511.17 231.87 505.43 236.77 520.12 240.22"/><polygon class="cls-6" points="536.87 244.15 522.82 240.85 527.43 235.63 541.51 238.88 536.87 244.15"/><polygon class="cls-6" points="554.33 248.25 559.02 242.93 544.22 239.51 539.56 244.78 554.33 248.25"/><polygon class="cls-6" points="597.88 243.26 575.85 238.26 571.04 243.71 594.09 249.03 597.88 243.26"/><polygon class="cls-6" points="573.14 237.65 559.17 234.48 553.19 239.58 568.34 243.08 573.14 237.65"/><polygon class="cls-6" points="589.23 256.44 592.95 250.77 579.05 247.56 574.29 252.94 589.23 256.44"/><polygon class="cls-6" points="571.6 252.31 576.34 246.93 561.73 243.55 557.02 248.88 571.6 252.31"/><polygon class="cls-6" points="514.71 223.16 529.21 226.46 532.4 223.73 517.9 220.44 514.71 223.16"/><polygon class="cls-6" points="531.57 226.99 546.09 230.29 548.63 227.42 534.76 224.27 531.57 226.99"/><polygon class="cls-6" points="548.8 230.91 563.65 234.28 566.19 231.4 551.33 228.03 548.8 230.91"/><polygon class="cls-6" points="583.92 238.88 598.57 242.21 600.54 239.2 586.46 236.01 583.92 238.88"/><polygon class="cls-6" points="566.36 234.9 581.21 238.27 583.75 235.39 568.9 232.02 566.36 234.9"/><path class="cls-6" d="M588.77,226.53l29,6.44a4,4,0,0,1,1.34.57"/><path class="cls-6" d="M268.42,252.67l-.84,9.42,185.57,52.18a40.92,40.92,0,0,1,31-14.28h75.26a40.73,40.73,0,0,1,25.47,8.94l35.15-61.52.93-10.34"/><path class="cls-6" d="M485.64,452.17l-.21-.38"/><path class="cls-1" d="M311.28,338.25c-5,0-8.47-3.48-8.47-8.67a8.65,8.65,0,0,1,14.55-6.33l-.92,1.44a6.77,6.77,0,0,0-5-2.14c-3.94,0-6.72,2.82-6.72,7s2.85,7,6.72,7a6.85,6.85,0,0,0,5.19-2.1l.92,1.29A8.09,8.09,0,0,1,311.28,338.25Z"/><path class="cls-1" d="M318.94,332.28a6,6,0,1,1,5.94,5.92A5.8,5.8,0,0,1,318.94,332.28Zm10.06,0a4.11,4.11,0,1,0-4.12,4.39A4.06,4.06,0,0,0,329,332.23Z"/><path class="cls-1" d="M345.57,326.32c3.33,0,4,2.36,4,4.75V338h-1.8v-6.79c0-1.38-.37-3.28-2.41-3.28-1.88,0-2.92,1.82-2.92,4.06v6H340.6v-6.79c0-1.38-.36-3.28-2.41-3.28-1.87,0-2.94,1.82-2.94,4.06v6h-1.8V326.54h1.8l0,1.82h.07a3.55,3.55,0,0,1,3.14-2c2.24,0,3.26,1.05,3.67,2.46A3.68,3.68,0,0,1,345.57,326.32Z"/><path class="cls-1" d="M352.94,326.51h1.8v2h0a4.88,4.88,0,0,1,4.16-2.21c3.5,0,5.55,2.53,5.55,5.91s-2.31,6-5.5,6a4.66,4.66,0,0,1-4.21-2.19l0,0v6.55h-1.8Zm9.66,5.72c0-2.48-1.43-4.4-4-4.4a4.11,4.11,0,0,0-4,4.4c0,2.46,1.36,4.39,3.92,4.39S362.6,334.69,362.6,332.23Z"/><rect class="cls-1" x="367.18" y="321.16" width="1.8" height="16.79"/><path class="cls-1" d="M377.33,338.2c-3.36,0-5.63-2.32-5.63-6a5.59,5.59,0,0,1,5.63-5.89,5.13,5.13,0,0,1,5.3,5.4,8.74,8.74,0,0,1-.07.95h-9a3.89,3.89,0,0,0,4.09,4,6.32,6.32,0,0,0,3.85-1.44l.78,1.07A6.13,6.13,0,0,1,377.33,338.2Zm-.08-10.37a3.58,3.58,0,0,0-3.67,3.48h7.23A3.38,3.38,0,0,0,377.25,327.83Z"/><polygon class="cls-1" points="388.81 333.06 385.21 337.95 383.12 337.95 387.74 331.94 383.65 326.54 385.67 326.54 388.81 330.85 391.98 326.54 394 326.54 389.88 331.94 394.53 337.95 392.46 337.95 388.81 333.06"/><path class="cls-1" d="M319.67,360v-1.56h6.62v6.38c-.29.36-2.27,2.65-7,2.65-4.95,0-8.52-3.46-8.52-8.69A8.7,8.7,0,0,1,326,353l-1.24,1.24a7,7,0,0,0-5.5-2.55c-3.68,0-6.6,2.67-6.6,7a6.58,6.58,0,0,0,6.77,7c3.74,0,5.13-1.65,5.13-1.65V360Z"/><path class="cls-1" d="M334.51,367.4c-3.36,0-5.62-2.31-5.62-6a5.59,5.59,0,0,1,5.62-5.89,5.15,5.15,0,0,1,5.31,5.41,9,9,0,0,1-.07.95h-9a3.87,3.87,0,0,0,4.09,4,6.34,6.34,0,0,0,3.85-1.43l.77,1.07A6.12,6.12,0,0,1,334.51,367.4ZM334.44,357a3.6,3.6,0,0,0-3.68,3.48H338A3.38,3.38,0,0,0,334.44,357Z"/><path class="cls-1" d="M341.64,361.49a6,6,0,1,1,5.94,5.91A5.75,5.75,0,0,1,341.64,361.49Zm10.05-.05a4.11,4.11,0,1,0-4.11,4.38A4.05,4.05,0,0,0,351.69,361.44Z"/><path class="cls-1" d="M368.27,355.52c3.33,0,4,2.36,4,4.75v6.89h-1.8v-6.79c0-1.39-.36-3.29-2.41-3.29-1.87,0-2.92,1.83-2.92,4.07v6h-1.8v-6.79c0-1.39-.36-3.29-2.41-3.29-1.87,0-2.94,1.83-2.94,4.07v6h-1.8V355.74H358l0,1.83H358a3.54,3.54,0,0,1,3.14-2.05c2.23,0,3.26,1.05,3.67,2.46A3.68,3.68,0,0,1,368.27,355.52Z"/><path class="cls-1" d="M380.34,367.4c-3.36,0-5.63-2.31-5.63-6a5.59,5.59,0,0,1,5.63-5.89,5.14,5.14,0,0,1,5.3,5.41,9,9,0,0,1-.07.95h-9a3.88,3.88,0,0,0,4.09,4,6.34,6.34,0,0,0,3.85-1.43l.78,1.07A6.13,6.13,0,0,1,380.34,367.4ZM380.26,357a3.59,3.59,0,0,0-3.67,3.48h7.23A3.39,3.39,0,0,0,380.26,357Z"/><path class="cls-1" d="M391.29,367.4c-2.73,0-2.73-2.56-2.73-4.62v-5.5h-1.7v-1.51h1.7v-3.53h1.83v3.53h2.79v1.51h-2.82v5.86a4.16,4.16,0,0,0,.37,2.27,1.36,1.36,0,0,0,1.16.43,3.33,3.33,0,0,0,1.27-.26l.1,1.46A4.82,4.82,0,0,1,391.29,367.4Z"/><path class="cls-1" d="M395.33,355.74h1.8v1.95a3.09,3.09,0,0,1,2.89-2.17,3.32,3.32,0,0,1,1.22.2l-.12,1.7h-.07a3.4,3.4,0,0,0-1.25-.22,2.48,2.48,0,0,0-1.92,1,4.51,4.51,0,0,0-.75,3v5.92h-1.8Z"/><path class="cls-1" d="M401.41,355.72l1.87,0,3.7,9.4,3.63-9.42,1.87,0-5.57,13.49c-.88,2.09-1.66,2.65-2.87,2.65a4.27,4.27,0,0,1-1.78-.39l.37-1.53a3.64,3.64,0,0,0,1.14.26c.58,0,1,0,1.66-1.58l.63-1.48Z"/><path class="cls-1" d="M420,353.07a1.25,1.25,0,1,1,1.26-1.25A1.23,1.23,0,0,1,420,353.07Zm-.9,2.67h1.8v11.42h-1.8Z"/><path class="cls-1" d="M433.92,360.25v6.91h-1.8v-6.79c0-2.12-.68-3.29-2.8-3.29s-3.06,1.68-3.06,3.65v6.43h-1.8V355.74h1.8v1.85h.07a3.79,3.79,0,0,1,3.55-2.07C433.14,355.52,433.92,357.52,433.92,360.25Z"/><polygon class="cls-1" points="331.74 388.25 322.11 388.25 322.11 396.36 320.28 396.36 320.28 379.57 322.11 379.57 322.11 386.67 331.74 386.67 331.74 379.57 333.57 379.57 333.57 396.36 331.74 396.36 331.74 388.25"/><polygon class="cls-1" points="340.65 381.12 335.76 381.12 335.76 379.57 347.34 379.57 347.34 381.12 342.47 381.12 342.47 396.36 340.65 396.36 340.65 381.12"/><polygon class="cls-1" points="348.56 396.36 350.16 379.57 352.26 379.57 357.56 393.22 362.87 379.57 365.08 379.57 366.69 396.36 364.86 396.36 363.6 382.34 357.95 396.58 357.1 396.58 351.62 382.54 350.38 396.36 348.56 396.36"/><polygon class="cls-1" points="370 379.57 371.82 379.57 371.82 394.73 377.76 394.73 377.76 396.36 370 396.36 370 379.57"/><path class="cls-1" d="M381.56,396.6a1.34,1.34,0,1,1,1.38-1.31A1.29,1.29,0,0,1,381.56,396.6Zm-.93-17h1.88l-.17,12.56h-1.56Z"/><path class="cls-4" d="M194.75,142.39s7.87,4.23,10.48,12.64"/><path class="cls-4" d="M387.38,510.61c0,.19-1.48,3.21-1.48,3.21s5.51,1.77,6-.07C391.69,512,387.41,510.47,387.38,510.61Z"/><path class="cls-5" d="M255.72,510.74c-.47-10.09-18.44-77.59-19.22-79.61s-2.95-8.53-3.1-9.31c0-.09-10.16-37.24-15.83-38.48,0,0,1.36-2.83,2.1-3.26s4.85-1.82,5-3.8-.7-4.46-1.32-6.44-1.08-3.77-.54-5,5.12-8.84,6.13-11.64a70.66,70.66,0,0,0,3.22-12.47c-.64-.76-1.69-1.86-1.69-1.86l4.1-12.64s3.35-11.74,5.27-14.94,11.87-19.09,12.92-20.84l7.3-13c-4.76-5.44-9.13-9.95-11.57-13.19-4.77-6.36-23.89-9.33-29.38-10.06a8.6,8.6,0,0,1,.6,4.86c-.93,5.78-.59,17.57-7.69,20,0,0-23.2,8.83-49.34-3.15-1.52-.55-2.81-1-4-1.46a136.73,136.73,0,0,1-6.06,18.2,16.53,16.53,0,0,1-2.55,4.33c-3.83,4-7.53,10.78-14.43,10.55l-19-13.34c1.28.23,5.58-.59,8.14-1.87s1.52-7.79-.46-9.54-13.73-8.15-14.43-14,11.29-22.69,11.2-25.37a14.55,14.55,0,0,1,.13-2.13c-6-4.59-19.09-14.61-23.09-17.19-.46,8.56-3.31,12.69-5.06,19S81.87,277,81.81,277.27s-3.49,22.35-7.8,23.05S64.24,285,63.83,283.85c0,0,5.24,18.1,6.17,21.36s.23,7.21,1.63,9.77,3,4.08,3.49,9.31c0,0,.81,8.79,1,10.36s1.86,7.86,2,9.08.23,11.87.69,13.62,2.8,11,3.38,12.39-7.28,7.8-7.1,8.38-.12,2.39,3.26.93,4-3,3.87-1.63S70.17,393.13,70,393.71s-2.56,11.06-3.26,12.34-3.49,5.82-3.49,7.33S67.79,415,67.79,415s-1.05,11-.74,15.35,0,14.89,0,17.69-1.55,18.46-3.8,21.72S48.58,495.37,47.81,498s-2.48,12.73-1.55,18,4,9,4,11.8-6.36,24.51-5.59,39.1c0,0,16.63-4.5,37.57,2.33s38.16,19.24,40.64,20.17a36,36,0,0,0,4.12.79c10.51,1.67,37.39,5,43.68,5.11a150.3,150.3,0,0,0,15-1.35c16-2,39.24-5.51,46.47-7.34,10.39-2.64,15.21-2.79,18.46-2.79s9.62-.63,9.62-.63S256.18,520.82,255.72,510.74ZM154.41,400.29l-33.32-9.54,5.7-53.31L142.28,341l1.27-6.81,4.89.69s-.41,5.4-.92,8L160,346.64Z"/><path class="cls-2" d="M45.87,567.35s16.63-4.5,37.57,2.33,38.16,19.24,40.64,20.17c0,0-6.64,12.12-11.87,22.16,0,0-.89-4.58-2.17-6.78s-8-5-13.5-7.18-23.63-3.66-29.33-3.65-16.13,7.3-16.13,7.3c-.18-1.28-.31-2.19-.4-2.54C50.22,597.3,45.87,567.35,45.87,567.35Z"/><path class="cls-2" d="M236.31,672.39s12.08,2.27,28.52-8.12,12.52-19.37,12.52-19.37-5.88-6.21-6.32-6.7c-1.06-1.17-4.15-8.1-6.2-13.23-1.39,2-11.34,10.9-25,15.71s-21.41,4.19-21.41,4.19,9.93,20.79,12.72,22.35C232.13,667.76,234.08,669.84,236.31,672.39Z"/><line class="cls-4" x1="72.16" y1="32.96" x2="95.44" y2="36.66"/><circle class="cls-4" cx="105.94" cy="30.41" r="12.22"/><line class="cls-4" x1="55.26" y1="12.73" x2="57.59" y2="13.13"/><line class="cls-4" x1="61.89" y1="13.86" x2="99.24" y2="20.19"/><line class="cls-4" x1="31.44" y1="8.69" x2="30.79" y2="8.58"/><line class="cls-4" x1="31.44" y1="8.69" x2="50.08" y2="11.85"/><path class="cls-4" d="M61.93,30.93c-1.14,2-2.13,4-2.28,4.3-.29.64-3.78,2.56-4.3,4s-7.86,1.86-9.9,4.3-5.12,6.75-5.7,9"/><line class="cls-4" x1="61.93" y1="30.93" x2="27.88" y2="24.18"/><path class="cls-4" d="M72.16,33l2.74-5.29,5.47-2.33-.93-1.75s1-2.32-4.54-2.67S66.65,24.12,65,26a37.61,37.61,0,0,0-3.09,4.89"/><path class="cls-4" d="M76.69,11.55c2,1.33,2.08,5.17,2.08,5.17"/><path class="cls-4" d="M69,15.06a8.5,8.5,0,0,1,.87-1.94c.79-1.46,2.57-2.45,5.71-2a2.81,2.81,0,0,1,1.09.41"/><path class="cls-4" d="M71.87,11.55c.29.49,1.72,1,3.2.87s1.61-.84,1.62-.87"/><line class="cls-4" x1="76.69" y1="11.55" x2="76.69" y2="11.55"/><path class="cls-4" d="M64.19,11.55a12.13,12.13,0,0,1-1.83,2,4,4,0,0,1-.47.28"/><path class="cls-4" d="M57,11c0-.32,2.27-4.83,2.27-4.83.44-.43,4.92.12,5.18.3a20.56,20.56,0,0,1,2.33,3c.18.44,1,5.35,1,5.35"/><path class="cls-4" d="M57,11a5.66,5.66,0,0,0,.56,2.11"/><path class="cls-4" d="M57.59,13.13c1.07,2,3.31,1.24,4.3.73"/><path class="cls-4" d="M62.85,10.45a19.33,19.33,0,0,1-3.49-1.87,6.7,6.7,0,0,0-1,1.87,2,2,0,0,0,1.81,2.38C61.86,12.92,62.85,10.45,62.85,10.45Z"/><path class="cls-4" d="M55.26,12.73a4.63,4.63,0,0,0,.52-.29A5.32,5.32,0,0,0,57,11"/><path class="cls-4" d="M55.26,12.73a7.9,7.9,0,0,1-3,.8c-.58,0-1.5-.86-2.21-1.68"/><path class="cls-4" d="M50.08,11.85a6.49,6.49,0,0,1-1-1.4c-.2-.61.21-1.67.35-3s2.94-2.32,4.69-2.15,3.49,4.29,3.49,4.29"/><path class="cls-4" d="M53.63,7.3c-.81,0-2.91.18-3.43,2.11,0,0,3.81-.36,4.65.33S54.45,7.33,53.63,7.3Z"/><path class="cls-4" d="M47,11.32s.45-5.1-1.64-4.95-2.71,1.84-3,4.16"/><path class="cls-4" d="M46.43,7.05s0-2.11-1.35-2.14-1.78,2-1.69,2.14"/><path class="cls-4" d="M25.92,7.22a31,31,0,0,0-3.1,8.89,66.9,66.9,0,0,0-.74,7.2"/><path class="cls-4" d="M31.44,8.69c.15-.3.25-.48.25-.48l-5.77-1"/><path class="cls-4" d="M31.44,8.69a30.14,30.14,0,0,0-2.86,8.41,59,59,0,0,0-.73,7.39l-5.77-1v-.19"/><path class="cls-4" d="M25.92,7.22,3.42,6S.44,9.37,1.09,16.9l21,6.41"/><line class="cls-4" x1="22.08" y1="23.31" x2="22.65" y2="23.48"/><path class="cls-4" d="M34.46,25.48a5,5,0,0,1,0,1.72c-.12,1.46-3.73,5.47-4.48,8.15s-2.51,10.3-2.1,12.22-.17,2,0,3-1.88,4.14-2,5.82-.39,14.32,0,16.65.78,10.7,1,11.87,1.29,37.36,2,45.09,9,35.27,9.31,35.79a21.62,21.62,0,0,1,.58,4.08c.12,1.1,1.92,3.14,2.21,4.3s-1,28,1.4,38.52,5.3,37.3,12.92,51.79,8.44,17.69,8.84,18.86"/><path class="cls-4" d="M369.7,499c.93-.29,4.42-2.16,5.35-3.61s-.76-4.54-1.05-5-5.41-3.72-5.35-4.3"/><path class="cls-4" d="M374.24,534.69l1.1.58s5,2.21,5.47.93-1.63-3.32-1.63-4.31-2.39-2.21-3.14-2.91"/><path class="cls-4" d="M371.57,533.26l2.67,1.43"/><path class="cls-4" d="M369.7,499c-.94.29-3.09,1-3.38,1s-.7,2.91-.7,2.91,8.61,2.91,10.24,3.5,11,2.15,12.34,2.79a3.31,3.31,0,0,1,1.75,1.39c.25.36,1.9,1.53,2.26,2.68l.06.47c0,1.28-4.77,1.74-5.82,1.74-.59,0-4-.43-6.92-.83"/><path class="cls-4" d="M379.53,514.65c-2.24-.31-4.25-.6-4.6-.68-.81-.17-6.86-2.21-6.86-2.21s-3.84-.64-4.19-.35-3.32,1.28-2.27,2.91,6.51,8.44,7.33,9,6.34,5,7.1,5.7"/><path class="cls-4" d="M353.19,523.17a11.72,11.72,0,0,1-.08,3.25,7,7,0,0,0-.46,2.33s-3.44-.87-3.61-1.63-2.27-3.9-2.33-4.3"/><path class="cls-4" d="M232.42,340.27c.64.76,8.73,13.33,10.83,16.12S252,373,252.91,375s16.64,27.81,18.85,31.48S284.1,428.08,286.19,432s14.32,17.28,17.63,21.35,19.21,26.25,19.9,28.75,4.49,11.06,5.13,12.92.69,4.77,1.28,7.1,5.47,11.11,6.51,11.87,7.63,5.53,8.5,6.87,1.51,1.57,1.57,2"/><path class="cls-4" d="M368.65,486c.06-.58.41-2.91,0-3.73s-3.9-2.91-4.89-3.6-5.59.46-5.59.46"/><path class="cls-4" d="M348.22,475.79l4.25,5.94s6.52,1.46,7.57,1.63a2.25,2.25,0,0,0,1.86-.81l-3.73-3.38"/><path class="cls-4" d="M371.57,533.26c-3.55-1.89-8.41-4.49-8.92-4.86-.81-.58-7.79-7.74-8-8.26s-1.63-.35-1.63-.35.13,1.7.2,3.38"/><path class="cls-4" d="M186,593.47c-7,.85-12.66,1.39-15,1.35-6.29-.13-33.16-3.44-43.68-5.11"/><path class="cls-4" d="M260.55,582.71s-6.36.62-9.62.62-8.07.16-18.47,2.8C225.23,588,202,591.52,186,593.47"/><path class="cls-4" d="M82.52,369.25c.58,1.34-7.27,7.8-7.1,8.38s-.11,2.38,3.26.93,4-3,3.87-1.63S70.48,392.64,70.3,393.22,67.74,404.28,67,405.56s-3.49,5.82-3.49,7.33,4.54,1.63,4.54,1.63"/><path class="cls-4" d="M123.22,588.92c-2.49-.93-19.71-13.34-40.65-20.17S45,566.42,45,566.42"/><path class="cls-4" d="M123.22,588.92a35.61,35.61,0,0,0,4.11.79"/><path class="cls-4" d="M50.59,527.32c0,2.79-6.36,24.51-5.58,39.1"/><path class="cls-4" d="M82.52,369.25c-.58-1.34-2.91-10.65-3.37-12.4s-.58-12.39-.7-13.61-1.75-7.51-2-9.08-1-10.36-1-10.36c-.46-5.24-2.09-6.75-3.49-9.31s-.7-6.52-1.63-9.78-6.17-21.35-6.17-21.35"/><path class="cls-4" d="M260.55,582.71s-4.06-62.38-4.53-72.46-18.44-77.59-19.21-79.61-2.95-8.53-3.11-9.31c0-.09-10.16-37.24-15.83-38.48"/><path class="cls-4" d="M220,379.59c-.74.42-2.1,3.26-2.1,3.26"/><path class="cls-4" d="M68.09,414.52s-1,11-.74,15.34,0,14.9,0,17.69S65.8,466,63.55,469.28s-14.66,25.6-15.44,28.24-2.48,12.73-1.55,18,4,9,4,11.8"/><path class="cls-4" d="M226.14,351.62C222.3,356.39,209.68,364,209.68,364s20-7.8,22.74-23.73a70,70,0,0,1-3.22,12.47c-1,2.79-5.58,10.44-6.13,11.64s-.07,3,.55,5,1.43,4.46,1.32,6.44-4.23,3.37-5,3.8"/><path class="cls-4" d="M217.87,382.85s-7.2-2.15-13.05-3.72"/><path class="cls-4" d="M157.59,372c5.34.67,15.26,1.84,21.7,2.52"/><path class="cls-4" d="M204.82,379.13c-2.9-.77-5.47-1.41-6.65-1.56-3.57-.47-9.19-2.17-13.52-2.48-1-.08-2.94-.27-5.36-.53"/><path class="cls-4" d="M142.59,340.51l-.6,3.19s4.72.64,5.41,0,1.34-9.31,1.34-9.31l-4.88-.7Z"/><line class="cls-4" x1="142.59" y1="340.51" x2="142.59" y2="340.51"/><polyline class="cls-4" points="142.59 340.51 127.1 336.95 121.39 390.26"/><polyline class="cls-4" points="157.59 372.04 160.27 346.15 147.82 342.38"/><polyline class="cls-4" points="121.39 390.26 154.72 399.8 157.59 372.04"/><polyline class="cls-4" points="82.52 369.25 95.44 355.92 107.08 357.81"/><path class="cls-4" d="M107.08,357.81a18.13,18.13,0,0,0,4.42,0c2-.33,3.84,4.05,4.89,3.23"/><path class="cls-4" d="M116.39,361c1-.81,6.52-1.39,6.52-1.39"/><path class="cls-4" d="M106.61,369.25c1.63-.06,7.22-2.15,7.22-2.15"/><line class="cls-4" x1="116.39" y1="361.04" x2="113.83" y2="367.1"/><path class="cls-4" d="M101.49,366.4s1.17-8.59,5.59-8.59"/><path class="cls-4" d="M106.61,369.25c-1.63.06-5.12-2.85-5.12-2.85"/><path class="cls-4" d="M86.5,365.15c.57-.59,15,1.25,15,1.25"/><path class="cls-4" d="M106.61,369.25l-5.12,8s.24,15.33,0,17.83-1,12.27,1.22,15.53"/><path class="cls-4" d="M139.43,395.42s.12,8,0,10.78-26.65,12.57-30.49,12.34-4-4.66-6.23-7.92"/><path class="cls-4" d="M121.39,390.26s1.58,10.24-1.07,11.28-4.86,2.33-5.79,0,.58-3.13,0-6.45-2.1-12.09-2.1-12.24v-8.77l1.4-7"/><polyline class="cls-4" points="122.91 373.38 117.15 368.38 113.83 367.1"/><line class="cls-4" x1="94" y1="389.91" x2="101.16" y2="379.59"/><path class="cls-4" d="M94,389.91s-8,16.64-9,18.38,0,10.25,0,10.25-14.45-3.74-16.88-4"/><path class="cls-4" d="M94,389.91c1.07-2.24-.19-5.82,0-8.85s.39-7.8,0-9.39,4.47-4.57,4.47-4.57"/><polyline class="cls-4" points="122.91 414.51 124.07 432.74 105.68 434.83 102.72 410.62"/><path class="cls-4" d="M61.69,480.22c.81-2.44,7.33-8.15,9.08-10.24s18.62-10.59,21-11.87,20.71-15.37,20.71-15.37"/><path class="cls-4" d="M148.74,441.81s-22.81,20.37-27.35,23.05-19,9.31-25.17,10.7-14.86,2.68-18.93,4.66-22.58,13-24,14.43"/><path class="cls-4" d="M122.91,472.07c-2.21,1.63-11.64,4.89-16.06,6.05s-25,5.94-27,5.82-19.32,9.55-19.32,9.55"/><line class="cls-4" x1="50.59" y1="527.32" x2="58.43" y2="500.47"/><path class="cls-4" d="M204.82,379.13c.11-.41.18-.63.18-.63"/><path class="cls-4" d="M204.82,379.13c-1.78,6.32-16.45,58.29-21.55,71.76-5.43,14.35-35.07,82.73-35.69,85.71s-20.25,53.11-20.25,53.11"/><line class="cls-4" x1="127.33" y1="589.71" x2="127.33" y2="589.71"/><path class="cls-4" d="M179.29,374.56s-19.3,74.08-21.16,79.67-26.53,59.12-27.93,63.31-25.06,61-25.06,61"/><line class="cls-4" x1="179.29" y1="374.56" x2="179.29" y2="374.56"/><path class="cls-4" d="M297.33,669.3c-3.57-7.45-25.92-30.41-27.32-32s-6.36-13.19-7.75-17.38-1.71-37.25-1.71-37.25"/><path class="cls-4" d="M320.29,762.1c-1.08-1.24-4.65-17.54-5.9-33.52s-13.5-51.83-17.06-59.28"/><path class="cls-4" d="M294.38,768.77c-.16-1.09-6.21-15.21-8.69-21.41S248.29,686.22,246,684s-13-16.14-15.83-17.69S217.41,644,217.41,644"/><path class="cls-4" d="M322.62,755.64s.17,4.42,0,5.58-4,3.67-4,3.67c-1.7,2.79-16.91,7-17.69,6.83s-6.51-3-6.51-3"/><path class="cls-4" d="M217.41,644c-14-11.49-31.42-50.54-31.42-50.54"/><line class="cls-4" x1="185.99" y1="593.47" x2="185.99" y2="593.47"/><path class="cls-4" d="M258.14,835l-1.16.93.81,3.38,24.5,2.62s25.2-1.17,29.1-1.4,3.31-1.75,4.71-3.43,4.25-5.82,4.89-7.8,7.82-9,7.82-9l-.95,16.76,9.07-3s2.27-16.82,2.8-21.3a15.5,15.5,0,0,0-1.28-8"/><path class="cls-4" d="M258.14,835l.24-2.56s2.38-4,4.88-4.77,12.17-1.8,15.83-8.15,14.14-30.49,15.25-33.69,1.69-8.55,1.28-10.71-1.24-6.3-1.24-6.3"/><path class="cls-4" d="M338.45,804.69v-1.63c-.16-1.7-1.24-11-3.42-13s-8.53-17.38-8.69-20.48-1.55-16.67-1.55-16.67h-7"/><path class="cls-4" d="M298.4,785.55a86,86,0,0,0,9.55,1.51"/><path class="cls-4" d="M295.15,789.74s8,2.09,14.67,1.39"/><path class="cls-4" d="M309.82,797.38c-1.75-.27-9-2.29-9-2.29"/><path class="cls-4" d="M338.45,804.69s-2.21,3.55-9.08,9.49-15.36,18.62-17,20.6-24,3.14-26.89,2.67-13.26-1.45-14.78-1.51-9.37-1.34-12.57-1"/><path class="cls-4" d="M260.55,594.82S244.72,608,232.31,612s-37.15,0-37.15,0"/><path class="cls-4" d="M263.82,624.11c-1.39,2-11.34,10.9-25,15.71S217.41,644,217.41,644"/><path class="cls-4" d="M276.34,644s3.92,9-12.52,19.37-28.52,8.13-28.52,8.13"/><path class="cls-4" d="M297.33,669.3c-1.09,10.55-4.19,15.21-14.75,24.83s-25.6,6.28-25.6,6.28"/><path class="cls-4" d="M115.11,670.6c-2.78-13.83-9.62-35.25-10-38.85-.38-4,.08-5.59,0-7.64s18.08-35.19,18.08-35.19"/><path class="cls-4" d="M121.36,767.37c.15-.93-2.8-38.64-3.26-50.89s-.31-28.25-2.18-41.28c-.2-1.4-.47-3-.81-4.6"/><line class="cls-4" x1="71.06" y1="855.09" x2="99.92" y2="853.58"/><line class="cls-4" x1="71.06" y1="850.08" x2="71.06" y2="855.09"/><path class="cls-4" d="M99.92,853.58c-1.08,0-1.9-.06-2.33-.12-2.44-.35-12.45-2.27-15.94-2.1s-9.25.7-10.59,3.73"/><path class="cls-4" d="M92.41,778.16l.47,5.88c.47,5.87.41,9.13,0,10.7a22.87,22.87,0,0,0-.81,3.84c-.12,1.28.75,1,.81,2.45S91,813.65,89.56,816.8s-10.12,19.37-10.94,19.9-4.94,6.28-6.86,8.14-.7,5.24-.7,5.24"/><path class="cls-4" d="M121.63,850.84l1-16.41a11.73,11.73,0,0,0-4.65,4.19,17.89,17.89,0,0,0-2.1,7.56c-.17,2.56,0,6.06,0,6.06l-.07,1.22s-10.8.24-15.93.12"/><path class="cls-4" d="M132.51,820.13c-.71,9.63-3.32,30.71-3.32,30.71h-7.56"/><path class="cls-4" d="M92.41,778.16s15.13-2.74,17.46-3.9,9.39-3.94,11.33-6h3s2.67,19.58,2.67,20.33-.81,7.63,0,9.31,5.94,12.28,5.82,19c0,.81-.07,1.91-.17,3.22"/><path class="cls-4" d="M106.61,793.23c-7.85,1-11.63,3.26-11.63,3.26"/><path class="cls-4" d="M104.29,801.38c-1.69.17-8.62,0-8.62,0"/><path class="cls-4" d="M119.07,795.56H108.36"/><path class="cls-4" d="M120,772.86s5.12,12.8,5.23,15.83-.52,20.31-1.51,24.09-4.07,10.36-4.65,14.78"/><line class="cls-4" x1="132.51" y1="820.13" x2="132.51" y2="820.13"/><path class="cls-4" d="M71.06,850.08c1.92-2.21,8.26-2.21,11.58-2.27s15.36,1.86,15.83,1.63,14.66,0,14.66,0a53.07,53.07,0,0,1,1.51-8.61c.93-2.68,4.89-8.38,7.52-11.41s10.35-9.29,10.35-9.29"/><line class="cls-4" x1="121.63" y1="850.84" x2="115.87" y2="850.84"/><path class="cls-4" d="M50.21,600.77c-.17-1.28-.31-2.2-.39-2.54-.47-1.86-4.81-31.81-4.81-31.81"/><path class="cls-4" d="M53,641.52c0,1.54-.07,2.51-.07,2.51a134.62,134.62,0,0,0,.28,21.55c.34,3.46,1.88,9.73,3.94,17"/><path class="cls-4" d="M53,641.52c.15-5.46.42-18.08-.07-20s-1.94-15-2.71-20.74"/><path class="cls-4" d="M92.41,778.16S73.87,735.87,71.06,727c-2-6.14-9.26-27.91-13.92-44.44"/><path class="cls-4" d="M348.22,475.79l1.86-1.73a2.29,2.29,0,0,1,3.19.08l4.9,5"/><line class="cls-4" x1="348.22" y1="475.79" x2="348.22" y2="475.79"/><line class="cls-4" x1="369.7" y1="498.96" x2="374" y2="505.76"/><line class="cls-4" x1="379.53" y1="514.65" x2="379.53" y2="514.65"/><path class="cls-4" d="M376,529l5.3-7.31a3.6,3.6,0,0,0,.1-4.07l-1.91-3"/><path class="cls-4" d="M371.57,533.26l-4,3.85a3,3,0,0,1-4.47-.4l-9.9-13.54"/><line class="cls-4" x1="353.19" y1="523.17" x2="353.19" y2="523.17"/><path class="cls-4" d="M111.35,611.07s-.9-4.58-2.18-6.77-8-5-13.5-7.18-23.62-3.66-29.32-3.65-16.14,7.3-16.14,7.3"/><line class="cls-4" x1="50.21" y1="600.77" x2="50.21" y2="600.77"/><path class="cls-4" d="M53,641.52s17,1.16,25.69,0,27.8-4,27.8-4"/><line class="cls-4" x1="52.99" y1="641.52" x2="52.99" y2="641.52"/><path class="cls-4" d="M115.11,670.6c-4.88,4-18.51,9.45-26.88,11s-31.09,1-31.09,1"/><line class="cls-4" x1="115.11" y1="670.6" x2="115.11" y2="670.6"/><line class="cls-4" x1="57.14" y1="682.59" x2="57.14" y2="682.59"/><path class="cls-4" d="M379.71,533.17c-.59-1-3.09-1.51-3.09-1.51l-2.38,3"/><line class="cls-4" x1="374.24" y1="534.69" x2="374.24" y2="534.69"/><path class="cls-4" d="M351.27,528.34l.29-1.26a12.77,12.77,0,0,0-1-3.41c-.78-1.63-3.84-.85-3.84-.85"/><path class="cls-4" d="M368.65,486c-.1.82-5.8,4.69-5.8,4.69"/><line class="cls-4" x1="369.7" y1="490.73" x2="363.93" y2="491.66"/><line class="cls-4" x1="365.75" y1="490.19" x2="367.22" y2="491.13"/><path class="cls-4" d="M74.9,27.67a7.92,7.92,0,0,1,4.54-4.08"/><path class="cls-4" d="M216.81,373.38s-10.46-7.51-12-7.67-24.48-7.42-25.53-7.9-18.13-5.14-18.13-5.14"/><path class="cls-4" d="M104.29,323.94s13.66,13.44,16.29,16.57a26.17,26.17,0,0,0,5.6,5"/><line class="cls-4" x1="177.88" y1="464.21" x2="208.26" y2="473.45"/><path class="cls-4" d="M98.47,223.71c5.23,3.38,22.11,16.53,22.11,16.53"/><path class="cls-4" d="M72.16,33a16.09,16.09,0,0,0-2.09,5.36c-.23,2.32-2.91,8.61-3.26,10.24s-3.37,5.58-6.05,8.14-8.85,11.06-9.2,15,4.31,23.74,5.59,28.39,7.33,16.07,12.57,31.2,2.33,24.9,2.21,25.83a16.3,16.3,0,0,0,2.33,10.24c2.91,4.78,13.73,30.26,14.66,33.29s3.49,12.1,4.89,13.27,4.66,9.77,4.66,9.77"/><path class="cls-4" d="M98.47,223.71c-.47,8.56-3.32,12.69-5.07,19s-11.23,33.81-11.29,34.1-3.49,22.35-7.79,23.05-9.78-15.31-10.19-16.47"/><path class="cls-4" d="M260.32,277c6.16,7,13,15.62,17,25,7.14,16.6,27.46,90.78,27.93,92.17S317.19,408,318.74,414s15.46,34.76,16.58,39.41,10.27,19.24,11.35,20.17l1.55,2.17"/><path class="cls-4" d="M232.42,340.27c-.64-.76-1.74-1.86-1.74-1.86s7.5-24.38,9.42-27.59S252,291.74,253,290l7.3-13"/><path class="cls-4" d="M221.44,253.58s21.73,2.8,27.32,10.25c2.43,3.24,6.81,7.75,11.56,13.18"/><path class="cls-4" d="M152.93,292.24l-.08-.33"/><path class="cls-4" d="M152.93,292.24c.83,3.57,8.51,35.64,14.51,40.33,6.36,5,35.07,25.6,38.49,27.93s11.56,12.19,14,19.09"/><path class="cls-4" d="M212.29,278.65c7.1-2.45,6.75-14.25,7.68-20,.74-4.58-1.86-6.64-7.22-18.39s5.47-17.92,7.22-23-.58-14.9,0-24.44-3.72-28.75-4.42-31.43-.82-7.33-1.63-9.9-10-7.9-12.46-9.88-6.4-1.87-6.4-1.87-6.4-5.12-8.61-5.12-33.28,1.4-41,10.25-19.56,30.72-22,40.5-2.33,43.29-1.63,47.48-.52,7.57-.44,10.24-11.9,19.55-11.2,25.37,12.45,12.22,14.43,14,3,8.26.47,9.54-6.87,2.1-8.15,1.86"/><path class="cls-4" d="M174.23,221.15c-11.24-5.37-14-17.78-14.43-19.08-1.9-5.61.41-7.18,1.55-11.09"/><path class="cls-4" d="M161.35,191a10.38,10.38,0,0,0,.31-1.25c.93-4.89,5.47-6.87,7-9.08s4.65-9.66,6.28-16.06a18.15,18.15,0,0,1,11.48-12.34,19.19,19.19,0,0,1,6.51-.82"/><path class="cls-4" d="M172.87,243.5c2.18-.24,11.65-7.89,14.14-9s8.48-1.3,12.83-4.87,14.77-22.68,14.77-28.88c0-5.59-2.09-7.39-2.17-8s1.4-6.44,1.4-8.38-1.32-6.52-1.55-8.23-.23-8.22-1.4-13.5-9.43-10.4-9.43-10.4a57.89,57.89,0,0,0-8.54-.82"/><path class="cls-4" d="M156.08,192.75c1.31.09,3.16-.58,5.27-1.77"/><path class="cls-4" d="M161.35,191c6.48-3.64,15.42-12.18,18.92-18.94,3-5.74,8.83-14.82,12.65-20.61"/><path class="cls-4" d="M192.92,151.43c2.15-3.25,3.66-5.46,3.66-5.46"/><path class="cls-4" d="M200.42,227.42a5,5,0,0,1-3.06,2c-4.22,1.28-9.39-1.79-12.71-3.11"/><path class="cls-4" d="M189.36,239.25a60.49,60.49,0,0,0,0,6.22c.21,1.05-11.89,11.12-13.7,13.5s-7.21,7.92-8.73,9.9-2.38,6.57-4.77,8.14"/><path class="cls-4" d="M152.93,292.24c2.8-6.22,5.7-16.61,7.06-22.05,1.79-7.14-6.51-44.49-6.51-44.49"/><path class="cls-4" d="M150.37,296.57a16.79,16.79,0,0,0,2.56-4.33"/><path class="cls-4" d="M135.94,307.12c6.91.23,10.61-6.54,14.43-10.55"/><polyline class="cls-4" points="144.42 303.33 145.49 333.69 150.37 296.57"/><path class="cls-4" d="M213.84,299.85s7.94,1,10,5.23,1.06,6.11,2.4,10.05,6,8.81,6,8.81"/><path class="cls-4" d="M116.39,301.85c1.58,2,6.82,10.69,7.68,13.28s39.1,24.93,42,27.25,39.86,18.12,39.86,18.12S155.81,329.65,154,326.3a28.11,28.11,0,0,1-2.39-7.85"/><path class="cls-4" d="M103.89,251.59c-2.53,7.93-11.94,50.85-12.17,57L101,356.83"/><path class="cls-4" d="M204.22,244.43s-2,18.65-23.7,30.31"/><path class="cls-4" d="M209.85,252.59s5.12,15-5.63,21"/><path class="cls-4" d="M142,275.68c13.84-14.23,5.41-33.75,5.41-33.75"/><path class="cls-4" d="M162.16,153.23s-2.7,13.74-2.2,20.28"/><path class="cls-4" d="M144.42,180.21S135.51,205,139,220.64s3.38,10,3.49,15.62.59,13.66-1.34,17.32"/><path class="cls-2" d="M107,13.75l-.35-2.09-2.15,0-.27,2.11-1.64,0,1.51-10.74,2.67,0,1.86,10.68Zm-2.27-3.58,1.65,0-.92-5.5Z"/><polygon class="cls-2" points="121.77 7.93 116.55 17.28 115.14 16.49 118.29 10.84 115.64 13.04 116.12 9.62 112.96 15.28 111.54 14.48 116.75 5.13 118.18 5.92 117.69 9.37 120.36 7.14 121.77 7.93"/><path class="cls-2" d="M129.45,16.44a2.9,2.9,0,0,1-1,4.22c-1.86,1.11-3.58.72-4.5-.84l-.57-.95L119.73,21l-.83-1.39,9.21-5.47ZM124.83,18l.47.78a1.47,1.47,0,0,0,2.27.48,1.41,1.41,0,0,0,.53-2l-.52-.87Z"/><polygon class="cls-2" points="133.27 27.35 133.27 29.02 124.28 29.02 124.28 33.12 122.6 33.12 122.6 27.35 133.27 27.35"/><polygon class="cls-2" points="120.33 41.93 118.96 41.15 121.81 36.16 123.18 36.94 122.17 38.7 128.75 42.45 129.72 40.75 131.08 41.53 128.28 46.44 126.92 45.66 127.89 43.95 121.32 40.2 120.33 41.93"/><polygon class="cls-2" points="117.33 48.32 115.04 44.36 116.54 43.5 121.9 52.77 116.93 55.65 116.12 54.24 119.59 52.23 118.13 49.7 115.15 51.42 114.36 50.05 117.33 48.32"/><polygon class="cls-2" points="103 57.74 105.03 51.58 105.03 47.04 106.75 47.04 106.75 51.59 108.73 57.76 107.03 57.76 105.88 53.97 104.7 57.74 103 57.74"/><circle class="cls-1" cx="186.99" cy="179.27" r="2.22"/><path class="cls-1" d="M179.33,182.56l-1.77-2.47c4-3.55,7.62-3.71,9.44-3.49a6.22,6.22,0,0,1,4.47,2.38l-.83.58a5.27,5.27,0,0,0-3.76-1.95C184.07,177.27,181.78,179.27,179.33,182.56Z"/><circle class="cls-1" cx="209.77" cy="184.46" r="2.22"/><path class="cls-1" d="M212.2,185.47a3.49,3.49,0,0,0-1.53-2.46c-1-.5-3.94,0-5.58.41l-.25-1c.47-.12,4.65-1.16,6.29-.32a5.29,5.29,0,0,1,2.31,3.1Z"/><path class="cls-4" d="M195.6,177.05s-2.87-2.6-4.54-3.22-4.58-1.19-9.61-.32"/><path class="cls-4" d="M212,179.71s-.25-1.82-4.44-2.41a4.47,4.47,0,0,0-5.39,3.64"/><path class="cls-4" d="M195.6,190.17a3,3,0,0,0-3.06-.27c-3.08,1.53-7.34,9.1-10.34,10.87"/><path class="cls-4" d="M205.38,194.41s.93,2.55.57,3.05-1.63,2.15-2.76,2.08c-3-.18-6.73-.15-11.07-1.78a2.76,2.76,0,0,1-2-2.58c0-1.59.41-1.59.41-1.59"/><path class="cls-4" d="M192.92,196.26s3.6-.65,4.19-.41.95.82.54,1.09"/><path class="cls-4" d="M203.94,201.45c-1.23,2.81,6,.85-.41,13.74"/><path class="cls-4" d="M202.23,209.38c-1.47-.61-2.3-2.35-3.21-2.53s-4.12-1.13-4.79-1.09c-.94.06-10.32,0-10.32,0a29.28,29.28,0,0,0,4.17,1.8c2.57.9,6.19.49,7.52,1.82a6.66,6.66,0,0,1,4.82.75"/><path class="cls-4" d="M187.26,209.24c2.29,1.29,9.71,5.47,14,2.6"/><path class="cls-4" d="M196.6,203.6s.89,1.57,1.78,1.59,2.9,0,2.9,0a5.36,5.36,0,0,1,2,2.75"/><path class="cls-4" d="M196.6,203.6a32.56,32.56,0,0,0-6.47,0c-2.62.36-6.22.59-6.22.59"/><path class="cls-4" d="M158.71,195.79s-1.92,23.52,1.54,34"/><path class="cls-4" d="M132.53,252.59s-9.39,3.26-8.57,9.19,7.93,9.92,9.66,13.9,1.83,9.53,0,11.36"/><circle class="cls-6" cx="584.53" cy="397.12" r="13.29"/><circle class="cls-6" cx="582.04" cy="421.74" r="7.53"/><circle class="cls-6" cx="573.01" cy="435.42" r="5.13"/><path class="cls-6" d="M619.14,233.54,375.74,179.2a4,4,0,0,0-3.15.6L270.21,249.34a4,4,0,0,0,1.2,7.25l187.67,52A40.73,40.73,0,0,1,484.17,300h75.26a40.68,40.68,0,0,1,21.42,6.08L620.41,239A4.05,4.05,0,0,0,619.14,233.54Z"/><path class="cls-5" d="M460,329.07a8.6,8.6,0,1,1,8.59,8.67A8.35,8.35,0,0,1,460,329.07Zm15.31,0c0-4.41-3.06-7-6.72-7s-6.71,2.58-6.71,7a6.64,6.64,0,0,0,6.71,7C472.28,336.08,475.34,333.43,475.34,329.05Z"/><path class="cls-5" d="M491.91,330.53v6.92h-1.8v-6.79c0-2.12-.68-3.29-2.8-3.29s-3.06,1.68-3.06,3.65v6.43h-1.8v-16.8h1.8v7.23h.07a3.77,3.77,0,0,1,3.55-2.07C491.14,325.81,491.91,327.81,491.91,330.53Z"/><path class="cls-5" d="M509.85,336.16c2,0,3.48-1.07,3.48-3s-1.41-2.61-3-3.29l-2.48-1.07a4.08,4.08,0,0,1-2.83-4.09c0-2.82,2.58-4.31,5.16-4.31a5.89,5.89,0,0,1,4.6,2.17l-1.07,1.22a4.64,4.64,0,0,0-3.62-1.8c-1.8,0-3.22,1-3.22,2.6s1.22,2.41,2.34,2.87l2.29,1c2,.87,3.67,2,3.67,4.45,0,3-2.31,4.82-5.57,4.82a6.45,6.45,0,0,1-5.23-3l1.24-1.2A5.67,5.67,0,0,0,509.85,336.16Z"/><polygon class="cls-5" points="522.48 337.45 518.8 326.03 520.65 326.03 523.55 335.11 526.91 326.01 528.42 326.01 531.75 335.13 534.62 326.03 536.47 326.03 532.68 337.45 530.9 337.45 527.61 328.42 524.25 337.45 522.48 337.45"/><path class="cls-5" d="M545.62,337.69c-3.36,0-5.62-2.31-5.62-6a5.58,5.58,0,0,1,5.62-5.89,5.15,5.15,0,0,1,5.31,5.41,7.9,7.9,0,0,1-.08.95h-9a3.87,3.87,0,0,0,4.09,4,6.3,6.3,0,0,0,3.84-1.43l.78,1.07A6.12,6.12,0,0,1,545.62,337.69Zm-.07-10.37a3.6,3.6,0,0,0-3.68,3.48h7.23A3.39,3.39,0,0,0,545.55,327.32Z"/><path class="cls-5" d="M560.81,337.69c-3.36,0-5.63-2.31-5.63-6a5.59,5.59,0,0,1,5.63-5.89,5.14,5.14,0,0,1,5.3,5.41,9,9,0,0,1-.07.95h-9a3.88,3.88,0,0,0,4.09,4,6.34,6.34,0,0,0,3.85-1.43l.78,1.07A6.13,6.13,0,0,1,560.81,337.69Zm-.08-10.37a3.6,3.6,0,0,0-3.67,3.48h7.23A3.39,3.39,0,0,0,560.73,327.32Z"/><path class="cls-5" d="M574.19,337.69c-2.72,0-2.72-2.56-2.72-4.62v-5.51h-1.71v-1.5h1.71v-3.53h1.82v3.53h2.8v1.5h-2.82v5.87a4.2,4.2,0,0,0,.36,2.26,1.36,1.36,0,0,0,1.17.44,3.15,3.15,0,0,0,1.26-.27l.1,1.47A4.78,4.78,0,0,1,574.19,337.69Z"/><path class="cls-5" d="M582.25,335.18h1.92l-2.09,5.67h-1.41C581.2,339,581.74,337.08,582.25,335.18Z"/><path class="cls-5" d="M518.71,359.47v-1.56h6.62v6.38c-.3.36-2.27,2.65-7,2.65-4.94,0-8.52-3.45-8.52-8.69A8.71,8.71,0,0,1,525,352.53l-1.25,1.24a7,7,0,0,0-5.5-2.55c-3.67,0-6.59,2.68-6.59,7s3,7,6.76,7,5.14-1.65,5.14-1.65v-4.14Z"/><path class="cls-5" d="M532.19,352.56a1.24,1.24,0,1,1,0-2.48,1.21,1.21,0,0,1,1.26,1.24A1.23,1.23,0,0,1,532.19,352.56Zm-.9,2.68h1.8v11.41h-1.8Z"/><path class="cls-5" d="M539.44,356.77h-1.65v-1.51h1.65v-1.34c0-2.36.8-4.31,3.46-4.31a5.2,5.2,0,0,1,1.68.22l-.18,1.41a5.22,5.22,0,0,0-1.26-.19c-1.68,0-1.9,1.29-1.9,2.75v1.46h2.82v1.51h-2.82v9.88h-1.8Z"/><line class="cls-4" x1="1" y1="710.8" x2="65.79" y2="710.8"/><line class="cls-4" x1="117.92" y1="710.8" x2="234.77" y2="710.8"/><line class="cls-4" x1="360.32" y1="133.74" x2="266.72" y2="117.11"/><line class="cls-4" x1="361.36" y1="117.11" x2="316.13" y2="91.92"/><line class="cls-4" x1="358.55" y1="151.64" x2="310.26" y2="155.42"/><path class="cls-7" d="M220.17,25.13H225c5.06,0,8.81,3.23,8.81,8.42s-3.9,8.37-8.81,8.37h-4.85Zm11.76,8.39c0-4.23-2.8-6.79-7-6.79h-3V40.31h3C229,40.31,231.93,37.63,231.93,33.52Z"/><path class="cls-7" d="M241.32,42.16c-3.36,0-5.62-2.31-5.62-6a5.58,5.58,0,0,1,5.62-5.89,5.15,5.15,0,0,1,5.31,5.41,7.9,7.9,0,0,1-.08,1h-9a3.87,3.87,0,0,0,4.09,4,6.3,6.3,0,0,0,3.84-1.43l.78,1.07A6.12,6.12,0,0,1,241.32,42.16Zm-.07-10.37a3.6,3.6,0,0,0-3.68,3.48h7.23A3.38,3.38,0,0,0,241.25,31.79Z"/><polygon class="cls-7" points="247.5 30.5 249.38 30.5 253.05 39.58 256.7 30.5 258.58 30.5 253.78 41.92 252.27 41.92 247.5 30.5"/><path class="cls-7" d="M265.1,42.16c-3.36,0-5.62-2.31-5.62-6a5.58,5.58,0,0,1,5.62-5.89,5.14,5.14,0,0,1,5.3,5.41,9,9,0,0,1-.07,1h-9a3.87,3.87,0,0,0,4.08,4,6.34,6.34,0,0,0,3.85-1.43l.78,1.07A6.13,6.13,0,0,1,265.1,42.16ZM265,31.79a3.6,3.6,0,0,0-3.67,3.48h7.23A3.39,3.39,0,0,0,265,31.79Z"/><rect class="cls-7" x="273.03" y="25.13" width="1.8" height="16.79"/><path class="cls-7" d="M277.56,36.25a6,6,0,1,1,5.94,5.91A5.75,5.75,0,0,1,277.56,36.25Zm10.05,0a4.11,4.11,0,1,0-8.2,0,4.11,4.11,0,1,0,8.2,0Z"/><path class="cls-7" d="M292.18,30.48H294v2h0a4.88,4.88,0,0,1,4.16-2.22c3.51,0,5.55,2.54,5.55,5.92s-2.31,6-5.5,6A4.66,4.66,0,0,1,294,40l0,0v6.54h-1.8Zm9.67,5.72c0-2.48-1.44-4.41-4-4.41a4.12,4.12,0,0,0-4,4.41c0,2.46,1.36,4.38,3.92,4.38S301.85,38.66,301.85,36.2Z"/><path class="cls-7" d="M307.32,27.83a1.25,1.25,0,1,1,1.27-1.25A1.25,1.25,0,0,1,307.32,27.83Zm-.9,2.67h1.8V41.92h-1.8Z"/><path class="cls-7" d="M321.22,35v6.91h-1.8V35.13c0-2.12-.69-3.29-2.8-3.29s-3.07,1.68-3.07,3.65v6.43h-1.8V30.5h1.8v1.85h.07a3.8,3.8,0,0,1,3.56-2.07C320.44,30.28,321.22,32.28,321.22,35Z"/><path class="cls-7" d="M333.41,39.68a4.57,4.57,0,0,1-4.16,2.16c-3,0-5.5-2-5.5-5.76a5.43,5.43,0,0,1,5.45-5.8,4.72,4.72,0,0,1,4.23,2.2h.05l0-2h1.8v9c0,2.56-.37,3.92-1.1,4.92a5.68,5.68,0,0,1-5,2.34A8.15,8.15,0,0,1,324.21,45l.9-1.29a7.26,7.26,0,0,0,4.14,1.48c3.14,0,4.21-2,4.21-4.89v-.63Zm.12-3.63c0-2.6-1.56-4.23-4-4.23s-3.91,1.87-3.91,4.23,1.38,4.29,4,4.29S333.53,38.44,333.53,36.05Z"/><polygon class="cls-7" points="347.72 34.81 341.88 25.13 343.94 25.13 348.62 33.18 353.31 25.13 355.41 25.13 349.54 34.81 349.54 41.92 347.72 41.92 347.72 34.81"/><path class="cls-7" d="M354.29,36.25a6,6,0,1,1,5.93,5.91A5.74,5.74,0,0,1,354.29,36.25Zm10,0a4.11,4.11,0,1,0-8.2,0,4.11,4.11,0,1,0,8.2,0Z"/><path class="cls-7" d="M378.06,30.48V41.92h-1.75l0-1.83a3.82,3.82,0,0,1-3.61,2c-3.26,0-4.06-2-4.06-4.72V30.48h1.83v6.79c0,2.12.68,3.29,2.79,3.29s3.05-1.76,3.05-3.75V30.48Z"/><path class="cls-7" d="M381.42,30.5h1.8v2a3.11,3.11,0,0,1,2.9-2.17,3.39,3.39,0,0,1,1.22.2l-.13,1.7h-.07A3.35,3.35,0,0,0,385.9,32,2.46,2.46,0,0,0,384,33a4.5,4.5,0,0,0-.76,3v5.92h-1.8Z"/><path class="cls-7" d="M209.39,71.41c-5,0-8.46-3.48-8.46-8.66a8.33,8.33,0,0,1,8.54-8.67,8.25,8.25,0,0,1,6,2.34l-.93,1.44a6.71,6.71,0,0,0-5-2.15c-4,0-6.72,2.83-6.72,7s2.85,7,6.72,7a6.83,6.83,0,0,0,5.18-2.09l.93,1.29A8.13,8.13,0,0,1,209.39,71.41Z"/><path class="cls-7" d="M217.06,65.45A6,6,0,1,1,223,71.36,5.8,5.8,0,0,1,217.06,65.45Zm10.05,0A4.11,4.11,0,1,0,223,69.78,4.05,4.05,0,0,0,227.11,65.4Z"/><path class="cls-7" d="M243.68,59.49c3.34,0,4,2.36,4,4.74v6.89h-1.8V64.33c0-1.39-.37-3.29-2.41-3.29-1.87,0-2.92,1.83-2.92,4.07v6h-1.8V64.33c0-1.39-.37-3.29-2.41-3.29-1.88,0-2.95,1.83-2.95,4.07v6h-1.8V59.71h1.8l0,1.82h.07a3.54,3.54,0,0,1,3.14-2c2.24,0,3.26,1,3.68,2.46A3.65,3.65,0,0,1,243.68,59.49Z"/><path class="cls-7" d="M263.05,59.49c3.34,0,4,2.36,4,4.74v6.89h-1.8V64.33c0-1.39-.36-3.29-2.41-3.29-1.87,0-2.92,1.83-2.92,4.07v6h-1.8V64.33c0-1.39-.37-3.29-2.41-3.29-1.87,0-2.94,1.83-2.94,4.07v6h-1.81V59.71h1.81l0,1.82h.07a3.54,3.54,0,0,1,3.14-2c2.24,0,3.26,1,3.68,2.46A3.66,3.66,0,0,1,263.05,59.49Z"/><path class="cls-7" d="M279.58,59.68V71.12h-1.75l0-1.82a3.83,3.83,0,0,1-3.6,2c-3.26,0-4.06-2-4.06-4.73V59.68H272v6.79c0,2.12.68,3.29,2.8,3.29s3-1.75,3-3.75V59.68Z"/><path class="cls-7" d="M292.4,64.21v6.91h-1.8V64.33c0-2.12-.68-3.29-2.8-3.29s-3.06,1.68-3.06,3.66v6.42h-1.8V59.71h1.8v1.85h.07a3.77,3.77,0,0,1,3.55-2.07C291.62,59.49,292.4,61.48,292.4,64.21Z"/><path class="cls-7" d="M296.76,57a1.24,1.24,0,1,1,0-2.48A1.21,1.21,0,0,1,298,55.79,1.23,1.23,0,0,1,296.76,57Zm-.9,2.68h1.8V71.12h-1.8Z"/><path class="cls-7" d="M304.33,71.36c-2.73,0-2.73-2.55-2.73-4.62v-5.5h-1.7V59.73h1.7V56.2h1.83v3.53h2.79v1.51H303.4V67.1a4.16,4.16,0,0,0,.37,2.27,1.37,1.37,0,0,0,1.17.44,3.21,3.21,0,0,0,1.26-.27l.1,1.46A4.82,4.82,0,0,1,304.33,71.36Z"/><path class="cls-7" d="M306.74,59.68l1.87,0,3.7,9.39,3.62-9.42,1.88,0-5.57,13.48c-.88,2.09-1.66,2.65-2.88,2.65a4.2,4.2,0,0,1-1.77-.39l.36-1.53a3.62,3.62,0,0,0,1.15.27c.58,0,1,0,1.65-1.59l.63-1.48Z"/><path class="cls-7" d="M329.54,71.12h-5V54.33H329c3,0,5.38,1,5.38,4.21a3.86,3.86,0,0,1-2.75,3.67c2.5.42,3.89,1.9,3.89,4.19a4.46,4.46,0,0,1-2,3.92A7.12,7.12,0,0,1,329.54,71.12Zm-.66-15.26H326.4v5.82h2.14c2,0,3.94-.61,3.94-3C332.48,56.57,331,55.86,328.88,55.86Zm.27,7.3H326.4v6.4h2.85c2.28,0,4.38-.34,4.38-3.16C333.63,64.06,331.75,63.16,329.15,63.16Z"/><path class="cls-7" d="M338.42,59.71h1.8v1.94a3.11,3.11,0,0,1,2.9-2.16,3.45,3.45,0,0,1,1.21.19l-.12,1.71h-.07a3.35,3.35,0,0,0-1.24-.22,2.51,2.51,0,0,0-1.93,1,4.6,4.6,0,0,0-.75,3v5.91h-1.8Z"/><path class="cls-7" d="M352.24,69.61a4.81,4.81,0,0,1-3.75,1.75c-2.16,0-3.91-1.38-3.91-3.48,0-1.94,1.43-3.31,4.55-3.45l3.09-.15v-.51c0-1.92-1.29-2.77-3-2.77a6.73,6.73,0,0,0-3.38.9l-.61-1.29a8.33,8.33,0,0,1,4.06-1.12c3.34,0,4.77,1.73,4.77,4.94v6.69h-1.77Zm-3-3.87c-2.11.1-2.82,1-2.82,2.12a2.18,2.18,0,0,0,2.41,2.07,4.4,4.4,0,0,0,3.38-1.63V65.6Z"/><path class="cls-7" d="M366.7,64.21v6.91h-1.8V64.33c0-2.12-.68-3.29-2.8-3.29S359,62.72,359,64.7v6.42h-1.8V59.71H359v1.85h.08a3.77,3.77,0,0,1,3.55-2.07C365.92,59.49,366.7,61.48,366.7,64.21Z"/><path class="cls-7" d="M379,69.15h0a4.82,4.82,0,0,1-4.28,2.21c-3.48,0-5.45-2.5-5.45-5.93s2.19-5.94,5.55-5.94a4.71,4.71,0,0,1,4.11,2.16h.05V54.33h1.8V71.12H379Zm0-3.77C379,62.89,377.58,61,375,61s-4,1.85-4,4.33,1.46,4.46,4,4.46S379,67.83,379,65.38Z"/><polygon class="cls-5" points="153.29 743.41 147.45 733.72 149.51 733.72 154.19 741.78 158.88 733.72 160.98 733.72 155.11 743.41 155.11 750.51 153.29 750.51 153.29 743.41"/><path class="cls-5" d="M159.86,744.84a6,6,0,1,1,5.94,5.92A5.8,5.8,0,0,1,159.86,744.84Zm10-.05a4.11,4.11,0,1,0-4.11,4.38A4.05,4.05,0,0,0,169.91,744.79Z"/><path class="cls-5" d="M183.63,739.08v11.43h-1.75l0-1.82a3.81,3.81,0,0,1-3.6,2c-3.27,0-4.07-2-4.07-4.72v-6.91H176v6.79c0,2.11.68,3.28,2.79,3.28s3.05-1.75,3.05-3.75v-6.32Z"/><polygon class="cls-5" points="191.27 750.51 192.88 733.72 194.97 733.72 200.28 747.37 205.58 733.72 207.8 733.72 209.41 750.51 207.58 750.51 206.31 736.5 200.67 750.73 199.82 750.73 194.34 736.69 193.1 750.51 191.27 750.51"/><path class="cls-5" d="M213.47,736.42a1.24,1.24,0,1,1,1.26-1.24A1.22,1.22,0,0,1,213.47,736.42Zm-.9,2.68h1.8v11.41h-1.8Z"/><path class="cls-5" d="M226.76,748.27a4.56,4.56,0,0,1-4.17,2.17c-3,0-5.5-2-5.5-5.77a5.43,5.43,0,0,1,5.46-5.79,4.74,4.74,0,0,1,4.23,2.19h.05l0-2h1.8v9c0,2.56-.36,3.92-1.09,4.92a5.68,5.68,0,0,1-5,2.33,8,8,0,0,1-4.94-1.73l.9-1.29a7.19,7.19,0,0,0,4.13,1.49c3.14,0,4.21-2,4.21-4.89v-.64Zm.12-3.62c0-2.61-1.56-4.24-4-4.24s-3.92,1.88-3.92,4.24,1.39,4.28,4,4.28S226.88,747,226.88,744.65Z"/><path class="cls-5" d="M241.63,743.6v6.91h-1.81v-6.79c0-2.11-.68-3.28-2.79-3.28s-3.07,1.68-3.07,3.65v6.42h-1.8V733.72H234V741H234a3.78,3.78,0,0,1,3.56-2.07C240.85,738.88,241.63,740.88,241.63,743.6Z"/><path class="cls-5" d="M248.17,750.76c-2.73,0-2.73-2.56-2.73-4.63v-5.5h-1.7v-1.51h1.7v-3.53h1.83v3.53h2.8v1.51h-2.82v5.87a4.24,4.24,0,0,0,.36,2.26,1.38,1.38,0,0,0,1.17.44,3.21,3.21,0,0,0,1.26-.27l.1,1.46A4.62,4.62,0,0,1,248.17,750.76Z"/><path class="cls-5" d="M151.14,765.67c0,1.22,0,14.05,0,14.05h-1.83v-16.8h1.9l10.3,13.85V762.92h1.8v16.8h-1.75Z"/><path class="cls-5" d="M166.21,774.05a6,6,0,1,1,5.94,5.91A5.75,5.75,0,0,1,166.21,774.05Zm10,0a4.11,4.11,0,1,0-4.11,4.38A4.05,4.05,0,0,0,176.26,774Z"/><path class="cls-5" d="M183.85,780c-2.72,0-2.72-2.56-2.72-4.62v-5.5h-1.71v-1.51h1.71V764.8H183v3.53h2.8v1.51h-2.82v5.86a4.2,4.2,0,0,0,.36,2.26,1.36,1.36,0,0,0,1.17.44,3.15,3.15,0,0,0,1.26-.27l.1,1.46A4.62,4.62,0,0,1,183.85,780Z"/><path class="cls-5" d="M194.78,765.67c0,1.22,0,14.05,0,14.05H193v-16.8h1.9l10.29,13.85V762.92H207v16.8h-1.75Z"/><path class="cls-5" d="M215.46,780c-3.36,0-5.62-2.31-5.62-6a5.59,5.59,0,0,1,5.62-5.89,5.15,5.15,0,0,1,5.31,5.41,9,9,0,0,1-.07,1h-9a3.88,3.88,0,0,0,4.09,4,6.34,6.34,0,0,0,3.85-1.43l.77,1.07A6.12,6.12,0,0,1,215.46,780Zm-.07-10.37a3.58,3.58,0,0,0-3.67,3.48h7.22A3.38,3.38,0,0,0,215.39,769.59Z"/><path class="cls-5" d="M228.22,780c-3.36,0-5.63-2.31-5.63-6a5.59,5.59,0,0,1,5.63-5.89,5.14,5.14,0,0,1,5.3,5.41,9,9,0,0,1-.07,1h-9a3.88,3.88,0,0,0,4.09,4,6.34,6.34,0,0,0,3.85-1.43l.78,1.07A6.14,6.14,0,0,1,228.22,780Zm-.08-10.37a3.58,3.58,0,0,0-3.67,3.48h7.23A3.39,3.39,0,0,0,228.14,769.59Z"/><path class="cls-5" d="M245.1,777.75h0A4.84,4.84,0,0,1,240.8,780c-3.48,0-5.46-2.51-5.46-5.94s2.19-5.94,5.55-5.94a4.72,4.72,0,0,1,4.12,2.17h0v-7.33h1.81v16.8H245.1Zm0-3.78c0-2.48-1.41-4.35-3.94-4.35s-4,1.85-4,4.33,1.46,4.45,4,4.45S245.1,776.43,245.1,774Z"/><path class="cls-5" d="M261.85,778.21A4.86,4.86,0,0,1,258.1,780c-2.17,0-3.92-1.39-3.92-3.48s1.44-3.31,4.55-3.46l3.09-.14v-.51c0-1.93-1.29-2.78-3-2.78a6.77,6.77,0,0,0-3.38.9l-.61-1.29a8.41,8.41,0,0,1,4.07-1.12c3.33,0,4.77,1.73,4.77,4.94v6.7h-1.78Zm-3-3.87c-2.12.1-2.83.95-2.83,2.12a2.18,2.18,0,0,0,2.41,2.06,4.44,4.44,0,0,0,3.39-1.63v-2.7Z"/><path class="cls-5" d="M154.31,808.92h-5V792.13h4.41c3,0,5.38,1,5.38,4.21a3.86,3.86,0,0,1-2.75,3.67c2.5.41,3.89,1.9,3.89,4.19a4.46,4.46,0,0,1-2,3.92A7.2,7.2,0,0,1,154.31,808.92Zm-.66-15.26h-2.48v5.82h2.14c2,0,3.94-.61,3.94-3C157.25,794.37,155.74,793.66,153.65,793.66Zm.27,7.3h-2.75v6.4H154c2.28,0,4.38-.34,4.38-3.16C158.4,801.86,156.52,801,153.92,801Z"/><path class="cls-5" d="M172.46,797.48v11.44h-1.75l0-1.83a3.82,3.82,0,0,1-3.61,2c-3.26,0-4.06-2-4.06-4.72v-6.91h1.83v6.79c0,2.12.68,3.29,2.79,3.29s3.05-1.76,3.05-3.75v-6.33Z"/><path class="cls-5" d="M176.84,794.83a1.25,1.25,0,1,1,1.27-1.24A1.25,1.25,0,0,1,176.84,794.83Zm-.9,2.67h1.8v11.42h-1.8Z"/><rect class="cls-5" x="181.39" y="792.13" width="1.8" height="16.79"/><path class="cls-5" d="M195.68,807h0a4.82,4.82,0,0,1-4.28,2.21c-3.48,0-5.45-2.5-5.45-5.94s2.19-5.93,5.55-5.93a4.71,4.71,0,0,1,4.11,2.16h0v-7.32h1.8v16.79h-1.75Zm0-3.78c0-2.48-1.41-4.35-3.94-4.35s-4,1.85-4,4.33,1.46,4.45,4,4.45S195.68,805.63,195.68,803.17Z"/><path class="cls-5" d="M210.64,807.63c2,0,3.49-1.07,3.49-3s-1.42-2.6-3-3.29l-2.49-1.07a4.08,4.08,0,0,1-2.82-4.09c0-2.82,2.58-4.3,5.16-4.3a5.89,5.89,0,0,1,4.6,2.16l-1.07,1.22a4.64,4.64,0,0,0-3.63-1.8c-1.8,0-3.21,1-3.21,2.6s1.22,2.41,2.34,2.87l2.28,1c2.05.87,3.68,2,3.68,4.45,0,3-2.31,4.82-5.57,4.82a6.49,6.49,0,0,1-5.24-3l1.24-1.2A5.67,5.67,0,0,0,210.64,807.63Z"/><path class="cls-5" d="M221.81,809.16c-2.72,0-2.72-2.55-2.72-4.62V799h-1.7v-1.51h1.7V794h1.82v3.53h2.8V799h-2.82v5.86a4.16,4.16,0,0,0,.37,2.27,1.36,1.36,0,0,0,1.16.43,3.33,3.33,0,0,0,1.27-.26l.1,1.46A4.87,4.87,0,0,1,221.81,809.16Z"/><path class="cls-5" d="M230.67,809.16c-3.36,0-5.62-2.31-5.62-6a5.58,5.58,0,0,1,5.62-5.88,5.14,5.14,0,0,1,5.31,5.4,9,9,0,0,1-.07.95h-9a3.88,3.88,0,0,0,4.09,4,6.34,6.34,0,0,0,3.85-1.43l.77,1.07A6.12,6.12,0,0,1,230.67,809.16Zm-.07-10.37a3.58,3.58,0,0,0-3.67,3.48h7.22A3.38,3.38,0,0,0,230.6,798.79Z"/><path class="cls-5" d="M238.61,797.48h1.8v2h0a4.88,4.88,0,0,1,4.16-2.21c3.51,0,5.55,2.53,5.55,5.91s-2.31,6-5.5,6a4.67,4.67,0,0,1-4.21-2.19l0,0v6.54h-1.8Zm9.66,5.72c0-2.48-1.44-4.41-4-4.41a4.12,4.12,0,0,0-4,4.41c0,2.46,1.37,4.38,3.92,4.38S248.27,805.66,248.27,803.2Z"/><path class="cls-6" d="M559.43,382H484.17a41,41,0,0,1,0-82h75.26a41,41,0,0,1,0,82Z"/></svg>