<svg id="Layer_1" data-name="Layer 1" xmlns="http://www.w3.org/2000/svg" xmlns:xlink="http://www.w3.org/1999/xlink" width="900" height="213.18" viewBox="0 0 900 213.18"><defs><style>.cls-1{fill:none;}.cls-2{fill:#293073;}.cls-3{fill:#ffd007;}.cls-4{fill:url(#New_Pattern_Swatch_3);}.cls-5{fill:url(#New_Pattern_Swatch_3-19);}.cls-6{fill:url(#New_Pattern_Swatch_3-43);}.cls-7{fill:url(#New_Pattern_Swatch_4);}.cls-8{fill:url(#New_Pattern_Swatch_3-63);}</style><pattern id="New_Pattern_Swatch_3" data-name="New Pattern Swatch 3" width="85.28" height="85.28" patternTransform="translate(-469.52 -518.25) scale(1.58)" patternUnits="userSpaceOnUse" viewBox="0 0 85.28 85.28"><rect class="cls-1" width="85.28" height="85.28"/><rect class="cls-2" width="85.28" height="85.28"/></pattern><pattern id="New_Pattern_Swatch_3-19" data-name="New Pattern Swatch 3" width="85.28" height="85.28" patternTransform="translate(-509.78 -749.66) scale(1.58)" patternUnits="userSpaceOnUse" viewBox="0 0 85.28 85.28"><rect class="cls-1" width="85.28" height="85.28"/><rect class="cls-2" width="85.28" height="85.28"/></pattern><pattern id="New_Pattern_Swatch_3-43" data-name="New Pattern Swatch 3" width="85.28" height="85.28" patternTransform="translate(-353.62 -778.36) scale(1.58)" patternUnits="userSpaceOnUse" viewBox="0 0 85.28 85.28"><rect class="cls-1" width="85.28" height="85.28"/><rect class="cls-2" width="85.28" height="85.28"/></pattern><pattern id="New_Pattern_Swatch_4" data-name="New Pattern Swatch 4" width="85.28" height="85.28" patternUnits="userSpaceOnUse" viewBox="0 0 85.28 85.28"><rect class="cls-1" width="85.28" height="85.28"/><rect class="cls-3" width="85.28" height="85.28"/></pattern><pattern id="New_Pattern_Swatch_3-63" data-name="New Pattern Swatch 3" width="85.28" height="85.28" patternTransform="translate(-48.6 -382.49) scale(1.16)" patternUnits="userSpaceOnUse" viewBox="0 0 85.28 85.28"><rect class="cls-1" width="85.28" height="85.28"/><rect class="cls-2" width="85.28" height="85.28"/></pattern></defs><path class="cls-4" d="M337,173.34c8,0,11.37,5.68,11.37,11,0,7.9-4.44,12.56-11,12.56h-4v15.51h-5.92v-39.1Zm-3.69,17.45h3.35c5.63,0,5.74-4.61,5.74-6.25,0-1.37-.63-5.46-5.4-5.46h-3.69Z"/><path class="cls-4" d="M351.52,173.34h6.26v32.85H372.5v6.25h-21Z"/><path class="cls-4" d="M382.67,173.34v28.3c0,1.65.12,5.57,4.38,5.57s4.38-3.92,4.38-5.57v-28.3h6.08v28.3c0,6.77-3.36,11.54-10.46,11.54s-10.46-4.83-10.46-11.54v-28.3Z"/><path class="cls-4" d="M416.61,195.85h-4.55v-5.8h10.51v11.59c0,6.77-3.46,11.54-10.51,11.54-8.41,0-10.46-6.25-10.46-11.54v-17.5c0-6.76,3.41-11.54,10.46-11.54,8.81,0,10.51,6.2,10.51,11.54v.68h-6v-.68c0-1.71-.06-5.8-4.55-5.8s-4.55,4.09-4.55,5.8v17.5c0,1.65.06,5.74,4.55,5.74s4.55-4.09,4.55-5.74Z"/><path class="cls-4" d="M441.62,195.85h-4.55v-5.8h10.51v11.59c0,6.77-3.46,11.54-10.51,11.54-8.41,0-10.46-6.25-10.46-11.54v-17.5c0-6.76,3.41-11.54,10.46-11.54,8.81,0,10.51,6.2,10.51,11.54v.68h-6v-.68c0-1.71-.06-5.8-4.55-5.8s-4.55,4.09-4.55,5.8v17.5c0,1.65.06,5.74,4.55,5.74s4.55-4.09,4.55-5.74Z"/><path class="cls-4" d="M451.62,212.44v-39.1h21v5.91H457.87v10.69h13v5.91h-13v10.63h14.72v6Z"/><path class="cls-4" d="M476.63,173.34h9.61c8,0,11.36,5.17,11.36,11v17.1c0,5.69-3.35,11.14-11.36,11h-9.61Zm5.8,33.36h3.92c4.77,0,5.4-3.81,5.4-5.4V184.54c0-1.65-.63-5.46-5.4-5.46h-3.92Z"/><path class="cls-4" d="M547.62,206.7v5.74h-21V206.7H534V179.08h-7.16v-5.74h20.63v5.74h-7.16V206.7Z"/><path class="cls-4" d="M566.66,212.44l-9.09-22.5v22.5h-6v-39.1h6l9.09,22.9v-22.9h5.92v39.1Z"/><path class="cls-5" d="M209.49,194.05v-2h6.12v2Z"/><path class="cls-5" d="M234.5,203.51h-1.92l1.77-6.22h2.48Z"/><path class="cls-5" d="M146.34,200.27a7.32,7.32,0,0,1-5.64-2.93l1.44-1.64a5.94,5.94,0,0,0,4.43,2.5c1.89,0,3.41-1.09,3.41-2.93s-1.95-2.53-2.83-2.88-2.13-.84-2.78-1.17a4.48,4.48,0,0,1-2.89-4.27c0-3.11,2.84-4.65,5.62-4.65a6.82,6.82,0,0,1,5,2.25l-1.29,1.67a5.29,5.29,0,0,0-3.84-1.87c-1.72,0-3,.81-3,2.42s1.19,2.23,2.25,2.66l3.21,1.34a4.7,4.7,0,0,1,3,4.34C152.43,198.5,149.4,200.27,146.34,200.27Z"/><path class="cls-5" d="M155.25,200V182.53h10.21v2.05h-7.75v5.2H165v2.08h-7.32v6h8V200Z"/><path class="cls-5" d="M173.57,192.49h-2.45V200h-2.45V182.53h4.9a6.3,6.3,0,0,1,4.22,1.24,4.56,4.56,0,0,1,1.69,3.74C179.48,191,176.76,192.49,173.57,192.49Zm-.2-8h-2.25v6h2.25c1.94,0,3.59-.78,3.59-3S175.31,184.52,173.37,184.52Z"/><path class="cls-5" d="M187.72,184.58V200h-2.45V184.58h-4.93v-2.05h12.28v2.05Z"/><path class="cls-5" d="M202.82,200V184.32h-3.41v-1.79h5.79V200Z"/><path class="cls-5" d="M218.16,200l-.36-1.64,6.17-5.84c1.34-1.29,2.83-2.88,2.83-4.83a3.3,3.3,0,0,0-3.59-3.39,5.17,5.17,0,0,0-4.27,2.81l-1.29-1.44a6.22,6.22,0,0,1,5.71-3.36c3.49,0,5.84,2,5.84,5.13s-2.6,5.25-3.69,6.26L221,198h8.89v2Z"/><path class="cls-5" d="M245.59,200l-.35-1.64,6.17-5.84c1.33-1.29,2.83-2.88,2.83-4.83a3.3,3.3,0,0,0-3.59-3.39,5.16,5.16,0,0,0-4.27,2.81l-1.29-1.44a6.22,6.22,0,0,1,5.71-3.36c3.49,0,5.84,2,5.84,5.13s-2.61,5.25-3.69,6.26L248.47,198h8.9v2Z"/><path class="cls-5" d="M265.88,200.24c-4.7,0-6.67-4.44-6.67-9s2-9,6.67-9,6.67,4.44,6.67,9S270.58,200.24,265.88,200.24Zm0-15.89c-2.8,0-4.19,2.88-4.19,6.87s1.39,6.88,4.19,6.88,4.2-2.91,4.2-6.88S268.69,184.35,265.88,184.35Z"/><path class="cls-5" d="M275.2,200l-.35-1.64,6.16-5.84c1.34-1.29,2.83-2.88,2.83-4.83a3.29,3.29,0,0,0-3.58-3.39,5.19,5.19,0,0,0-4.28,2.81l-1.28-1.44a6.19,6.19,0,0,1,5.71-3.36c3.48,0,5.83,2,5.83,5.13s-2.6,5.25-3.69,6.26L278.08,198H287v2Z"/><path class="cls-5" d="M295.49,200.24c-4.7,0-6.67-4.44-6.67-9s2-9,6.67-9,6.67,4.44,6.67,9S300.19,200.24,295.49,200.24Zm0-15.89c-2.81,0-4.2,2.88-4.2,6.87s1.39,6.88,4.2,6.88,4.19-2.91,4.19-6.88S298.29,184.35,295.49,184.35Z"/><path class="cls-6" d="M605.16,201.89a9,9,0,1,1,6.21-15.7l-1,2a6.89,6.89,0,0,0-5.06-2.13c-3.76,0-6.49,2.71-6.49,6.8s2.75,6.8,6.49,6.8a6.94,6.94,0,0,0,5.21-2.12l1.06,1.79A8.25,8.25,0,0,1,605.16,201.89Z"/><path class="cls-6" d="M620.61,194.28v7.3h-2.45v-7.3l-6.06-10.13h2.75l4.53,8,4.55-8h2.75Z"/><path class="cls-6" d="M638.63,200.45a6.75,6.75,0,0,1-4.4,1.13h-5.66V184.15h4.7a7.54,7.54,0,0,1,4.15.83,3.88,3.88,0,0,1,1.87,3.54,4,4,0,0,1-2.66,3.81v.06c2.35.48,3.87,1.94,3.87,4.24A4.55,4.55,0,0,1,638.63,200.45Zm-5.36-14.36H631v5.54h2.05a4.3,4.3,0,0,0,2.6-.53,2.61,2.61,0,0,0,1.16-2.3C636.83,186.57,635.14,186.09,633.27,186.09Zm3.44,8a5.37,5.37,0,0,0-3.06-.63H631v6.09h2.63a5.36,5.36,0,0,0,3.06-.61,2.7,2.7,0,0,0,1.26-2.45A2.62,2.62,0,0,0,636.71,194.13Z"/><path class="cls-6" d="M643.27,201.58V184.15h10.21v2h-7.75v5.21h7.32v2.07h-7.32v6h8v2.07Z"/><path class="cls-6" d="M665.56,201.58l-4.55-7.5h-1.87v7.5h-2.45V184.15h4.93c3.11,0,5.89,1.44,5.89,4.9a4.65,4.65,0,0,1-4,4.78l5,7.75Zm-1.69-14.81a4.68,4.68,0,0,0-2.94-.63h-1.79v5.92h1.79a4.82,4.82,0,0,0,2.94-.61A2.64,2.64,0,0,0,665,189.1,2.61,2.61,0,0,0,663.87,186.77Z"/><path class="cls-6" d="M674.9,201.89a7.3,7.3,0,0,1-5.63-2.93l1.44-1.65a5.89,5.89,0,0,0,4.42,2.51c1.9,0,3.41-1.09,3.41-2.94s-1.94-2.52-2.83-2.88-2.12-.83-2.78-1.16a4.49,4.49,0,0,1-2.88-4.27c0-3.11,2.83-4.65,5.61-4.65a6.79,6.79,0,0,1,5,2.25l-1.29,1.67a5.29,5.29,0,0,0-3.84-1.87c-1.72,0-3,.8-3,2.42s1.19,2.23,2.25,2.66l3.21,1.34a4.69,4.69,0,0,1,3,4.34C681,200.12,678,201.89,674.9,201.89Z"/><path class="cls-6" d="M688.72,194.1h-2.45v7.48h-2.45V184.15h4.9a6.3,6.3,0,0,1,4.22,1.24,4.56,4.56,0,0,1,1.7,3.73C694.64,192.64,691.91,194.1,688.72,194.1Zm-.2-8h-2.25v6h2.25c2,0,3.59-.79,3.59-3S690.47,186.14,688.52,186.14Z"/><path class="cls-6" d="M708.23,201.58,706.44,197H699l-1.79,4.54h-2.58l7.1-17.48h2.15L711,201.58Zm-5.53-14.43L699.64,195h6.11Z"/><path class="cls-6" d="M720.33,201.89a9,9,0,0,1,0-18,8.66,8.66,0,0,1,6.2,2.3l-1,2a6.87,6.87,0,0,0-5-2.13c-3.77,0-6.5,2.71-6.5,6.8s2.75,6.8,6.5,6.8a6.94,6.94,0,0,0,5.2-2.12l1.06,1.79A8.23,8.23,0,0,1,720.33,201.89Z"/><path class="cls-6" d="M729.22,201.58V184.15h10.21v2h-7.76v5.21H739v2.07h-7.33v6h8v2.07Z"/><polygon class="cls-7" points="546.64 117.44 546.64 147.37 546.2 91.13 546.64 117.44"/><polygon class="cls-7" points="545.79 21.94 545.79 51.87 545.44 2.4 545.79 21.94"/><path class="cls-7" d="M768.74,93.72c5.8-.18,7.54-3,7.53-6.55a11.41,11.41,0,0,0-.06-1.16v-.07c0-.39-.1-.78-.17-1.17a.68.68,0,0,0,0-.14c-.07-.38-.15-.77-.24-1.15,0-.06,0-.12,0-.17-.09-.38-.19-.77-.3-1.15a1.21,1.21,0,0,1-.05-.18c-.11-.38-.23-.76-.35-1.13l-.06-.18c-.12-.38-.25-.75-.38-1.11a1.09,1.09,0,0,0-.05-.17c-.13-.37-.26-.73-.4-1.09l0-.14-.38-1v0L753.13,21.94H712.47L706.54,2.4V32.33l5.93,19.54h40.66Z"/><path class="cls-7" d="M221.73,71.22l-5,10.12A18,18,0,0,0,215,86.55l-.06.44c-.35,3.48,1.33,6.17,6.83,6.45V88.13a67.38,67.38,0,0,0,7.3,4.35,18.43,18.43,0,0,0,10.7-10c2.3-5,6.2-11.79-6-17.44-13.1-6.06-20.87-11.71-21.21-20.61V71.22Z"/><rect class="cls-7" x="594.36" y="21.94" width="21.89" height="29.93"/><polygon class="cls-7" points="571.51 117.44 571.51 91.13 567.69 21.94 545.79 21.94 545.79 51.87 567.69 51.87 571.32 117.44 546.64 117.44 546.64 147.37 629.92 147.37 629.92 117.44 571.51 117.44"/><path class="cls-7" d="M807.18,100.64c0,.24,0,.48-.07.71q-.09.83-.24,1.62c0,.17,0,.35-.09.51-.14.68-.31,1.35-.51,2l-.16.42c-.17.5-.36,1-.57,1.46-.09.2-.18.4-.28.59-.2.43-.43.84-.67,1.25l-.3.51c-.36.55-.74,1.09-1.15,1.6l0,.06a18.27,18.27,0,0,1-1.35,1.44l-.28.27a19.45,19.45,0,0,1-1.54,1.29l-.12.08a18.32,18.32,0,0,1-1.69,1.12l-.31.19c-.6.35-1.24.68-1.91,1l-.34.16c-.68.3-1.39.58-2.12.84l-.37.13c-.7.24-1.42.45-2.17.65l-.37.11c-.84.21-1.71.4-2.6.56l-.73.13c-.71.11-1.43.22-2.17.31l-.83.1c-.71.07-1.46.13-2.21.18l-1.06.07c-1.11.06-2.24.09-3.42.09-27.51,0-46.34-15.07-53.31-38.84l-3.54-12V99.13l3.54,12c7,23.77,25.8,38.84,53.31,38.84,1.18,0,2.31,0,3.42-.09l1.06-.07c.58,0,1.16-.07,1.71-.12.17,0,.33-.05.5-.06l.83-.1c.74-.09,1.46-.2,2.17-.32.24,0,.49-.07.73-.12.89-.17,1.76-.35,2.6-.56l.37-.11c.51-.14,1-.27,1.5-.42l.67-.23.37-.13c.73-.26,1.44-.54,2.12-.84l.34-.16c.59-.27,1.16-.56,1.7-.86l.21-.13.31-.19a18.32,18.32,0,0,0,1.69-1.12l.12-.08a17.62,17.62,0,0,0,1.54-1.3l.28-.26a3.07,3.07,0,0,0,.26-.25c.39-.38.74-.78,1.09-1.19l0-.06c.41-.51.79-1,1.15-1.6l.3-.51c.24-.41.47-.82.67-1.25.1-.19.19-.39.28-.59.21-.47.4-1,.57-1.46l.16-.42c.2-.65.37-1.31.51-2,0-.17.06-.34.09-.51q.15-.79.24-1.62c0-.24,0-.47.07-.72s0-.41.05-.63c0-.47,0-1,0-1.44V98.56C807.27,99.27,807.23,100,807.18,100.64Z"/><path class="cls-7" d="M489.31,51.87h5.34c5.55,0,9.08,1.31,11.31,3.19a11.62,11.62,0,0,1,.94.91,10.17,10.17,0,0,1,1.81,2.92l1-24.08c0-4.94-1.38-12.87-15.05-12.87h-5.33l-5.46,69.17h2.36Z"/><path class="cls-7" d="M535.66,82.52c0,.43,0,.86-.09,1.3l0,.32c0,.54-.12,1.08-.2,1.62,0,.16-.05.31-.08.47-.06.38-.12.77-.19,1.15,0,.2-.09.4-.13.61s-.15.66-.23,1-.11.44-.17.66-.17.63-.26.94l-.21.67c-.09.31-.2.61-.3.91l-.24.67c-.11.3-.23.6-.35.9l-.27.66c-.13.3-.27.6-.41.9s-.18.42-.28.62l-.48.94-.3.56c-.2.36-.41.72-.62,1.08-.08.13-.15.26-.22.39-.3.48-.61,1-.93,1.43l-.24.33c-.25.36-.5.71-.77,1.06-.12.17-.26.33-.39.5s-.45.58-.69.86l-.47.54-.7.78c-.16.18-.34.36-.51.54s-.42.43-.64.64l-.31.29-.15.14-.86.81-.33.3c-.57.49-1.16,1-1.77,1.43-.15.12-.32.23-.48.35l-.74.53-.25.17-.45.32c-.21.14-.41.28-.63.41l-.42.26-.2.12-1,.59-.51.29c-.35.2-.71.38-1.07.57l-.79.41-1.19.55-.76.35c-.47.2-.95.38-1.43.57l-.61.25c-.7.25-1.41.5-2.13.73l-.16,0c-.72.22-1.46.43-2.21.63l-.82.19c-.54.14-1.09.27-1.66.38l-1,.19c-.53.1-1.06.2-1.61.28l-1,.16c-.55.08-1.11.14-1.67.2l-1.06.11c-.63.06-1.28.1-1.92.14l-.94.06c-1,0-1.94.07-2.94.07l-8.06,0H452.45v29.93s44.92-.19,45.55-.25c.13,0,.27,0,.4,0l.66-.08,1.68-.2,1-.16c.55-.08,1.08-.18,1.62-.28l1-.19c.57-.11,1.12-.24,1.67-.38l.81-.19c.75-.2,1.5-.41,2.22-.64l.13,0h0c.72-.23,1.43-.48,2.13-.74l.59-.23c.49-.19,1-.38,1.45-.59.26-.1.5-.22.75-.34s.81-.36,1.2-.56l.78-.4c.37-.19.73-.37,1.08-.57l.14-.07.36-.22c.55-.32,1.08-.64,1.59-1l.63-.41q.74-.5,1.44-1c.16-.12.33-.23.48-.35.61-.47,1.2-.94,1.77-1.43l.32-.3c.46-.41.9-.82,1.33-1.24a2.39,2.39,0,0,0,.23-.22l.41-.42c.17-.18.35-.36.51-.54s.47-.52.7-.79.32-.35.47-.53.46-.57.69-.86.27-.33.39-.5c.27-.35.52-.7.77-1.06l.24-.33c.32-.47.63-1,.93-1.43.07-.13.14-.26.22-.39.21-.36.42-.72.62-1.08l.3-.56.48-.94c.1-.21.19-.41.28-.62s.28-.6.41-.91l.27-.65c.12-.3.24-.6.35-.9l.24-.67c.1-.3.21-.61.3-.91l.21-.67c.09-.31.18-.63.26-.94s.12-.44.17-.66.15-.66.23-1,.09-.41.13-.62c.07-.38.13-.76.19-1.14,0-.16.06-.31.08-.47.08-.54.15-1.08.2-1.63l0-.32c0-.39.07-.79.09-1.19v-.1c0-.61.05-1.22.05-1.83V80.69C535.71,81.3,535.69,81.91,535.66,82.52Z"/><polygon class="cls-7" points="661.98 24.06 661.98 27.31 664.23 59.4 668.41 70.93 679 70.93 661.98 24.06"/><polygon class="cls-7" points="697.36 117.44 697.07 117.44 688.4 94.11 679.28 94.11 676.83 94.11 665.95 94.11 665.95 98.67 667.11 117.44 665.95 117.44 636.98 117.44 636.98 147.37 667.39 147.37 667.39 124.04 688.68 124.04 697.36 147.37 727.75 147.37 727.75 117.44 697.36 117.44"/><path class="cls-7" d="M898.83,102.13a20.41,20.41,0,0,1-.13,2.1v0s0,.06,0,.09c0,.46-.12.92-.21,1.37l0,.16,0,.17c0,.15-.09.3-.13.46s-.15.57-.24.85c0,.11-.06.24-.1.36s-.11.3-.17.45v0c-.08.21-.18.43-.27.64s-.13.34-.21.51l-.13.26h0l-.09.18c-.13.26-.28.49-.43.74s-.13.24-.21.36-.13.24-.21.36-.29.38-.44.57l-.24.31-.35.46c-.11.12-.23.24-.34.37-.34.36-.68.71-1.06,1l-.13.12a15.11,15.11,0,0,1-1.39,1.08l-.29.2a16.89,16.89,0,0,1-1.49.91c-.2.12-.43.21-.64.32h0c-.29.15-.58.3-.89.44l-.53.26c-.74.31-1.53.6-2.35.86s-1.42.42-2.17.6c-.21.06-.44.1-.65.15-.58.13-1.16.24-1.76.35l-.81.14c-.64.1-1.31.18-2,.26l-.62.07c-.65.07-1.32.11-2,.15l-1,.08c-1,0-2.09.07-3.19.07-30.28,0-48.42-17.87-57.22-36.11h0c-.45-.92-.88-1.85-1.28-2.77L809,71.07H836.1l4.82,10.13c2.85,6,8.45,12.14,17.73,12.14,6.15,0,8-2.43,8-5.4,0-.1,0-.2,0-.3s0-.32,0-.48,0-.3-.07-.45,0-.17,0-.26A15.86,15.86,0,0,0,865,82.32c-2.4-4.69-4.93-11-19.52-16.29h.09c-1.1-.4-2.27-.8-3.52-1.19l-1.58-.52,0,0c-9.93-3.26-18.24-6.39-25.16-10v0l-.06,0v0c-11.56-6-19.22-13.18-24-24.29a35.51,35.51,0,0,1-2.83-9.85c0-.09,0-.17,0-.26,0-.38-.08-.77-.1-1.14,0-.18,0-.36,0-.54s0-.45,0-.67V47.55a31.86,31.86,0,0,0,3,12.46A45,45,0,0,0,809,80.67V101l4.38,10.12C821.63,130.3,840,150,871.83,150c1.1,0,2.16,0,3.19-.08.35,0,.67,0,1-.07.6,0,1.22-.07,1.8-.12l.2,0,.62-.07c.68-.08,1.35-.17,2-.27l.81-.13,1.76-.35.65-.15c.73-.18,1.44-.37,2.12-.58l0,0c.82-.26,1.61-.55,2.35-.86l.53-.26c.54-.24,1.07-.49,1.57-.77l.15-.07c.47-.27.91-.55,1.34-.84l.29-.2a15.11,15.11,0,0,0,1.39-1.08l.13-.12c.22-.2.44-.39.64-.6s.28-.3.42-.45l.34-.38a14.35,14.35,0,0,0,1-1.33,12.6,12.6,0,0,0,.85-1.46c.08-.14.15-.3.22-.44.18-.39.34-.78.49-1.18.06-.15.12-.3.17-.46a14.64,14.64,0,0,0,.47-1.67l0-.16c.11-.53.19-1.07.26-1.62,0-.19,0-.37,0-.56s0-.4.06-.61c0-.38,0-.77,0-1.16V101.92C898.84,102,898.83,102.06,898.83,102.13Z"/><path class="cls-7" d="M867.14,36.11H841.32l-3.07-6C835.92,25.54,830.71,20,822.45,20c-.49,0-.94,0-1.37.06h-.16l-.15,0q-.43,0-.84.12l-.17,0c-.31.06-.61.14-.88.22l-.07,0-.24.09-.34.12-.29.13-.3.15-.07,0-.14.09-.34.22-.19.14-.28.25-.1.08a.21.21,0,0,1,0,.06,3.73,3.73,0,0,0-.47.58l-.07.11a4.65,4.65,0,0,0-.32.63l0,.06a5.12,5.12,0,0,0-.19.67.29.29,0,0,0,0,.09.64.64,0,0,0,0,.07,3.81,3.81,0,0,0-.07.59,2.85,2.85,0,0,0,0,.29v.11a10.63,10.63,0,0,0,1.13,4.52c2.41,5.08,5.71,8,22.5,13.27,10.26,3.2,19.71,6.51,28.25,11.68Z"/><path class="cls-7" d="M133.14,13.63c0,4.57-2.28,10.16-6.68,16.52l-7,10.11H93.08l5.19-7c1.93-2.63,4.69-6.64,4.62-9.48,0-.18,0-.35,0-.52-.28-1.69-1.77-2.85-5.39-2.85-9.73,0-16.76,8.4-20.19,12.85,0,0-34.39,44.7-37,48.07-3.61,5.32-6.59,12,2.18,12,11,0,19.17-10.32,23-15.54l6-8.1h1l8.07-10.4c.38-.42.79-.84,1.21-1.27l.39-.38.92-.87.45-.41c.36-.32.73-.62,1.1-.93l.34-.28c.49-.38,1-.76,1.52-1.12l.38-.24c.41-.27.82-.53,1.25-.78.18-.11.37-.21.56-.31.4-.22.8-.42,1.21-.61l.57-.26c.53-.23,1.07-.43,1.61-.61l.23-.08c.28-.09.57-.15.85-.23V69.61h6L91,81.3c-15.26,22-42,38.84-68.82,38.84C7,120.14,0,114.77,0,106.14V136c0,8.65,7,14,22.2,14,1,0,2,0,2.94-.07l.9-.06c.69,0,1.39-.09,2.08-.15l.53,0,.38-.05c1.11-.11,2.23-.25,3.34-.42l.35-.06c1-.16,2-.35,3.05-.55l.8-.16c1.1-.24,2.2-.5,3.29-.78l.43-.12c1-.27,2-.55,2.94-.85l.45-.13.28-.1c1.21-.39,2.4-.8,3.59-1.25l.65-.25c1.22-.46,2.43-1,3.64-1.48l.19-.09c1.18-.52,2.34-1.07,3.5-1.64l.53-.26c1.15-.58,2.28-1.18,3.4-1.81l.33-.17.46-.28c.6-.33,2.31-1.35,2.58-1.52.77-.47,2.43-1.54,2.5-1.59.83-.54,1.64-1.1,2.45-1.67.24-.17,1.85-1.34,2.41-1.76.28-.21,2.93-2.29,3.18-2.5.67-.55,2.18-1.83,2.27-1.91.74-.64,1.47-1.3,2.18-2,.22-.2,2.68-2.59,2.78-2.69.87-.88,1.73-1.76,2.57-2.67.07-.09.15-.17.23-.26.79-.86,1.55-1.74,2.3-2.63l.44-.51c.77-.92,1.52-1.86,2.26-2.81.14-.2.29-.39.44-.59.75-1,1.48-2,2.18-3l8.09-11.69V70.12h20.35s8-11.66,8.52-12.41c.16-.26.29-.5.44-.75.31-.5.61-1,.88-1.49.17-.29.31-.57.46-.86s.47-.87.67-1.3.28-.59.41-.89.37-.8.53-1.19.23-.59.34-.88.28-.76.4-1.12.17-.58.25-.87.21-.7.29-1,.12-.56.17-.84.13-.67.17-1,.06-.54.09-.81,0-.34,0-.5,0-.56,0-.83V13.41A1.64,1.64,0,0,1,133.14,13.63Z"/><polygon class="cls-7" points="153.99 70.94 176.35 23.29 140.03 70.94 153.99 70.94"/><polygon class="cls-7" points="163.76 117.44 133.36 117.44 144.11 94.11 121.37 94.11 103.39 117.44 73 117.44 73 147.37 103.39 147.37 121.37 124.04 133.36 124.04 133.36 147.37 163.76 147.37 209.12 32.33 209.12 2.4 163.76 117.44"/><path class="cls-7" d="M292.24,17.45a33.82,33.82,0,0,1-3,12.74l-2.5,6H260.94l2.77-6c2.08-4.54,2.24-10.06-6-10.06a17.2,17.2,0,0,0-15.39,9.61,11,11,0,0,0-1.21,3.44v0c-.46,3.21,2,5.86,10.83,9.78,11.51,5.14,20.64,10.59,19.92,23.59v.06A45.71,45.71,0,0,1,268,81.34c-10,24-31,38.84-58.07,38.84-19.07,0-26.44-7.09-27.06-16.9,0-.1,0-.22,0-.33,0-.34,0-.69,0-1,0,0,0-.09,0-.13v29.93c0,10.52,7.15,18.29,27.11,18.29,1,0,2.09,0,3.13-.08l.87,0c.81,0,1.61-.1,2.4-.18l.51,0,.22,0c1-.1,2-.23,3-.37l.65-.11c.81-.12,1.61-.27,2.41-.42l.8-.16c1-.2,1.94-.42,2.89-.67l.16,0c.91-.24,1.8-.5,2.68-.77L230,147c.15,0,.29-.1.44-.15.68-.22,1.35-.45,2-.7l.65-.23c.86-.32,1.71-.67,2.55-1l.52-.23c.67-.3,1.34-.61,2-.93l.75-.37c.64-.33,1.27-.66,1.9-1l.41-.21.11-.07c1-.58,2-1.19,3-1.82l.52-.34c.95-.63,1.89-1.29,2.8-2l.48-.37q1.4-1.06,2.73-2.22l.27-.25c.89-.77,1.75-1.58,2.59-2.41a1.59,1.59,0,0,0,.13-.13l.06,0c.65-.66,1.29-1.33,1.92-2,.17-.18.33-.37.5-.56.48-.54.95-1.09,1.42-1.65l.48-.59c.59-.73,1.17-1.47,1.73-2.23l.21-.3c.49-.67,1-1.36,1.44-2.06.15-.23.31-.46.46-.7.42-.65.84-1.31,1.24-2l.31-.51c.49-.83,1-1.67,1.42-2.53l.33-.63c.35-.69.7-1.37,1-2.07.12-.26.25-.51.36-.76.42-.9.83-1.81,1.22-2.74.32-.77.61-1.53.89-2.27.1-.24.62-1.69.78-2.16.09-.28.53-1.67.65-2.08s.44-1.6.54-2l.18-.81c.09-.37.17-.74.24-1.1s.1-.51.14-.76.12-.71.17-1.06.07-.48.09-.71.08-.72.11-1.08c0-.2,0-.4,0-.6,0,0,0-.09,0-.14,0-.48,0-1,0-1.42V66h14.87s3-7.15,3.17-7.7c.06-.18.45-1.28.58-1.64s.4-1.27.49-1.59.12-.43.18-.64l.24-.92c.05-.21.1-.41.14-.62s.13-.6.19-.89.08-.4.11-.6.09-.59.13-.88.06-.37.08-.55.06-.62.09-.93c0-.15,0-.3,0-.45v-.08c0-.43,0-.84,0-1.25V17.45Z"/><path class="cls-7" d="M372.78,21.73c0,.47,0,.94,0,1.42v.1a.15.15,0,0,0,0,.07c-.06.8-.15,1.62-.28,2.46,0,.06,0,.11,0,.17l0,.14c-.07.42-.14.85-.23,1.27L372,28c0,.06,0,.12,0,.17-.1.45-.22.91-.34,1.37-.05.19-.08.37-.13.55l-2.8,10.11H342.35l2.26-7a22,22,0,0,0,1.25-6.46c0-.19,0-.38,0-.57h0c-.19-3.13-1.9-5.8-7.39-5.8-.53,0-1,0-1.54.07l-.11,0-.55.08c-.34.05-.68.1-1,.17s-.39.1-.58.15l-.54.14-.07,0-.24.09c-.19.06-.37.14-.55.21l-.76.32-.52.26-.27.14-.09.05-.2.13a11.67,11.67,0,0,0-1.07.71l-.33.24a13.94,13.94,0,0,0-1.22,1.07s0,0-.05.05l-.29.31c-.21.22-.41.44-.6.67l-.35.43c-.17.22-.34.43-.5.65l-.33.48c-.14.21-.29.43-.42.65s-.2.32-.29.48-.25.44-.37.66-.18.32-.26.48-.22.44-.32.66-.15.3-.22.45-.41.94-.46,1.08S306.8,80.7,306.76,80.84l-.17.62c0,.15-.2.86-.24,1.07s-.07.31-.1.47-.07.41-.1.61,0,.32-.07.48-.05.41-.07.62,0,.31,0,.47a1.23,1.23,0,0,0,0,.19v0c0,.24,0,.47,0,.71,0,3.6,1.57,6.73,7,7,5.12-14.31,11.78-32.92,11.84-33.06l.22-.45c.1-.22.21-.44.32-.66s.17-.32.26-.48.24-.44.37-.66.19-.32.29-.48.28-.44.42-.65l.33-.48c.16-.22.33-.43.5-.65l.35-.44q.28-.33.6-.66l.34-.36A13.94,13.94,0,0,1,330,53l.33-.24a11.67,11.67,0,0,1,1.07-.71l.56-.32c.17-.09.34-.18.52-.26l.76-.32c.18-.07.36-.15.55-.21l.85-.25c.19,0,.38-.11.58-.15s.66-.12,1-.17l.55-.08a14.67,14.67,0,0,1,1.65-.09,10.37,10.37,0,0,1,3.9.64V69.52h18.26l-.17.6-3.21,11.54c-.22.77-.46,1.53-.71,2.29a1.42,1.42,0,0,0-.07.22l-.21.6-.06.16c-.29.83-.6,1.65-.94,2.46l-.06.16c-.07.16-.14.31-.2.47l-.16.33q-.39.9-.81,1.77c-.06.13-.11.27-.18.4l-.19.4-.09.16c-.38.75-.78,1.48-1.19,2.21,0,.08-.08.16-.13.24l-.33.56c0,.09-.11.18-.17.27-.33.56-.67,1.11-1,1.65-.13.21-.25.42-.39.63l-.1.14c-.14.22-.3.42-.45.63-.32.46-.65.91-1,1.36l-.26.36c-.12.16-.24.33-.37.49l-.19.23c-.48.61-1,1.22-1.49,1.81l-.19.23-.38.42c-.12.14-.25.26-.37.4-.33.36-.67.72-1,1.07-.17.19-.34.38-.52.56l-.25.25-.62.59-1.3,1.21-.32.29-.49.43-.32.26c-.45.38-.92.76-1.39,1.13-.22.18-.44.37-.66.54l-.35.25-.61.44L335.93,111l-.39.26-.78.48c-.49.31-1,.61-1.48.9l-.39.24-.68.38-.62.33-.89.47-.74.37c-.63.31-1.26.6-1.9.89l-.39.17c-.77.34-1.55.65-2.35,1l-.68.25c-.58.21-1.16.41-1.76.6l-.84.27-.75.21-.11,0c-.32.1-.64.2-1,.28l-.8.22c-.83.21-1.66.4-2.51.58l-.13,0c-.89.18-1.79.33-2.7.48l-.83.11-1.12.14H312l-.78.1-.95.09c-.63.06-1.27.1-1.91.14l-.87,0c-.93,0-1.86.07-2.81.07-.65,0-1.26,0-1.9-.06l-.74,0c-.67,0-1.32-.07-2-.12l-.81-.08c-1.09-.1-2.15-.24-3.17-.41l-.8-.13c-.55-.1-1.09-.21-1.61-.33l-.86-.22c-.84-.21-1.66-.45-2.44-.72l-.87-.29c-.43-.16-.85-.33-1.26-.5s-.59-.26-.87-.4c-.61-.28-1.2-.58-1.76-.89-.31-.18-.62-.35-.91-.53s-.64-.41-.95-.63-.56-.4-.84-.61-.77-.61-1.13-.93-.63-.56-.92-.86-.45-.46-.66-.69-.51-.58-.75-.89-.42-.51-.62-.78c-.3-.43-.59-.86-.86-1.31-.14-.23-.27-.47-.41-.71s-.41-.79-.6-1.19c-.09-.2-.19-.39-.27-.59a18.76,18.76,0,0,1-.65-1.77c-.07-.22-.14-.45-.2-.68-.15-.5-.27-1-.38-1.53,0-.17-.08-.34-.11-.51-.13-.67-.22-1.36-.29-2.06,0-.21,0-.41-.05-.61-.05-.63-.08-1.26-.09-1.9,0-.1,0-.19,0-.29v29.93c0,13.89,9.72,23.24,29.75,23.24,1,0,1.88,0,2.81-.07l.87-.05c.64,0,1.28-.08,1.91-.14l.45,0c.17,0,.33-.05.5-.06.67-.07,1.33-.16,2-.25l.83-.12c.91-.14,1.81-.29,2.7-.47l.13,0c.85-.18,1.68-.37,2.51-.58l.8-.22c.62-.16,1.22-.34,1.83-.52l.47-.14.37-.13c.6-.19,1.18-.39,1.76-.61.23-.08.46-.15.68-.24.8-.3,1.58-.61,2.35-1l.39-.17c.64-.29,1.27-.58,1.9-.89l.74-.37c.51-.26,1-.53,1.51-.8.13-.08.28-.15.41-.22l.27-.16c.9-.52,1.78-1.05,2.65-1.62l.39-.26q1.21-.81,2.37-1.68l.35-.25c.81-.62,1.6-1.27,2.37-1.94l.49-.42c.77-.68,1.52-1.37,2.24-2.09l.07-.06.18-.2c.66-.65,1.29-1.33,1.9-2l.38-.42c.64-.74,1.27-1.5,1.87-2.27l.37-.49c.58-.77,1.15-1.55,1.69-2.35l.1-.14c.56-.83,1.08-1.69,1.59-2.55l.33-.56q.74-1.29,1.41-2.61c.06-.13.13-.27.19-.41.4-.82.78-1.65,1.15-2.49.06-.16.13-.31.2-.47.38-.92.73-1.84,1.06-2.78l.21-.61c.33-1,.64-1.94.91-2.93l3.25-11.69V70.12h8.12s3.16-11.51,3.31-12.2c0-.22.08-.43.13-.65.09-.47.18-.93.25-1.39,0-.24.07-.48.1-.72.06-.44.11-.87.15-1.3l.06-.68c0-.11,0-.23,0-.34,0-.5,0-1,0-1.47V21.44C372.79,21.54,372.78,21.64,372.78,21.73Z"/><polygon class="cls-7" points="416.71 58.62 418.58 23.4 402.09 71.05 412.41 71.05 416.71 58.62"/><polygon class="cls-7" points="354.4 117.44 354.4 117.56 354.45 117.44 354.4 117.44"/><polygon class="cls-7" points="415.82 94.23 393.07 94.23 384.81 117.56 354.4 117.56 354.4 147.37 384.81 147.37 393.07 124.04 414.78 124.04 414.78 147.37 445.17 147.37 445.17 117.56 414.78 117.56 415.82 94.23"/><path class="cls-8" d="M535.78,30.8v50c0,18.23-14.29,36.76-43.5,36.76H452.54l14-115H498.4C523.48,2.51,535.77,15.44,535.78,30.8Zm-26,5.88c.2-4.5.45-14.64-15-14.64H489.4l-5.46,69.19h6c17.28,0,18-12.23,18.23-17.2Z"/><polygon class="cls-8" points="613.63 2.51 616.34 22.04 594.45 22.04 601.44 91.23 626.35 91.23 630.01 117.55 546.73 117.55 546.29 91.23 571.6 91.23 567.77 22.04 545.88 22.04 545.52 2.51 613.63 2.51"/><path class="cls-8" d="M677.46,2.51l50.38,115h-30.4l-8.67-23.33H666l1.44,23.33H637.35V2.51ZM665.4,71h14l-17.3-47.65Z"/><path class="cls-8" d="M770.46,2.51,803.3,81.33c9.91,23.77,1.78,38.84-25.72,38.84s-46.33-15.07-53.31-38.84l-3.53-12h27.43L751,77.75c2.25,6.67,5.43,16.09,17.2,16.09s8-10.15,5.57-16.63L753.21,22H712.56L706.63,2.51Z"/><path class="cls-8" d="M813,.71c22.15,0,40.33,10.4,50.93,29.47l3.33,6H841.41l-3.08-6c-2.33-4.54-7.54-10.06-15.79-10.06-8.8,0-7.73,6.12-6.07,9.61,2.42,5.08,5.71,8,22.5,13.27,21.72,6.77,39.81,14,53.3,38.33,13.3,24,6.73,38.84-20.35,38.84-31.8,0-50.21-19.69-58.48-38.84l-4.38-10.12h27.13L841,81.33c2.86,6,8.45,12.14,17.74,12.14,9.92,0,8.76-6.31,6.33-11-2.58-5-5.3-11.91-23-17.44-27.55-9-43-16.68-50.8-34.8C783,11,792.57.71,813,.71Z"/><path class="cls-8" d="M112.41.71c22,0,26.36,11.83,14.13,29.47l-7,10.12H93.16l5.19-7c3.28-4.45,8.91-12.85-.81-12.85s-16.76,8.4-20.19,12.85L43,77.75C39,83,31.63,93.29,42.57,93.29S61.73,83,65.57,77.75l6-8.11H99.2L91.1,81.33c-15.26,22-41.95,38.84-68.81,38.84S-5.9,103.35,12.06,81.33L53.79,30.18C68.19,12.54,90.42.71,112.41.71Z"/><path class="cls-8" d="M169.37,2.51H209.2l-45.35,115H133.44L144.2,94.22H121.46l-18,23.33H73.08ZM154.07,71l22.36-47.65L140.12,71Z"/><path class="cls-8" d="M267.05.71c22.15,0,30.24,10.4,22.3,29.47l-2.5,6H261l2.77-6c2.08-4.54,2.24-10.06-6-10.06a17.22,17.22,0,0,0-15.4,9.61c-2.52,5.08-2.1,8,9.63,13.27,15.13,6.77,26.18,14,16.07,38.33-10,24-31,38.84-58.06,38.84-31.8,0-31.08-19.69-20.77-38.84l5.45-10.12h27.12l-5,10.12c-3,6-3.33,12.14,6,12.14,9.92,0,14.87-6.31,17-11,2.3-5,6.2-11.79-6-17.44-18.94-8.76-26.76-16.68-17-34.8C227.13,11,246.66.71,267.05.71Z"/><path class="cls-8" d="M345.21.71c22,0,31.29,11.83,26.4,29.47L368.82,40.3H342.44l2.26-7c1.42-4.45,3.57-12.85-6.16-12.85s-13.26,8.4-14.84,12.85L307.86,77.75C306,83,303,93.29,313.9,93.29S328.76,83,330.43,77.75L333,69.64h27.65l-3.24,11.69c-6.09,22-25.79,38.84-52.65,38.84s-35.19-16.82-26.38-38.84l20.44-51.15C305.91,12.54,323.23.71,345.21.71Z"/><path class="cls-8" d="M445.26,117.55h-30.4l1.05-23.33H393.16l-8.26,23.33H354.49l48.43-115h39.83ZM402.17,71h14l2.53-47.65Z"/><path class="cls-2" d="M900,101.79c0-5.87-2.27-12.88-6.7-20.86-6.56-11.81-14.51-20.3-25-26.7V36.09a.59.59,0,0,0-.07-.29l-3.34-6C854.23,10.58,836,0,813.45,0c-11.12,0-19,3-22.74,8.73a15.9,15.9,0,0,0-2.44,8.87h0V42.36L771.49,2.16A.57.57,0,0,0,771,1.8H707.12a.56.56,0,0,0-.57.58h0V32.31a.88.88,0,0,0,0,.17L712.49,52a.6.6,0,0,0,.56.41h40.26l15.18,40.69C757.33,93,754.29,84,752.07,77.44L749.22,69a.58.58,0,0,0-.55-.39H721.23a.56.56,0,0,0-.46.23.54.54,0,0,0-.11.35h0V98.43L678.49,2.15A.58.58,0,0,0,678,1.8h-40.4a.58.58,0,0,0-.58.58v145a.58.58,0,0,0,.58.58H668a.58.58,0,0,0,.58-.58V124.6h20.31l8.53,23a.58.58,0,0,0,.55.38h30.39a.58.58,0,0,0,.58-.58V122.83c9.51,17.89,26.86,27.73,49.17,27.73,18.84,0,29.6-7.32,30.31-20.62,0-.47,0-28.23,0-31.4h0c0-5.13-1.35-11-4.06-17.55l-2.25-5.4A50.65,50.65,0,0,0,809,81V101a.64.64,0,0,0,0,.23l4.38,10.12c5.09,11.78,21,39.19,59,39.19,22.79,0,27.58-10.19,27.58-18.73V101.9S900,101.83,900,101.79ZM841.32,42.85l-1.68-.53c-16.91-5.27-19.85-8.12-22.15-13-.46-1-1.86-4.31-.46-6.54.93-1.48,3-2.23,6-2.23,9.53,0,14.1,7.46,15.27,9.74l3,5.91Zm1.17-6.18h24.65V53.55c-7.24-4.24-15.2-7.3-24.65-10.33ZM791.68,9.37c3.53-5.37,11.06-8.21,21.77-8.21,22.07,0,40,10.37,50.42,29.18l2.86,5.16H842.26l-2.91-5.71c-1.25-2.43-6.12-10.37-16.31-10.37-3.48,0-5.83.93-7,2.77-1.68,2.66-.28,6.24.39,7.66,2.66,5.6,6.52,8.49,22.85,13.58,11,3.44,20.05,6.73,28.13,11.62,10.43,6.31,18.33,14.71,24.84,26.44,4.42,8,6.62,14.9,6.57,20.62a19.17,19.17,0,0,1-.37,3.57c-1.86,9-10.87,13.79-26,13.79-37.29,0-52.95-26.92-57.95-38.49l-4-9.31h25.88L841,81.46c2.21,4.66,7.52,12.47,18.27,12.47,4,0,6.61-1,7.83-3,1.6-2.62.35-6.29-1-8.9l-.38-.74c-2.48-4.92-5.89-11.65-22.9-17C815.37,55.4,800,47.62,792.35,29.83,788.69,21.36,788.46,14.28,791.68,9.37Zm-84-3.07L712.47,22V47.93l-4.77-15.7Zm62,86.79L754.29,51.74V25.14l19.47,52.17c1.12,3,2.52,6.77,2.51,9.88C776.27,90.92,774.1,92.83,769.72,93.09ZM753.13,51.27h-39.5V22.5h39.5ZM638.14,3h39.44l49.86,113.88h-29.1l-8.53-23a.57.57,0,0,0-.54-.38H666.53a.59.59,0,0,0-.43.19.56.56,0,0,0-.15.43l1.4,22.71H638.14Zm30.41,114.46v0l-1.41-22.71h21.54v28.76H668.55Zm21.3-20.09,7.51,20.2v26.59l-7.51-20.2Zm-22.46,49.44H638.14V118h29.25Zm31.13,0V118h29.23v28.77Zm108.71-16.89c-.86,16.13-16.33,19.52-29.15,19.52-22.67,0-40.13-10.33-49.17-29.08v-2.9a.59.59,0,0,0,0-.23l-5.22-11.91L721.81,99V73.22l2.4,8.15c7.32,24.95,27,39.26,53.87,39.26,13.4,0,22.53-3.49,27.12-10.37a18.4,18.4,0,0,0,2.07-4.25C807.26,116.6,807.25,129.46,807.23,129.88Zm-3-20.27c-4.36,6.54-13.16,9.86-26.15,9.86-26.36,0-45.59-14-52.76-38.42L722,69.76h26.24l2.72,8c2.22,6.57,5.56,16.49,17.76,16.49,5.77,0,8.7-2.39,8.71-7.1,0-3.33-1.44-7.19-2.6-10.32L754.25,21.72a.57.57,0,0,0-.54-.38H713.48L707.9,3h62.67l32.69,78.47C808.23,93.36,808.57,103.1,804.23,109.61Zm-3.3-36.8L789.4,45.15V25.07a42.48,42.48,0,0,0,1.88,5.22c7.87,18.2,23.4,26.1,51.16,35.12,16.55,5.19,19.7,11.41,22.23,16.4l.38.75c1.2,2.35,2.35,5.6,1,7.76-1,1.63-3.3,2.45-6.84,2.45-10.11,0-15.12-7.4-17.22-11.81l-4.81-10.12a.59.59,0,0,0-.53-.33H809.55a.58.58,0,0,0-.48.26.52.52,0,0,0-.09.32v8.45A48.36,48.36,0,0,1,800.93,72.81Zm71.49,76.59c-37.29,0-52.95-26.92-57.95-38.49l-4.34-10v-27l3.27,7.55c5.09,11.78,21,39.19,59,39.19,14.33,0,23.38-4.2,26.42-12.17v23.37C898.84,139.84,894.25,149.4,872.42,149.4Z"/><path class="cls-2" d="M489.89,21.34a.59.59,0,0,0-.58.54l-5.46,69.18a.6.6,0,0,0,.16.44.57.57,0,0,0,.42.19h6c18,0,18.62-13.37,18.81-17.76.44-10.15,1-22.72,1.6-37.35.11-2.46.33-7.57-3.11-11.16-2.6-2.71-6.79-4.08-12.48-4.08Zm-.58,15.33V51.83l-3.05,38.7h-1.2Zm1.1,53.86h-3l3-38.1h1c6.77,0,14.43-.09,17.24,6.55-.12,2.66-.25,5.89-.64,14.9C507.86,78.43,507.33,90.53,490.41,90.53Zm19.25-54c-.56,12.83-.74,17.09-.87,20.19-3.65-5.52-11.17-5.49-17.34-5.46h-1V22.5h4.76c5.36,0,9.27,1.25,11.64,3.72C510,29.46,509.76,34.06,509.66,36.53Z"/><path class="cls-2" d="M498.9,1.8H467.07a.59.59,0,0,0-.58.51l-14,115a.16.16,0,0,0,0,.07v29.93a.56.56,0,0,0,.16.41.58.58,0,0,0,.41.17s43.34-.09,43.65-.11c31.05-1.83,38-23.27,39.41-29.8a33.35,33.35,0,0,0,.77-7.42V30.68C536.85,13.14,522,1.8,498.9,1.8Zm36.8,108.8a32.08,32.08,0,0,1-.75,7.17c-1.35,6.33-8.11,27.11-38.32,28.89-.61,0-37.87.1-43,.11V118l39.16,0c13.65,0,25.1-4,33.11-11.71a35.22,35.22,0,0,0,9.81-16.57Zm0-79.92v50a34,34,0,0,1-10.62,24.8c-7.78,7.45-19,11.39-32.3,11.39l-39.09,0L467.59,3H498.9C521.24,3,535.68,13.84,535.7,30.68Z"/><path class="cls-2" d="M631.12,117.34,627.42,91a.58.58,0,0,0-.58-.5H602.46l-3.85-38.1h18.22a.58.58,0,0,0,.58-.58V21.92h0s0-.05,0-.08L614.7,2.3a.59.59,0,0,0-.58-.5H546.2a.58.58,0,0,0-.58.58V51.85a.58.58,0,0,0,.58.58h21.52l2.11,38.1H546.78a.58.58,0,0,0-.41.17c-.11.11.07.26.07.42v56.23c0,.32.5.58.82.58h83.28a.58.58,0,0,0,.58-.58v-30ZM598.49,51.27,595.58,22.5h20.67V51.27ZM546.78,22.5h20.91V51.27H546.78Zm22.07,29.34V42.93l2.63,47.6H571Zm3.25,39.85a.6.6,0,0,0,.42-.18.62.62,0,0,0,.16-.43l-3.83-69.19a.58.58,0,0,0-.58-.55H546.78V3h66.84l2.54,18.38H594.94a.59.59,0,0,0-.43.19.6.6,0,0,0-.15.45l7,69.19a.58.58,0,0,0,.58.52h24.4l3.53,25.15h-82l-.45-25.15Zm-24.26,55.08V118H630v28.77Z"/><path class="cls-2" d="M680.34,71.25a.58.58,0,0,0,.07-.53l-17.3-47.65a.58.58,0,0,0-.67-.37.59.59,0,0,0-.46.61L665.32,71a.58.58,0,0,0,.58.54h14A.58.58,0,0,0,680.34,71.25ZM666,64.44l2.14,5.9h-1.73Zm3.37,5.9-3.67-10.11-2.3-32.87,15.6,43Z"/><path class="cls-2" d="M140.61,71.5h14a.57.57,0,0,0,.52-.34l22.37-47.65a.59.59,0,0,0-.23-.74.57.57,0,0,0-.76.14L140.15,70.57a.57.57,0,0,0-.06.6A.59.59,0,0,0,140.61,71.5ZM174.09,28,154.2,70.34H141.79Z"/><path class="cls-2" d="M402.67,71.5h14a.57.57,0,0,0,.58-.55l2.53-47.66a.58.58,0,0,0-.46-.6.57.57,0,0,0-.66.38l-16.5,47.66a.57.57,0,0,0,.08.52A.56.56,0,0,0,402.67,71.5Zm15.7-44.15-2.29,43H403.49Z"/><path class="cls-2" d="M443.82,2.37a.57.57,0,0,0-.58-.57H403.41a.57.57,0,0,0-.53.36l-41.34,98.2.21-.76a.77.77,0,0,0,0-.15V70.68h7.54a.58.58,0,0,0,.57-.42C370,69.79,373,58.72,373.19,58a33.53,33.53,0,0,0,.77-6.68V21.42A19.81,19.81,0,0,0,370.13,9.2c-4.58-6-13-9.2-24.42-9.2-21.57,0-39.53,11.44-46.89,29.84L293.4,43.4V17.34a15.52,15.52,0,0,0-2.46-8.82C287.17,2.87,279.3,0,267.54,0c-21.75,0-40.73,11.13-50.77,29.78-2.87,5.34-4.27,9.84-4.27,13.8V70.51H195.27l15-38a.57.57,0,0,0,0-.22V2.38h0a.52.52,0,0,0-.09-.32.59.59,0,0,0-.48-.26H169.87a.6.6,0,0,0-.45.21L134.3,44c0-2.36,0-25.73,0-30.59a11.7,11.7,0,0,0-1.27-5.5C130.34,2.73,123.38,0,112.91,0,91.41,0,68.78,11.38,53.84,29.69L12.1,80.84C4.22,90.51.05,99.18,0,106A.24.24,0,0,0,0,106V136c0,9.42,8.09,14.6,22.78,14.6,22.46,0,40.77-11.49,50.22-18.88v15.67a.58.58,0,0,0,.58.58H104a.58.58,0,0,0,.46-.22l17.81-23.11h11.12v22.75a.58.58,0,0,0,.58.58h30.41a.58.58,0,0,0,.54-.37l17.93-45.49v29.62c0,8.61,4.81,18.87,27.7,18.87,48.3,0,60.27-42.89,61.48-47.77A34.11,34.11,0,0,0,273.05,95V66.6h11.08L278.37,81A43.15,43.15,0,0,0,275,96.81h0v29.93c0,15.14,11.05,23.82,30.33,23.82,8.21,0,35.45-2.14,49.11-28.87v25.66a.58.58,0,0,0,.58.58h30.41a.57.57,0,0,0,.55-.39l8.12-22.94h20.72v22.75a.58.58,0,0,0,.58.58h30.39a.58.58,0,0,0,.58-.58ZM403.8,3h38.87l2.49,113.88H416l1-22.72a.58.58,0,0,0-.16-.43.6.6,0,0,0-.42-.18H393.65a.58.58,0,0,0-.54.39L385,116.84H355.86ZM386,117.52l7.1-20v26.44L386,144Zm-24.22-48a.55.55,0,0,0-.1-.35.56.56,0,0,0-.46-.23H343.52V40.75h25.21V69.52ZM342.38,40a.47.47,0,0,0,0,.17h0v9.92c-2.77-.69-12.14-2-17.48,9.73-.11.23-8.84,24.52-11.77,32.69-4-.37-6-2.46-6-6.4a26.46,26.46,0,0,1,1.81-8.29l15.84-44.49c1.9-5.35,5.45-12.46,14.29-12.46,2.81,0,4.77.73,5.83,2.18,1.84,2.52.76,6.86-.22,9.91ZM325.92,60.3c5.25-11.51,14.48-9.58,16.43-9V68.94h-8.82a.58.58,0,0,0-.55.4l-2.61,8.11c-1.2,3.74-4.85,15.13-16,15.13h-.08C318.4,81.18,325.75,60.74,325.92,60.3Zm46.87-8.95a32.54,32.54,0,0,1-.74,6.43c-.08.37-1.15,4.31-2.15,8V40.25s2.85-10.37,2.89-10.54ZM287.92,57.1V36.2l2.46-5.92A47.78,47.78,0,0,0,292.24,25V46.3Zm-74.25-7.69c2.74,6.5,10.15,11.12,20.38,16,4.26,1.92,6.79,4.09,7.74,6.64,1.18,3.17-.33,6.41-1.66,9.28l-.34.74a18,18,0,0,1-10.27,9.7,65.63,65.63,0,0,1-6.63-4V71.09a.55.55,0,0,0-.08-.31.6.6,0,0,0-.5-.27h-8.64Zm8.06,43.25a7.05,7.05,0,0,1-4.8-1.89c-1.57-1.81-1.27-4.94.89-9.3l3.91-7.9Zm1.16-3.46c1.47,1,3.13,2,5,3a23.5,23.5,0,0,1-5,.51Zm-1.51-17.53L216.78,81c-2.39,4.83-2.63,8.39-.73,10.58,3.28,3.77,11.7,2,13.61,1.41a19.16,19.16,0,0,0,11.18-10.4l.35-.74c1.35-2.92,3-6.55,1.69-10.18-1.06-2.85-3.79-5.24-8.34-7.29-10.53-5-18-9.7-20.2-16.41-1.55-4.74-.46-10.32,3.45-17.58,9.84-18.27,28.43-29.18,49.75-29.18,11.35,0,18.89,2.69,22.43,8,3.25,4.86,3,11.82-.67,20.68L287,35.5H262.42l2.4-5.2c.87-1.91,2.09-5.5.41-8.11-1.18-1.84-3.52-2.77-7-2.77-10.47,0-15.09,8.27-15.91,9.93-1,1.94-1.76,4-1,6.1.95,2.61,4.11,4.92,10.92,7.95C267.27,50.11,278,57.14,268,81c-10.16,24.45-31.13,38.48-57.52,38.48-11,0-18.73-2.39-22.89-7.11-3-3.42-4.16-8.08-3.43-13.84.65-5,2.68-10.77,6.05-17l5.29-9.82ZM261,35.84a.53.53,0,0,0-.05.25V46.46a82.5,82.5,0,0,0-8.2-4.12c-6.41-2.85-9.49-5-10.3-7.29-.57-1.56,0-3.2,1-5.19.77-1.55,5.09-9.28,14.87-9.28,3,0,5,.75,6,2.24,1.37,2.14.28,5.3-.5,7ZM191.75,76.25l-2.52,4.68c-3.42,6.36-5.49,12.2-6.17,17.36l-18.13,46V117.53L209.12,5.44V32.2ZM170.14,3h38.71L164,116.84h-29.1l10.37-22.5a.59.59,0,0,0,0-.56.58.58,0,0,0-.49-.27H122a.59.59,0,0,0-.46.23l-17.8,23.1H74.82ZM104.55,117.62,121.37,95.8v28l-16.82,21.82ZM93.19,39.83a.6.6,0,0,0-.11.34V50.38C84.74,52.79,79,60.39,74.4,66.53c-.61.81-1.2,1.6-1.77,2.34l.09.07H72a.6.6,0,0,0-.47.23c-.67.92-1.37,1.89-2.1,2.92-6.2,8.64-14.68,20.49-26.4,20.49-2.64,0-4.28-.62-4.88-1.83C36.6,87.51,42.14,80.34,44,78L78.3,33.49C82.48,28.07,89.08,20.87,98,20.87c2.49,0,4,.56,4.6,1.67,1.34,2.66-2.87,8.37-4.25,10.25ZM75.33,67.22C79.78,61.31,85.27,54,93.08,51.58V68.94H74ZM94.24,50.81V40.75h25.22v21l-6.55,7.82H100.27a.63.63,0,0,0-.06-.27.59.59,0,0,0-.52-.31H94.24Zm6,19.87h11.66L100.28,84.62Zm20.34-10.36v-20l6.89-10a43.88,43.88,0,0,0,5.65-10.68c0,10.58,0,24,0,24.41a2.12,2.12,0,0,1,0,.24l0,.24c0,.26-.05.51-.08.78l0,.19ZM13,81.58,54.74,30.43c14.72-18,37-29.27,58.17-29.27,10,0,16.62,2.51,19.11,7.27a10.76,10.76,0,0,1,1.14,5.32v0c-.13,4.4-2.35,9.8-6.6,15.94l-6.83,9.86H94.81l4.51-6.11c2.8-3.8,5.82-8.54,4.34-11.46-.77-1.54-2.67-2.31-5.63-2.31-9.47,0-16.32,7.46-20.65,13.07L43,77.27c-3.63,4.7-7.58,10.55-5.88,14,.8,1.65,2.8,2.48,5.92,2.48,12.31,0,21-12.12,27.34-21l1.92-2.66H98.58C96,73.82,89.52,83.11,89,83.85c-12.45,16.43-37.24,35.62-66.18,35.62-9.78,0-21.47-2.3-21.61-13.25C1.09,99.69,5.18,91.17,13,81.58Zm9.78,67.82C8.64,149.4,1.16,144.75,1.16,136V111.71c3.31,7.22,13.14,8.92,21.62,8.92,29.37,0,54.5-19.43,67.1-36.08,0,0,6.41-9.11,9.23-13.18V86l-26,31a.57.57,0,0,0-.12.37h0V130.2C63.9,137.45,45.48,149.4,22.78,149.4ZM74.16,118h29.23v28.77H74.16Zm48.37,5.44V94.68h21.25l-10.37,22.5a.69.69,0,0,0,0,.24v6Zm12,.58v-6h29.24v28.77H134.52Zm136.35-21.51c-1.18,4.8-12.93,46.89-60.35,46.89-17.61,0-26.54-6-26.54-17.71V108.51a15.14,15.14,0,0,0,2.78,4.61c4.39,5,12.38,7.51,23.76,7.51,26.88,0,48.24-14.29,58.59-39.2a60.77,60.77,0,0,0,2.78-8.16V95A32.66,32.66,0,0,1,270.87,102.51ZM273,65.43c.11-8.82-4.38-14.15-10.92-18.27V36.67h24.66V59.9h0l-2.21,5.53Zm6.43,16L299.9,30.28c7.17-18,24.73-29.12,45.81-29.12,11,0,19.14,3,23.49,8.74,3.78,5,4.59,11.89,2.35,20l-2.68,9.68H343.73l2-6.28c1.14-3.56,2.17-8,0-11-1.28-1.76-3.56-2.65-6.76-2.65-10.69,0-14.22,10-15.39,13.23L307.81,77.43a27,27,0,0,0-1.88,8.68c0,5,2.93,7.63,8.46,7.63,12,0,15.83-12,17.09-15.94L334,70.1h26.46l-3,11c-6.45,23.33-26.89,38.41-52.09,38.41-12.24,0-21.13-3.56-25.69-10.3S275,92.58,279.45,81.43Zm25.84,68c-18.54,0-29.17-8.26-29.17-22.66v-22.2a20.07,20.07,0,0,0,2.52,5.28c4.79,7.07,14,10.81,26.65,10.81,25.73,0,46.62-15.41,53.21-39.26l2.11-7.58V99.37L358,108.75l-3.55,8.45a.57.57,0,0,0,0,.22V119C341.43,147.2,313.54,149.4,305.29,149.4ZM355.57,118h29.24v28.77H355.57Zm38.66,5.44V94.68H415.8l-1,22.72v6Zm21.71,23.33V118h29.23v28.77Z"/></svg>