<svg id="Layer_1" data-name="Layer 1" xmlns="http://www.w3.org/2000/svg" width="670" height="113" viewBox="0 0 670 113"><defs><style>.cls-1{fill:#ffce09;}.cls-2{fill:#112378;}</style></defs><path class="cls-1" d="M362.38,68.41h-1.76l4.07-51.57h4c11.52,0,11.33,7.56,11.18,10.91-.51,11.83-.6,13.88-.71,16.62-2.34-5.7-9.06-5.22-14.45-5.22Z"/><path class="cls-1" d="M337.22,88h29.62c21.77,0,32.43-13.8,32.42-27.4V82.94a24.09,24.09,0,0,1-.57,5.44c-.88,4.11-5.83,20.51-29,21.87l-32.51.08Z"/><rect class="cls-1" x="407.45" y="88.02" width="62.07" height="22.31"/><polygon class="cls-1" points="445.24 39.15 459.3 39.15 459.3 16.84 442.98 16.84 445.24 39.15"/><polygon class="cls-1" points="406.65 39.15 406.65 16.84 423.1 16.84 425.96 68.41 424.72 68.41 423.1 39.15 406.65 39.15"/><polygon class="cls-1" points="495.32 45.48 493.38 17.85 506.28 53.36 498.18 53.36 495.32 45.48"/><path class="cls-1" d="M537.11,52.07v22.3l1.39,4.75,3.9,8.9v2.27c6.55,13.65,19.41,22,37.08,22,11.43,0,21.55-3.64,22.16-15,0-.35,0-23.38,0-23.38,0,10.08-7.27,16-22.19,16C559,90,544.94,78.75,539.74,61Z"/><polygon class="cls-1" points="474.75 88.02 497.41 88.02 496.34 70.64 513.28 70.64 519.75 88.02 542.4 88.02 542.4 110.33 519.75 110.33 513.28 92.94 497.41 92.94 497.41 110.33 474.75 110.33 474.75 88.02"/><path class="cls-1" d="M561.31,16.84,576.66,58c.84,2.27,1.91,5.13,1.9,7.54,0,2.77-1.47,4.71-5.61,4.84L561.31,39.15H531l-4.42-14.56V2.28L531,16.84Z"/><path class="cls-1" d="M627.05,27.4l-2.29-4.49A13.3,13.3,0,0,0,613,15.41c-6.55,0-5.76,4.56-4.52,7.16,1.8,3.79,4.26,6,16.77,9.89,7.65,2.38,14.69,4.85,21.06,8.7V27.4Z"/><path class="cls-1" d="M602.94,53.49,606.2,61c6.17,14.27,19.89,29,43.59,29,11.86,0,18.44-3.83,19.83-10.62a15,15,0,0,0,.29-2.74V98.76c0,6.19-3.58,13.53-20.12,13.53-23.7,0-37.42-14.68-43.59-28.95l-3.26-7.54V60.62a37.32,37.32,0,0,1-6.8-5.6l0-.13-8.61-20.65V13.63c-.07,2.78.65,5.61,2.23,9.28,5.84,13.51,17.33,19.27,37.87,25.94,13.15,4.12,15.18,9.24,17.1,13,1.81,3.54,2.68,8.24-4.72,8.24-6.92,0-11.09-4.56-13.22-9l-3.58-7.54Z"/><polygon class="cls-1" points="131.43 17.85 104.37 53.36 114.77 53.36 131.43 17.85"/><path class="cls-1" d="M136.43,73.88A38.35,38.35,0,0,1,141,61l1.9-3.51,13-32.93V2.28L122.06,88H99.39l8-17.38h-17L77.06,88H54.4v22.31H77.06l13.4-17.39h8.93v17.39h22.67Z"/><path class="cls-1" d="M268.76,52.32h-13.6V38.41c-.13,0-8.55-3.06-13.07,6.86-.08.17-8.88,24.65-8.88,24.65-3.29-.19-5.2-1.8-5.2-5.24a20,20,0,0,1,1.38-6.32l11.8-33.16c1.18-3.31,3.82-9.57,11.06-9.57s5.65,6.26,4.59,9.57l-1.68,5.25h19.66l2.08-7.54a24.32,24.32,0,0,0,1-6.44V38.78a24.31,24.31,0,0,1-.57,4.88c-.11.51-2.46,9.1-2.46,9.1h-6.06Z"/><polygon class="cls-1" points="311.98 17.85 299.68 53.36 310.09 53.36 311.98 17.85"/><path class="cls-1" d="M204.93,72.66V95c0,10.35,7.25,17.32,22.17,17.32,11.32,0,28.59-4.51,37-23V88c.52-1.22,1.44-3.41,2.66-6.31l2-7.08V52.76h-.12L266.35,61c-4.54,16.42-19.23,29-39.25,29-15.07,0-22.31-7.11-22.17-17.62Z"/><path class="cls-1" d="M54,52.1c3.61-4.67,8.24-11.85,15.33-13.72V52.32h4.5v.44H83.93l15.14-18.1a2.56,2.56,0,0,0,.05-.27c0-.21,0-.4.06-.6s0-.26,0-.38,0-13.66,0-23v.26c-.06,3.38-1.74,7.53-5,12.22L89,30.45H69.37l3.87-5.25c2.44-3.31,6.64-9.57-.61-9.57s-12.49,6.26-15,9.57L32,58.36c-3,3.89-8.47,11.58-.32,11.58,10,0,16.79-11.09,21.6-17.62h.57Z"/><path class="cls-1" d="M202.64,49c0-8.94-6.62-12.84-14.88-16.54-8.74-3.89-9-6.1-7.17-9.89a12.81,12.81,0,0,1,11.47-7.16c6.15,0,6,4.11,4.48,7.5l-2.06,4.49h19.25l1.86-4.49a25.21,25.21,0,0,0,2.22-9.43V35.1L212,49.71h-9.33Z"/><path class="cls-1" d="M136.26,76.1c-.11,8,5.16,13.88,20.21,13.88,20.18,0,35.85-11.09,43.27-28.95a33.37,33.37,0,0,0,2.89-11.32h0V71.29a23.64,23.64,0,0,1-.77,5.72c-2.51,10.2-14.05,35.28-45.4,35.28-14.89,0-20.21-5.79-20.21-13.63Z"/><path class="cls-1" d="M286.8,88,293,70.64h17L309.14,88h22.65v22.31H309.14V92.94H293l-6.16,17.39H264.14V88Z"/><path class="cls-1" d="M170.6,69.37a13.76,13.76,0,0,0,8.08-7.53c1.71-3.75,4.66-8.87-4.49-13C164.74,44.36,159,40.29,158.43,34h-.05V53.49h6.88L161.53,61c-3.52,7.11,0,8.85,3.73,9V66.18A50.9,50.9,0,0,0,170.6,69.37Z"/><polygon class="cls-1" points="131.43 17.85 104.37 53.36 114.77 53.36 131.43 17.85"/><path class="cls-1" d="M54.4,97.75V88L73.87,64.77V52.32c-1.45,2.1-7.19,10.33-7.66,10.94C56,76.7,37.49,90,16.55,90,8.38,90,.11,87.81,0,79.68c0-.57,0-.6,0,22.16,0,6.45,5.24,10.45,16.55,10.45C32.89,112.29,46.42,104.16,54.4,97.75Z"/><path class="cls-2" d="M670,76.23c0-4.37-1.69-9.58-5-15.53-4.89-8.79-10.8-15.11-18.6-19.87V27.33a.36.36,0,0,0,0-.21l-2.48-4.49C635.93,8.34,622.33.47,605.58.47c-8.28,0-14.13,2.24-16.93,6.5a11.75,11.75,0,0,0-1.82,6.6h0V32L574.35,2.07a.44.44,0,0,0-.4-.26H526.43a.43.43,0,0,0-.35.17.48.48,0,0,0-.07.26h0V24.52a.25.25,0,0,0,0,.12l4.41,14.55a.43.43,0,0,0,.41.3h30l11.3,30.29c-8.31-.1-10.57-6.78-12.22-11.67l-2.12-6.29a.43.43,0,0,0-.41-.29H536.93a.42.42,0,0,0-.42.43h0V73.73L505.12,2.07a.43.43,0,0,0-.4-.26H474.66a.44.44,0,0,0-.44.43V110.15a.44.44,0,0,0,.44.43h22.63a.43.43,0,0,0,.43-.43V93.21h15.12l6.35,17.09a.42.42,0,0,0,.4.28h22.63a.43.43,0,0,0,.43-.43V91.89c7.08,13.32,20,20.64,36.6,20.64,14,0,22-5.45,22.56-15.34,0-.36,0-21,0-23.38h0a34.44,34.44,0,0,0-3-13.06l-1.67-4a37.78,37.78,0,0,0,5.12,4V75.66a.35.35,0,0,0,0,.17l3.26,7.53c3.79,8.77,15.66,29.17,43.93,29.17,17,0,20.53-7.58,20.53-13.94V76.32A.29.29,0,0,0,670,76.23ZM626.32,32.36l-1.25-.4c-12.59-3.91-14.77-6-16.48-9.64-.35-.73-1.39-3.22-.35-4.87.7-1.11,2.2-1.66,4.47-1.66,7.1,0,10.5,5.55,11.37,7.25l2.24,4.39Zm.87-4.6h18.35V40.32a90.24,90.24,0,0,0-18.35-7.68ZM589.37,7.44c2.63-4,8.24-6.11,16.21-6.11C622,1.33,635.33,9,643.11,23.05l2.13,3.84H627l-2.17-4.25c-.93-1.81-4.55-7.72-12.14-7.72-2.59,0-4.34.7-5.2,2.06-1.25,2-.21,4.65.3,5.71,2,4.16,4.84,6.31,17,10.1,8.22,2.56,14.92,5,20.94,8.65,7.76,4.7,13.64,11,18.49,19.68,3.29,5.93,4.93,11.09,4.89,15.35a13.23,13.23,0,0,1-.28,2.66c-1.38,6.71-8.08,10.26-19.38,10.26-27.76,0-39.41-20-43.13-28.65l-3-6.93H622.6l3.46,7.29c1.65,3.47,5.6,9.28,13.6,9.28,3,0,4.92-.75,5.83-2.23,1.19-2,.26-4.68-.74-6.63l-.28-.55c-1.85-3.66-4.39-8.67-17.05-12.64C607,41.7,595.59,35.91,589.87,22.67,587.14,16.36,587,11.1,589.37,7.44ZM526.86,5.15l3.55,11.7V36.14l-3.55-11.69ZM573,69.75,561.54,39V19.18L576,58c.84,2.25,1.88,5,1.87,7.36C577.9,68.14,576.28,69.57,573,69.75ZM560.68,38.63h-29.4V17.21h29.4Zm-85.59-36h29.35l37.12,84.77H519.9l-6.35-17.09a.44.44,0,0,0-.41-.28H496.21a.41.41,0,0,0-.31.14.43.43,0,0,0-.12.32l1.05,16.91H475.09Zm22.63,85.2-1.05-16.93h16V92.35h-15Zm15.85-15,5.59,15v19.79l-5.59-15Zm-16.71,36.8H475.09V88.3h21.77Zm23.17,0V88.3h21.76v21.41ZM601,97.14c-.64,12-12.16,14.53-21.7,14.53-16.88,0-29.87-7.69-36.6-21.64V87.87a.47.47,0,0,0,0-.17l-3.89-8.87-1.36-4.66V55L539.15,61c5.45,18.57,20.07,29.22,40.1,29.22,10,0,16.77-2.6,20.18-7.72A13.52,13.52,0,0,0,601,79.37C601,87.25,601,96.83,601,97.14Zm-2.24-15.08c-3.24,4.86-9.79,7.33-19.46,7.33-19.62,0-33.94-10.42-39.27-28.6l-2.47-8.4h19.54l2,6c1.65,4.89,4.14,12.28,13.22,12.28,4.29,0,6.47-1.78,6.48-5.29,0-2.47-1.07-5.35-1.93-7.68L561.51,16.63a.42.42,0,0,0-.4-.28H531.17L527,2.67h46.65L598,61.08C601.69,70,601.94,77.21,598.71,82.06Zm-2.45-27.4-8.58-20.59V19.13A30.42,30.42,0,0,0,589.07,23c5.86,13.55,17.42,19.43,38.09,26.14,12.32,3.87,14.66,8.49,16.54,12.21l.28.56c.9,1.75,1.76,4.17.77,5.78-.74,1.21-2.45,1.82-5.09,1.82-7.52,0-11.26-5.51-12.82-8.79l-3.58-7.54a.42.42,0,0,0-.39-.24H602.68a.44.44,0,0,0-.37.19.5.5,0,0,0-.06.24v6.29A35.92,35.92,0,0,1,596.26,54.66Zm53.21,57c-27.76,0-39.41-20-43.13-28.65l-3.23-7.45V55.47l2.43,5.62c3.79,8.77,15.66,29.17,43.93,29.17,10.67,0,17.4-3.13,19.66-9.06V98.59C669.13,104.56,665.72,111.67,649.47,111.67Z"/><path class="cls-2" d="M364.74,16.35a.42.42,0,0,0-.43.4l-4.07,51.5a.41.41,0,0,0,.12.33.44.44,0,0,0,.31.13h4.45c13.43,0,13.86-9.95,14-13.22.33-7.55.72-16.91,1.19-27.8.08-1.83.25-5.63-2.31-8.31-1.93-2-5.06-3-9.29-3Zm-.43,11.41V39.05L362,67.85h-.89Zm.81,40.09H362.9l2.24-28.36h.76c5,0,10.75-.06,12.83,4.88-.08,2-.18,4.38-.47,11.09C378.11,58.85,377.72,67.85,365.12,67.85Zm14.33-40.2c-.42,9.56-.55,12.72-.65,15-2.71-4.12-8.31-4.09-12.9-4.07h-.73V17.21h3.54c4,0,6.9.94,8.66,2.77C379.68,22.39,379.53,25.81,379.45,27.65Z"/><path class="cls-2" d="M371.44,1.81H347.75a.43.43,0,0,0-.43.38L336.87,87.82v22.33a.39.39,0,0,0,.13.3.43.43,0,0,0,.3.13l32.49-.08c23.11-1.36,28.29-17.33,29.33-22.19a24.63,24.63,0,0,0,.58-5.52V23.3C399.69,10.24,388.6,1.81,371.44,1.81Zm27.39,81a24,24,0,0,1-.56,5.34c-1,4.71-6,20.18-28.52,21.5l-32,.08V88.3h29.15c10.17,0,18.69-3,24.65-8.71a26.27,26.27,0,0,0,7.3-12.33Zm0-59.49V60.51A25.34,25.34,0,0,1,390.93,79c-5.79,5.54-14.11,8.47-24.05,8.47H337.79L348.13,2.67h23.31C388.07,2.67,398.82,10.77,398.83,23.3Z"/><path class="cls-2" d="M469.86,87.81,467.1,68.22a.43.43,0,0,0-.42-.37H448.53l-2.87-28.36h13.56a.44.44,0,0,0,.44-.43V16.78a.13.13,0,0,0,0-.06l-2-14.54a.44.44,0,0,0-.43-.37H406.65a.43.43,0,0,0-.43.43V39.06a.43.43,0,0,0,.43.43h16l1.57,28.36H407.08a.43.43,0,0,0-.3.13c-.09.08.05.19.05.31v41.86c0,.24.37.43.61.43h62a.43.43,0,0,0,.43-.43V87.81ZM445.57,38.63l-2.16-21.42h15.38V38.63ZM407.08,17.21h15.56V38.63H407.08Zm16.43,21.84V32.42l2,35.43h-.37Zm2.42,29.66a.42.42,0,0,0,.31-.13.47.47,0,0,0,.12-.32l-2.85-51.5a.44.44,0,0,0-.43-.41h-16V2.67h49.75l1.9,13.68h-15.8a.43.43,0,0,0-.32.14.45.45,0,0,0-.11.34l5.21,51.5a.42.42,0,0,0,.43.38H466.3l2.63,18.73H407.86l-.34-18.73Zm-18.06,41V88.3H469v21.41Z"/><path class="cls-2" d="M506.5,53.5a.42.42,0,0,0,.05-.39L493.67,17.63a.44.44,0,0,0-.5-.27.43.43,0,0,0-.34.45l2.49,35.47a.43.43,0,0,0,.43.41h10.39A.45.45,0,0,0,506.5,53.5Zm-10.66-5.07,1.6,4.39h-1.29Zm2.52,4.39-2.74-7.53-1.71-24.46,11.61,32Z"/><path class="cls-2" d="M104.75,53.69h10.39a.44.44,0,0,0,.39-.25L132.17,18a.43.43,0,0,0-.73-.45L104.41,53a.43.43,0,0,0,0,.45A.45.45,0,0,0,104.75,53.69Zm24.92-32.42L114.86,52.82h-9.24Z"/><path class="cls-2" d="M299.81,53.69h10.4a.43.43,0,0,0,.43-.41l1.88-35.47a.43.43,0,0,0-.84-.17L299.4,53.11a.45.45,0,0,0,.06.39A.42.42,0,0,0,299.81,53.69ZM311.5,20.82l-1.7,32h-9.38Z"/><path class="cls-2" d="M330.45,2.23a.43.43,0,0,0-.44-.42H300.37a.42.42,0,0,0-.4.26L269.2,75.17l.15-.56a.5.5,0,0,0,0-.12V53.08H275a.43.43,0,0,0,.42-.32c.1-.35,2.36-8.59,2.47-9.1a25.11,25.11,0,0,0,.57-5V16.41a14.72,14.72,0,0,0-2.85-9.1C272.18,2.83,265.9.47,257.41.47,241.36.47,228,9,222.51,22.68l-4,10.09V13.37a11.58,11.58,0,0,0-1.83-6.56C213.84,2.6,208,.47,199.23.47c-16.19,0-30.32,8.28-37.79,22.17-2.14,4-3.18,7.32-3.18,10.27V53H145.43l11.15-28.27a.45.45,0,0,0,0-.16V2.24a.41.41,0,0,0-.08-.24.42.42,0,0,0-.35-.19H126.53a.41.41,0,0,0-.33.15L100.05,33.2c0-1.76,0-19.15,0-22.77a8.74,8.74,0,0,0-.95-4.09c-2-3.84-7.2-5.87-15-5.87-16,0-32.85,8.46-44,22.1L9.1,60.64c-5.87,7.2-9,13.65-9,18.69,0,0,0,0,0,.06v22.28c0,7,6,10.86,17,10.86,16.71,0,30.34-8.55,37.37-14v11.67a.43.43,0,0,0,.43.43H77.48a.42.42,0,0,0,.34-.17l13.25-17.2h8.28v16.94a.43.43,0,0,0,.43.43h22.64a.44.44,0,0,0,.4-.28l13.35-33.86v22c0,6.41,3.58,14,20.61,14,36,0,44.87-31.92,45.77-35.56a25.15,25.15,0,0,0,.78-5.82V50h8.25l-4.29,10.71a32.22,32.22,0,0,0-2.52,11.78h0V94.81c0,11.26,8.23,17.72,22.58,17.72,6.11,0,26.39-1.59,36.56-21.49v19.11a.43.43,0,0,0,.43.43H287a.44.44,0,0,0,.41-.29l6.05-17.08h15.42v16.94a.43.43,0,0,0,.43.43h22.62a.43.43,0,0,0,.43-.43Zm-29.8.44h28.94l1.85,84.77H309.71l.76-16.92a.45.45,0,0,0-.12-.31.43.43,0,0,0-.31-.14H293.1a.45.45,0,0,0-.41.29l-6,17.08H265ZM287.38,87.94,292.67,73V92.71l-5.29,14.92Zm-18-35.73a.42.42,0,0,0-.42-.43H255.78v-21h18.77V52.21Zm-14.42-22a.28.28,0,0,0,0,.13h0v7.38c-2.07-.51-9-1.49-13,7.24-.08.17-6.58,18.26-8.76,24.33-3-.27-4.47-1.82-4.47-4.76A19.63,19.63,0,0,1,230,58.39L241.8,25.27c1.42-4,4.06-9.27,10.65-9.27,2.09,0,3.54.55,4.33,1.62,1.37,1.88.56,5.11-.16,7.38ZM242.69,45.35c3.9-8.57,10.78-7.13,12.23-6.71V51.78h-6.57a.43.43,0,0,0-.41.3l-1.94,6c-.89,2.79-3.61,11.27-11.9,11.27H234C237.09,60.89,242.56,45.68,242.69,45.35Zm34.89-6.66a23.54,23.54,0,0,1-.56,4.78c-.06.28-.85,3.21-1.6,6v-19s2.12-7.72,2.16-7.85ZM214.4,43V27.41l1.83-4.4a37.06,37.06,0,0,0,1.39-4V34.93Zm-55.27-5.72c2,4.83,7.56,8.27,15.17,11.89,3.17,1.42,5.06,3,5.76,4.94.88,2.36-.24,4.78-1.23,6.91l-.26.55a13.4,13.4,0,0,1-7.64,7.22A48.27,48.27,0,0,1,166,65.82V53.38a.39.39,0,0,0-.07-.23.43.43,0,0,0-.37-.2h-6.43Zm6,32.19A5.2,5.2,0,0,1,161.56,68c-1.17-1.35-.95-3.68.66-6.92l2.91-5.88Zm.87-2.58c1.09.73,2.32,1.47,3.73,2.23a17.66,17.66,0,0,1-3.73.39Zm-1.13-13-3.42,6.91c-1.78,3.59-2,6.24-.54,7.88,2.43,2.8,8.7,1.52,10.12,1.05a14.27,14.27,0,0,0,8.33-7.75l.25-.55c1-2.17,2.27-4.87,1.27-7.57-.8-2.13-2.83-3.9-6.21-5.43-7.85-3.72-13.4-7.22-15-12.21-1.16-3.53-.34-7.69,2.57-13.09,7.32-13.6,21.16-21.72,37-21.72,8.44,0,14.06,2,16.7,6,2.41,3.61,2.24,8.79-.5,15.39l-1.75,4.21H195.42L197.2,23c.65-1.42,1.56-4.09.31-6-.88-1.37-2.62-2.06-5.18-2.06a13.33,13.33,0,0,0-11.85,7.39c-.71,1.45-1.3,3-.75,4.54.7,1.95,3.06,3.66,8.13,5.92C199,37.77,207,43,199.6,60.75,192,79,176.43,89.39,156.78,89.39c-8.21,0-13.94-1.78-17-5.29-2.24-2.55-3.1-6-2.55-10.3a37.54,37.54,0,0,1,4.5-12.68l3.94-7.31Zm29.48-26.66a.48.48,0,0,0,0,.18v7.72A62.16,62.16,0,0,0,188.21,32c-4.77-2.12-7.06-3.75-7.67-5.42-.41-1.17,0-2.39.72-3.87a12.46,12.46,0,0,1,11.07-6.9c2.25,0,3.75.56,4.46,1.66,1,1.6.2,3.95-.37,5.21ZM142.82,57.22l-1.88,3.49a38.4,38.4,0,0,0-4.59,12.92l-13.5,34.24V88L155.74,4.52V24.44ZM126.73,2.67h28.81L122.12,87.44H100.46l7.72-16.75a.44.44,0,0,0-.39-.62H90.86a.42.42,0,0,0-.34.17L77.27,87.44H55.78ZM77.91,88,90.43,71.77V92.63L77.91,108.88ZM69.45,30.11a.5.5,0,0,0-.08.26V38c-6.21,1.79-10.47,7.45-13.9,12l-1.32,1.75.07.05h-.51a.41.41,0,0,0-.35.18c-.5.67-1,1.4-1.57,2.16-4.61,6.44-10.92,15.26-19.65,15.26-2,0-3.18-.46-3.63-1.37-1.18-2.4,2.94-7.75,4.29-9.5L58.37,25.39c3.11-4,8-9.39,14.69-9.39,1.85,0,3,.42,3.42,1.24,1,2-2.14,6.24-3.16,7.63ZM56.16,50.5c3.31-4.4,7.4-9.85,13.21-11.64V51.78H55.2ZM70.23,38.29V30.8H89V46.39l-4.87,5.82H74.72a.45.45,0,0,0,0-.2.45.45,0,0,0-.39-.23H70.23Zm4.5,14.79h8.68L74.73,63.45Zm15.14-7.72V30.5L95,23.09a32.82,32.82,0,0,0,4.2-7.95c0,7.87,0,17.9,0,18.16,0,.06,0,.12,0,.19l0,.18a5.51,5.51,0,0,1-.06.57l0,.15ZM9.77,61.19,40.83,23.11c11-13.43,27.55-21.78,43.3-21.78,7.45,0,12.37,1.87,14.22,5.41a7.91,7.91,0,0,1,.85,4v0C99.11,14,97.46,18,94.29,22.6l-5.08,7.34H70.66L74,25.39c2.09-2.83,4.34-6.36,3.24-8.54-.58-1.14-2-1.72-4.19-1.72-7,0-12.15,5.56-15.37,9.74L32.12,58c-2.7,3.5-5.64,7.85-4.38,10.42.6,1.22,2.08,1.84,4.4,1.84,9.17,0,15.64-9,20.36-15.61.49-.7,1-1.36,1.43-2H73.47c-1.93,2.77-6.75,9.69-7.17,10.24C57,75.11,38.58,89.39,17.05,89.39c-7.29,0-16-1.71-16.09-9.86C.9,74.67,3.94,68.33,9.77,61.19Zm7.28,50.48c-10.53,0-16.1-3.46-16.1-10V83.61c2.46,5.38,9.78,6.65,16.1,6.65C38.9,90.26,57.61,75.79,67,63.4c0,0,4.77-6.78,6.87-9.81v10.9L54.52,87.59a.41.41,0,0,0-.09.28h0v9.51C47.65,102.78,33.94,111.67,17.05,111.67ZM55.29,88.3H77.05v21.41H55.29Zm36,4V70.94h15.82L99.39,87.69a.39.39,0,0,0,0,.18v4.48Zm8.93.43V88.3H122v21.41H100.22Zm101.49-16c-.88,3.57-9.63,34.9-44.93,34.9-13.1,0-19.75-4.44-19.75-13.18V81.23a11.24,11.24,0,0,0,2.07,3.44c3.27,3.71,9.22,5.59,17.68,5.59,20,0,35.91-10.64,43.62-29.18A44.72,44.72,0,0,0,202.47,55V71.15A24.31,24.31,0,0,1,201.71,76.77Zm1.6-27.6c.08-6.57-3.26-10.54-8.13-13.6V27.76h18.36V45.05h0l-1.65,4.12Zm4.79,11.91L223.32,23c5.34-13.37,18.4-21.67,34.09-21.67,8.21,0,14.25,2.25,17.49,6.5,2.82,3.7,3.42,8.85,1.75,14.9l-2,7.21H255.94l1.5-4.68c.85-2.65,1.62-6,0-8.15-1-1.31-2.65-2-5-2-8,0-10.59,7.42-11.46,9.86L229.2,58.1a20.47,20.47,0,0,0-1.4,6.46c0,3.72,2.18,5.68,6.3,5.68,8.92,0,11.78-8.93,12.72-11.86l1.85-5.74h19.7l-2.26,8.16c-4.81,17.37-20,28.59-38.78,28.59-9.12,0-15.73-2.65-19.12-7.67S204.77,69.38,208.1,61.08Zm19.23,50.59c-13.8,0-21.71-6.15-21.71-16.86V78.28a14.66,14.66,0,0,0,1.87,3.93c3.56,5.26,10.42,8.05,19.84,8.05,19.15,0,34.7-11.48,39.61-29.23l1.56-5.64v19l-1.93,7-2.65,6.29a.51.51,0,0,0,0,.17v1.21C254.23,110,233.47,111.67,227.33,111.67ZM264.75,88.3h21.77v21.41H264.75Zm28.78,4V70.94h16.05l-.75,16.91v4.5Zm16.16,17.36V88.3h21.76v21.41Z"/></svg>