<svg id="Layer_1" data-name="Layer 1" xmlns="http://www.w3.org/2000/svg" width="50.18" height="56" viewBox="0 0 50.18 56"><defs><style>.cls-1{fill:#17C37B;}</style></defs><title>icon_1</title><polygon class="cls-1" points="25.09 13.88 30.07 18.86 31.32 17.62 25.09 11.39 18.86 17.62 20.11 18.86 25.09 13.88"/><polygon class="cls-1" points="25.09 18.86 33.81 27.58 35.05 26.34 25.09 16.38 15.13 26.34 16.38 27.58 25.09 18.86"/><path class="cls-1" d="M25.09,23.85,37.54,36.3l1.25-1.25L25.09,21.36,11.39,35.05l1.25,1.25Z"/><polygon class="cls-1" points="15.13 36.3 16.38 37.54 25.09 28.83 33.81 37.54 35.05 36.3 25.09 26.34 15.13 36.3"/><path class="cls-1" d="M48.29,0H0V56H50.18V0Zm0,54.1H26V34.67l4.11,4.12,1.25-1.25-6.23-6.22-6.23,6.22,1.25,1.25L24.2,34.7V54.1H1.9V1.9H48.29Z"/></svg>