<svg id="Layer_1" data-name="Layer 1" xmlns="http://www.w3.org/2000/svg" width="300" height="343.24" viewBox="0 0 300 343.24"><defs><style>.cls-1{fill:#0133fd;}.cls-2{fill:#ffce09;}.cls-3{fill:#112378;}.cls-4{fill:none;stroke:#112378;stroke-miterlimit:10;}</style></defs><path class="cls-1" d="M140.47,343.24c-.34,0-1.5-4.24-1.64-6.22s0-6.85,0-6.85,8,2.28,10.42,2.09a52.59,52.59,0,0,0,8.75-2.09,6.86,6.86,0,0,1,2.19-.74,76.93,76.93,0,0,0,10.3.77c3.09-.19,17.38-3.41,19.56-3.73s15.45-1.81,34.24-9.79c0,0,10.1,3.35,13.64,3.35s13-3.35,14.81-5.28a61.83,61.83,0,0,0,5-7.46l2.18,6.95s5.41,3.54,6.18,5.34.52,4.57.52,5.79,2.38,8.43,2.57,10-.06,4.31,0,5a21.12,21.12,0,0,0,.77,2.81Z"/><polygon class="cls-2" points="65.68 21.84 65.97 23.55 59.72 24.61 59.42 22.9 61.63 22.53 60.23 14.29 58.1 14.65 57.81 12.94 63.96 11.9 64.25 13.61 62.11 13.97 63.51 22.21 65.68 21.84"/><rect class="cls-2" x="69.46" y="10.85" width="1.72" height="3.76" transform="translate(-1.14 11.92) rotate(-9.62)"/><polygon class="cls-2" points="82.27 8.8 84.25 20.45 82.48 20.75 81.29 13.7 80.53 17.44 78.58 14.16 79.77 21.21 78 21.51 76.02 9.86 77.8 9.55 79.75 12.87 80.51 9.1 82.27 8.8"/><polygon class="cls-2" points="100.78 17.65 96.93 11.4 98.07 18.11 96.29 18.41 94.31 6.75 96.09 6.45 99.96 12.82 98.81 5.99 100.57 5.7 102.54 17.35 100.78 17.65"/><polygon class="cls-2" points="105.46 16.86 103.48 5.2 109.73 4.14 110.03 5.9 105.64 6.65 106.18 9.83 110.05 9.18 110.34 10.94 106.48 11.6 107.02 14.76 111.41 14.02 111.71 15.8 105.46 16.86"/><polygon class="cls-2" points="117.05 2.9 118.86 2.59 119.23 14.52 116.21 15.04 112.63 3.65 114.46 3.34 117.33 12.46 117.05 2.9"/><polygon class="cls-2" points="123.75 13.76 121.78 2.1 128.03 1.04 128.33 2.8 123.94 3.55 124.48 6.73 128.34 6.08 128.64 7.84 124.78 8.49 125.31 11.66 129.7 10.92 130 12.7 123.75 13.76"/><path class="cls-2" d="M136.7,6.26l2.43,4.89-1.89.32L135,7c-.46.06-.83.14-1.17.2l.8,4.71-1.78.3-2-11.66,2.86-.48a3.19,3.19,0,0,1,3.95,2.76A3.41,3.41,0,0,1,136.7,6.26Zm-2.15-1A1.64,1.64,0,0,0,136,3.16a1.57,1.57,0,0,0-1.91-1.38L133,2l.59,3.49Z"/><path class="cls-2" d="M30.2,45.44l-1.35.23-.29-1.73,3.13-.53.59,3.46c.34,2-.45,3.61-2.56,4-2.5.42-3.43-1.34-3.7-2.91l-.88-5.22c-.34-2,.43-3.62,2.53-4,2.63-.45,3.45,1.31,3.72,2.91l0,.2-1.78.3,0-.2c-.08-.51-.31-1.73-1.65-1.5s-1.14,1.45-1.06,2l.89,5.22c.08.49.3,1.7,1.64,1.48s1.15-1.45,1.07-1.94Z"/><path class="cls-2" d="M40.52,40.1l.89,5.22c.34,2-.45,3.61-2.55,4s-3.37-.91-3.71-2.91l-.88-5.22c-.34-2,.43-3.61,2.53-4S40.19,38.13,40.52,40.1Zm-1.78.3c-.08-.49-.3-1.69-1.64-1.46S36,40.37,36,40.86l.89,5.22c.08.49.32,1.69,1.64,1.46s1.15-1.43,1.07-1.92Z"/><polygon class="cls-2" points="49.34 47.28 45.49 41.03 46.63 47.74 44.85 48.05 42.87 36.39 44.65 36.09 48.52 42.46 47.36 35.63 49.13 35.33 51.1 46.99 49.34 47.28"/><polygon class="cls-2" points="58.49 45.73 54.64 39.48 55.78 46.19 54 46.49 52.02 34.84 53.8 34.54 57.67 40.91 56.51 34.08 58.27 33.78 60.25 45.44 58.49 45.73"/><path class="cls-2" d="M67.79,44.16l-.73-2.23-2.34.39,0,2.35L63,45l-.14-12,2.91-.49,3.81,11.35Zm-3.08-3.54,1.8-.31-1.92-5.84Z"/><path class="cls-2" d="M79.48,30.18l2.87-.48a3.13,3.13,0,0,1,3.94,2.71l.87,5.1a3.12,3.12,0,0,1-2.84,3.84l-2.86.49Zm3.42,9.66,1.16-.2a1.52,1.52,0,0,0,1.34-1.88l-.85-5a1.52,1.52,0,0,0-1.88-1.36l-1.17.2Z"/><path class="cls-2" d="M95.23,39.51l-.73-2.23-2.33.39,0,2.35-1.78.3-.15-12,2.91-.49L97,39.2ZM92.16,36,94,35.66,92,29.82Z"/><polygon class="cls-2" points="104.23 37.98 100.38 31.73 101.52 38.44 99.74 38.74 97.76 27.09 99.54 26.78 103.41 33.15 102.25 26.32 104.01 26.02 105.99 37.68 104.23 37.98"/><path class="cls-2" d="M114.61,32.91c.34,2-.45,3.61-2.55,4-2.51.42-3.44-1.34-3.7-2.91l-.89-5.22c-.34-2,.44-3.61,2.54-4,2.52-.43,3.44,1.32,3.71,2.91l.09.51-1.78.3-.09-.51c-.08-.49-.3-1.69-1.64-1.46s-1.15,1.43-1.07,1.92l.89,5.22c.08.49.3,1.69,1.64,1.46s1.15-1.43,1.07-1.92l-.09-.52,1.78-.31Z"/><polygon class="cls-2" points="118.05 35.64 116.07 23.98 122.33 22.92 122.63 24.68 118.24 25.43 118.78 28.61 122.64 27.96 122.94 29.72 119.08 30.37 119.61 33.54 124 32.8 124.3 34.58 118.05 35.64"/><path class="cls-2" d="M141,31.75l-.73-2.23-2.33.4.05,2.34-1.78.3-.15-12,2.91-.5,3.81,11.35Zm-3.07-3.54,1.79-.3-1.91-5.85Z"/><path class="cls-2" d="M149.13,25.28l-1.36.23-.29-1.73,3.13-.53.59,3.46c.34,2-.45,3.61-2.55,4-2.51.42-3.43-1.34-3.7-2.91l-.89-5.22c-.34-2,.44-3.61,2.54-4,2.62-.45,3.45,1.32,3.72,2.91l0,.2-1.78.3,0-.2c-.09-.51-.31-1.73-1.65-1.5s-1.15,1.45-1.06,2l.88,5.22c.08.49.31,1.71,1.65,1.48s1.14-1.45,1.06-1.94Z"/><path class="cls-2" d="M159.27,28.65l-.73-2.23-2.34.4.05,2.34-1.78.3-.14-12,2.91-.5,3.81,11.35Zm-3.08-3.54,1.8-.3L156.07,19Z"/><polygon class="cls-2" points="169.75 25.11 170.04 26.82 163.79 27.88 163.5 26.17 165.7 25.8 164.31 17.57 162.17 17.93 161.88 16.22 168.03 15.17 168.32 16.88 166.19 17.25 167.58 25.48 169.75 25.11"/><polygon class="cls-2" points="177.41 25.57 173.56 19.32 174.7 26.03 172.92 26.34 170.94 14.68 172.72 14.38 176.59 20.75 175.44 13.92 177.2 13.62 179.17 25.28 177.41 25.57"/><path class="cls-2" d="M19.93,68.09l-1.36.23-.29-1.72,3.13-.54L22,69.52c.34,2-.45,3.62-2.55,4-2.51.43-3.44-1.33-3.7-2.91l-.89-5.22c-.34-2,.44-3.61,2.54-4C20,61,20.85,62.71,21.12,64.3l0,.21-1.78.3,0-.21c-.09-.5-.31-1.72-1.65-1.49s-1.15,1.45-1.06,2l.88,5.22c.08.49.31,1.71,1.65,1.48s1.14-1.45,1.06-1.94Z"/><path class="cls-2" d="M25.28,60.29l1.43,8.43c.08.49.31,1.66,1.58,1.44s1.11-1.39,1-1.88l-1.43-8.44,1.81-.3L31.13,68c.34,2-.42,3.61-2.53,4S25.23,71,24.9,69l-1.43-8.44Z"/><polygon class="cls-2" points="40.55 67.93 40.84 69.64 34.59 70.7 34.3 68.99 36.5 68.61 35.11 60.38 32.97 60.74 32.68 59.03 38.83 57.99 39.12 59.7 36.99 60.06 38.38 68.3 40.55 67.93"/><polygon class="cls-2" points="41.74 57.49 43.61 57.18 45.27 66.97 49.66 66.23 49.97 68.09 43.72 69.15 41.74 57.49"/><polygon class="cls-2" points="53.39 57.38 51.18 57.76 50.88 55.95 57.16 54.88 57.47 56.69 55.27 57.07 56.94 66.91 55.05 67.23 53.39 57.38"/><polygon class="cls-2" points="66.29 53.33 65.26 60.41 66.1 65.36 64.24 65.67 63.4 60.73 60.06 54.39 61.9 54.08 63.87 57.98 64.45 53.65 66.29 53.33"/><polygon class="cls-2" points="81.64 57.6 82.48 62.58 80.6 62.9 78.63 51.24 84.88 50.18 85.17 51.95 80.8 52.69 81.34 55.87 85.09 55.24 85.38 56.96 81.64 57.6"/><polygon class="cls-2" points="89.48 61.39 87.5 49.74 93.75 48.68 94.05 50.44 89.66 51.18 90.2 54.37 94.07 53.71 94.37 55.48 90.5 56.13 91.04 59.3 95.43 58.55 95.73 60.33 89.48 61.39"/><polygon class="cls-2" points="98.63 59.84 96.65 48.19 102.9 47.13 103.2 48.89 98.81 49.63 99.35 52.82 103.22 52.16 103.51 53.93 99.65 54.58 100.19 57.75 104.58 57 104.88 58.78 98.63 59.84"/><polygon class="cls-2" points="108.27 48.08 106.07 48.45 105.76 46.64 112.05 45.58 112.36 47.39 110.15 47.76 111.82 57.61 109.94 57.92 108.27 48.08"/><polygon class="cls-2" points="130.38 42.47 132.36 54.13 130.47 54.44 129.63 49.43 127.07 49.86 127.92 54.88 126.04 55.2 124.06 43.54 125.94 43.22 126.77 48.1 129.33 47.67 128.5 42.79 130.38 42.47"/><path class="cls-2" d="M139.84,52.86l-.72-2.23-2.34.39.05,2.35-1.78.3-.15-12,2.92-.49,3.8,11.34Zm-3.07-3.54,1.79-.31-1.91-5.84Z"/><polygon class="cls-2" points="146.81 39.68 148.63 39.38 148.99 51.31 145.98 51.82 142.39 40.43 144.22 40.12 147.09 49.24 146.81 39.68"/><polygon class="cls-2" points="153.51 50.54 151.54 38.88 157.79 37.82 158.09 39.59 153.7 40.33 154.24 43.51 158.1 42.86 158.4 44.62 154.54 45.28 155.08 48.44 159.47 47.7 159.77 49.48 153.51 50.54"/><path class="cls-2" d="M175.44,41.73l-1.35.23-.29-1.73,3.13-.53.59,3.46c.34,2-.45,3.61-2.56,4-2.5.42-3.43-1.34-3.7-2.91L170.38,39c-.34-2,.43-3.61,2.53-4,2.63-.44,3.45,1.32,3.72,2.91l0,.2-1.78.31,0-.21c-.08-.51-.31-1.72-1.65-1.5s-1.14,1.45-1.06,2l.89,5.22c.08.49.3,1.71,1.64,1.48s1.15-1.45,1.07-1.94Z"/><path class="cls-2" d="M185.76,36.39l.89,5.22c.34,2-.45,3.62-2.55,4s-3.37-.91-3.7-2.91l-.89-5.22c-.34-2,.43-3.61,2.54-4S185.43,34.43,185.76,36.39Zm-1.78.3c-.08-.49-.3-1.69-1.64-1.46s-1.15,1.43-1.07,1.92l.89,5.22c.08.49.32,1.69,1.64,1.47s1.15-1.44,1.07-1.93Z"/><polygon class="cls-2" points="190.61 34.13 188.4 34.5 188.1 32.69 194.38 31.62 194.69 33.43 192.49 33.81 194.16 43.65 192.28 43.97 190.61 34.13"/><polygon class="cls-2" points="74.53 84.84 70.68 78.59 71.82 85.3 70.04 85.6 68.06 73.95 69.84 73.64 73.71 80.01 72.55 73.19 74.31 72.89 76.29 84.54 74.53 84.84"/><path class="cls-2" d="M84,74.55l.88,5.22c.34,2-.45,3.62-2.55,4s-3.36-.91-3.7-2.91l-.89-5.22c-.34-2,.44-3.61,2.54-4S83.67,72.59,84,74.55Zm-1.78.31c-.09-.49-.31-1.69-1.65-1.47s-1.15,1.43-1.06,1.93l.88,5.21c.08.5.32,1.69,1.64,1.47s1.16-1.43,1.07-1.92Z"/><path class="cls-2" d="M101.3,75l2.43,4.89-1.89.32-2.21-4.47c-.46.06-.83.14-1.17.2l.8,4.71-1.78.3-2-11.66,2.86-.48a3.19,3.19,0,0,1,3.95,2.76A3.4,3.4,0,0,1,101.3,75Zm-2.15-1a1.64,1.64,0,0,0,1.42-2.13,1.58,1.58,0,0,0-1.91-1.38l-1.09.18.6,3.49Z"/><polygon class="cls-2" points="110.96 66.67 112.93 78.33 111.05 78.65 110.2 73.64 107.64 74.07 108.49 79.08 106.61 79.4 104.64 67.75 106.52 67.43 107.34 72.31 109.9 71.87 109.08 66.99 110.96 66.67"/><polygon class="cls-2" points="120.05 65.13 119.02 72.21 119.86 77.16 118 77.47 117.16 72.53 113.82 66.19 115.67 65.88 117.63 69.78 118.21 65.45 120.05 65.13"/><path class="cls-3" d="M4.94,117.55l-.73-2.23-2.33.4.05,2.34-1.78.3L0,106.4l2.91-.5,3.81,11.35ZM1.87,114l1.79-.3-1.91-5.85Z"/><polygon class="cls-3" points="13.94 116.03 10.09 109.78 11.23 116.49 9.45 116.79 7.47 105.13 9.25 104.83 13.12 111.2 11.96 104.37 13.72 104.07 15.7 115.73 13.94 116.03"/><path class="cls-3" d="M16.64,103.58l2.86-.49a3.12,3.12,0,0,1,3.94,2.71l.87,5.1a3.12,3.12,0,0,1-2.83,3.85l-2.87.48Zm3.41,9.65,1.17-.2a1.52,1.52,0,0,0,1.34-1.88l-.85-5a1.53,1.53,0,0,0-1.89-1.35l-1.17.2Z"/><path class="cls-3" d="M41.53,111.35l-.72-2.23-2.34.39.05,2.35-1.78.3-.15-12,2.92-.49,3.8,11.35Zm-3.07-3.54,1.79-.31-1.91-5.84Z"/><polygon class="cls-3" points="44.06 98.93 45.93 98.61 47.59 108.41 51.98 107.66 52.29 109.53 46.04 110.58 44.06 98.93"/><polygon class="cls-3" points="53.21 97.38 55.08 97.06 56.73 106.85 61.12 106.11 61.44 107.97 55.19 109.03 53.21 97.38"/><polygon class="cls-3" points="79.46 103.16 79.75 104.87 73.5 105.93 73.21 104.22 75.41 103.84 74.02 95.61 71.88 95.97 71.59 94.26 77.74 93.22 78.03 94.93 75.9 95.29 77.29 103.53 79.46 103.16"/><polygon class="cls-3" points="83.15 94.17 80.94 94.54 80.64 92.73 86.92 91.66 87.23 93.47 85.03 93.85 86.7 103.69 84.82 104.01 83.15 94.17"/><path class="cls-3" d="M92.94,99.32c.1.56.4,1.7,1.7,1.47A1.45,1.45,0,0,0,95.77,99,2.11,2.11,0,0,0,94,97.26c-2.17-.55-3.31-.88-3.67-3s.45-3.44,2.56-3.79c2.53-.43,3.45,1.31,3.72,2.9l.07.41L94.94,94l-.07-.4c-.08-.51-.43-1.71-1.7-1.49a1.4,1.4,0,0,0-1.12,1.91c.1.56.51,1.14,1.86,1.41,1.59.34,3.19.82,3.59,3.19.34,2-.47,3.52-2.57,3.87-2.5.43-3.43-1.33-3.7-2.91l-.17-1,1.71-.29Z"/><path class="cls-2" d="M189,83a3.14,3.14,0,0,1-2.84,3.85l-2.86.48-2-11.65,2.66-.45a3,3,0,0,1,3.75,2.57,2.82,2.82,0,0,1-.53,2.55A3.12,3.12,0,0,1,189,83Zm-5.73-5.94.55,3.28.95-.16a1.5,1.5,0,0,0,1.27-2,1.4,1.4,0,0,0-1.83-1.31Zm1.93,4.72-1.1.19.58,3.42,1.2-.2a1.54,1.54,0,0,0,1.33-1.92A1.58,1.58,0,0,0,185.16,81.77Z"/><polygon class="cls-2" points="196.68 73.06 195.65 80.13 196.49 85.08 194.63 85.4 193.79 80.45 190.45 74.11 192.29 73.8 194.26 77.7 194.84 73.37 196.68 73.06"/><polygon class="cls-2" points="201.57 84.22 199.6 72.56 205.85 71.5 206.15 73.27 201.76 74.01 202.3 77.19 206.16 76.54 206.46 78.3 202.6 78.96 203.13 82.13 207.52 81.38 207.82 83.16 201.57 84.22"/><path class="cls-2" d="M211.87,79.16c.09.56.39,1.7,1.7,1.48a1.47,1.47,0,0,0,1.13-1.85,2.11,2.11,0,0,0-1.79-1.69c-2.16-.55-3.3-.88-3.67-3s.45-3.43,2.57-3.79c2.52-.43,3.45,1.31,3.72,2.9l.06.41-1.72.29-.07-.4c-.09-.51-.43-1.71-1.7-1.49A1.4,1.4,0,0,0,211,73.89c.09.56.5,1.14,1.86,1.41,1.59.34,3.19.82,3.59,3.19.34,2-.47,3.52-2.57,3.87-2.51.43-3.43-1.33-3.7-2.91l-.18-1,1.71-.29Z"/><path class="cls-2" d="M125.44,66.08l1,6.14,1.62-1.89-.78-4.56,2.21-.38-.31-1.81-6.29,1.07.31,1.81Z"/><path class="cls-2" d="M138.07,62.08l-1.55.26.08.46Q137.29,62.44,138.07,62.08Z"/><path class="cls-2" d="M132.94,65.09a13,13,0,0,1,1.26-.91l-.24-1.4-1.88.31.41,2.42Q132.76,65.24,132.94,65.09Z"/><path class="cls-3" d="M114.63,95.14c0-.6.06-1.17.1-1.71a5.28,5.28,0,0,0-2.52-1.07c-1.36-.27-1.77-.85-1.86-1.41A1.4,1.4,0,0,1,111.47,89c1.27-.22,1.61,1,1.7,1.49l.07.4,1.73-.29-.07-.41c-.27-1.59-1.2-3.33-3.72-2.91-2.12.36-2.91,1.77-2.56,3.8s1.5,2.48,3.67,3a2.11,2.11,0,0,1,1.78,1.69,1.45,1.45,0,0,1-1.13,1.84c-1.31.22-1.6-.91-1.7-1.47l-.18-1-1.71.29.18,1.05c.27,1.58,1.19,3.34,3.7,2.91a3.76,3.76,0,0,0,1.37-.49C114.58,97.7,114.59,96.44,114.63,95.14Z"/><path class="cls-2" d="M178.52,83.81a11.53,11.53,0,0,0,.83,3.25,3.4,3.4,0,0,0,.48-2.52l-.87-5.1a3.24,3.24,0,0,0-1.6-2.42A18.77,18.77,0,0,1,178.52,83.81Z"/><path class="cls-4" d="M139.7,342.77a25.34,25.34,0,0,1-1.38-5.83c-.15-2,0-6.85,0-6.85a6.31,6.31,0,0,1-2-1.06c-.63-.63-1-5.55-1-5.55a31,31,0,0,1-1.16-2.9,5.05,5.05,0,0,1,1.16-3.76c.77-.58-.29-1.55-.29-1.55-.92-3.23-5.84-21.24-5.7-23.55s1.06-6.08.82-6.13A12.39,12.39,0,0,1,127.7,283a6.29,6.29,0,0,0-.48-2.61,5.67,5.67,0,0,1-.39-3.37c.1-1.07,1.64-3.05,1.3-3.53s0-2-.09-2.7a26.27,26.27,0,0,1,.77-3.77s-4-4.24-4.64-4.92-3.37-4.95-3.37-4.95a16.62,16.62,0,0,1-4.93-2.24c-.53-.43-3.71-4.54-4.25-5s-3.18-2.41-3.76-2.9-7.38-10.61-7.82-11.68-3.76-8.68-3.76-9.94.77-8.88.77-8.88-1.79-7.58-1.84-8.5,1.16-21.09,1.36-26.4,4.48-11.58,5.88-13.22,7.53-4.83,7.68-5.36,2.07-1.88,2.61-2.22a27.49,27.49,0,0,0,3.18-2.22c.34-.43,4.78-3.62,5.5-4.15s5.89-2.51,6.57-2.94.87-1.41,1.25-1.89,1.11-.43,1.64-.48a2.15,2.15,0,0,0,1.64-1.55,1.63,1.63,0,0,1,1.36-1.06l1.64-.87,2.22-6.66s6.95,6.86,9.26,8.47,10.49,8.52,11.78,9.2,12,4.7,13.39,4.76,3.86-.13,3.86-.13"/><path class="cls-4" d="M136.39,143s-6.73-2.81-8.66-4.65-4.18-8.75-4.63-10.17-.68-4.69-1-5.34a36.93,36.93,0,0,1-2.06-3.54,10.31,10.31,0,0,1,.13-3.54c-4.76-4.31-5.53-11.45-5.28-20s3.64-11.23,5-13.93,11.42-14.48,13.35-16.13,11.26-7,20.6-6.17,10,11.5,10,11.5,8.86-2.28,11.95,2.88a18.65,18.65,0,0,1,3,10.52c.1,2.08,1.59,4.78,1.64,5.7s.29,4.24,0,4.53,2.9,3.91,4,5.46,2.8,8.45,3.19,13.71l3.09,5.79s1.88,5.4,1.93,6.08,0,1.93,0,1.93l1.73,3.52s3.82,1.89,4.83,2.51,2,3,2.41,3.87v.91a4,4,0,0,1,2.25,1.86,8.51,8.51,0,0,1,1.46,3c2.81-.42,17-1.26,22.21,1.46,5.79,3,16.67,17.63,18.41,21.88s8.43,17.44,9.39,18.53,12.1,11.46,13.26,14.16,1.87,7.27,2.83,8.62,3.93,6.76,4.12,8,3.28,5.22,3.48,5.93,2.06,5.92,1.41,8-1.22,2.7-1.16,3.6,3,7.21,3.09,8.62a21.47,21.47,0,0,1-1.93,7.85c-1.28,2.77-5.6,8.24-7.59,7.73s-17.38-7.21-17.38-7.21l-5-3.86s3,7.21,3,9-.51,11.77-.38,13.13,1.8,3.79,1.93,5-.13,3.28.13,4,2.12,2.25,1.8,5-1.48,4.69-1.16,6.43a25.36,25.36,0,0,0,1.55,4.51c.45,1.22-1.94,4.76-1.29,6.17s1.86,2.32,2.06,3-.77,4.38-.77,4.38l2.18,7s5.41,3.54,6.18,5.34.52,4.57.52,5.79,2.38,8.43,2.57,10-.06,4.32,0,5a21.12,21.12,0,0,0,.77,2.81"/><path class="cls-4" d="M187.6,113.81l-4.49-5.75s-8.84.39-11.88,4.73c0,0,3.33,16.65,8.79,20.37a116.13,116.13,0,0,0,12.6-5.55"/><path class="cls-4" d="M180.45,94.64s-3.95-5.11-4.58-6-1.35-3.23-2.71-6.18S163.87,71,163.87,71s-7-6-11.85-6-10.66-1.35-15.73,3.28A72.1,72.1,0,0,0,126,81.13c-.14.34-1,.53-.58,1.16s1.11-.34,1.06,1.54-1.54,1.06-1.18,2.71-.46,4.63,1.57,5,3.14.14,3.57,1.06-1.59,8.78-1,10.33,2.7,2.65,3.08,4,.44,5.8,1.26,6.95,1.3,3.05,2.12,2.9,3-2.94,4.06-2.9,4.82-.72,6.27,1,7.15-1.21,7.63-1.54,1.54-3.77,1.54-3.77,3.57-4.1,4.44-4.83,3.48-2.65,5.31-2.8,1.69,0,2.42-.48a9.61,9.61,0,0,1,5.59,0c1.36.68,5.94,4,6.23,4.78s.63,1.88.63,1.88"/><path class="cls-4" d="M179.29,93.14s2.32,7.25,2.64,9.37a34,34,0,0,1,0,5.55"/><path class="cls-4" d="M180,133.16s2.61,5.48,2.65,5.65a16.75,16.75,0,0,0-2.65,1.74c-.53.58-5.31,2.12-8.79,2.8s-12.69-2.66-14.43-3.09-13.17-3.48-14.28-4.28-11.3-19.22-11.3-19.22-3.84-3.45-4.68-3.65-2.48-.51-3,.46-.54,4.6-.38,5.4a10.69,10.69,0,0,0,3.28,6.31c2.61,2.22,4.57,5.44,5.54,5.85s2.63,1.45,3.53.91"/><path class="cls-4" d="M128.15,116.76s-2.77-2.39-3.48-1.07.2,4.09.9,4.92a43.41,43.41,0,0,1,3,4.47,7.13,7.13,0,0,0,2.51,2.26"/><path class="cls-4" d="M130,118.84a2.85,2.85,0,0,1,2.12,1.77,10.08,10.08,0,0,1,.39,3.9"/><path class="cls-4" d="M155.4,109.51c-1.48-4.18,1.35-10.88,1.35-10.88s0,4.45,1.36,4.64"/><path class="cls-4" d="M152.18,90.79a4.18,4.18,0,0,0,4.25,1"/><path class="cls-4" d="M155,87.69a7.63,7.63,0,0,1-6.13,3.1c-4.12,0-9.72,5-10.36,7.33"/><path class="cls-4" d="M154.31,84.93a8,8,0,0,0-1.74,2.76"/><path class="cls-4" d="M148.77,83.7s2,3.35,1.36,5"/><path class="cls-4" d="M151.54,92.91s-5.76,3.41-7.14,5.21-2.32,1.74-2.32,1.74"/><path class="cls-4" d="M151.54,95.1s-3.28,2.83-5.08,3.53"/><path class="cls-4" d="M158.11,84.93a25,25,0,0,1,2.51,3.73"/><path class="cls-4" d="M160.87,87.69l4.38-3.47s4.66-.61,6.31,1.16"/><path class="cls-4" d="M162.48,88.66a5.85,5.85,0,0,0,2.58,0c1-.35,4.5-1.16,6.95,0"/><path class="cls-4" d="M163.45,89.69s3.67,1.54,6.82.64"/><path class="cls-4" d="M164.41,95.55s2.25-.65,3.09,0a3.65,3.65,0,0,1,1,2.12,4.13,4.13,0,0,1,1.74.45,2.72,2.72,0,0,1,1,2.48"/><path class="cls-4" d="M164.41,100.18s-2.44,0-3.09.71a2.59,2.59,0,0,0-.7,1.41"/><path class="cls-4" d="M166.21,101.53a6.69,6.69,0,0,1,.65-1.67c.35-.52.26-.81,1-1"/><path class="cls-4" d="M174.16,110.33c.08-.65-2.52-3.38-3.36-2.65s-5.79,1.83-5.79,1.83c-1.18,1.67-5,7.77-5,7.77s2,.77,3.84,1.45a26.47,26.47,0,0,0,3.15,1.06c1.14,0,4.37.19,5.6-.43"/><path class="cls-4" d="M161.73,115.3a3.39,3.39,0,0,0,1.11,0c.62-.09.79-.21,1-.58s1.64-.58,1.64-.58l.72-.62a7,7,0,0,0,1.85,0,3.36,3.36,0,0,0,1-.81,1.51,1.51,0,0,1,.87-.28,3,3,0,0,0,1.34-.74H172"/><path class="cls-4" d="M163.24,118.49s2.27-.53,3.31-.63,3.38,0,3.72,0,.8-1.09,1.74-1.5"/><path class="cls-4" d="M165.78,121.48a41.13,41.13,0,0,0,5.07,1.26,18,18,0,0,0,3.12,0"/><path class="cls-4" d="M159.81,119.83s2.48,4.16,5.41,4.68a42.52,42.52,0,0,0,8.23.25,7.49,7.49,0,0,0,1.17-.25"/><path class="cls-4" d="M132.91,133.64a19.12,19.12,0,0,0,4.57.84"/><path class="cls-4" d="M132.2,136.35a10.57,10.57,0,0,0,8.05,2.12"/><path class="cls-4" d="M157,148.22s12.75.48,17.67-5.41"/><path class="cls-4" d="M135.62,228.54A43,43,0,0,0,122.1,237c-3.43,2.95-6.42,9.9-6.57,12.74s1.9,6,1.9,6"/><path class="cls-4" d="M131.17,242.73s2-12.36,7.63-16.7,16.51-17.19,17.18-18.44,13.37-27.18,14-28.24a21.13,21.13,0,0,1,2.41-3.18c.82-1,2.95-8.35,2.95-8.35s2.85-18.62,3-19.59,1.06-4.59,1.93-5.42,1.72-1.83,1.72-1.83,2.24-4.63,3.59-5.79,3.14-3.28,6-3.67l2.84-.39"/><path class="cls-4" d="M187.64,141a4.5,4.5,0,0,0,3.38,0c3.71-1.67,11.1-3,10.57-2.56"/><path class="cls-4" d="M194.63,139.48l.88-1.14s2.34.59,2.55.55"/><path class="cls-4" d="M205.3,143.32s.35,1.85.35,2.2,2.58,3.4,2.8,3.81a13.52,13.52,0,0,1,.58,3.81,14.12,14.12,0,0,1,1.44,2.73,12.88,12.88,0,0,1,.34,3.57c0,.2-3.52.36-4.05.44a4.9,4.9,0,0,0-1.93,1.69c-.07.26-1.86,3.11-2.29,4s-2.27,3.55-2.27,4.63a14.5,14.5,0,0,1,0,2.37,35.93,35.93,0,0,0-4.35,5.09c-1.47,2.41-3.47,4.15-4.51,6.83a104.34,104.34,0,0,0-2.9,12.55c-.07.84-3.21,14.14-3.47,15.32-4.27,19-17,45.62-17.38,46.22-1.35,2-4.92,7.24-6.18,8.88s-2.22,2.7-2.51,4.05.29,2.71-1.54,4.25-11.39,2.51-13.9,1.55-6.74-2.13-7.91-2.9-6.81-7.39-6.81-7.39"/><path class="cls-4" d="M197.15,146.68a5.22,5.22,0,0,0,1.46,0c1.15-.1,2.69-1.1,3.32-1.16a17.72,17.72,0,0,1,3.72,0"/><path class="cls-4" d="M199.61,152.81a9.43,9.43,0,0,0,2.42.29c1-.08,2.24.16,3.91,0a15.6,15.6,0,0,1,3.09,0"/><path class="cls-4" d="M203.28,158.89a18.09,18.09,0,0,0,2.37,1.35"/><path class="cls-4" d="M184.65,147.26s-.24,2,3,3"/><path class="cls-4" d="M273.9,212.29a12.48,12.48,0,0,1-4.3-1.71c-1.64-1.21-1.93-1.35-2.6-1.06a7.07,7.07,0,0,0-1.65,1.32"/><path class="cls-4" d="M275.52,216s-9.73-6.09-15.67-7.11c0,0-7.24-4.1-8.3-4.92s-13.8-14.43-15.25-15.16S226.31,174,226,173.13a84.56,84.56,0,0,0-5-9.08c-.77-.82-3.67-1.49-4.54-1.64s-5.6-3-5.6-3"/><path class="cls-4" d="M200.27,172.55l.66,1.38s-2.48,4.15-2.32,4.89.54,3.44,1.16,4.18a6.18,6.18,0,0,0,2.52,1.36c.41.12.41,1.77.9,2.57s1.35,2.45,2.31,2.64a8.34,8.34,0,0,0,.94,2.64,4.88,4.88,0,0,0,2.64,1.67,17.06,17.06,0,0,0,4-1l4.11-1s.42-.16.52.58-1.64,2.45-1.48,3,.51,2.09,1.22,2.44a5.8,5.8,0,0,0,2.13.71h2.12s6.56,8.17,8,11.61,8.91,15.93,10.84,18.7,9.88,17.7,9.88,17.7"/><path class="cls-4" d="M215,166.53a44.18,44.18,0,0,1-5.21,2.64c-1.38.42-6.11,2.77-6.11,2.77a9.17,9.17,0,0,0-2.71,2"/><path class="cls-4" d="M214.38,175.28s-6.62,3.48-7.72,4.19-3.92,3.12-4.37,4.89"/><path class="cls-4" d="M218,182.68s-5,2.8-6.12,3.16A11.67,11.67,0,0,0,208,187.7a21.74,21.74,0,0,1-2.45,1.87"/><path class="cls-4" d="M206.22,170.69s1.93-1.76,2.12-2,1.69.38,2.27.11"/><path class="cls-4" d="M122.87,168.68s7.19,14.58,8.3,16.8,4.78,6.47,5.6,7.34,6.95,7.72,7.63,10.23,4.94,11,5.08,12.33"/><path class="cls-4" d="M107.52,184.36s13.23.77,16.22,1.77,10.75,4.1,13,6.69"/><path class="cls-4" d="M135.52,145.61a54.61,54.61,0,0,0,0,8.4c.38,3.48,3.18,10.43,3.18,10.43l7.9-6c1.27-1,2.19-1.67,2.24-1.72.58-.58,1.69-1.26,2.22-1.69s.84-.87,1.79,0a6.84,6.84,0,0,1,1.49,2.65l3.77.29s2.41,2.94,2.7,3.09,11.2,2.61,11.2,2.61"/><line class="cls-4" x1="146.6" y1="158.44" x2="169.93" y2="179.35"/><line class="cls-4" x1="187.93" y1="199.82" x2="196.91" y2="219.07"/><rect class="cls-4" x="192.35" y="217.63" width="24.04" height="39.9" rx="5.19" transform="translate(-68.2 82.92) rotate(-19.73)"/><path class="cls-4" d="M138.32,330.09s8,2.28,10.42,2.09a52.59,52.59,0,0,0,8.75-2.09,6.86,6.86,0,0,1,2.19-.74,76.93,76.93,0,0,0,10.3.77c3.09-.19,17.38-3.41,19.56-3.73s15.45-1.8,34.24-9.78c0,0,10.1,3.34,13.64,3.34s13-3.34,14.81-5.27a61.71,61.71,0,0,0,5-7.47s-11.27.58-14.08-2.7"/><path class="cls-4" d="M214.64,255.82s2.64,7.95,3.22,8.79,3,5,3.22,6.69.06,8.43,0,12.1-1.29,7.08.13,9.52,4.31,8.63,4.5,11.33-.59,8.69-1.2,9.91a8.18,8.18,0,0,0-.73,2.45"/><path class="cls-4" d="M248,317.89s9.27,8.39,12,8.37c2.12,0,4.37-2.42,3.6-4.17A6.83,6.83,0,0,0,262,319.7"/><path class="cls-4" d="M251.16,325.26s7,4.59,9.56,4,5.37-1.38,5.41-3.93"/><path class="cls-4" d="M266.84,328.41s-2.89,8.1-5.83,10.27"/><path class="cls-4" d="M221.05,330.62s3.79,5.55,4.69,6.95c.74,1.14,2.35,4.13,2.92,5.2"/><path class="cls-4" d="M196.35,325.26v13.42s.13,1-.6,1.11-4.73,0-4.73,0-1.25-1.16-1.35-1.64,1-6.08,1-6.95-.17-4.94-.17-4.94"/><path class="cls-4" d="M190.64,331.2s-18.44,0-20.66-1.08"/><path class="cls-4" d="M196.35,330.66s14.32-.55,17.74-1.38"/><path class="cls-4" d="M200.77,337.62S213.08,335.4,217,336"/><path class="cls-4" d="M148.45,343.16s-.53-7.58-.48-8.2,27,1.89,30.31,1.79a51.69,51.69,0,0,1-.51,5.85"/><line class="cls-4" x1="148.23" y1="339.83" x2="177.85" y2="342.18"/><path class="cls-4" d="M144.9,331.71s-1.71,4.16-1.27,5.18.43,3.47,1.46,5.88"/><path class="cls-4" d="M185.42,331.16s.05,4.09,0,6.46a19,19,0,0,1-1.11,5.15"/><path class="cls-4" d="M245.44,318.05s.51,4.85,1.09,5.47-2.9,1.74-2.9,1.74-1.65-4.51-1.67-6.12"/><path class="cls-4" d="M256.3,291.32s-19.23-1.58-23.19-1.49"/><line class="cls-4" x1="165.35" y1="323.24" x2="199.9" y2="318.05"/><path class="cls-4" d="M145.27,308.18s11.9,9,30.76,2.31"/><path class="cls-4" d="M120.8,257.13s-2.92-4.27-3.27-6-.39-7.07.71-8.91"/><rect class="cls-3" x="99.86" y="342.3" width="200.14" height="0.93"/></svg>