<svg id="Layer_2" data-name="Layer 2" xmlns="http://www.w3.org/2000/svg" width="150" height="47.96" viewBox="0 0 150 47.96"><defs><style>.cls-1{fill:#fff;}</style></defs><path class="cls-1" d="M10.39,33.12,7.46,40.23a.12.12,0,0,0,0,.14A9.69,9.69,0,0,0,10,41.59a.13.13,0,0,0,.15-.06l3.55-8.62c8.93-2.72,2.31,10.8,6.88,12.57,2.29.88,4.83-2,6-3.55a23.67,23.67,0,0,0,4.52-14.3,23.67,23.67,0,0,0-4.52-14.3c-2.94-3.86-6.87-6-11-6s-8.11,2.13-11,6A23.61,23.61,0,0,0,0,27.63a23.61,23.61,0,0,0,4.52,14.3A17.56,17.56,0,0,0,6,43.67l0,0h.06c2.69,2.69,7.43,5.72,13.8,3.43a.12.12,0,0,0,0-.23,3.21,3.21,0,0,1-2-1.23,4,4,0,0,1-.83-2.55.11.11,0,0,0-.16-.1,13,13,0,0,1-6.89.48h0l-.17-.05h0A9.7,9.7,0,0,1,6.7,42.06h0l-.23-.16,0,0C3.06,39.37,1,34.5,1,27.63,1,17,7.51,8.27,15.57,8.27S30.19,17,30.19,27.63c0,7.69-3.91,14-6.76,15.79-5.53,3.45-.71-9.91-5.75-11.62,7.12-2.31,10.08-10.2.57-10.3H15.19L11,31.72c-1.44.35-2.69-.41-3-3.93a.92.92,0,0,1,0-.29l5.69-13.78a.6.6,0,0,1,.23-.27c4.36-2.79,6.51-1,6,.86a8,8,0,0,1-1.77,2.59c-.24.35.2.87.68.52,5.18-3.81.69-9.15-5.55-5C5.31,18.51,5,33.17,10.39,33.12Zm4.06-1.92h0l3.46-8.4C26.4,22.8,22.37,30,14.45,31.2Z"/><path class="cls-1" d="M37.44,27.83c0-6.43,3.07-8.21,6-8.21,4.39,0,4.68,3.38,4.85,5.1l-1.05.08c-.33-2.65-1.36-4.17-3.8-4.17-3,0-4.85,2.15-4.85,7.12,0,5.29,1.67,7.31,4.59,7.31,2.26,0,3.53-1,4-3.67l1,.24a4.83,4.83,0,0,1-5.09,4.44C39,36.07,37.44,32.8,37.44,27.83Z"/><path class="cls-1" d="M50.17,33.06c0-3.14,2.29-3.8,4.49-3.8a5.28,5.28,0,0,1,1.31.13V28.08c0-2-.61-2.68-2.08-2.68-1.69,0-2,.72-2.29,2.06l-1.1-.2c.29-2.08,1.28-2.85,3.36-2.85s3.23.81,3.23,3.8v6c0,.62.07.88.57.88a1.53,1.53,0,0,0,.57-.13l.09.77a1.8,1.8,0,0,1-1.1.28c-.72,0-1.16-.41-1.16-1.36a3.78,3.78,0,0,1-3,1.43A2.73,2.73,0,0,1,50.17,33.06Zm5.8.4v-3a4.82,4.82,0,0,0-1.07-.13c-1.39,0-3.63,0-3.63,2.57,0,1.18.42,2.26,1.89,2.26A3.5,3.5,0,0,0,56,33.46Z"/><path class="cls-1" d="M65,25.64a3,3,0,0,0-.66-.07,3.57,3.57,0,0,0-2.74,1.32v8.92H60.5V24.63h1L61.57,26l0,0a2.91,2.91,0,0,1,2.9-1.56,3.15,3.15,0,0,1,.5,0Z"/><path class="cls-1" d="M71.39,25.64a3,3,0,0,0-.66-.07A3.57,3.57,0,0,0,68,26.89v8.92h-1.1V24.63h1L68,26l0,0a2.91,2.91,0,0,1,2.9-1.56,3.15,3.15,0,0,1,.5,0Z"/><path class="cls-1" d="M72.93,20.81c0-.66.31-1,.92-1a.86.86,0,0,1,.92,1,.87.87,0,0,1-.92,1C73.24,21.8,72.93,21.47,72.93,20.81Zm.37,3.82h1.1V35.81H73.3Z"/><path class="cls-1" d="M77,30.25c0-4.39,2.11-5.84,4.22-5.84,2.74,0,3.69,2.09,3.69,4.65a8.87,8.87,0,0,1-.09,1.34H78.13c0,3.41,1.23,4.68,3.17,4.68,1.49,0,2.15-.77,2.43-2.33l1,.2c-.42,2-1.54,3.12-3.58,3.12C77.89,36.07,77,33.39,77,30.25Zm6.77-.83c0-2.35-.53-4-2.55-4-1.65,0-2.9,1.21-3,4Z"/><path class="cls-1" d="M101.46,35.81h-1.19l-3.18-7H93.18v7H92.1V19.91h4.64c3.34,0,4.06,2.19,4.06,4.21,0,2.4-1,3.82-2.7,4.42Zm-5.1-8c1.94,0,3.28-.83,3.28-3.71,0-2.64-1.34-3.16-3.54-3.16H93.18v6.87Z"/><path class="cls-1" d="M103,33.06c0-3.14,2.29-3.8,4.48-3.8a5.38,5.38,0,0,1,1.32.13V28.08c0-2-.62-2.68-2.09-2.68-1.69,0-2,.72-2.28,2.06l-1.1-.2c.29-2.08,1.27-2.85,3.36-2.85s3.23.81,3.23,3.8v6c0,.62.07.88.57.88a1.53,1.53,0,0,0,.57-.13l.09.77a1.8,1.8,0,0,1-1.1.28c-.72,0-1.16-.41-1.16-1.36a3.8,3.8,0,0,1-3,1.43A2.73,2.73,0,0,1,103,33.06Zm5.8.4v-3a4.91,4.91,0,0,0-1.08-.13c-1.38,0-3.62,0-3.62,2.57,0,1.18.42,2.26,1.89,2.26A3.5,3.5,0,0,0,108.84,33.46Z"/><path class="cls-1" d="M113.39,35.81V19.23h1.1v6.39a4.81,4.81,0,0,1,3.05-1.21c2.28,0,3.75,1.43,3.75,5.53,0,4.4-1.67,6.13-4,6.13a4.62,4.62,0,0,1-2.79-1l0,0-.09.82Zm1.1-1.91A4.25,4.25,0,0,0,117.27,35c2.11,0,2.84-1.74,2.84-5.19,0-3.07-.75-4.5-2.59-4.5a4.51,4.51,0,0,0-3,1.49Z"/><path class="cls-1" d="M123.45,33.06c0-3.14,2.28-3.8,4.48-3.8a5.28,5.28,0,0,1,1.31.13V28.08c0-2-.61-2.68-2.08-2.68-1.69,0-2,.72-2.29,2.06l-1.09-.2c.28-2.08,1.27-2.85,3.36-2.85s3.22.81,3.22,3.8v6c0,.62.07.88.58.88a1.62,1.62,0,0,0,.57-.13l.08.77a1.79,1.79,0,0,1-1.09.28c-.73,0-1.17-.41-1.17-1.36a3.77,3.77,0,0,1-3,1.43A2.72,2.72,0,0,1,123.45,33.06Zm5.79.4v-3a4.82,4.82,0,0,0-1.07-.13c-1.39,0-3.63,0-3.63,2.57,0,1.18.42,2.26,1.89,2.26A3.48,3.48,0,0,0,129.24,33.46Z"/><path class="cls-1" d="M139.81,27.61l-1.14.07c-.18-1.58-.73-2.24-2.11-2.24-1.58,0-2.11.81-2.11,2.07,0,3.25,5.56,1.09,5.56,5.53,0,1.58-1,3-3.41,3-2,0-3.36-.94-3.6-3.51l1.08-.09c.24,1.4.72,2.57,2.57,2.57,1.25,0,2.24-.49,2.24-2.07,0-1.29-.62-1.67-2.2-2.13-2.11-.59-3.36-1.14-3.36-3.29a3,3,0,0,1,3.25-3.14C138.67,24.41,139.57,25.53,139.81,27.61Z"/><path class="cls-1" d="M141.85,33.06c0-3.14,2.29-3.8,4.48-3.8a5.32,5.32,0,0,1,1.32.13V28.08c0-2-.61-2.68-2.09-2.68-1.69,0-2,.72-2.28,2.06l-1.1-.2c.29-2.08,1.28-2.85,3.36-2.85s3.23.81,3.23,3.8v6c0,.62.07.88.57.88a1.53,1.53,0,0,0,.57-.13l.09.77a1.8,1.8,0,0,1-1.1.28c-.72,0-1.16-.41-1.16-1.36a3.78,3.78,0,0,1-3,1.43A2.73,2.73,0,0,1,141.85,33.06Zm5.8.4v-3a4.91,4.91,0,0,0-1.08-.13c-1.38,0-3.62,0-3.62,2.57,0,1.18.42,2.26,1.89,2.26A3.5,3.5,0,0,0,147.65,33.46Z"/><path class="cls-1" d="M40.59,8.84l-3-8.68h.88l2.65,8,2.53-8h.82L41.69,8.84Z"/><path class="cls-1" d="M46.75,8.84h-.81V.16h.81Z"/><path class="cls-1" d="M49.67,2.27c0,2.5,4.8,1.15,4.8,4.25,0,1.78-1.4,2.46-3,2.46-1.92,0-2.83-.84-3.08-2.41l.8-.12a2.08,2.08,0,0,0,2.28,1.84c1,0,2.11-.35,2.11-1.66,0-2.64-4.8-1-4.8-4.33C48.82.9,50,0,51.65,0a2.46,2.46,0,0,1,2.77,2.41l-.76.1c-.17-.84-.51-1.79-2-1.79S49.67,1.4,49.67,2.27Z"/><path class="cls-1" d="M61.68,6V.16h.81V6c0,2-1.13,3-3.16,3s-3-1.05-3-3V.16h.8V6c0,1.72.88,2.31,2.3,2.31S61.68,7.71,61.68,6Z"/><path class="cls-1" d="M68,.16l3,8.68H70.1L69.16,6h-3.5l-.94,2.8h-.79L66.88.16Zm-.56.66L65.9,5.34h3Z"/><path class="cls-1" d="M73.59,8.14h4v.7H72.79V.16h.8Z"/><path class="cls-1" d="M82.89,8.84h-.8V.16h.8Z"/><path class="cls-1" d="M85.41,8.84V.16h2.52c3,0,4.3,1.62,4.3,4.21s-1.4,4.47-4.5,4.47Zm2.38-.7a3.25,3.25,0,0,0,3.6-3.59c0-2.87-1.34-3.7-3.53-3.7H86.21V8.14Z"/><path class="cls-1" d="M95,8.14h4.22v.7h-5V.16h4.9V.85H95V4.08H98.8v.71H95Z"/><path class="cls-1" d="M106.42,8.84,101.79,1V8.84H101V.16h1.15l4.51,7.71V.16h.76V8.84Z"/><path class="cls-1" d="M111.53,8.84v-8h-2.65V.16H115V.85h-2.64v8Z"/><path class="cls-1" d="M117.22,8.84h-.8V.16h.8Z"/><path class="cls-1" d="M121.31,8.84v-8h-2.65V.16h6.1V.85h-2.64v8Z"/><path class="cls-1" d="M128.69,8.84h-.8V5.43l-3-5.27h.89l2.48,4.47L130.72.16h.81L128.69,5.4Z"/><path class="cls-1" d="M135.56,8.84V.16h2.85c2.05,0,2.6.93,2.6,2.12a2,2,0,0,1-1.81,2v0c1.44.19,2.1,1,2.1,2.16,0,1.77-1.3,2.34-3.19,2.34Zm2.28-4.79c1,0,2.34-.31,2.34-1.69S139.35.85,137.6.85h-1.25v3.2Zm.21,4.08c1.36,0,2.41-.2,2.41-1.65s-1.29-1.73-2.8-1.73h-1.31V8.13Z"/><path class="cls-1" d="M145.42,8.84h-.8V5.43l-3-5.27h.88L145,4.63,147.45.16h.81L145.42,5.4Z"/></svg>