<svg id="Layer_1" data-name="Layer 1" xmlns="http://www.w3.org/2000/svg" width="900" height="368" viewBox="0 0 900 368"><defs><style>.cls-1{fill:#17c37b;}</style></defs><polygon class="cls-1" points="164.59 91.4 197.26 124.08 205.43 115.91 164.59 75.07 123.75 115.91 131.92 124.08 164.59 91.4"/><polygon class="cls-1" points="164.59 124.08 221.77 181.25 229.94 173.08 164.59 107.74 99.25 173.08 107.42 181.25 164.59 124.08"/><path class="cls-1" d="M164.59,156.75l81.68,81.68,8.17-8.17-89.85-89.85L74.75,230.26l8.16,8.17Z"/><polygon class="cls-1" points="99.25 238.43 107.42 246.59 164.59 189.42 221.77 246.59 229.94 238.43 164.59 173.08 99.25 238.43"/><path class="cls-1" d="M316.75.32H0V367.68H329.19V.32Zm0,354.92h-158l11.53,0V227.77l27,27,8.17-8.17-40.84-40.84-40.84,40.84,8.17,8.17,26.8-26.8V355.24H12.44V12.76H316.75Z"/><path class="cls-1" d="M416.31,200.07c0,14.41-7.45,24.8-22.6,24.8-18.08,0-22.48-13.44-22.48-24.8V162.43c0-14.53,7.33-24.8,22.48-24.8,18.2,0,22.6,13.32,22.6,24.8v3.67H403.48v-3.67c0-3.54-.12-12.21-9.77-12.21s-9.78,8.67-9.78,12.21v37.64c0,3.54.13,12.21,9.78,12.21s9.77-8.67,9.77-12.21v-3.79h12.83Z"/><path class="cls-1" d="M458.34,223.28l-2.44-16.49H439l-2.44,16.49H423.76L437,139.22h21l13.2,84.06ZM441,194.81h12.95l-6.48-43.25Z"/><path class="cls-1" d="M491,200.07c0,4,.73,12.34,10.14,12.34,9.16,0,10.14-8.68,10.14-11.61,0-3.42-1.34-10-10.51-13.93-14.54-6.47-22.11-10.14-22.11-25.66,0-14.66,7.21-23.58,22.48-23.58,18.2,0,22.6,13.32,22.6,24.8v2.94H511.24v-2.94c0-3.66-1-12.46-10.14-12.46-10.75,0-10.14,9.53-10.14,12.1,0,4,2.2,8.55,11.36,12.09,10.75,4.28,21.38,9.53,21.38,26.64,0,14.42-7.45,24.07-22.6,24.07-18.08,0-22.48-13.44-22.48-24.8v-7.58H491Z"/><path class="cls-1" d="M577.58,200.07c0,14.41-7.45,24.8-22.6,24.8-18.08,0-22.48-13.44-22.48-24.8V162.43c0-14.53,7.33-24.8,22.48-24.8,18.2,0,22.6,13.32,22.6,24.8v3.67H564.75v-3.67c0-3.54-.12-12.21-9.77-12.21s-9.78,8.67-9.78,12.21v37.64c0,3.54.13,12.21,9.78,12.21s9.77-8.67,9.77-12.21v-3.79h12.83Z"/><path class="cls-1" d="M619.61,223.28l-2.44-16.49H600.31l-2.45,16.49H585l13.2-84.06h21l13.2,84.06Zm-17.35-28.47h13l-6.47-43.25Z"/><path class="cls-1" d="M640,139.22h20.65c17.23,0,24.44,11.12,24.44,23.7V199.7c0,12.22-7.21,24-24.44,23.58H640Zm12.46,71.72h8.43c10.27,0,11.61-8.19,11.61-11.61v-36c0-3.54-1.34-11.73-11.61-11.73h-8.43Z"/><path class="cls-1" d="M738.85,210.94v12.34H693.77V210.94h15.88V151.56H694.26V139.22h44.35v12.34h-15.4v59.38Z"/><path class="cls-1" d="M780.88,223.28l-2.44-16.49H761.58l-2.45,16.49H746.3l13.2-84.06h21l13.2,84.06Zm-17.35-28.47h13L770,151.56Z"/><path class="cls-1" d="M846.24,151.19v48.88c0,15.51-7.33,24.68-22.6,24.8s-22.48-9.29-22.48-24.8v-8.31H813.5v8.31c0,4.52.73,12.58,10.14,12.58,9.65,0,10.14-8.55,10.14-13V151.56H805V139.22h41.29Z"/><path class="cls-1" d="M867.26,200.07c0,4,.73,12.34,10.14,12.34,9.16,0,10.14-8.68,10.14-11.61,0-3.42-1.35-10-10.51-13.93-14.54-6.47-22.11-10.14-22.11-25.66,0-14.66,7.2-23.58,22.48-23.58,18.2,0,22.6,13.32,22.6,24.8v2.94H887.54v-2.94c0-3.66-1-12.46-10.14-12.46-10.75,0-10.14,9.53-10.14,12.1,0,4,2.2,8.55,11.36,12.09,10.75,4.28,21.38,9.53,21.38,26.64,0,14.42-7.45,24.07-22.6,24.07-18.09,0-22.48-13.44-22.48-24.8v-7.58h12.34Z"/></svg>