<svg id="Layer_1" data-name="Layer 1" xmlns="http://www.w3.org/2000/svg" xmlns:xlink="http://www.w3.org/1999/xlink" width="1920" height="1080" viewBox="0 0 1920 1080"><defs><style>.cls-1{fill:none;}.cls-2{fill:#112378;}.cls-3{fill:#17c37b;}.cls-4{fill:#ffd007;}.cls-5{fill:url(#New_Pattern_Swatch_4);}.cls-6{fill:url(#radial-gradient);}.cls-7{fill:url(#New_Pattern_Swatch_2);}.cls-8{fill:url(#New_Pattern_Swatch_4-3);}.cls-9{fill:url(#New_Pattern_Swatch_2-3);}.cls-10{fill:url(#New_Pattern_Swatch_7);}.cls-11{fill:url(#New_Pattern_Swatch_2-5);}.cls-12{fill:url(#New_Pattern_Swatch_2-7);}.cls-13{fill:#293073;}.cls-14{fill:#fdcd0c;}.cls-15{fill:#fff;}</style><pattern id="New_Pattern_Swatch_4" data-name="New Pattern Swatch 4" width="215" height="215" patternTransform="translate(-367.89 -1816.45) scale(3.27)" patternUnits="userSpaceOnUse" viewBox="0 0 215 215"><rect class="cls-1" width="215" height="215"/><rect class="cls-3" width="215" height="215"/></pattern><radialGradient id="radial-gradient" cx="960.07" cy="539.79" r="948.37" gradientUnits="userSpaceOnUse"><stop offset="0" stop-color="#112378"/><stop offset="0.33" stop-color="#112678" stop-opacity="0.98"/><stop offset="0.5" stop-color="#113078" stop-opacity="0.92"/><stop offset="0.64" stop-color="#124279" stop-opacity="0.81"/><stop offset="0.75" stop-color="#135b79" stop-opacity="0.65"/><stop offset="0.85" stop-color="#147c7a" stop-opacity="0.45"/><stop offset="0.94" stop-color="#16a37a" stop-opacity="0.2"/><stop offset="1" stop-color="#17c37b" stop-opacity="0"/></radialGradient><pattern id="New_Pattern_Swatch_2" data-name="New Pattern Swatch 2" width="215" height="215" patternTransform="translate(-7242.71 -497.1) scale(13.58 12.92)" patternUnits="userSpaceOnUse" viewBox="0 0 215 215"><rect class="cls-1" width="215" height="215"/><rect class="cls-2" width="215" height="215"/></pattern><pattern id="New_Pattern_Swatch_4-3" data-name="New Pattern Swatch 4" width="215" height="215" patternTransform="translate(827.48 457.59) scale(3.18 3.32)" patternUnits="userSpaceOnUse" viewBox="0 0 215 215"><rect class="cls-1" width="215" height="215"/><rect class="cls-3" width="215" height="215"/></pattern><pattern id="New_Pattern_Swatch_2-3" data-name="New Pattern Swatch 2" width="215" height="215" patternTransform="translate(-5856.43 -1498.05) scale(13.36 13.64)" patternUnits="userSpaceOnUse" viewBox="0 0 215 215"><rect class="cls-1" width="215" height="215"/><rect class="cls-2" width="215" height="215"/></pattern><pattern id="New_Pattern_Swatch_7" data-name="New Pattern Swatch 7" width="85.28" height="85.28" patternTransform="translate(-361.75 1051.09) scale(0.94)" patternUnits="userSpaceOnUse" viewBox="0 0 85.28 85.28"><rect class="cls-1" width="85.28" height="85.28"/><rect class="cls-4" width="85.28" height="85.28"/></pattern><pattern id="New_Pattern_Swatch_2-5" data-name="New Pattern Swatch 2" width="215" height="215" patternTransform="translate(-483.35 1368.63) scale(1.62)" patternUnits="userSpaceOnUse" viewBox="0 0 215 215"><rect class="cls-1" width="215" height="215"/><rect class="cls-2" width="215" height="215"/></pattern><pattern id="New_Pattern_Swatch_2-7" data-name="New Pattern Swatch 2" width="215" height="215" patternTransform="translate(-541.41 854.66) scale(1.1)" patternUnits="userSpaceOnUse" viewBox="0 0 215 215"><rect class="cls-1" width="215" height="215"/><rect class="cls-2" width="215" height="215"/></pattern></defs><rect class="cls-5" x="0.07" y="-0.21" width="1920" height="1080"/><rect class="cls-6" x="0.07" y="-0.21" width="1920" height="1080"/><polygon class="cls-7" points="1568.31 1023 1568.31 1010.39 1567.68 1010.39 1567.68 -0.2 348.64 -0.2 348.64 1010.39 348.64 1017.76 348.64 1023 332.7 1023 332.7 1079.79 348.64 1079.79 1567.31 1079.79 1584.25 1079.79 1584.25 1023 1568.31 1023"/><rect class="cls-8" x="393.53" y="-0.21" width="1129.26" height="953.5"/><rect class="cls-9" x="465.27" y="257.93" width="985.78" height="613.19" rx="40"/><polygon class="cls-10" points="1049.53 167.57 1049.53 195.78 1049.11 142.76 1049.53 167.57"/><polygon class="cls-10" points="1048.73 77.55 1048.73 105.76 1048.39 59.14 1048.73 77.55"/><path class="cls-10" d="M1258.87,145.21c5.47-.17,7.1-2.83,7.1-6.18a10.09,10.09,0,0,0-.06-1.09v-.07c0-.36-.09-.73-.16-1.1,0,0,0-.09,0-.13-.06-.36-.14-.72-.23-1.09l0-.16c-.09-.36-.19-.72-.29-1.07a1.21,1.21,0,0,0,0-.18c-.1-.36-.21-.71-.32-1.06l-.06-.17c-.11-.36-.23-.71-.35-1l-.06-.16c-.12-.35-.25-.69-.37-1l0-.13c-.12-.33-.24-.66-.36-1v0l-19.4-52h-38.32l-5.59-18.41V87.35l5.59,18.41h38.32Z"/><path class="cls-10" d="M743.28,124l-4.72,9.54a16.76,16.76,0,0,0-1.66,4.91l-.06.41c-.33,3.29,1.25,5.82,6.44,6.08v-5a64.15,64.15,0,0,0,6.88,4.1,17.41,17.41,0,0,0,10.09-9.48c2.17-4.74,5.84-11.11-5.68-16.43-12.34-5.71-19.67-11-20-19.43V124Z"/><rect class="cls-10" x="1094.5" y="77.55" width="20.63" height="28.21"/><polygon class="cls-10" points="1072.97 167.57 1072.97 142.76 1069.36 77.55 1048.73 77.55 1048.73 105.76 1069.36 105.76 1072.78 167.57 1049.53 167.57 1049.53 195.78 1128.02 195.78 1128.02 167.57 1072.97 167.57"/><path class="cls-10" d="M1295.1,151.73c0,.22,0,.45-.07.67,0,.52-.13,1-.22,1.53,0,.16,0,.32-.08.48-.14.64-.3,1.26-.49,1.87l-.15.4c-.16.47-.34.93-.53,1.38l-.27.55c-.19.4-.41.8-.63,1.18l-.29.48a16,16,0,0,1-1.08,1.51l0,.05a16.23,16.23,0,0,1-1.27,1.36,3.07,3.07,0,0,1-.26.25,17,17,0,0,1-1.45,1.22l-.11.08c-.51.37-1,.72-1.6,1l-.29.18q-.85.5-1.8.93l-.33.15c-.63.29-1.3.55-2,.8l-.35.12c-.65.22-1.34.43-2,.61l-.36.1c-.78.2-1.6.38-2.45.54l-.69.11q-1,.16-2,.3l-.78.09c-.67.07-1.37.12-2.08.17l-1,.07c-1,0-2.12.08-3.23.08-25.93,0-43.67-14.2-50.25-36.61l-3.33-11.34V150.3l3.33,11.34c6.58,22.41,24.32,36.61,50.25,36.61,1.11,0,2.19,0,3.23-.08l1-.07c.54,0,1.09-.06,1.61-.11l.47-.06.78-.09q1.05-.14,2-.3c.23,0,.47-.07.69-.12.85-.15,1.67-.33,2.45-.53l.36-.1c.48-.12,1-.25,1.41-.4.22-.06.42-.14.63-.21l.35-.12c.69-.25,1.36-.51,2-.8l.33-.15c.55-.25,1.09-.52,1.6-.81l.2-.12.29-.18c.56-.33,1.09-.68,1.6-1.05l.11-.08a17,17,0,0,0,1.45-1.22,3.07,3.07,0,0,0,.26-.25l.25-.23c.36-.36.7-.74,1-1.13l0,0a17.35,17.35,0,0,0,1.08-1.51l.29-.48c.22-.39.44-.78.63-1.18l.27-.55c.19-.45.37-.91.53-1.38l.15-.4c.19-.61.35-1.23.49-1.87,0-.16,0-.32.08-.48.09-.5.17-1,.22-1.53,0-.22,0-.45.07-.67s0-.4.05-.6c0-.45,0-.9,0-1.36V149.77C1295.19,150.44,1295.15,151.09,1295.1,151.73Z"/><path class="cls-10" d="M995.49,105.76h5c5.23,0,8.56,1.23,10.66,3a8,8,0,0,1,.88.86,9.25,9.25,0,0,1,1.71,2.75l.94-22.7c0-4.66-1.31-12.13-14.19-12.13h-5l-5.15,65.19h2.22Z"/><path class="cls-10" d="M1039.18,134.65c0,.41-.06.81-.09,1.22,0,.1,0,.2,0,.3-.06.51-.12,1-.19,1.53,0,.15-.05.3-.08.45-.06.36-.11.72-.18,1.08,0,.19-.09.38-.13.57s-.13.63-.21.94-.1.42-.16.62-.16.59-.25.89-.12.42-.19.63-.19.57-.29.86-.14.42-.22.63l-.33.85c-.09.2-.17.41-.26.61s-.25.57-.38.86l-.27.58-.45.89c-.1.17-.18.35-.28.52-.19.35-.38.69-.59,1-.07.12-.13.25-.21.37q-.42.68-.87,1.35l-.23.31c-.23.34-.47.67-.72,1l-.37.47-.65.81-.44.51c-.22.24-.43.49-.66.73l-.48.51-.61.61-.29.27a1.85,1.85,0,0,0-.14.14l-.81.75-.32.29c-.53.46-1.09.91-1.66,1.35l-.45.33-.7.49-.24.17-.42.3-.59.38-.4.25-.19.11c-.3.19-.6.38-.91.55l-.47.28c-.33.19-.67.36-1,.54l-.74.38-1.13.52c-.24.11-.47.23-.71.33-.44.19-.9.36-1.35.54l-.58.23q-1,.38-2,.69l-.15.05c-.68.21-1.37.41-2.08.59l-.77.19c-.51.12-1,.25-1.56.36l-.93.17c-.5.1-1,.19-1.52.27l-1,.15-1.57.19-1,.1c-.6.06-1.2.1-1.81.13l-.88.06c-.91,0-1.84.06-2.78.06H960.75v28.22s42.33-.19,42.93-.24c.12,0,.25,0,.37,0l.62-.07c.54-.06,1.07-.12,1.59-.2l1-.14c.52-.08,1-.17,1.53-.27l.92-.17c.53-.11,1-.24,1.57-.36l.76-.19c.71-.18,1.41-.38,2.09-.6l.13,0h0q1-.32,2-.69l.56-.22,1.37-.55.7-.32,1.14-.53c.25-.12.49-.25.73-.38s.69-.35,1-.54l.13-.07a3.87,3.87,0,0,0,.34-.21c.51-.29,1-.59,1.5-.91l.59-.38c.46-.32.92-.63,1.36-1l.45-.33c.58-.44,1.13-.89,1.66-1.36l.31-.28c.43-.38.85-.77,1.25-1.16l.22-.21.39-.4.48-.51c.23-.24.44-.49.66-.74s.3-.33.44-.5l.65-.81.37-.47c.25-.33.49-.66.72-1l.23-.31q.45-.67.87-1.35c.08-.12.14-.25.21-.37.21-.34.4-.67.59-1,.1-.17.18-.35.28-.52l.45-.89.27-.58c.13-.29.26-.57.38-.86s.17-.41.26-.61l.33-.85.22-.63c.1-.29.2-.57.29-.86s.13-.42.19-.63.17-.59.25-.89.11-.41.16-.62.15-.62.21-.94.09-.38.13-.57c.07-.36.12-.72.18-1.08,0-.15.06-.3.08-.45.07-.51.13-1,.19-1.53,0-.1,0-.2,0-.3l.09-1.13v-.09c0-.57,0-1.15,0-1.72V132.93C1039.23,133.5,1039.21,134.08,1039.18,134.65Z"/><polygon class="cls-10" points="1158.24 79.55 1158.24 82.61 1160.36 112.86 1164.31 123.73 1174.28 123.73 1158.24 79.55"/><polygon class="cls-10" points="1191.58 167.57 1191.32 167.56 1183.15 145.58 1174.55 145.58 1172.24 145.58 1161.98 145.58 1161.98 149.88 1163.07 167.56 1161.98 167.56 1134.68 167.56 1134.68 195.78 1163.34 195.78 1163.34 173.79 1183.41 173.79 1191.58 195.78 1220.23 195.78 1220.23 167.57 1191.58 167.57"/><path class="cls-10" d="M1381.48,153.14a15.91,15.91,0,0,1-.12,2v0s0,.05,0,.08c-.06.44-.12.88-.21,1.3,0,.05,0,.1,0,.15l0,.15c0,.15-.08.29-.12.44s-.14.54-.23.8c0,.11,0,.23-.09.34l-.16.43v0c-.08.21-.17.41-.26.61a4.89,4.89,0,0,1-.2.48l-.12.24h0a1.42,1.42,0,0,1-.08.18c-.12.24-.27.46-.41.69s-.12.23-.19.34l-.2.34c-.13.19-.28.36-.42.54s-.15.2-.23.29-.21.29-.33.43-.21.23-.32.35q-.46.51-1,1l-.13.12c-.41.35-.85.69-1.31,1l-.27.18a16,16,0,0,1-1.41.86c-.19.11-.4.2-.6.3h0c-.28.14-.55.29-.85.42l-.5.24c-.7.29-1.43.57-2.21.81s-1.34.4-2.05.57l-.61.14c-.54.12-1.09.23-1.66.33l-.76.12c-.61.1-1.23.18-1.87.25l-.59.07c-.61.07-1.25.1-1.88.15-.32,0-.63.05-1,.06-1,.05-2,.07-3,.07-28.55,0-45.64-16.84-53.94-34h0c-.42-.87-.82-1.75-1.2-2.62l-4.13-9.54h25.57l4.54,9.54c2.69,5.67,8,11.44,16.72,11.44,5.79,0,7.57-2.28,7.54-5.08,0-.1,0-.19,0-.28s0-.3,0-.45a3,3,0,0,0-.06-.43c0-.08,0-.16,0-.24a15.17,15.17,0,0,0-1.43-3.9c-2.27-4.42-4.65-10.34-18.4-15.35h.08c-1-.38-2.13-.75-3.31-1.12l-1.49-.49,0,0c-9.36-3.08-17.2-6-23.72-9.4v0l-.06,0v0c-10.89-5.63-18.11-12.41-22.64-22.89a33.45,33.45,0,0,1-2.67-9.28c0-.09,0-.16,0-.25,0-.36-.07-.72-.09-1.07,0-.17,0-.34,0-.51s0-.42,0-.63v28.21a30.08,30.08,0,0,0,2.82,11.74,42.36,42.36,0,0,0,16.72,19.48V152.1l4.13,9.54c7.8,18.05,25.15,36.61,55.12,36.61,1,0,2,0,3-.07.33,0,.64,0,1-.07.56,0,1.14-.06,1.69-.11l.19,0,.59-.07c.64-.07,1.26-.15,1.87-.25l.76-.12c.57-.1,1.12-.21,1.66-.33l.61-.14c.69-.17,1.36-.35,2-.55l.05,0c.78-.25,1.51-.52,2.21-.81l.5-.24c.51-.23,1-.47,1.48-.73l.15-.07c.44-.25.86-.51,1.26-.79l.27-.19a14.76,14.76,0,0,0,1.31-1,1.27,1.27,0,0,0,.13-.11c.2-.18.41-.37.6-.56s.26-.29.39-.43.22-.23.32-.35a14.68,14.68,0,0,0,1-1.26,12.55,12.55,0,0,0,.8-1.37c.07-.14.14-.28.2-.42.17-.36.33-.73.47-1.11l.16-.43a15.23,15.23,0,0,0,.44-1.58l0-.15q.15-.75.24-1.53c0-.17,0-.35.05-.52s0-.38,0-.58c0-.36,0-.72,0-1.09V152.94C1381.49,153,1381.48,153.07,1381.48,153.14Z"/><path class="cls-10" d="M1351.61,90.9h-24.33l-2.9-5.68c-2.2-4.28-7.1-9.48-14.88-9.48-.47,0-.89,0-1.3.06h-.15l-.14,0c-.27,0-.54.06-.79.11l-.16,0a8.43,8.43,0,0,0-.83.2l-.07,0-.22.08-.33.12a2.1,2.1,0,0,0-.26.13l-.29.13-.07,0-.13.09-.32.2-.18.14-.26.23-.09.08,0,0a3.87,3.87,0,0,0-.45.55l-.06.1a3.64,3.64,0,0,0-.3.59l0,.07a4.19,4.19,0,0,0-.19.63.24.24,0,0,1,0,.08s0,0,0,.06c0,.19,0,.37-.07.56a2.64,2.64,0,0,0,0,.28s0,.07,0,.1a10.08,10.08,0,0,0,1.07,4.26c2.28,4.79,5.38,7.58,21.2,12.51,9.68,3,18.58,6.13,26.63,11Z"/><path class="cls-10" d="M659.78,69.72c0,4.3-2.15,9.58-6.3,15.57l-6.6,9.53H622l4.89-6.63c1.82-2.48,4.42-6.25,4.35-8.93a3.89,3.89,0,0,0,0-.49c-.27-1.6-1.67-2.69-5.08-2.69-9.17,0-15.8,7.92-19,12.11L572.27,133.5c-3.4,5-6.21,11.26,2.06,11.26,10.31,0,18.06-9.72,21.68-14.64l5.63-7.64h.91l7.6-9.8c.36-.4.75-.8,1.14-1.2l.37-.36c.28-.27.57-.55.87-.82l.42-.38c.34-.3.68-.59,1-.88l.32-.26c.46-.36.94-.72,1.43-1,.12-.09.24-.16.36-.24.38-.25.77-.5,1.18-.73l.53-.29c.37-.21.75-.39,1.13-.57l.54-.25c.5-.22,1-.41,1.52-.58l.22-.08c.26-.08.53-.14.8-.21v17.7h5.68l-7.63,11c-14.38,20.75-39.54,36.61-64.86,36.61-14.3,0-20.91-5.06-20.92-13.2,0,0,0,0,0-.08V185c0,8.15,6.63,13.21,20.93,13.21.92,0,1.85,0,2.77-.07l.85-.05c.65,0,1.3-.08,2-.14l.5,0,.35,0c1.06-.11,2.11-.24,3.15-.4l.34,0c1-.16,1.92-.33,2.87-.53l.75-.15c1-.22,2.08-.46,3.11-.73l.4-.12c.93-.24,1.85-.51,2.77-.8l.42-.12.27-.1c1.14-.36,2.26-.75,3.38-1.17l.61-.23c1.15-.44,2.3-.91,3.43-1.4l.19-.09c1.11-.48,2.2-1,3.29-1.54l.51-.25c1.08-.54,2.15-1.11,3.2-1.7l.31-.17.44-.25,2.43-1.44c.72-.45,2.29-1.45,2.35-1.5.78-.51,1.55-1,2.31-1.57l2.27-1.66c.27-.2,2.77-2.16,3-2.36.63-.51,2-1.72,2.14-1.8.69-.61,1.38-1.23,2.06-1.86.2-.18,2.52-2.44,2.61-2.53.83-.83,1.64-1.66,2.42-2.52l.22-.24c.74-.82,1.47-1.64,2.18-2.48l.41-.48c.72-.87,1.43-1.76,2.12-2.65l.42-.56c.7-.93,1.39-1.86,2.05-2.82l7.63-11V123h19.18s7.58-11,8-11.71c.15-.24.28-.47.42-.71.29-.46.57-.94.83-1.39l.43-.82c.22-.41.44-.82.64-1.22l.38-.84c.17-.38.35-.75.5-1.12s.21-.56.31-.84.27-.7.38-1,.17-.54.25-.81.19-.67.26-1,.12-.53.17-.79.11-.63.16-.94.06-.5.08-.75,0-.32,0-.48,0-.53,0-.78V69.51C659.79,69.57,659.78,69.65,659.78,69.72Z"/><polygon class="cls-10" points="679.42 123.73 700.5 78.82 666.27 123.73 679.42 123.73"/><polygon class="cls-10" points="688.64 167.57 659.98 167.57 670.12 145.58 648.68 145.58 631.74 167.57 603.09 167.57 603.09 195.78 631.74 195.78 648.68 173.79 659.98 173.79 659.98 195.78 688.64 195.78 731.39 87.34 731.39 59.14 688.64 167.57"/><path class="cls-10" d="M809.74,73.31a31.86,31.86,0,0,1-2.81,12L804.57,91H780.23l2.61-5.68c2-4.29,2.11-9.48-5.66-9.48a16.22,16.22,0,0,0-14.52,9.05,10.75,10.75,0,0,0-1.13,3.24.07.07,0,0,1,0,0c-.43,3,1.94,5.53,10.21,9.21,10.85,4.86,19.46,10,18.78,22.24v.07a43.56,43.56,0,0,1-3.62,13.83c-9.39,22.58-29.21,36.61-54.73,36.61-18,0-24.92-6.69-25.51-15.93,0-.1,0-.21,0-.31,0-.33,0-.65,0-1,0,0,0-.08,0-.12V181c0,9.92,6.74,17.24,25.56,17.24,1,0,2,0,2.94-.07l.83,0c.76,0,1.51-.1,2.26-.17l.48,0,.2,0c1-.09,1.91-.21,2.85-.35l.61-.09c.76-.12,1.52-.26,2.27-.4l.75-.15c.92-.2,1.83-.4,2.73-.63l.15,0q1.28-.33,2.52-.72l.34-.1.41-.14c.65-.21,1.28-.43,1.91-.66l.61-.22c.81-.31,1.61-.63,2.4-1l.5-.22c.63-.28,1.26-.57,1.88-.88l.7-.35c.61-.3,1.2-.62,1.79-.94.13-.07.26-.13.38-.21l.11-.06c1-.54,1.9-1.12,2.82-1.72l.49-.31c.9-.6,1.78-1.23,2.64-1.88l.45-.34c.88-.67,1.74-1.37,2.57-2.09l.26-.24c.83-.73,1.65-1.49,2.44-2.27l.13-.12a.12.12,0,0,1,0-.05c.61-.62,1.22-1.25,1.81-1.9.16-.18.31-.36.47-.53.45-.51.9-1,1.34-1.56l.45-.55c.56-.69,1.11-1.39,1.63-2.11l.2-.27c.46-.64.91-1.29,1.36-2l.43-.66c.4-.61.79-1.24,1.17-1.87.1-.16.2-.32.29-.48.46-.78.91-1.57,1.34-2.38.1-.2.2-.4.31-.6.33-.64.66-1.29,1-1.95.12-.24.23-.48.34-.72.4-.84.78-1.7,1.15-2.58.3-.72.58-1.44.84-2.13.09-.23.58-1.6.73-2,.09-.26.5-1.56.62-2s.41-1.51.5-1.87l.18-.76c.08-.35.15-.69.22-1s.09-.49.13-.72.11-.68.16-1,.07-.44.09-.66.07-.68.1-1c0-.19,0-.38,0-.56s0-.09,0-.14c0-.45,0-.9,0-1.34V119.11h14s2.79-6.74,3-7.26c.06-.17.43-1.2.54-1.55.07-.19.39-1.2.47-1.5s.12-.4.17-.6.15-.58.22-.86.1-.4.14-.59.12-.56.17-.84.08-.37.11-.56.09-.56.13-.83,0-.35.07-.52.06-.59.08-.88,0-.29,0-.42v-.08c0-.4,0-.79,0-1.18V73.31Z"/><path class="cls-10" d="M885.66,77.35c0,.44,0,.89-.06,1.34v.09a.17.17,0,0,1,0,.07c-.05.76-.14,1.53-.26,2.32a1,1,0,0,1,0,.16.59.59,0,0,0,0,.14c-.07.39-.14.79-.22,1.19,0,.2-.07.4-.12.6a.83.83,0,0,1,0,.15c-.09.43-.2.86-.31,1.3-.05.17-.08.34-.13.51l-2.63,9.54H860.28v0H857l2.13-6.64A20.58,20.58,0,0,0,860.28,82c0-.18,0-.36,0-.54h0c-.18-3-1.79-5.47-7-5.47-.51,0-1,0-1.46.07l-.1,0-.52.07-.94.16-.55.15-.51.13-.07,0-.22.08-.52.2q-.36.14-.72.3l-.48.25-.26.12-.09,0-.19.13c-.35.21-.68.43-1,.67l-.31.22c-.4.32-.78.66-1.14,1,0,0,0,0-.05,0s-.18.2-.27.29-.39.41-.57.63-.22.27-.33.41l-.47.61-.31.45c-.14.2-.27.41-.4.61l-.27.46c-.12.21-.24.41-.35.62l-.24.45-.31.62c-.07.15-.14.29-.2.43s-.39.89-.44,1-16.54,46.64-16.58,46.77l-.15.58c0,.14-.19.81-.23,1s-.06.3-.09.45-.07.39-.1.58-.05.3-.07.45,0,.39-.07.58,0,.3,0,.45,0,.12,0,.18v0c0,.23,0,.45,0,.67,0,3.4,1.48,6.35,6.64,6.62,4.82-13.49,11.1-31,11.16-31.16s.13-.29.2-.43l.31-.62.24-.45c.11-.21.23-.41.35-.62l.27-.46c.13-.2.26-.41.4-.61l.31-.45.47-.61c.11-.14.21-.28.33-.41s.37-.42.57-.63l.32-.34c.36-.35.74-.69,1.14-1l.31-.22a12,12,0,0,1,1-.67,4.54,4.54,0,0,1,.53-.3l.49-.25c.23-.11.47-.21.71-.3l.52-.2c.26-.09.53-.16.8-.23s.36-.11.55-.15l.94-.16.52-.07a13.09,13.09,0,0,1,1.56-.09,9.68,9.68,0,0,1,3.67.61V122.4h17.21L874,123l-3,10.87c-.2.73-.43,1.45-.67,2.16l-.06.2c-.06.19-.13.38-.19.57l-.06.15c-.28.78-.57,1.55-.89,2.32l-.06.15c-.06.15-.13.3-.19.44s-.1.21-.14.32c-.25.56-.5,1.11-.77,1.66l-.17.38-.18.38a1.09,1.09,0,0,0-.08.15c-.36.7-.74,1.39-1.12,2.08,0,.07-.08.15-.13.23l-.31.53c-.05.08-.1.17-.16.25-.31.53-.63,1-1,1.56-.12.19-.24.4-.37.59l-.09.14c-.14.2-.29.38-.43.58-.3.44-.6.86-.92,1.29l-.24.33-.35.47-.18.21q-.69.87-1.41,1.71l-.18.22-.35.4c-.11.12-.24.24-.35.37-.31.34-.63.68-1,1-.17.17-.33.35-.49.52l-.24.25-.59.54c-.4.39-.81.77-1.22,1.14l-.3.28-.46.4-.3.25c-.43.36-.87.72-1.32,1.07l-.62.51-.32.23c-.19.15-.39.28-.59.42l-1.65,1.17-.37.24c-.24.16-.49.3-.74.45-.46.29-.92.58-1.39.85l-.37.23-.64.36-.58.3-.84.45c-.23.12-.46.24-.7.35-.59.29-1.19.57-1.79.84l-.36.16c-.73.32-1.47.61-2.22.9l-.64.22c-.55.2-1.1.4-1.66.58l-.8.25-.7.2-.1,0-.92.26-.75.2c-.78.2-1.57.39-2.37.55l-.12,0q-1.26.26-2.55.45l-.78.11-1,.13h-.08l-.74.09-.9.09c-.6,0-1.19.1-1.8.13l-.82,0c-.88,0-1.76.06-2.65.06-.61,0-1.19,0-1.78,0l-.71,0c-.63,0-1.24-.07-1.85-.12l-.75-.07c-1-.1-2-.23-3-.38l-.76-.13c-.52-.1-1-.2-1.52-.32l-.81-.2c-.79-.2-1.56-.42-2.3-.67-.27-.09-.55-.18-.81-.28-.41-.15-.81-.31-1.2-.47l-.82-.38c-.57-.26-1.12-.54-1.66-.84-.29-.16-.58-.33-.85-.5s-.6-.39-.89-.59-.54-.38-.8-.58-.73-.57-1.07-.88-.59-.52-.86-.8-.42-.43-.63-.65-.48-.55-.7-.84-.4-.49-.58-.74q-.43-.6-.81-1.23c-.14-.22-.26-.45-.39-.67-.2-.37-.39-.75-.56-1.13-.09-.18-.18-.36-.26-.55-.23-.54-.43-1.1-.61-1.66l-.2-.65c-.13-.47-.25-.95-.35-1.45,0-.16-.08-.31-.11-.47-.12-.64-.2-1.29-.27-1.95,0-.19,0-.38-.05-.57,0-.59-.07-1.18-.08-1.79,0-.09,0-.18,0-.27v28.21c0,13.09,9.16,21.9,28,21.9.89,0,1.77,0,2.65-.06l.82-.05,1.8-.13.42,0,.48-.06c.63-.07,1.25-.14,1.87-.23l.78-.11q1.29-.2,2.55-.45l.12,0c.8-.16,1.59-.35,2.37-.55l.75-.2c.58-.15,1.16-.32,1.72-.49l.45-.13.35-.12c.56-.18,1.11-.38,1.66-.58l.64-.22q1.13-.44,2.22-.9l.36-.16c.6-.27,1.2-.55,1.79-.84.24-.11.47-.24.7-.35l1.42-.75c.13-.08.26-.14.39-.21s.16-.11.25-.15c.85-.49,1.69-1,2.5-1.53l.37-.25c.76-.5,1.51-1,2.24-1.58l.32-.23c.77-.59,1.51-1.2,2.24-1.83l.46-.4c.72-.63,1.43-1.29,2.11-2a.46.46,0,0,1,.07-.07l.17-.18c.61-.62,1.21-1.25,1.79-1.91l.35-.39c.61-.7,1.2-1.41,1.77-2.15l.35-.46c.55-.72,1.08-1.45,1.59-2.21l.09-.13c.53-.79,1-1.59,1.5-2.4l.31-.53c.47-.81.91-1.63,1.33-2.46l.18-.38c.38-.78.74-1.56,1.08-2.36.06-.14.13-.29.19-.44.36-.86.69-1.74,1-2.62.06-.19.13-.38.19-.57.31-.91.6-1.83.86-2.77l3.06-11V123h7.66s3-10.86,3.11-11.5c0-.21.08-.41.12-.62.09-.44.17-.88.24-1.31,0-.23.07-.46.1-.68.05-.42.1-.82.14-1.23,0-.21,0-.43.05-.64l0-.31c0-.47,0-.93,0-1.39V77.08C885.67,77.17,885.66,77.26,885.66,77.35Z"/><polygon class="cls-10" points="927.06 112.12 928.83 78.92 913.28 123.84 923.01 123.84 927.06 112.12"/><polygon class="cls-10" points="868.33 167.57 868.33 167.67 868.38 167.57 868.33 167.57"/><polygon class="cls-10" points="926.22 145.68 904.78 145.68 896.99 167.67 868.33 167.67 868.33 195.78 896.99 195.78 904.78 173.79 925.24 173.79 925.24 195.78 953.89 195.78 953.89 167.67 925.24 167.67 926.22 145.68"/><path class="cls-11" d="M1039.29,85.9V133c0,17.2-13.47,34.66-41,34.66l-37.46,0L974.06,59.23h30C1027.69,59.23,1039.28,71.42,1039.29,85.9Zm-24.54,5.54c.18-4.24.42-13.79-14.15-13.79h-5l-5.14,65.21h5.62c16.29,0,17-11.53,17.19-16.22Z"/><polygon class="cls-12" points="1112.67 59.23 1115.22 77.65 1094.58 77.65 1101.18 142.86 1124.65 142.86 1128.11 167.66 1049.61 167.66 1049.19 142.86 1073.05 142.86 1069.44 77.65 1048.81 77.65 1048.47 59.23 1112.67 59.23"/><path class="cls-11" d="M1172.83,59.23l47.48,108.43h-28.65l-8.17-22h-21.43l1.36,22H1135V59.23Zm-11.36,64.6h13.16l-16.31-44.92Z"/><path class="cls-12" d="M1260.49,59.23l31,74.3c9.33,22.4,1.67,36.61-24.25,36.61s-43.67-14.21-50.25-36.61l-3.33-11.34h25.86l2.69,8c2.12,6.29,5.12,15.17,16.22,15.17s7.52-9.57,5.24-15.68l-19.4-52h-38.32l-5.59-18.42Z"/><path class="cls-12" d="M1300.55,57.53c20.88,0,38,9.81,48,27.79l3.14,5.68h-24.33l-2.9-5.68c-2.19-4.28-7.1-9.48-14.88-9.48-8.29,0-7.29,5.76-5.72,9,2.28,4.79,5.38,7.58,21.21,12.51,20.46,6.38,37.52,13.23,50.24,36.13,12.53,22.58,6.34,36.61-19.19,36.61-30,0-47.32-18.57-55.12-36.61l-4.13-9.54h25.57l4.54,9.54c2.69,5.67,8,11.44,16.72,11.44,9.35,0,8.25-5.95,6-10.42-2.43-4.74-5-11.22-21.63-16.43-26-8.44-40.5-15.72-47.88-32.8C1272.32,67.2,1281.33,57.53,1300.55,57.53Z"/><path class="cls-12" d="M640.24,57.53c20.71,0,24.84,11.16,13.32,27.79L647,94.85H622.1L627,88.22c3.08-4.19,8.4-12.11-.77-12.11s-15.8,7.92-19,12.11l-32.38,41.93c-3.79,4.92-10.71,14.65-.4,14.65s18.06-9.73,21.68-14.65l5.63-7.64h26.07l-7.64,11c-14.38,20.76-39.54,36.61-64.86,36.61s-26.57-15.85-9.64-36.61L585,85.32C598.55,68.69,619.51,57.53,640.24,57.53Z"/><path class="cls-11" d="M693.93,59.23h37.54L688.72,167.66H660.06l10.14-22H648.77l-16.95,22H603.17Zm-14.42,64.6,21.07-44.92-34.23,44.92Z"/><path class="cls-12" d="M786,57.53c20.88,0,28.5,9.81,21,27.79L804.65,91H780.31l2.62-5.68c2-4.28,2.11-9.48-5.67-9.48a16.23,16.23,0,0,0-14.52,9c-2.37,4.79-2,7.58,9.07,12.51,14.27,6.38,24.68,13.23,15.16,36.13-9.39,22.58-29.2,36.61-54.73,36.61-30,0-29.29-18.57-19.58-36.61L717.8,124h25.56l-4.72,9.54c-2.81,5.67-3.14,11.44,5.62,11.44,9.34,0,14-5.95,16.07-10.42,2.17-4.74,5.84-11.1-5.68-16.43-17.86-8.26-25.23-15.72-16-32.8C748.37,67.2,766.78,57.53,786,57.53Z"/><path class="cls-12" d="M859.67,57.53c20.71,0,29.48,11.16,24.88,27.79l-2.63,9.53H857.05l2.13-6.63c1.34-4.19,3.37-12.11-5.8-12.11s-12.5,7.92-14,12.11l-14.93,41.93c-1.74,4.92-4.62,14.65,5.69,14.65s14-9.73,15.59-14.65l2.45-7.64h26.07l-3.06,11c-5.74,20.76-24.31,36.61-49.63,36.61s-33.16-15.85-24.86-36.61L816,85.32C822.63,68.69,838.94,57.53,859.67,57.53Z"/><path class="cls-11" d="M954,167.66H925.32l1-22H904.86l-7.79,22H868.41L914.06,59.23H951.6Zm-40.61-43.83h13.16l2.39-44.92Z"/><path class="cls-13" d="M1382.57,152.81c0-5.53-2.14-12.14-6.32-19.66C1370.07,122,1362.58,114,1352.71,108V90.88a.48.48,0,0,0-.07-.26l-3.14-5.68c-10.06-18.1-27.27-28.07-48.49-28.07-10.48,0-17.89,2.85-21.43,8.23a15,15,0,0,0-2.3,8.36h0V96.79l-15.79-37.88a.53.53,0,0,0-.5-.34h-60.17a.53.53,0,0,0-.44.22.56.56,0,0,0-.1.33h0V87.33a1,1,0,0,0,0,.16l5.59,18.41a.56.56,0,0,0,.53.39h37.94l14.31,38.35c-10.52-.12-13.38-8.58-15.47-14.78l-2.69-8a.56.56,0,0,0-.52-.37h-25.86a.54.54,0,0,0-.44.22.53.53,0,0,0-.1.32h0v27.57L1173.8,58.9a.54.54,0,0,0-.5-.33h-38.07a.54.54,0,0,0-.55.55V195.76a.54.54,0,0,0,.55.54h28.66a.54.54,0,0,0,.54-.54V174.32h19.15l8,21.63a.54.54,0,0,0,.51.35h28.65a.55.55,0,0,0,.55-.54V172.64c9,16.87,25.31,26.14,46.34,26.14,17.76,0,27.91-6.9,28.57-19.43,0-.45,0-26.62,0-29.6h0c0-4.84-1.27-10.4-3.83-16.55l-2.12-5.08a49,49,0,0,0,6.49,5.06v18.9a.54.54,0,0,0,0,.22l4.13,9.54c4.8,11.11,19.83,36.94,55.63,36.94,21.49,0,26-9.6,26-17.65V152.92S1382.57,152.85,1382.57,152.81Zm-55.29-55.55-1.58-.5c-15.94-5-18.71-7.66-20.88-12.22-.44-.92-1.76-4.07-.44-6.17.88-1.39,2.79-2.1,5.66-2.1,9,0,13.3,7,14.4,9.18l2.84,5.56Zm1.1-5.83h23.23v15.91c-6.82-4-14.33-6.87-23.23-9.73ZM1280.49,65.7c3.33-5.06,10.43-7.73,20.52-7.73,20.8,0,37.68,9.76,47.53,27.5l2.69,4.87h-23.06L1325.42,85c-1.18-2.29-5.77-9.78-15.38-9.78-3.27,0-5.49.88-6.58,2.62-1.58,2.5-.27,5.88.37,7.22,2.51,5.27,6.14,8,21.54,12.79,10.4,3.25,18.89,6.35,26.51,11,9.83,5.94,17.27,13.86,23.41,24.92,4.16,7.5,6.25,14,6.19,19.44a18,18,0,0,1-.34,3.36c-1.76,8.5-10.24,13-24.55,13-35.15,0-49.91-25.37-54.62-36.28l-3.8-8.78h24.39l4.39,9.23c2.08,4.39,7.09,11.76,17.22,11.76,3.75,0,6.23-1,7.38-2.83,1.51-2.48.33-5.93-.93-8.39l-.36-.7c-2.34-4.64-5.55-11-21.59-16-25.85-8.4-40.3-15.73-47.55-32.49C1277.67,77,1277.45,70.33,1280.49,65.7Zm-79.15-2.89,4.49,14.8v24.44l-4.49-14.81Zm58.45,81.8-14.54-39V80.56l18.35,49.18c1.06,2.84,2.37,6.38,2.37,9.32C1266,142.56,1263.92,144.37,1259.79,144.61Zm-15.64-39.42h-37.22V78.08h37.22ZM1135.77,59.66h37.17l47,107.34h-27.43l-8-21.63a.54.54,0,0,0-.51-.36h-21.44a.55.55,0,0,0-.54.58L1163.3,167h-27.53Zm28.66,107.89v0l-1.32-21.4h20.3v27.11h-19Zm20.08-18.94,7.07,19v25.06l-7.07-19Zm-21.17,46.6h-27.57V168.1h27.57Zm29.34,0V168.1h27.55v27.11Zm102.47-15.92c-.81,15.2-15.39,18.4-27.48,18.4-21.37,0-37.82-9.74-46.34-27.41v-2.73a.54.54,0,0,0,0-.22l-4.91-11.23-1.73-5.89V125.88l2.25,7.69c6.91,23.51,25.41,37,50.78,37,12.64,0,21.23-3.29,25.56-9.78a16.49,16.49,0,0,0,2-4C1295.18,166.77,1295.17,178.9,1295.15,179.29Zm-2.83-19.1c-4.11,6.16-12.4,9.29-24.65,9.29-24.84,0-43-13.2-49.73-36.22l-3.12-10.64h24.74l2.56,7.59c2.09,6.19,5.24,15.54,16.74,15.54,5.43,0,8.19-2.25,8.2-6.69,0-3.13-1.35-6.78-2.44-9.72l-19.41-52a.55.55,0,0,0-.51-.36h-37.92l-5.25-17.32h59.06l30.82,74C1296.09,144.87,1296.41,154.05,1292.32,160.19Zm-3.11-34.69-10.87-26.08V80.5a40.9,40.9,0,0,0,1.77,4.92c7.42,17.15,22.06,24.61,48.23,33.1,15.6,4.89,18.56,10.75,20.94,15.46l.36.71c1.14,2.21,2.22,5.28,1,7.32-.94,1.52-3.11,2.3-6.45,2.3-9.53,0-14.26-7-16.23-11.13l-4.54-9.54a.54.54,0,0,0-.49-.31h-25.57a.55.55,0,0,0-.46.24.55.55,0,0,0-.09.3v8A46.87,46.87,0,0,1,1289.21,125.5Zm67.38,72.19c-35.15,0-49.91-25.38-54.62-36.28l-4.09-9.44V126.52l3.08,7.11c4.8,11.11,19.83,36.94,55.63,36.94,13.51,0,22-4,24.9-11.47v22C1381.49,188.68,1377.17,197.69,1356.59,197.69Z"/><path class="cls-13" d="M996,77a.55.55,0,0,0-.55.51l-5.14,65.21a.55.55,0,0,0,.14.42.54.54,0,0,0,.4.17h5.63c17,0,17.55-12.6,17.73-16.74.42-9.57.91-21.41,1.51-35.2.1-2.32.31-7.14-2.93-10.52-2.44-2.55-6.4-3.85-11.76-3.85Zm-.55,14.45v14.29l-2.88,36.48h-1.13Zm1,50.77h-2.81l2.83-35.92h1c6.38,0,13.61-.08,16.25,6.18-.1,2.51-.23,5.56-.6,14C1013,130.8,1012.47,142.2,996.52,142.2Zm18.15-50.9c-.53,12.09-.7,16.11-.82,19-3.44-5.2-10.53-5.18-16.34-5.14h-.92V78.08h4.48c5,0,8.74,1.18,11,3.5C1015,84.63,1014.77,89,1014.67,91.3Z"/><path class="cls-13" d="M1004.53,58.57h-30a.56.56,0,0,0-.55.48L960.75,167.48v28.28a.55.55,0,0,0,.16.38.52.52,0,0,0,.39.17s40.85-.09,41.14-.11c29.26-1.72,35.82-21.94,37.14-28.09a31.52,31.52,0,0,0,.73-7V85.79C1040.29,69.25,1026.25,58.57,1004.53,58.57Zm34.68,102.55a29.81,29.81,0,0,1-.71,6.76c-1.27,6-7.63,25.55-36.11,27.23l-40.55.1V168.1h36.92c12.87,0,23.66-3.82,31.2-11a33.31,33.31,0,0,0,9.25-15.62Zm0-75.33v47.12a32.07,32.07,0,0,1-10,23.38c-7.34,7-17.87,10.72-30.45,10.72H961.91L975,59.66h29.52C1025.59,59.66,1039.2,69.92,1039.21,85.79Z"/><path class="cls-13" d="M1129.15,167.47l-3.49-24.8a.55.55,0,0,0-.54-.47h-23l-3.63-35.91h17.18a.55.55,0,0,0,.54-.55V77.53h0s0,0,0-.07L1113.67,59a.53.53,0,0,0-.54-.47h-64a.55.55,0,0,0-.55.55v46.62a.55.55,0,0,0,.55.55h20.28l2,35.91h-21.72a.55.55,0,0,0-.39.16c-.1.11.07.25.07.39v53c0,.3.47.55.77.55h78.5a.55.55,0,0,0,.55-.55V167.55S1129.15,167.5,1129.15,167.47Zm-30.75-62.28-2.74-27.11h19.48v27.11Zm-48.74-27.11h19.7v27.11h-19.7Zm20.8,27.65V97.34l2.48,44.86h-.46Zm3.06,37.56a.56.56,0,0,0,.4-.17.61.61,0,0,0,.15-.41l-3.61-65.21a.56.56,0,0,0-.55-.52h-20.25V59.66h63l2.4,17.32h-20a.59.59,0,0,0-.41.18.56.56,0,0,0-.13.43l6.59,65.21a.55.55,0,0,0,.55.49h23L1128,167h-77.33l-.43-23.71Zm-22.86,51.92V168.1h77.4v27.11Z"/><path class="cls-13" d="M1175.54,124a.53.53,0,0,0,.07-.5L1159.3,78.61a.54.54,0,0,0-.62-.35.55.55,0,0,0-.44.58l3.15,44.91a.55.55,0,0,0,.54.51h13.17A.55.55,0,0,0,1175.54,124Zm-13.48-6.42,2,5.56h-1.63Zm3.18,5.56-3.46-9.53-2.17-31,14.7,40.51Z"/><path class="cls-13" d="M666.82,124.26H680a.56.56,0,0,0,.5-.31L701.55,79a.55.55,0,0,0-.22-.7.52.52,0,0,0-.71.14l-34.23,44.91a.54.54,0,0,0,.43.88Zm31.55-41-18.75,40H667.93Z"/><path class="cls-13" d="M913.83,124.26H927a.54.54,0,0,0,.54-.52l2.39-44.91a.55.55,0,0,0-1.07-.21l-15.54,44.92a.54.54,0,0,0,.52.72Zm14.79-41.61-2.15,40.52H914.59Z"/><path class="cls-13" d="M952.61,59.1a.54.54,0,0,0-.54-.53H914.53a.55.55,0,0,0-.51.33l-39,92.57.2-.72a.36.36,0,0,0,0-.14V123.49h7.12a.53.53,0,0,0,.52-.4c.12-.44,3-10.87,3.13-11.53a32.13,32.13,0,0,0,.72-6.29V77.06a18.58,18.58,0,0,0-3.61-11.52c-4.31-5.67-12.27-8.67-23-8.67-20.32,0-37.26,10.78-44.19,28.13l-5.11,12.77V73.21a14.6,14.6,0,0,0-2.32-8.31c-3.55-5.33-11-8-22-8-20.51,0-38.4,10.5-47.86,28.07-2.7,5-4,9.27-4,13v25.38H718.33l14.12-35.8a.79.79,0,0,0,0-.2V59.12h0a.55.55,0,0,0-.08-.31.54.54,0,0,0-.45-.24H694.4a.54.54,0,0,0-.42.19L660.87,98.32c0-2.22,0-24.25,0-28.83a11.09,11.09,0,0,0-1.2-5.19c-2.55-4.86-9.11-7.43-19-7.43-20.25,0-41.59,10.72-55.67,28l-39.34,48.21c-7.43,9.11-11.36,17.29-11.39,23.66,0,0,0,.05,0,.08V185c0,8.88,7.63,13.76,21.48,13.76,21.17,0,38.42-10.83,47.33-17.8v14.78a.54.54,0,0,0,.54.54h28.66a.52.52,0,0,0,.43-.21l16.78-21.77H660v21.44a.55.55,0,0,0,.55.54h28.66a.53.53,0,0,0,.51-.34l16.9-42.88V181c0,8.12,4.53,17.79,26.11,17.79,45.53,0,56.81-40.42,57.95-45a32.13,32.13,0,0,0,1-7.37V119.64h10.44l-5.42,13.57a40.27,40.27,0,0,0-3.19,14.91h0v28.21c0,14.27,10.42,22.45,28.59,22.45,7.73,0,33.41-2,46.29-27.21v24.19a.55.55,0,0,0,.55.54h28.66a.55.55,0,0,0,.52-.36l7.65-21.62h19.53v21.44a.54.54,0,0,0,.54.54h28.65a.54.54,0,0,0,.55-.54Zm-37.72.56h36.64L953.87,167H926.36l1-21.42a.59.59,0,0,0-.15-.4.56.56,0,0,0-.4-.17H905.33a.55.55,0,0,0-.52.37L897.15,167H869.7Zm-16.8,108,6.69-18.89v24.92l-6.69,18.9ZM875.26,122.4a.59.59,0,0,0-.1-.34.55.55,0,0,0-.44-.21H858.07V95.28h23.77V122.4ZM857,94.57a.47.47,0,0,0,0,.17h0v9.34c-2.61-.65-11.44-1.88-16.48,9.17-.1.22-8.33,23.12-11.09,30.81-3.79-.34-5.66-2.31-5.67-6a25.07,25.07,0,0,1,1.71-7.81l14.93-41.93c1.79-5.05,5.14-11.75,13.47-11.75,2.65,0,4.5.69,5.49,2,1.74,2.38.72,6.47-.2,9.34Zm-15.51,19.14c4.94-10.86,13.65-9,15.48-8.5v16.64h-8.31a.54.54,0,0,0-.52.38l-2.46,7.64c-1.13,3.53-4.57,14.26-15.06,14.26h-.08C834.4,133.38,841.32,114.12,841.49,113.71Zm44.18-8.44a30.33,30.33,0,0,1-.7,6.06c-.08.35-1.09,4.07-2,7.54V94.81s2.69-9.78,2.74-9.93Zm-80,5.42V91L808,85.41a43.16,43.16,0,0,0,1.76-5v20.11Zm-70-7.25c2.58,6.13,9.57,10.49,19.21,15.06,4,1.81,6.41,3.86,7.3,6.26,1.11,3-.31,6-1.57,8.75l-.32.7a17,17,0,0,1-9.68,9.14,59.45,59.45,0,0,1-6.24-3.72V123.87a.47.47,0,0,0-.09-.28.52.52,0,0,0-.46-.26h-8.15Zm7.6,40.77a6.63,6.63,0,0,1-4.52-1.78c-1.48-1.71-1.2-4.66.84-8.77l3.68-7.44Zm1.1-3.26c1.38.92,2.94,1.85,4.72,2.82a22.38,22.38,0,0,1-4.72.49ZM743,124.42l-4.33,8.75c-2.26,4.55-2.49,7.9-.69,10,3.08,3.55,11,1.92,12.82,1.32a18,18,0,0,0,10.54-9.8l.33-.7c1.27-2.75,2.87-6.17,1.6-9.59-1-2.69-3.58-4.94-7.87-6.87-9.93-4.71-17-9.15-19-15.47-1.46-4.47-.43-9.73,3.26-16.58C748.84,68.24,766.36,58,786.46,58c10.69,0,17.8,2.53,21.14,7.54,3.06,4.58,2.85,11.13-.63,19.48l-2.21,5.35H781.63l2.26-4.91c.82-1.8,2-5.18.39-7.64-1.11-1.74-3.32-2.62-6.56-2.62-9.87,0-14.23,7.8-15,9.36-.91,1.84-1.66,3.8-1,5.75.88,2.46,3.86,4.64,10.29,7.5,14.14,6.32,24.21,13,14.87,35.42-9.58,23.06-29.35,36.28-54.22,36.28-10.4,0-17.65-2.26-21.57-6.71-2.84-3.22-3.92-7.61-3.23-13,.6-4.75,2.52-10.15,5.7-16l5-9.26Zm37.33-33.77a.66.66,0,0,0,0,.23v9.78a77.57,77.57,0,0,0-7.74-3.88c-6-2.69-8.94-4.75-9.7-6.87-.53-1.47,0-3,.9-4.89.72-1.46,4.8-8.75,14-8.75,2.85,0,4.74.71,5.64,2.11,1.3,2,.27,5-.47,6.59ZM715,128.74l-2.37,4.42c-3.23,6-5.18,11.49-5.82,16.35l-17.09,43.36V167.65L731.39,62V87.22ZM694.65,59.66h36.48L688.82,167H661.39l9.77-21.21a.55.55,0,0,0,0-.53.57.57,0,0,0-.46-.25H649.23a.55.55,0,0,0-.43.21L632,167H604.81ZM632.83,167.74l15.85-20.57v26.41l-15.85,20.57ZM622.12,94.41a.56.56,0,0,0-.1.33v9.62c-7.87,2.27-13.26,9.43-17.6,15.21-.58.77-1.14,1.51-1.68,2.21l.09.07h-.64a.53.53,0,0,0-.44.22c-.64.86-1.3,1.78-2,2.74-5.84,8.16-13.84,19.32-24.88,19.32-2.49,0-4-.58-4.6-1.72-1.5-3,3.72-9.82,5.43-12l32.38-41.93c3.94-5.11,10.15-11.9,18.59-11.9,2.35,0,3.81.53,4.34,1.58,1.26,2.5-2.7,7.89-4,9.66Zm-16.83,25.82c4.19-5.57,9.37-12.47,16.73-14.74v16.36H604.07C604.47,121.33,604.87,120.79,605.29,120.23Zm17.82-15.47V95.28h23.77V115l-6.17,7.37H628.79a.58.58,0,0,0,0-.26.55.55,0,0,0-.49-.29h-5.14Zm5.69,18.73h11l-11,13.14ZM648,113.72V94.91l6.49-9.39a41.59,41.59,0,0,0,5.32-10.07c0,10,0,22.66,0,23a1.79,1.79,0,0,1,0,.23l0,.23c0,.24-.05.48-.08.73l0,.18Zm-101.44,20,39.34-48.21C599.76,68.53,620.77,58,640.7,58c9.44,0,15.67,2.36,18,6.84a10.07,10.07,0,0,1,1.07,5v0c-.11,4.15-2.21,9.24-6.22,15l-6.43,9.3H623.65l4.25-5.76c2.63-3.59,5.49-8.06,4.09-10.81-.73-1.44-2.51-2.17-5.31-2.17-8.92,0-15.38,7-19.46,12.32L574.85,129.7c-3.43,4.44-7.15,9.94-5.55,13.19.76,1.55,2.64,2.34,5.58,2.34,11.61,0,19.79-11.43,25.77-19.78l1.81-2.51h24.75c-2.44,3.51-8.55,12.27-9.08,13-11.73,15.49-35.1,33.58-62.37,33.58-9.22,0-20.24-2.17-20.37-12.49C535.31,150.84,539.17,142.8,546.54,133.76Zm9.22,63.93c-13.33,0-20.38-4.38-20.38-12.67V162.16c3.11,6.81,12.39,8.41,20.38,8.41,27.67,0,51.37-18.32,63.24-34,0,0,6-8.59,8.7-12.43v13.8L603.21,167.2a.54.54,0,0,0-.11.35h0v12C594.52,186.42,577.15,197.69,555.76,197.69Zm48.42-29.59h27.56v27.11H604.18Zm45.6,5.12V146.11h20L660,167.32a.59.59,0,0,0,0,.23v5.67Zm11.3.55V168.1h27.56v27.11H661.08ZM789.6,153.49c-1.12,4.52-12.19,44.2-56.89,44.2-16.6,0-25-5.62-25-16.7V159.15a14.19,14.19,0,0,0,2.62,4.35c4.13,4.69,11.67,7.07,22.39,7.07,25.34,0,45.47-13.46,55.23-36.94a56.67,56.67,0,0,0,2.62-7.7v20.45A30.86,30.86,0,0,1,789.6,153.49Zm2-34.95c.11-8.31-4.13-13.34-10.29-17.22V91.43h23.24v21.9h0l-2.08,5.21Zm6.06,15.08L817,85.41C823.72,68.48,840.26,58,860.13,58c10.39,0,18,2.84,22.15,8.23,3.56,4.69,4.33,11.21,2.21,18.86L882,94.19h-23.7l1.9-5.92c1.08-3.36,2.05-7.57.05-10.32-1.22-1.66-3.36-2.5-6.38-2.5-10.07,0-13.41,9.38-14.5,12.47l-14.93,41.93a26,26,0,0,0-1.77,8.18c0,4.71,2.76,7.2,8,7.2,11.29,0,14.91-11.31,16.1-15l2.34-7.26H874l-2.86,10.33c-6.08,22-25.35,36.21-49.1,36.21-11.54,0-19.91-3.36-24.22-9.71S793.48,144.13,797.68,133.62ZM822,197.69c-17.47,0-27.5-7.79-27.5-21.36V155.4a18.9,18.9,0,0,0,2.38,5c4.51,6.67,13.2,10.19,25.12,10.19,24.25,0,43.94-14.53,50.16-37l2-7.14v24.11l-2.45,8.84-3.36,8a.71.71,0,0,0,0,.21v1.53C856.11,195.62,829.81,197.69,822,197.69Zm47.39-29.59H897v27.11H869.43Zm36.44,5.12V146.11H926.2l-1,21.41v5.7Zm20.46,22V168.1h27.56v27.11Z"/><path class="cls-14" d="M333.4,1079.79H312.85c9.78-18.52,17.32-39.63,17.32-62V-.21h18.58v1018A132.35,132.35,0,0,1,333.4,1079.79Z"/><path class="cls-14" d="M1583.05,1079.79h20.55c-9.78-18.52-17.33-39.63-17.33-62V-.21H1567.7v1018A132.24,132.24,0,0,0,1583.05,1079.79Z"/><path class="cls-15" d="M665.61,470.1c0,3.3.6,10.1,8.3,10.1,7.5,0,8.3-7.1,8.3-9.5,0-2.8-1.1-8.2-8.6-11.4-11.9-5.3-18.1-8.3-18.1-21,0-12,5.9-19.3,18.4-19.3,14.9,0,18.5,10.9,18.5,20.3v2.41h-10.2v-2.41c0-3-.8-10.2-8.3-10.2-8.8,0-8.3,7.81-8.3,9.91,0,3.3,1.8,7,9.3,9.9,8.8,3.5,17.5,7.8,17.5,21.8,0,11.8-6.1,19.7-18.5,19.7-14.8,0-18.4-11-18.4-20.3v-6.2h10.1Z"/><path class="cls-15" d="M736.71,420.29V489.1h-11.1V459.5h-15.1v29.6h-11.1V420.29h11.1V449.1h15.1V420.29Z"/><path class="cls-15" d="M780.41,439.29V470.1c0,11.8-6.1,20.3-18.5,20.3s-18.4-8.5-18.4-20.3V439.29c0-11.9,6-20.3,18.4-20.3S780.41,427.69,780.41,439.29Zm-10.5,0c0-2.89-.1-10-8-10s-8,7.11-8,10V470.1c0,2.9.2,10,8,10s8-7.1,8-10Z"/><path class="cls-15" d="M790,489.1l-2.5-68.81H798l1.8,41.61,6.2-20.8,6.1,20.8,1.8-41.61h10.5l-2.5,68.81h-10.4l-5.5-21-5.6,21Z"/><path class="cls-15" d="M885.6,470.1c0,3.3.6,10.1,8.3,10.1,7.5,0,8.3-7.1,8.3-9.5,0-2.8-1.1-8.2-8.6-11.4-11.9-5.3-18.1-8.3-18.1-21,0-12,5.9-19.3,18.4-19.3,14.9,0,18.5,10.9,18.5,20.3v2.41H902.2v-2.41c0-3-.8-10.2-8.3-10.2-8.8,0-8.3,7.81-8.3,9.91,0,3.3,1.8,7,9.3,9.9,8.8,3.5,17.5,7.8,17.5,21.8,0,11.8-6.1,19.7-18.5,19.7-14.8,0-18.4-11-18.4-20.3v-6.2h10.1Z"/><path class="cls-15" d="M932.4,431h-13v-10.7h37.1V431h-13V489.1H932.4Z"/><path class="cls-15" d="M990.9,489.1l-2-13.5H975.1l-2,13.5H962.6l10.8-68.81h17.2l10.8,68.81Zm-14.2-23.3h10.6L982,430.39Z"/><path class="cls-15" d="M1035.2,458.7l9.2,30.4h-11.2l-8.3-27.8c-2.7-.1-4.9,0-6.9,0v27.8h-10.5V420.29h16.9c14.1,0,20,9.8,20,19.71C1044.4,448.9,1041.1,455.4,1035.2,458.7Zm-11.4-7.7c9.6,0,10.2-7.6,10.2-10.8,0-2.91-1.3-9.81-9.6-9.81H1018V451Z"/><path class="cls-15" d="M1064.4,431h-13v-10.7h37.1V431h-13V489.1h-11.1Z"/><path class="cls-15" d="M1105.6,470.1c0,3.3.6,10.1,8.3,10.1,7.5,0,8.3-7.1,8.3-9.5,0-2.8-1.1-8.2-8.6-11.4-11.9-5.3-18.1-8.3-18.1-21,0-12,5.9-19.3,18.4-19.3,14.9,0,18.5,10.9,18.5,20.3v2.41h-10.2v-2.41c0-3-.8-10.2-8.3-10.2-8.8,0-8.3,7.81-8.3,9.91,0,3.3,1.8,7,9.3,9.9,8.8,3.5,17.5,7.8,17.5,21.8,0,11.8-6.1,19.7-18.5,19.7-14.8,0-18.4-11-18.4-20.3v-6.2h10.1Z"/><path class="cls-15" d="M1210.9,489.1l-2-13.5h-13.8l-2,13.5h-10.5l10.8-68.81h17.2l10.81,68.81Zm-14.21-23.3h10.6l-5.3-35.41Z"/><path class="cls-15" d="M1240.39,431h-13v-10.7h37.11V431h-13V489.1h-11.1Z"/><path class="cls-15" d="M671.69,593.9c0,2.64.48,8.08,6.64,8.08,6,0,6.64-5.68,6.64-7.6,0-2.24-.88-6.56-6.88-9.12-9.52-4.24-14.48-6.64-14.48-16.8,0-9.6,4.72-15.44,14.72-15.44,11.92,0,14.8,8.72,14.8,16.24v1.92H685v-1.92c0-2.4-.64-8.16-6.64-8.16-7,0-6.64,6.24-6.64,7.92,0,2.64,1.44,5.6,7.44,7.92,7,2.8,14,6.24,14,17.44,0,9.44-4.88,15.76-14.8,15.76-11.84,0-14.72-8.8-14.72-16.24v-5h8.08Z"/><path class="cls-15" d="M698.89,609.1v-55h29.52v8.32H707.69v15h18.24v8.32H707.69v15h20.72v8.4Z"/><path class="cls-15" d="M748.81,554.06c11.28,0,16,8,16,15.52,0,11.12-6.24,17.68-15.52,17.68h-5.68V609.1h-8.32v-55Zm-5.2,24.56h4.72c7.92,0,8.08-6.48,8.08-8.8,0-1.92-.88-7.68-7.6-7.68h-5.2Z"/><path class="cls-15" d="M779.53,562.62h-10.4v-8.56h29.68v8.56h-10.4V609.1h-8.88Z"/><path class="cls-15" d="M869.92,609.1H840.48v-8.4H850.8V568.78H840.48v-6.4c5.2,0,7.76-2,9-4.16a9.08,9.08,0,0,0,1.28-4.16h8.8V600.7h10.32Z"/><path class="cls-15" d="M931.92,609.1l-1.6-10.8h-11l-1.6,10.8h-8.4l8.64-55h13.76l8.64,55Zm-11.36-18.64H929l-4.24-28.32Z"/><path class="cls-15" d="M955.52,562.62h-10.4v-8.56H974.8v8.56H964.4V609.1h-8.88Z"/><path class="cls-15" d="M1045.2,580.46v4.08c0,4.08-.16,8.32-.32,10.88-.4,6.88-3.28,14.72-14.48,14.72-11.84,0-14.24-8.8-14.24-16.24H1024c0,2.4-.24,8.4,6.4,8.4,5.92,0,6.16-5,6.4-7.52a24.17,24.17,0,0,0,.08-2.64v-7.6c-.32.72-3.28,2.4-7.44,2.4-9,0-13.84-7.52-13.84-17.2,0-6.08,2.64-16.72,14.8-16.72s14.72,10.08,14.72,17.76C1045.2,574.14,1045.2,577.34,1045.2,580.46Zm-8.4-10.24c0-7.6-3.2-9.28-6.4-9.28-3.44,0-6.4,1.92-6.4,9.28,0,6.16,1.92,9.36,6.4,9.36S1036.8,577,1036.8,570.22Z"/><path class="cls-15" d="M1072.72,609.1l-1.6-10.8h-11l-1.6,10.8h-8.4l8.64-55h13.76l8.64,55Zm-11.36-18.64h8.48l-4.24-28.32Z"/><path class="cls-15" d="M1115.52,554.06v55h-8.32V575.82l-6.4,16.56-6.4-16.56V609.1H1086v-55h8.4l6.4,16.72,6.4-16.72Z"/><path class="cls-15" d="M1171.19,554.06c11.28,0,16,8,16,15.52,0,11.12-6.24,17.68-15.52,17.68H1166V609.1h-8.32v-55Zm-5.2,24.56h4.72c7.92,0,8.08-6.48,8.08-8.8,0-1.92-.88-7.68-7.6-7.68H1166Z"/><path class="cls-15" d="M1191.67,554.06h13.52c11.28,0,16,7.28,16,15.52v24.08c0,8-4.72,15.68-16,15.44h-13.52Zm8.16,47h5.52c6.72,0,7.6-5.36,7.6-7.6v-23.6c0-2.32-.88-7.68-7.6-7.68h-5.52Z"/><path class="cls-15" d="M1237.11,562.62h-10.4v-8.56h29.68v8.56H1246V609.1h-8.88Z"/><path class="cls-15" d="M671.69,673.9c0,2.64.48,8.08,6.64,8.08,6,0,6.64-5.68,6.64-7.6,0-2.24-.88-6.56-6.88-9.12-9.52-4.24-14.48-6.64-14.48-16.8,0-9.6,4.72-15.44,14.72-15.44,11.92,0,14.8,8.72,14.8,16.24v1.92H685v-1.92c0-2.4-.64-8.16-6.64-8.16-7,0-6.64,6.24-6.64,7.92,0,2.64,1.44,5.6,7.44,7.92,7,2.8,14,6.24,14,17.44,0,9.44-4.88,15.76-14.8,15.76-11.84,0-14.72-8.8-14.72-16.24v-5h8.08Z"/><path class="cls-15" d="M698.89,689.1v-55h29.52v8.32H707.69v15h18.24v8.32H707.69v15h20.72v8.4Z"/><path class="cls-15" d="M748.81,634.06c11.28,0,16,8,16,15.52,0,11.12-6.24,17.68-15.52,17.68h-5.68V689.1h-8.32v-55Zm-5.2,24.56h4.72c7.92,0,8.08-6.48,8.08-8.8,0-1.92-.88-7.68-7.6-7.68h-5.2Z"/><path class="cls-15" d="M779.53,642.62h-10.4v-8.56h29.68v8.56h-10.4V689.1h-8.88Z"/><path class="cls-15" d="M869.12,673.82V689.1H839.6v-5.36c0-11.2,7.44-16.88,14.72-24.4,2.56-2.56,6.4-5.68,6.4-10.08,0-3,.08-8.08-6.4-8.08-6.8,0-6.64,5.76-6.64,8.08v3.2H839.6v-3.2c0-9.44,4.8-16.24,14.72-16.24,11.92,0,14.8,8.8,14.8,15.52,0,5.76-3,10-8.88,16.24-5.76,5.76-12.08,10.8-12.08,16h13v-7Z"/><path class="cls-15" d="M931.92,689.1l-1.6-10.8h-11l-1.6,10.8h-8.4l8.64-55h13.76l8.64,55Zm-11.36-18.64H929l-4.24-28.32Z"/><path class="cls-15" d="M955.52,642.62h-10.4v-8.56H974.8v8.56H964.4V689.1h-8.88Z"/><path class="cls-15" d="M1045.2,660.46v4.08c0,4.08-.16,8.32-.32,10.88-.4,6.88-3.28,14.72-14.48,14.72-11.84,0-14.24-8.8-14.24-16.24H1024c0,2.4-.24,8.4,6.4,8.4,5.92,0,6.16-5,6.4-7.52a24.17,24.17,0,0,0,.08-2.64v-7.6c-.32.72-3.28,2.4-7.44,2.4-9,0-13.84-7.52-13.84-17.2,0-6.08,2.64-16.72,14.8-16.72s14.72,10.08,14.72,17.76C1045.2,654.14,1045.2,657.34,1045.2,660.46Zm-8.4-10.24c0-7.6-3.2-9.28-6.4-9.28-3.44,0-6.4,1.92-6.4,9.28,0,6.16,1.92,9.36,6.4,9.36S1036.8,657,1036.8,650.22Z"/><path class="cls-15" d="M1072.72,689.1l-1.6-10.8h-11l-1.6,10.8h-8.4l8.64-55h13.76l8.64,55Zm-11.36-18.64h8.48l-4.24-28.32Z"/><path class="cls-15" d="M1115.52,634.06v55h-8.32V655.82l-6.4,16.56-6.4-16.56V689.1H1086v-55h8.4l6.4,16.72,6.4-16.72Z"/><path class="cls-15" d="M1171.19,634.06c11.28,0,16,8,16,15.52,0,11.12-6.24,17.68-15.52,17.68H1166V689.1h-8.32v-55Zm-5.2,24.56h4.72c7.92,0,8.08-6.48,8.08-8.8,0-1.92-.88-7.68-7.6-7.68H1166Z"/><path class="cls-15" d="M1191.67,634.06h13.52c11.28,0,16,7.28,16,15.52v24.08c0,8-4.72,15.68-16,15.44h-13.52Zm8.16,47h5.52c6.72,0,7.6-5.36,7.6-7.6v-23.6c0-2.32-.88-7.68-7.6-7.68h-5.52Z"/><path class="cls-15" d="M1237.11,642.62h-10.4v-8.56h29.68v8.56H1246V689.1h-8.88Z"/></svg>