<svg id="artwork" xmlns="http://www.w3.org/2000/svg" width="850" height="306.85" viewBox="0 0 850 306.85"><defs><style>.cls-1{fill:#333;}.cls-2{fill:#eb5424;}</style></defs><title>auth0</title><path class="cls-1" d="M421.9,168.83H385.21a1.07,1.07,0,0,1-.7-.28c-.14-.28-.28-.42-.14-.7l18.35-63.15a.8.8,0,0,1,1-.56c.28.14.56.28.56.56l18.34,63.15a.62.62,0,0,1-.14.7C422.46,168.69,422.18,168.83,421.9,168.83ZM439,223.57h23.8L426.52,98.4a23.88,23.88,0,0,0-45.79,0L344.47,223.57h23.8l10.5-36.26a.77.77,0,0,1,.84-.56h48a1,1,0,0,1,.84.56ZM573.1,151.74h14a.9.9,0,0,1,.84.84V202a23.81,23.81,0,0,0,23.8,23.52,52,52,0,0,0,14-2V207.33c-2.66.28-5.6.42-7.84.42a6.93,6.93,0,0,1-7-7v-48a.9.9,0,0,1,.84-.84h14V133.82h-14a.9.9,0,0,1-.84-.84V103.3h-23.1V133a.9.9,0,0,1-.84.84H573Zm132.45,71.83h23v-62a29.82,29.82,0,0,0-30-29.55,49.68,49.68,0,0,0-26.6,8.26.89.89,0,0,1-.84,0,.77.77,0,0,1-.42-.7V83.14h-23V223.57h23V156.51a.77.77,0,0,1,.42-.7c4.34-2.25,12.88-5.89,21.28-5.89a13.69,13.69,0,0,1,9.38,3.79,12.62,12.62,0,0,1,3.92,9.1l-.14,60.76ZM475.66,133.82v62a29.93,29.93,0,0,0,30,29.68,49.94,49.94,0,0,0,29.26-10.08.93.93,0,0,1,.84-.14,1.09,1.09,0,0,1,.56.56l2.38,7.84h17.92V133.82h-23v67.07a.77.77,0,0,1-.42.7c-4.34,2.24-12.88,5.88-21.28,5.88a13,13,0,0,1-13.16-13V133.82Zm319.78,73.79c-7,0-12.6-3.92-17.08-12-5.32-9.8-8.26-24.78-8.26-42.15s2.94-32.34,8.26-42.14c4.48-8.12,9.94-12,17.08-12s12.6,3.92,17.08,12c5.32,9.8,8.26,24.78,8.26,42.14s-2.94,32.35-8.26,42.15C808,203.69,802.58,207.61,795.44,207.61Zm0-126.29c-14.7,0-27.3,6.86-36.12,19.88s-13.45,30.94-13.45,52.23,4.62,39.2,13.45,52.22,21.28,19.88,36.12,19.88,27.3-6.86,36.12-19.88S845,174.71,845,153.43s-4.62-39.21-13.44-52.23-21.28-19.88-36.12-19.88Z"/><path id="NEW" class="cls-2" d="M269.57,95.46,239.05,1.8H140.48L171,95.46ZM140.48,1.8H42.05L11.67,95.46h98.57ZM11.67,95.46h0A135.48,135.48,0,0,0,61,247.09l30.38-93.66Zm257.9,0h0l-79.81,58,30.38,93.66h0A135.69,135.69,0,0,0,269.57,95.46ZM60.82,247.09h0l79.66,58,79.66-58-79.66-58Z"/></svg>