<svg xmlns="http://www.w3.org/2000/svg" xmlns:xlink="http://www.w3.org/1999/xlink" viewBox="0 0 192 57">
  <defs>
    <path id="a" d="M71.733 32.095a6.565 6.565 0 1 1 0-13.13 6.565 6.565 0 0 1 0 13.13m12.09-19.886H79.92c-.854 0-1.353.57-1.633 1.25-.102.24-.38.36-.622.24-1.848-.89-3.88-1.42-5.932-1.42-7.794 0-14.015 6.73-13.165 14.7.634 5.94 5.302 10.79 11.213 11.64 2.65.38 5.16-.03 7.36-1.02h.01c.54-.26.82-.07.85.32-.09 4.74-2.52 6.85-6.81 6.85-2.35 0-4.17-1.058-5.18-2.69a1.04 1.04 0 0 0-.89-.49H60c-.546 0-.963.51-.82 1.035 1.19 4.455 5.695 8.224 12.217 8.224 9.627 0 13.425-6.4 13.425-13.425V13.2a.996.996 0 0 0-.997-.996"/>
    <path id="b" d="M13.09 32.095a6.565 6.565 0 1 1 0-13.13 6.565 6.565 0 0 1 0 13.13m1.952-19.666a13.16 13.16 0 0 0-7.745 1.2c-.22.1-.477-.05-.477-.29V1.68c0-.55-.45-1-1.006-1H1.01A1.013 1.013 0 0 0 .003 1.69v35.665a1 1 0 0 0 1 1H5.25c.6 0 1.115-.362 1.34-.88a.328.328 0 0 1 .456-.173 13.123 13.123 0 0 0 6.044 1.47c7.794 0 14.015-6.732 13.165-14.698-.634-5.94-5.3-10.79-11.213-11.645"/>
  </defs>
  <g fill="none" fill-rule="evenodd">
    <g fill="#FD6D6D" transform="translate(66 6)">
      <use xlink:href="#a"/>
      <use xlink:href="#b"/>
      <path d="M124.206 17.017c-1.773-4.603-6.83-6.25-11.412-5.358-1.253.24-2.47.68-3.584 1.3-.085.05-.265.19-.44.31-.178.08-.466 0-.543-.18a1.464 1.464 0 0 0-1.34-.89h-.02c-.02 0-.036-.01-.057-.01l-4.162-.007c-.556 0-1.007.45-1.007 1.01v24.17c0 .54.44.98.98.98h4.97a.98.98 0 0 0 .98-.98V23.08c0-2.965 1.77-5.306 4.79-5.306 3.33 0 4.74 2.236 4.74 5.098v14.47c0 .562.46 1.014 1.02 1.014H124c.56 0 1.013-.46 1.013-1.02V21.68c0-1.582-.227-3.183-.797-4.663M95.76 12.21h-4.92c-.554 0-1.003.448-1.003 1.002v24.14c0 .555.447 1.004 1 1.004h4.916c.554 0 1.003-.45 1.003-1.003v-24.14c0-.555-.45-1.004-1.004-1.004m-47.8 10.11H36.66c-.258 0-.464-.22-.424-.47.342-2.09 2.93-4.07 6.07-4.07 3.142 0 5.73 1.98 6.07 4.07.04.24-.164.46-.423.46m-5.706-10.1c-7.815 0-13.642 6.81-13.165 14.37.403 6.38 5.612 11.57 12.04 12.11v.01c9.23.67 12.735-4.93 13.724-7.29a.745.745 0 0 0-.7-1.03h-5.45c-.318 0-.617.13-.855.34-2.8 2.49-6.64 1.86-7.14 1.764l-.05-.01a6.993 6.993 0 0 1-5-4.4c-.09-.25.09-.51.35-.51h18.25c.65 0 1.18-.52 1.18-1.155v-1.29c-.33-6.89-5.36-12.907-13.17-12.907M93.3.683c-2.17 0-3.955 1.783-3.955 4.002 0 2.122 1.785 3.906 3.955 3.906 2.218 0 3.955-1.78 3.955-3.9 0-2.22-1.737-4.003-3.955-4.003"/>
    </g>
    <path fill="#FF9E00" d="M23.626 10.47V.936a.932.932 0 0 0-1.025-.93c-4.91.55-9.4 2.483-13.08 5.4-.43.343-.45.99-.06 1.38l6.77 6.742c.32.32.82.35 1.2.094a14.33 14.33 0 0 1 5.43-2.242.93.93 0 0 0 .78-.91"/>
    <path fill="#FD7854" d="M13.667 33.47a14.178 14.178 0 0 1-2.25-5.407.935.935 0 0 0-.913-.777H.94c-.55 0-.996.476-.934 1.02.552 4.9 2.49 9.378 5.42 13.04.34.428.992.45 1.38.063l6.766-6.75c.322-.32.352-.82.095-1.2"/>
    <path fill="#FF9E00" d="M41.48 5.408A25.58 25.58 0 0 0 28.4.006a.932.932 0 0 0-1.026.93v9.534c0 .454.333.827.78.91a14.26 14.26 0 0 1 5.426 2.242.94.94 0 0 0 1.198-.094l6.765-6.743a.925.925 0 0 0-.064-1.377"/>
    <path fill="#FD6D6D" d="M24.843 28.716L9.457 44.053a.924.924 0 0 0 .063 1.375A25.593 25.593 0 0 0 25.5 51a25.593 25.593 0 0 0 15.98-5.572.924.924 0 0 0 .064-1.375L26.158 28.716a.932.932 0 0 0-1.315 0"/>
    <path fill="#FE8D26" d="M13.57 16.17L6.807 9.427c-.39-.387-1.04-.364-1.382.064A25.447 25.447 0 0 0 .005 22.53c-.06.545.384 1.022.934 1.022h9.56c.45 0 .83-.332.91-.778a14.12 14.12 0 0 1 2.25-5.408.943.943 0 0 0-.1-1.194m26.93 7.378h9.56c.55 0 .99-.477.93-1.022a25.382 25.382 0 0 0-5.416-13.036c-.343-.43-.993-.452-1.38-.064l-6.76 6.742a.93.93 0 0 0-.097 1.194 14.239 14.239 0 0 1 2.25 5.408.93.93 0 0 0 .91.778"/>
    <path fill="#FD7E5B" d="M39.583 28.063a14.122 14.122 0 0 1-2.25 5.41.932.932 0 0 0 .096 1.193l6.76 6.743c.39.38 1.04.36 1.38-.07a25.53 25.53 0 0 0 5.42-13.04c.06-.55-.39-1.02-.94-1.02h-9.56c-.46 0-.83.33-.92.77"/>
  </g>
</svg>
