<svg id="Layer_1" data-name="Layer 1" xmlns="http://www.w3.org/2000/svg" width="526.34" height="200" viewBox="0 0 526.34 200"><defs><style>.cls-1{fill:#00ae8d;}.cls-2{fill:#004750;}</style></defs><title>fizbuz</title><path class="cls-1" d="M82.29,64.6V85.37H27.35v34.55h42.1v20.39H27.35v56.06H.92V64.6Z"/><path class="cls-1" d="M163.15,174.66h46.63v21.71H133.13V175l45.69-61.54h-45.5V91.79h75.89v21.33Z"/><path class="cls-1" d="M261.22,94.81a43.29,43.29,0,0,1,20.48-4.72A45.7,45.7,0,0,1,306,96.7a46.44,46.44,0,0,1,17.18,18.78q6.33,12.18,6.33,28.22t-6.33,28.41A47.55,47.55,0,0,1,306,191.28a44.78,44.78,0,0,1-24.26,6.79,43.35,43.35,0,0,1-20.48-4.62,39.71,39.71,0,0,1-14.06-12v14.91H220.73V56.67h26.43v50.41A37.77,37.77,0,0,1,261.22,94.81Zm37.38,32.56a26.82,26.82,0,0,0-10.19-10.47,27.31,27.31,0,0,0-13.69-3.59,26.43,26.43,0,0,0-13.5,3.68A27.25,27.25,0,0,0,251,127.66a33.33,33.33,0,0,0-3.87,16.42A33.37,33.37,0,0,0,251,160.51a27.29,27.29,0,0,0,10.19,10.66,26.67,26.67,0,0,0,27.19-.09,28.13,28.13,0,0,0,10.19-10.76,33.8,33.8,0,0,0,3.87-16.62A32.85,32.85,0,0,0,298.6,127.37Z"/><path class="cls-1" d="M438,91.79V196.37H411.4V183.16a35,35,0,0,1-13.31,10.67,41.48,41.48,0,0,1-17.84,3.87,44.21,44.21,0,0,1-21.71-5.2,36.47,36.47,0,0,1-14.82-15.29q-5.39-10.1-5.38-24.07V91.79h26.43v57.58q0,12.45,6.23,19.16t17,6.7q11,0,17.18-6.7t6.23-19.16V91.79Z"/><path class="cls-1" d="M478.79,174.66h46.63v21.71H448.78V175l45.68-61.54H449V91.79h75.9v21.33Z"/><path class="cls-1" d="M120.77,92.23a53.74,53.74,0,0,1-11.61,1,53.61,53.61,0,0,1-11.61-1c-.6-.13-1.12-.28-1.61-.42V196.37h26.43V91.8C121.89,92,121.37,92.1,120.77,92.23Z"/><circle class="cls-2" cx="109.16" cy="65.34" r="15.73"/><circle class="cls-1" cx="81.33" cy="39.05" r="12.58"/><circle class="cls-1" cx="118.6" cy="20.81" r="18.88"/></svg>