<svg xmlns="http://www.w3.org/2000/svg" width="850" height="245.95" viewBox="0 0 850 245.95"><defs><style>.cls-1{fill:#410099;}</style></defs><title>heroku</title><g id="purple"><path class="cls-1" d="M196.12,5H26.24A21.23,21.23,0,0,0,5,26.23V219.72A21.24,21.24,0,0,0,26.24,241H196.12a21.24,21.24,0,0,0,21.24-21.23V26.23A21.23,21.23,0,0,0,196.12,5Zm9.44,214.72a9.44,9.44,0,0,1-9.44,9.43H26.24a9.44,9.44,0,0,1-9.44-9.43V26.23a9.44,9.44,0,0,1,9.44-9.43H196.12a9.44,9.44,0,0,1,9.44,9.43Z"/><polygon class="cls-1" points="58.09 205.56 84.64 181.96 58.09 158.37 58.09 205.56"/><path class="cls-1" d="M154,109.92c-4.76-4.81-13.49-10.54-28.07-10.54-16,0-32.47,4.16-44.24,8v-67H58.09V142.71l16.67-7.55C75,135,101.94,123,125.93,123c12,0,14.63,6.62,14.74,12.13v70.46h23.6V134.77A36.83,36.83,0,0,0,154,109.92Z"/><path class="cls-1" d="M123,78.73h23.59c10.67-12.09,16.11-24.94,17.7-38.34h-23.6C138.07,53.76,132.25,66.57,123,78.73Z"/><path class="cls-1" d="M270.45,81.82H294v32.34H322.9V81.82h23.53v87H322.9V133.69H294v35.16H270.45Z"/><path class="cls-1" d="M376.72,81.82h62.1v19.53H400.25v14.11h27.52v18.35H400.25v16.11h40.57v18.93h-64.1Z"/><path class="cls-1" d="M466.66,81.82h34c22.34,0,36,7.41,36,28.35,0,13.64-5.77,21.52-17.17,25.4l18.46,33.28H513l-16.82-30.22h-6.47v30.22h-23Zm33.16,38.93c9.65,0,13.88-2.71,13.88-10s-4.23-9.88-13.88-9.88H489.71v19.88Z"/><path class="cls-1" d="M561.18,125.33c0-31.86,21.75-45.16,42.8-45.16s42.7,13.3,42.7,45.16S624.92,170.5,604,170.5,561.18,157.21,561.18,125.33Zm62,0c0-16-6.93-25.75-19.17-25.75s-19.28,9.76-19.28,25.75,6.94,26.35,19.28,26.35S623.15,141.34,623.15,125.33Z"/><path class="cls-1" d="M672.86,81.82h23.52v31.52l24-31.52h27.28l-29.28,34.34,31.87,52.69H723.67L703.09,134l-6.71,7.76v27H672.86Z"/><path class="cls-1" d="M772,133.92V81.82h23.53v52c0,12,3.88,17.4,13.29,17.4S822,145.8,822,133.81v-52h23v52.1c0,23.06-11,36.22-36.46,36.22S772,157,772,133.92Z"/></g></svg>