<?xml version="1.0" encoding="utf-8"?>
<!-- Generator: Adobe Illustrator 24.2.3, SVG Export Plug-In . SVG Version: 6.00 Build 0)  -->
<svg version="1.1" id="Layer_1" xmlns="http://www.w3.org/2000/svg" xmlns:xlink="http://www.w3.org/1999/xlink" x="0px" y="0px"
	 viewBox="0 0 320 120" style="enable-background:new 0 0 320 120;" xml:space="preserve">
<style type="text/css">
	.st0{fill:#FFFFFF;}
	.st1{fill:url(#SVGID_1_);}
	.st2{fill:#F5F5F5;}
	.st3{fill:#486071;}
</style>
<g>
	<rect class="st0" width="320" height="120"/>
	<g>
		<linearGradient id="SVGID_1_" gradientUnits="userSpaceOnUse" x1="258" y1="106" x2="258" y2="14">
			<stop  offset="0" style="stop-color:#D84A2E"/>
			<stop  offset="1" style="stop-color:#FF6633"/>
		</linearGradient>
		<path class="st1" d="M312,99.51c0,3.57-2.87,6.49-6.38,6.49h-95.23c-3.51,0-6.38-2.92-6.38-6.49l0-79.02
			c0-3.57,2.87-6.49,6.38-6.49h95.23c3.51,0,6.38,2.92,6.38,6.49L312,99.51z"/>
		<g>
			<g>
				<path class="st2" d="M223.44,92.81c-3.56,0-6.44-2.91-6.44-6.49V34.39c0-3.59,2.88-6.49,6.44-6.49s6.44,2.91,6.44,6.49v51.93
					C229.88,89.91,227,92.81,223.44,92.81z"/>
			</g>
			<g>
				<path class="st2" d="M280.57,59.64l18.83-21.69c2.34-2.7,2.07-6.8-0.61-9.16c-2.68-2.36-6.75-2.09-9.09,0.61l-17.7,20.38
					l-17.7-20.38c-2.34-2.7-6.41-2.97-9.09-0.61c-2.68,2.36-2.95,6.46-0.61,9.16l18.83,21.69l-18.83,21.69
					c-2.34,2.7-2.07,6.8,0.61,9.16c1.22,1.08,2.73,1.61,4.24,1.61c1.79,0,3.58-0.75,4.85-2.22l17.7-20.38l17.7,20.38
					c1.27,1.47,3.06,2.22,4.85,2.22c1.51,0,3.02-0.53,4.24-1.61c2.68-2.36,2.95-6.46,0.61-9.16L280.57,59.64z"/>
			</g>
		</g>
		<g>
			<path class="st3" d="M16,76V44H8V34h18v42h8v10H8V76H16z M26,16c0,3.31-2.69,6-6,6s-6-2.69-6-6s2.69-6,6-6S26,12.69,26,16z"/>
			<path class="st3" d="M48,76V44h-8V34h18.76v6c6.03-4.89,12.3-7.08,18.08-7.08c5.82,0,9.83,2.7,12.04,8.09
				c6.64-5.39,12.82-8.09,18.54-8.09c3.3,0,6.01,0.74,8.14,2.22c2.12,1.48,3.56,3.36,4.29,5.62c0.74,2.27,1.11,5.62,1.11,10.04V76
				H130v10h-19.05V52.64c0-3-0.13-5.11-0.4-6.35c-0.26-1.23-0.93-2.25-2-3.05c-1.07-0.8-2.36-1.2-3.87-1.2
				c-4.28,0-9.15,2.23-14.59,6.69V76H98v10H80.08V51.67c0-3.39-0.48-5.85-1.45-7.36c-0.96-1.52-2.6-2.28-4.91-2.28
				c-3.78,0-9.77,1.51-15.73,5.97v28h10.07v10H40V76H48z"/>
			<path class="st3" d="M194,34v10h-8.61l-0.13,37.4c0,5.21-0.26,9.08-0.79,11.6c-0.53,2.52-1.8,5.09-3.82,7.71
				c-2.02,2.62-5.05,4.83-9.09,6.62c-4.04,1.78-8.55,2.68-13.54,2.68c-7.51,0-14.22-2.3-20.12-6.91l6.53-7.39
				c4.42,3.5,9.23,5.25,14.43,5.25c2.88,0,5.55-0.56,8.01-1.69c2.46-1.13,4.29-2.49,5.5-4.1c1.21-1.61,1.99-3.13,2.34-4.58
				c0.35-1.45,0.53-3.88,0.53-7.31v-4.71c-1.58,2.04-4.06,3.96-7.43,5.78c-3.37,1.82-7.06,2.73-11.06,2.73
				c-7.3,0-13.26-2.57-17.86-7.71c-4.6-5.14-6.9-11.46-6.9-18.96c0-8.21,2.54-14.85,7.61-19.9c5.07-5.05,10.95-7.58,17.62-7.58
				c6.74,0,13.5,3.61,18.77,9.08v-8H194z M142.64,60.19c0,5.25,1.5,9.53,4.5,12.85c3,3.32,6.84,4.98,11.51,4.98
				c4.56,0,8.5-1.67,11.8-5.01c3.3-3.34,4.95-7.63,4.95-12.88c0-5.32-1.65-9.6-4.95-12.83c-3.3-3.23-7.13-4.85-11.48-4.85
				c-4.35,0-8.16,1.6-11.43,4.79C144.27,50.45,142.64,54.76,142.64,60.19z"/>
		</g>
	</g>
</g>
</svg>
