<?xml version="1.0" encoding="utf-8"?>
<!-- Generator: Adobe Illustrator 21.1.0, SVG Export Plug-In . SVG Version: 6.00 Build 0)  -->
<!DOCTYPE svg PUBLIC "-//W3C//DTD SVG 1.1//EN" "http://www.w3.org/Graphics/SVG/1.1/DTD/svg11.dtd">
<svg version="1.1" id="Layer_1" xmlns="http://www.w3.org/2000/svg" xmlns:xlink="http://www.w3.org/1999/xlink" x="0px" y="0px"
	 viewBox="0 0 611.3 94.3" style="enable-background:new 0 0 611.3 94.3;" xml:space="preserve">
<style type="text/css">
	.st0{fill:#010101;}
</style>
<g>
	<g>
		<polygon class="st0" points="21.2,52.7 40.3,24.4 65.8,24.4 41.4,52.1 69.3,92.8 43.2,92.8 26.6,64.7 21.2,71.5 21.2,92.8 0,92.8 
			0,24.2 21.2,24.2 		"/>
		<path class="st0" d="M105.3,94.3c-20,0-35.4-13.2-35.4-35.2c0-22.1,14.5-36.2,36.6-36.2c20.9,0,34.8,14.4,34.8,35.1
			C141.3,82.9,123.5,94.3,105.3,94.3L105.3,94.3z M105.7,79c8.4,0,13.6-8.2,13.6-20.6c0-10-3.9-20.4-13.6-20.4
			c-10,0-14,10.4-14,20.6c0,11.6,4.9,20.4,13.8,20.4H105.7z"/>
		<path class="st0" d="M174.4,5.8v18.6h15.2V40h-15.2v24.9c0,8.3,2.1,11.5,8.4,11.5c2.9,0,4.9,0,6.3,0l0.1,16.5h-13.3
			c-6.8,0-12.9-0.9-16.4-4.4c-3.9-4.1-5.9-9.2-5.9-19.8v-63L174.4,5.8z"/>
		<rect x="201.9" y="24.4" class="st0" width="21.3" height="68.4"/>
		<rect x="201.9" class="st0" width="21.3" height="15.3"/>
		<path class="st0" d="M240.1,74.3c3.9,2.4,12,5,18.3,5c6.4,0,9.1-2.1,9.1-5.6c0-3.6-2.1-5.3-9.9-8c-14.3-4.6-19.7-12.4-19.6-20.4
			c0-12.9,10.9-22.5,27.8-22.5c8,0,15,2,19.1,4l-3.6,14.6c-3.1-1.5-9.1-3.8-14.8-3.8c-5.2,0-8.1,2.1-8.1,5.4c0,3.3,2.7,5,11,8
			c13,4.3,18.3,11,18.5,21c0,12.9-9.9,22.2-29.5,22.2c-8.9,0-16.9-2.1-22.1-4.9L240.1,74.3z"/>
	</g>
	<g>
		<path class="st0" d="M309.8,25.5c5.3-0.9,11-1.5,17.5-1.5c12.5,0,21.9,3.3,27.6,9.3c5.5,5.7,8.5,13.4,8.5,23.7
			c0,10-2.7,19-8.9,25.8c-6,6.6-16.3,10.4-29.5,10.4c-5.3,0-10.2-0.1-15.2-0.5V25.5z M314.7,88.7c2.7,0.4,6.7,0.5,11,0.5
			c21.9,0,32.7-12.3,32.7-32C358.7,39.9,349,28,327.1,28c-5.3,0-9.4,0.5-12.4,1.1V88.7z"/>
		<path class="st0" d="M409.3,58.8H382v29.9h30.5v4.1h-35.4V24.5h33.7v4.1h-28.9v26.2h27.3L409.3,58.8L409.3,58.8z"/>
		<path class="st0" d="M424.1,85.3c3.9,2.6,9.2,4.5,14.9,4.5c10.2,0,16.5-5.8,16.5-14.2c0-7.6-4-12.2-13.9-15.9
			c-10.9-4-17.5-9.6-17.5-18.8c0-10,8.2-17.3,19.9-17.3c6.4,0,11.2,1.6,13.6,3.1l-1.8,4.2c-1.8-1.3-6.2-3.2-12.1-3.2
			c-11,0-14.8,7.1-14.8,12.5c0,7.5,4.4,11.3,14.2,15.2c11.2,4.6,17.2,9.7,17.2,19.9c0,9.9-7.1,18.7-21.7,18.7
			c-5.9,0-12.8-1.9-16.3-4.6L424.1,85.3z"/>
		<path class="st0" d="M479.9,24.5v68.3H475V24.5H479.9z"/>
		<path class="st0" d="M547.2,89.8c-3.4,1.4-10.6,3.6-20,3.6c-9,0-17.2-2.2-24.1-8.9c-5.7-5.5-9.4-14.7-9.4-25.7
			c0-18.9,12.5-35.1,35.7-35.1c7.3,0,13.3,1.7,15.9,3l-1.6,4c-3.5-1.7-8-2.9-14.6-2.9c-18.7,0-30.3,12.3-30.3,30.8
			c0,19.2,11.2,30.8,29.3,30.8c7.2,0,11.8-1,14.3-2.4V62.9h-15.8v-4h20.7v30.9H547.2z"/>
		<path class="st0" d="M563.3,92.8V24.5h4.6l26.5,40.3c5.6,8.5,9.5,14.9,12.9,21.5l0.2-0.1c-0.7-9.2-0.8-17-0.8-27.7v-34h4.7v68.3
			h-4.5l-26-39.7c-5.1-7.8-9.7-15-13.3-22.1l-0.2,0.1c0.5,8.4,0.6,15.8,0.6,27.2v34.5H563.3z"/>
	</g>
</g>
</svg>
