<?xml version="1.0" encoding="utf-8"?>
<!-- Generator: Adobe Illustrator 24.0.1, SVG Export Plug-In . SVG Version: 6.00 Build 0)  -->
<svg version="1.1" xmlns="http://www.w3.org/2000/svg" xmlns:xlink="http://www.w3.org/1999/xlink" x="0px" y="0px"
	 viewBox="0 0 1182 271" style="enable-background:new 0 0 1182 271;" xml:space="preserve">
<style type="text/css">
	.st0{fill:#17202D;}
	.st1{fill-rule:evenodd;clip-rule:evenodd;fill:#17202D;}
	.st2{fill:#FFFFFF;}
	.st3{fill-rule:evenodd;clip-rule:evenodd;fill:#FFFFFF;}
	.st4{display:none;}
	.st5{display:inline;fill:#27BFCB;}
</style>
<g id="Mark">
	<g>
		<g>
			<path class="st0" d="M620,161.8c-2.3,2.7-5,5-8,6.9c-2.9,1.8-6.2,2.6-9.9,2.6c-3,0-5.9-0.6-8.5-1.8c-2.6-1.2-5-3-6.9-5.2
				c-2-2.2-3.6-4.8-4.8-7.9c-1.2-3-1.7-6.3-1.7-9.7v-0.2c0-3.5,0.6-8.6,1.7-11.5c1.1-3,2.7-5.6,4.6-7.7c1.9-2.1,4.2-3.9,6.8-5.1
				c2.6-1.2,5.4-1.8,8.4-1.8c3.9,0,7.2,0.9,9.9,2.7c2.9,1.9,5.6,4.2,8,6.8l1.7,1.9l7.3-7.9l-1.4-1.6c-1.4-1.6-3-3.1-4.7-4.6
				c-1.7-1.5-3.6-2.8-5.7-3.9c-2.1-1.1-4.4-2.1-6.8-2.7c-2.5-0.7-5.2-1-8.2-1c-4.6,0-8.9,1-12.9,2.8c-3.9,1.9-7.4,4.5-10.3,7.7
				c-2.9,3.2-5.2,6.9-6.8,11.1c-1.7,4.3-2.5,10.8-2.5,15.2v0.2c0,4.7,0.8,9.1,2.5,13.3c1.6,4.2,3.9,7.8,6.8,11
				c2.9,3.1,6.3,5.7,10.3,7.5c4,1.9,8.3,2.8,12.9,2.8c5.8,0,10.9-1.3,15-3.8c4-2.4,7.7-5.6,10.8-9.3l1.5-1.7l-7.4-6.9L620,161.8z"/>
			<path class="st0" d="M471.4,152c0,2.9-0.5,5.6-1.4,8c-0.9,2.4-2.2,4.4-3.9,6.1c-1.6,1.7-3.6,3-5.8,4c-2.2,0.9-4.6,1.4-7.2,1.4
				c-5.4,0-9.3-1.6-12.2-4.9c-2.9-3.3-4.3-7.9-4.3-13.7v-40.7h-10.5v41.8c0,3.9,0.6,7.6,1.7,10.9c1.1,3.4,2.9,6.4,5.2,8.8
				c2.3,2.5,5.1,4.4,8.3,5.8c3.2,1.4,6.9,2,10.9,2c5.9,0,10.9-1.4,14.7-4.2c1.6-1.2,3.1-2.4,4.4-3.8v6.6h10.5v-68h-10.5V152z"/>
			<polygon class="st0" points="294.8,89.5 283.7,89.5 283.7,180.2 345.7,180.2 345.7,169.4 294.8,169.4 			"/>
			<path class="st0" d="M693,118.7c-2.3-2.5-5.1-4.4-8.3-5.8c-3.2-1.4-6.9-2-10.9-2c-5.9,0-10.9,1.4-14.7,4.2
				c-1.6,1.2-3.1,2.4-4.4,3.8V91.4h-10.5v88.8h10.5v-39.7c0-2.9,0.5-5.6,1.4-8c0.9-2.4,2.2-4.4,3.9-6.1c1.6-1.7,3.6-3,5.8-4
				c2.2-0.9,4.6-1.4,7.2-1.4c5.4,0,9.3,1.6,12.2,4.9c2.9,3.3,4.3,7.9,4.3,13.7v40.7h10.5v-41.8c0-3.9-0.6-7.6-1.7-10.9
				C697,124.2,695.3,121.2,693,118.7z"/>
			<path class="st0" d="M383.8,110.4c-4.3,0-8.3,0.5-11.8,1.5c-3.5,1-6.9,2.3-10.3,4l-2,1l3.9,9.7l2.3-1.2c2.6-1.4,5.3-2.5,8.2-3.4
				c2.8-0.8,5.9-1.3,9.3-1.3c5.5,0,9.8,1.4,12.8,4.1c2.6,2.3,4.3,7.8,4.4,13.8c-2-0.5-4-0.9-6.1-1.2c-3.1-0.5-6.9-0.8-11.2-0.8
				c-4.1,0-7.9,0.5-11.2,1.4c-3.5,1-6.5,2.4-8.9,4.2c-2.5,1.9-4.5,4.3-6,7.1c-1.6,3.1-2.2,7.5-2.2,10.6v0.2c0,3.6,0.8,6.8,2.3,9.6
				c1.5,2.7,3.5,5,6,6.8c2.4,1.8,5.1,3.1,8.1,4c2.9,0.9,5.9,1.3,8.9,1.3c3,0,5.8-0.4,8.4-1.1c2.5-0.7,4.9-1.7,6.9-2.9
				c1.9-1.1,3.6-2.3,5-3.7v6.3H411v-41.5c0-8.7-2.5-16.5-6.7-20.9C399.5,112.9,392.6,110.4,383.8,110.4z M395,166.7
				c-1.8,1.5-4,2.6-6.4,3.5c-2.5,0.8-5.1,1.3-7.8,1.3c-2,0-4-0.3-5.8-0.9c-1.8-0.6-3.4-1.4-4.8-2.4c-1.3-1-2.3-2.2-3.1-3.6
				c-0.7-1.4-1.1-3-1.1-4.8v-0.2c0-3.9,1.5-7.5,4.1-9.5c2.9-2.3,7.3-3.4,13-3.4c4.1,0,7.8,0.3,11,0.9c2.5,0.5,4.8,0.9,6.8,1.4v5.1
				c0,2.7-0.6,5.8-1.5,7.5C398.2,163.5,396.8,165.3,395,166.7z"/>
			<path class="st0" d="M549.1,117.8c-2.3-2.5-5.1-4.4-8.3-5.8c-3.2-1.4-6.9-2-10.9-2c-5.9,0-10.9,1.4-14.7,4.2
				c-1.6,1.2-3.1,2.4-4.4,3.8v-5.6h-10.5v67.9h10.5v-40.7c0-2.9,0.5-5.6,1.4-8c0.9-2.4,2.2-4.4,3.9-6.1c1.6-1.7,3.6-3,5.8-4
				c2.2-0.9,4.6-1.4,7.2-1.4c5.4,0,9.3,1.6,12.2,4.9c2.9,3.3,4.3,7.9,4.3,13.7v41.6H556v-42.7c0-3.9-0.6-7.6-1.7-10.9
				C553.1,123.2,551.4,120.3,549.1,117.8z"/>
			<path class="st0" d="M780.9,104.1c-4-4-8.9-7.1-14.5-9.3c-5.6-2.2-11.8-3.4-18.4-3.4h-29.5v88.9H748c6.6,0,12.8-1.2,18.4-3.4
				c5.6-2.3,10.5-5.4,14.5-9.4c4.1-4,7.2-8.7,9.4-14.1c2.2-5.4,3.3-11.3,3.3-17.5v-0.2c0-6.2-1.1-12.1-3.3-17.4
				C788.1,112.8,784.9,108,780.9,104.1z M782.6,135.8v0.2c0,4.7-0.8,9.2-2.4,13.2c-1.6,4.1-3.9,7.6-6.9,10.6
				c-2.9,3-6.6,5.4-10.8,7.2c-4.3,1.8-9.1,2.6-14.5,2.6h-18.7v-67.8H748c5.3,0,10.2,0.9,14.4,2.7c4.3,1.8,7.9,4.2,10.8,7.3
				c2.9,3,5.3,6.7,6.9,10.8C781.8,126.7,782.6,131.2,782.6,135.8z"/>
			<rect x="1000.7" y="91.4" class="st0" width="10.5" height="88.9"/>
			<path class="st0" d="M1079.6,112.3l-19.9,51l-23-51h-11.9l29.6,63.4c-0.9,2.1-1.8,4-2.7,5.5c-1,1.7-2,3-3,4
				c-0.9,0.9-1.9,1.6-2.9,1.9c-1.1,0.4-2.2,0.6-3.5,0.6c-2,0-3.7-0.2-5-0.5c-1.3-0.3-2.6-0.8-4-1.5l-2.4-1.2l-3.7,9.8l2.1,0.9
				c2.1,0.9,4.2,1.6,6.1,2.1c2,0.5,4.2,0.7,6.6,0.7c4.8,0,9.1-1.5,12.6-4.5c3.5-2.9,6.5-7.6,9.4-14.5l27-66.7H1079.6z"/>
			<polygon class="st0" points="972.1,112.3 937.8,149.8 937.8,91.3 927.4,91.3 927.4,180.2 937.8,180.2 937.8,163.9 949.7,151.6 
				972.2,180.2 985.5,180.2 957,143.9 986.2,112.3 			"/>
			<path class="st0" d="M901.6,111.6c-3.4,1.1-7.4,3.9-9,5c-2.4,1.8-4.6,3.9-6.5,6.4c-0.1,0.1-0.1,0.1-0.2,0.2v-11h-10.5v67.9h10.5
				v-29.4c0-4.7,0.7-8.8,1.9-12.3c1.3-3.5,3-6.5,5.2-8.8c2.4-2.6,5.8-5.2,8.3-6.3c2.8-1.2,5.8-1.8,8.8-1.8h3v-11.2l-2.3-0.1
				C907.6,110.3,904.5,110.7,901.6,111.6z"/>
			<path class="st0" d="M830.9,110.4c-4.3,0-8.3,0.5-11.8,1.5c-3.5,1-6.9,2.3-10.3,4l-2,1l3.9,9.7l2.3-1.2c2.6-1.4,5.3-2.5,8.2-3.4
				c2.8-0.8,5.9-1.3,9.3-1.3c5.5,0,9.8,1.4,12.8,4.1c2.6,2.3,4.3,7.8,4.4,13.8c-2-0.5-4-0.9-6.1-1.2c-3.1-0.5-6.9-0.8-11.2-0.8
				c-4.1,0-7.9,0.5-11.2,1.4c-3.5,1-6.5,2.4-8.9,4.2c-2.5,1.9-4.5,4.3-6,7.1c-1.6,3.1-2.2,7.5-2.2,10.6v0.2c0,3.6,0.8,6.8,2.3,9.6
				c1.5,2.7,3.5,5,6,6.8c2.4,1.8,5.1,3.1,8.1,4c2.9,0.9,5.9,1.3,8.9,1.3c3,0,5.8-0.4,8.4-1.1c2.5-0.7,4.9-1.7,6.9-2.9
				c1.9-1.1,3.6-2.3,5-3.7v6.3H858v-41.5c0-8.7-2.5-16.5-6.7-20.9C846.5,112.9,839.7,110.4,830.9,110.4z M842,166.7
				c-1.8,1.5-4,2.6-6.4,3.5c-2.5,0.8-5.1,1.3-7.8,1.3c-2,0-4-0.3-5.8-0.9c-1.8-0.6-3.4-1.4-4.8-2.4c-1.3-1-2.4-2.2-3.1-3.6
				c-0.7-1.4-1.1-3-1.1-4.8v-0.2c0-3.9,1.5-7.5,4.1-9.5c2.9-2.3,7.3-3.4,13-3.4c4.1,0,7.8,0.3,11,0.9c2.5,0.4,4.8,0.9,6.8,1.4v5.1
				c0,2.7-0.6,5.8-1.5,7.5C845.2,163.5,843.8,165.3,842,166.7z"/>
		</g>
		<g>
			<g>
				<path class="st1" d="M170.6,207.6c38.4,0,69.7-32.3,69.7-72.1c0-3.8-0.4-7.5-0.9-11.2c0.1,1.2,0.2,2.5,0.2,3.7
					c0,34.8-27.4,63.1-61.1,63.1c-14.4,0-27.5-5.1-38-13.7c-4.8,4-8.1,7.1-17.9,10.3C135.1,199.8,152.1,207.6,170.6,207.6
					L170.6,207.6z"/>
			</g>
			<g>
				<path class="st1" d="M117.4,127.9c0-34.8,27.4-63.1,61.1-63.1c2.8,0,5.7,0.3,8.5,0.7c-5.4-1.3-10.9-2.1-16.4-2.1
					c-38.4,0-69.7,32.3-69.7,72.1c0,9.6,2,18.7,4.6,26.5c4.2-4.4,11.2-9.1,15.8-11.4C118.5,143.4,117.4,136.1,117.4,127.9
					L117.4,127.9z"/>
			</g>
			<g>
				<path class="st1" d="M158.4,116.2c-12.3-4.3-24.1-0.9-29.7,1.3c8.8,4.6,14.2,10.1,17.6,14.9
					C149.6,127.4,157.2,117.7,158.4,116.2z"/>
			</g>
			<g>
				<polygon class="st1" points="134.7,155.2 134.7,155.2 134.7,155.2 134.7,155.2 134.7,155.2 				"/>
			</g>
			<g>
				<path class="st1" d="M134.7,155.2C134.7,155.2,134.7,155.2,134.7,155.2L134.7,155.2C134.7,155.2,134.7,155.2,134.7,155.2
					L134.7,155.2L134.7,155.2z"/>
			</g>
			<g>
				<path class="st1" d="M182.8,152c-0.1-1.6-0.3-3.2-0.6-4.9c-2.6,1.8-7.3,4.9-13.2,7.9c-0.7,0.4-1.5,0.7-2.3,1.1
					c-1.3,0.6-2.6,1.2-3.9,1.8c-0.3,0.1-0.5,0.2-0.8,0.3c0.2,0.5,0.4,1,0.7,1.7c0.2,0.5,0.4,1,0.6,1.6c0.2,0.5,0.4,1,0.6,1.6
					c0.3,1,0.7,2.1,1.1,3.3c0.2,0.6,0.4,1.3,0.6,2c0.2,0.7,0.3,1.3,0.5,2c0.8,3.7,1.5,7.8,1.5,12c0,0.9-0.2,1.9-0.2,2.8
					c5-3.5,15.3-12.6,15.6-29.6c0-0.3,0-0.5,0-0.8c0-0.4,0-0.7,0-1.1C182.8,153.2,182.8,152.6,182.8,152L182.8,152L182.8,152z"/>
			</g>
			<path class="st1" d="M246.7,73.2L246.7,73.2c4,0.4,7.1,1,8.9,1.5c-13.9,36-40.6,57.2-60.7,68.6c-2.5,1.4-4.4,2.4-6.7,3.6
				c-0.2-1.8-0.9-6.1-1.4-8.8c-0.1-0.6-0.8-0.9-1.3-0.5c-9.1,6.8-17.6,11.9-29.8,17c-0.7,0.3-1.1,1.2-0.7,1.9
				c0.3,0.7,0.8,1.6,1.2,2.4c-2.7,0.7-5.7,1.4-6.5,1.6c-0.7-3.9-3.6-9-6.7-11.2c1-1.8,3.1-5.5,4.6-7.9c0.4-0.6,0.7-1.2,1.1-1.8
				c0.4-0.6,0.7-1.1,1.1-1.7c3.8-5.7,8.7-12.5,14.4-19.3c0.4-0.5,0.8-0.9,1.1-1.4c0.4-0.4,0.8-0.9,1.1-1.3
				c11.2-13.1,25-26.4,39.1-33.9c9.4-5,19.2-7.9,29.1-8.8c-2,3.7-5.7,8.7-12.1,14.7c-0.2,0.1-0.3,0.3-0.4,0.5
				c-0.3,0.5-0.4,1.1-0.4,1.7c0,1.9,1.3,3.9,2.9,5.2c2.4,2,5.1,2.3,6.8,0.8l0.5-0.4C239.4,89.2,244.4,81.6,246.7,73.2L246.7,73.2z
				 M187.7,132.3L187.7,132.3c3.4,0,6.2-2.9,6.2-6.4c0-3.5-2.8-6.4-6.2-6.4s-6.2,2.9-6.2,6.4C181.5,129.5,184.3,132.3,187.7,132.3
				L187.7,132.3z M201.5,121.5c-3.4,0-6.2-2.9-6.2-6.4c0-3.5,2.8-6.4,6.2-6.4c3.4,0,6.2,2.9,6.2,6.4
				C207.7,118.7,204.9,121.5,201.5,121.5L201.5,121.5L201.5,121.5z M214.8,110.9c-3.4,0-6.2-2.9-6.2-6.4c0-3.5,2.8-6.4,6.2-6.4
				c3.4,0,6.2,2.9,6.2,6.4C221,108,218.2,110.9,214.8,110.9L214.8,110.9L214.8,110.9z"/>
			<path class="st1" d="M137.1,153.2c3.4,0.2,6.6,6.7,6.5,8.4c-0.1,2.2-1,5.7-7.1,11.6c0,0-0.1,0.1-0.1,0.1c0,0-0.1,0.1-0.1,0.1
				c-4.7,4.5-11.3,7.5-18.1,9.5c-0.1,0-0.1,0-0.2,0.1c0,0-0.1,0-0.1,0c-10.4,3.1-21.4,3.9-26.8,4.1c6.3-8.2,11.9-14.4,16.9-19.2
				c0,0,0.1-0.1,0.1-0.1c0,0,0.1-0.1,0.1-0.1c6.2-5.8,11.4-9.4,15.7-11.6c0,0,0.1,0,0.1-0.1c0.1,0,0.1-0.1,0.2-0.1
				C131.3,152.4,135.6,152.9,137.1,153.2C137,153.2,137,153.2,137.1,153.2 M136.5,160.3L136.5,160.3c0.9-0.8,1.5-1.4,1.6-1.7
				c0.1-0.3-0.3-0.6-0.7-1.1c-2.3-2.9-10,0-13.4,2.1c-6.1,3.6-11.5,9.5-13.5,12.2c0,0.1-0.1,0.1-0.1,0.2c0,0-0.1,0.1-0.1,0.1
				c-0.4,0.6-0.6,0.9-0.6,0.9s0.3-0.3,0.8-0.7c0,0,0.1-0.1,0.1-0.1c0,0,0.1-0.1,0.1-0.1c2.6-2.4,9.5-8.5,14.6-10
				c0.6-0.1-3.1,9.2-3.1,9.2s7.8-5.7,7.9-5.8c1.3-1,2.6-2,3.7-2.9c0.5-0.4,1-0.8,1.4-1.1C135.5,161,136,160.6,136.5,160.3
				L136.5,160.3z"/>
		</g>
	</g>
</g>
<g id="Guides" class="st4">
	<polygon class="st5" points="729.6,0.4 718.4,0.4 718.4,91.2 780.4,91.2 780.4,80.3 729.6,80.3 	"/>
	<polygon class="st5" points="0,154.6 0,165.8 90.8,165.8 90.8,103.8 79.9,103.8 79.9,154.6 	"/>
	<polygon class="st5" points="761.2,271.2 772.4,271.2 772.4,180.4 710.4,180.4 710.4,191.3 761.2,191.3 	"/>
	<polygon class="st5" points="1182.8,125 1182.8,113.8 1092,113.8 1092,175.8 1102.9,175.8 1102.9,125 	"/>
</g>
</svg>
