<svg id="Layer_1" data-name="Layer 1" xmlns="http://www.w3.org/2000/svg" width="850" height="243.06" viewBox="0 0 850 243.06"><defs><style>.cls-1{fill:#fff;}</style></defs><title>mozilla</title><rect x="5" y="1.43" width="840" height="240.2"/><path class="cls-1" d="M807.28,173.84a16,16,0,0,1-4.41.71c-4.91,0-7.22-2.1-7.22-8.14V120.75c0-24-19.11-35.66-41.71-35.66-17.26,0-26.54,2.1-45,9.54l-4.11,24.19,24,2.56,3.4-11.84c4.91-2.56,9.79-3,16.09-3,17,0,17.26,12.81,17.26,23.52v3.49a136,136,0,0,0-17.26-.92c-24,0-48.93,6-48.93,31.92,0,21.88,17.22,30.07,32.38,30.07,17,0,27.72-10.25,33.77-21,1.38,12.81,9.07,21,23.05,21a40.11,40.11,0,0,0,18.86-4.92Zm-64.51-.67c-9.07,0-12.35-5.38-12.35-12.14,0-11.42,9.33-14.45,20-14.45A116.54,116.54,0,0,1,765.62,148C764.91,165.48,753.48,173.17,742.77,173.17ZM702.41,32,657,192.28H627.36L672.8,32Zm-61,0L595.94,192.28H566.37L611.82,32ZM515.22,87.19h31.45v37.72H515.22Zm0,67.33h31.45v37.76H515.22Zm-45.78-1.39,23.77,2.31-6.51,36.84H394.89l-3-15.84L449.65,110H416.81l-4.66,16.3L390.48,124l3.73-36.84h92.28L488.84,103l-58.3,66.44h34Zm-150.57-68c-37.76,0-56.41,25.41-56.41,56.16,0,33.56,22.39,53.34,54.77,53.34,33.56,0,57.79-21.21,57.79-54.77C375,110.46,356.58,85.09,318.87,85.09Zm-.72,86.44c-16.29,0-24.69-14-24.69-32.17,0-19.83,9.53-31.21,24.94-31.21,14.2,0,25.62,9.54,25.62,30.75C344,158.93,333.78,171.53,318.15,171.53Zm-82.74-2.1h14v22.85H205.34V133.1c0-18.19-6.05-25.16-17.93-25.16-14.45,0-20.29,10.25-20.29,24.95v36.54h14v22.85h-44V133.1c0-18.19-6.05-25.16-17.93-25.16-14.45,0-20.29,10.25-20.29,24.95v36.54h20v22.85H54.85V169.43h14V110h-14V87.15h44V103c6.3-11.18,17.26-17.94,31.92-17.94,15.16,0,29.11,7.23,34.27,22.6,5.84-14,17.73-22.6,34.27-22.6,18.86,0,36.12,11.43,36.12,36.33v48.05Z"/></svg>