<svg id="Layer_1" data-name="Layer 1" xmlns="http://www.w3.org/2000/svg" width="850" height="73.79" viewBox="0 0 850 73.79"><defs><style>.cls-1{fill:#68e0cf;}.cls-2{fill:#5677ff;}</style></defs><title>reactvancouver</title><g id="logotype-light-background"><path id="Path" class="cls-1" d="M3.4,27.81l32.47-21V18l-22.29,14v.34l22.29,14V57.43L3.4,36.39Z"/><path id="Combined_Shape" data-name="Combined Shape" class="cls-1" d="M61.59,60H49.23V5.17H68.67a38.31,38.31,0,0,1,8.2.85,19.07,19.07,0,0,1,6.74,2.82,13.93,13.93,0,0,1,4.58,5.26,17.78,17.78,0,0,1,1.68,8.16,17.3,17.3,0,0,1-2.69,10,16.56,16.56,0,0,1-7.07,5.84L92.47,60H78.59L68.08,40.26H61.59V60Zm0-45v15.4h6.06a11.79,11.79,0,0,0,7.51-2,7.47,7.47,0,0,0,2.5-6.13,6.15,6.15,0,0,0-2.52-5.63A14.25,14.25,0,0,0,67.65,15Z"/><path id="Combined_Shape-2" data-name="Combined Shape-2" class="cls-1" d="M120.81,61a27.31,27.31,0,0,1-9.09-1.47,21.4,21.4,0,0,1-7.31-4.29,20.44,20.44,0,0,1-4.93-6.86,22.62,22.62,0,0,1-1.81-9.25A22.38,22.38,0,0,1,99.48,30a21.07,21.07,0,0,1,4.84-6.86,21.35,21.35,0,0,1,6.94-4.33,23.46,23.46,0,0,1,16.62,0A16.75,16.75,0,0,1,134,23a18.33,18.33,0,0,1,3.7,6.36,24.1,24.1,0,0,1,1.26,8,28.41,28.41,0,0,1-.17,3.19,20.78,20.78,0,0,1-.34,2.27H110.38a8.92,8.92,0,0,0,4.08,6.78,15.4,15.4,0,0,0,8,2.06,19.9,19.9,0,0,0,5.43-.72,28.36,28.36,0,0,0,5.34-2.14l4,7.4a30.94,30.94,0,0,1-7.9,3.58A30.16,30.16,0,0,1,120.81,61Zm-1.18-34.33a9.85,9.85,0,0,0-6,1.94,9.49,9.49,0,0,0-3.45,6h17.58a8.39,8.39,0,0,0-1.93-5.72A8,8,0,0,0,119.63,26.71Z"/><path id="Combined_Shape-3" data-name="Combined Shape-3" class="cls-1" d="M161.59,61a16.18,16.18,0,0,1-5.72-1,12.43,12.43,0,0,1-4.29-2.7,12,12,0,0,1-2.73-4,12.51,12.51,0,0,1-1-5,11.3,11.3,0,0,1,6.35-10.68,31.32,31.32,0,0,1,8.54-3,83.69,83.69,0,0,1,12.62-1.56,6.2,6.2,0,0,0-2.48-4.46,10.73,10.73,0,0,0-6.44-1.6,18.94,18.94,0,0,0-6.1,1.05,54.83,54.83,0,0,0-6.6,2.83l-4.38-8.08a49.41,49.41,0,0,1,9.22-4,33.33,33.33,0,0,1,10.3-1.6,19.72,19.72,0,0,1,13.8,4.63c3.35,3.07,5,7.85,5,14.22V60h-10.1l-.92-4.71h-.34a33.28,33.28,0,0,1-7,4.08A19.44,19.44,0,0,1,161.59,61Zm13.8-20.44a57.92,57.92,0,0,0-7.65.84,19.19,19.19,0,0,0-4.8,1.47A5.92,5.92,0,0,0,160.46,45a4.82,4.82,0,0,0-.72,2.53,3.28,3.28,0,0,0,1.56,3,8,8,0,0,0,4.25,1,12.17,12.17,0,0,0,5.21-1.14,24.54,24.54,0,0,0,4.63-2.81V40.6Z"/><path id="Path-2" class="cls-1" d="M198.09,39.17a21.17,21.17,0,0,1,2-9.3A20.46,20.46,0,0,1,205.37,23a23.86,23.86,0,0,1,7.69-4.25,28.92,28.92,0,0,1,9.18-1.47,24.08,24.08,0,0,1,9,1.6,22,22,0,0,1,6.69,4l-5.73,7.65a16,16,0,0,0-9.25-3.28,12.24,12.24,0,0,0-8.76,3.2,11.41,11.41,0,0,0-3.36,8.67A11.64,11.64,0,0,0,214,47.83a11.51,11.51,0,0,0,8.46,3.2,15.36,15.36,0,0,0,6.06-1.18,24.86,24.86,0,0,0,5-2.77l5.05,7.82a24.58,24.58,0,0,1-8.37,4.67A28.84,28.84,0,0,1,221.31,61a27.74,27.74,0,0,1-9.17-1.47,22.24,22.24,0,0,1-7.36-4.25,19.09,19.09,0,0,1-4.92-6.86A23.14,23.14,0,0,1,198.09,39.17Z"/><path id="Path-3" class="cls-1" d="M256.8,28H246.28V18.81l11.1-.51L259,7.19h10.19V18.3h17.66V28H269.16V42.61q0,4.8,2.11,6.77a9.41,9.41,0,0,0,6.64,2,22.34,22.34,0,0,0,4.47-.42,28.88,28.88,0,0,0,3.87-1.09l2.19,8.92c-1.85.56-3.92,1.07-6.19,1.55a35.75,35.75,0,0,1-7.44.72,23.2,23.2,0,0,1-8.42-1.35,14.41,14.41,0,0,1-5.6-3.73,14.11,14.11,0,0,1-3.07-5.76,28.31,28.31,0,0,1-.92-7.49Z"/><path id="Path-4" class="cls-2" d="M300,4.92h8.92l8.33,28.69q1.44,4.8,2.53,9t2.52,9h.34q1.52-4.8,2.61-9t2.53-9L336,4.92h8.58L327.22,60h-9.85Z"/><path id="Combined_Shape-4" data-name="Combined Shape-4" class="cls-2" d="M361.84,61a17.46,17.46,0,0,1-5.51-.84,13.39,13.39,0,0,1-4.42-2.4,11.62,11.62,0,0,1-2.31-14.68,13.16,13.16,0,0,1,5.13-4.46,35,35,0,0,1,9-3A100.21,100.21,0,0,1,377,33.87a10.36,10.36,0,0,0-2.48-6.48c-1.53-1.79-4.15-2.7-7.78-2.7a19.87,19.87,0,0,0-7.35,1.43,51.61,51.61,0,0,0-6.61,3.2l-3.11-5.63c1.13-.69,2.4-1.38,3.78-2.07a38.64,38.64,0,0,1,4.51-1.88,37.14,37.14,0,0,1,5-1.36,28.23,28.23,0,0,1,5.26-.5c5.69,0,10,1.56,12.88,4.63a18.17,18.17,0,0,1,4.29,12.79V60H378.5l-.67-5.3h-.25a38.94,38.94,0,0,1-7.36,4.42A19.74,19.74,0,0,1,361.84,61ZM377,39.17a92.82,92.82,0,0,0-10.09,1.31,25.12,25.12,0,0,0-6.44,2,8.72,8.72,0,0,0-3.4,2.73,5.93,5.93,0,0,0-1,3.37,4.71,4.71,0,0,0,2.4,4.46,11.67,11.67,0,0,0,5.76,1.35A15.55,15.55,0,0,0,370.63,53a29.46,29.46,0,0,0,6.35-4Z"/><path id="Path-5" class="cls-2" d="M398.67,18.89h6.82l.67,6.65h.34a35.21,35.21,0,0,1,6.73-5.43,15.72,15.72,0,0,1,8.41-2.23q7.23,0,10.6,4.29t3.37,12.37V60h-8.33V35.63a13.23,13.23,0,0,0-1.94-8c-1.29-1.71-3.5-2.56-6.65-2.56a10.8,10.8,0,0,0-5.88,1.64A32.91,32.91,0,0,0,407,31.68V60h-8.33Z"/><path id="Path-6" class="cls-2" d="M447.36,39.5a21.93,21.93,0,0,1,1.85-9.17,20,20,0,0,1,5.05-6.81,21.91,21.91,0,0,1,7.37-4.21,27,27,0,0,1,8.87-1.43,21.13,21.13,0,0,1,8.84,1.72,22.34,22.34,0,0,1,6.31,4.17l-4,5.3a21,21,0,0,0-5.06-3.15,13.83,13.83,0,0,0-5.63-1.14,17.14,17.14,0,0,0-6.06,1,13.66,13.66,0,0,0-4.75,3A13.27,13.27,0,0,0,457,33.49a15.84,15.84,0,0,0-1.09,6,16.65,16.65,0,0,0,1.05,6,12.91,12.91,0,0,0,3,4.67,13.87,13.87,0,0,0,4.67,3,16.23,16.23,0,0,0,6,1,15.74,15.74,0,0,0,6.82-1.43A26.14,26.14,0,0,0,483,49.34l3.53,5.39a26.68,26.68,0,0,1-7.74,4.66A23.65,23.65,0,0,1,470,61,27.22,27.22,0,0,1,461,59.61a20.34,20.34,0,0,1-7.2-4.21,19.63,19.63,0,0,1-4.76-6.77A22.84,22.84,0,0,1,447.36,39.5Z"/><path id="Combined_Shape-5" data-name="Combined Shape-5" class="cls-2" d="M515.91,61a21.37,21.37,0,0,1-7.74-1.43,19.51,19.51,0,0,1-6.56-4.21,20.27,20.27,0,0,1-4.54-6.77,23.38,23.38,0,0,1-1.69-9.13,23.8,23.8,0,0,1,1.69-9.17,20.19,20.19,0,0,1,4.54-6.81,19.36,19.36,0,0,1,6.56-4.21,21.63,21.63,0,0,1,15.48,0,19.36,19.36,0,0,1,6.56,4.21,20.21,20.21,0,0,1,4.55,6.81,23.79,23.79,0,0,1,1.68,9.17,23.55,23.55,0,0,1-1.68,9.13,20.34,20.34,0,0,1-4.55,6.78,19.33,19.33,0,0,1-6.56,4.2A21.33,21.33,0,0,1,515.91,61Zm0-36.26a10.59,10.59,0,0,0-8.75,4A16.8,16.8,0,0,0,504,39.5a16.84,16.84,0,0,0,3.19,10.69,11.52,11.52,0,0,0,17.52,0,16.78,16.78,0,0,0,3.19-10.69,16.75,16.75,0,0,0-3.21-10.68A10.61,10.61,0,0,0,515.91,24.78Z"/><path id="Path-7" class="cls-2" d="M583.29,60h-6.82l-.67-6.81h-.35a27.21,27.21,0,0,1-6.6,5.68A15.83,15.83,0,0,1,560.57,61q-7.32,0-10.69-4.25t-3.36-12.41V18.89h8.33v24.4a13.4,13.4,0,0,0,1.93,8q1.94,2.57,6.65,2.57a11.38,11.38,0,0,0,5.85-1.56A22.71,22.71,0,0,0,575,47.08V18.89h8.33Z"/><path id="Path-8" class="cls-2" d="M594,18.89h8.41L611,41.27c.79,2.08,1.53,4.12,2.23,6.14s1.42,4,2.15,6.06h.34q1.1-3,2.11-6.06c.67-2,1.4-4.06,2.18-6.14l8.66-22.38h8L620.21,60h-9.43Z"/><path id="Combined_Shape-6" data-name="Combined Shape-6" class="cls-2" d="M667.55,61a25.59,25.59,0,0,1-8.71-1.47,20.85,20.85,0,0,1-7.11-4.25A19.63,19.63,0,0,1,647,48.55a22.67,22.67,0,0,1-1.72-9,22.13,22.13,0,0,1,1.77-9,21.31,21.31,0,0,1,4.71-6.82,20.39,20.39,0,0,1,6.73-4.29,21.63,21.63,0,0,1,7.83-1.47,21.21,21.21,0,0,1,8,1.43A16.56,16.56,0,0,1,684,29.44a23.39,23.39,0,0,1,1.27,7.87,21.44,21.44,0,0,1-.13,2.4c-.07.64-.16,1.27-.29,1.89h-31a13,13,0,0,0,4.49,9.47,15.66,15.66,0,0,0,10.31,3.41,20.47,20.47,0,0,0,6.26-.93,26.29,26.29,0,0,0,5.68-2.6l2.95,5.3a34.85,34.85,0,0,1-7.2,3.4A26.75,26.75,0,0,1,667.55,61Zm-1.1-36.6a12.75,12.75,0,0,0-8.24,2.95,13,13,0,0,0-4.46,8.49h23.73a11.76,11.76,0,0,0-2.87-8.49A10.89,10.89,0,0,0,666.45,24.44Z"/><path id="Path-9" class="cls-2" d="M699.38,18.89h6.9l.67,9.59h.25A23.86,23.86,0,0,1,715,20.66a19.14,19.14,0,0,1,10.14-2.78,21.33,21.33,0,0,1,4.29.38,16.9,16.9,0,0,1,3.78,1.3l-1.85,7.15c-1.4-.44-2.61-.78-3.62-1a18.57,18.57,0,0,0-3.87-.34,16.13,16.13,0,0,0-8.58,2.53,22.85,22.85,0,0,0-7.57,8.75V60h-8.33Z"/><path id="Path-10" class="cls-1" d="M767.35,73.49H757L784.68.29H795Z"/><path id="Path-11" class="cls-1" d="M846.6,36.39l-32.47,21V46.23l22.29-14v-.35L814.13,18V6.77l32.47,21Z"/></g></svg>