<svg id="Layer_1" data-name="Layer 1" xmlns="http://www.w3.org/2000/svg" width="850" height="122.86" viewBox="0 0 850 122.86"><defs><style>.cls-1{fill:#474c55;}.cls-2{fill:#ee3124;}</style></defs><title>saucelabs</title><path class="cls-1" d="M149.57,97.84l5.07-7.4a2.54,2.54,0,0,1,4-.52c3.25,2.73,8.19,6.75,16.11,6.75,5.85,0,11.57-4.55,11.57-11,0-5.72-3.9-9.49-11.18-14.3-8.57-5.59-18.71-13-18.71-26s9-27,29.37-27c12.09,0,20.92,6.24,23.13,8.45a3.69,3.69,0,0,1,.39,5.2l-5.07,7.15c-1,1.55-2.73,1.68-4.54.25-4-3.24-8.06-5.71-14.69-5.71S174,38.71,174,43.78s3.51,7.8,11.31,13c8.58,5.72,20,12.86,20,27.16,0,15.2-11.82,27.94-31.06,27.94-12.21,0-20.66-6.37-24.69-10.14C148.79,101,148.14,99.79,149.57,97.84Z"/><path class="cls-1" d="M213.52,107.2l48.86-87.46a2.4,2.4,0,0,1,2.21-1.43h1.17a2,2,0,0,1,1.82,1.43l23.91,87.46a2.57,2.57,0,0,1-2.47,3.38H277.71c-1.95,0-3-.65-3.38-2.6l-3.25-14.43H238.73L231.19,108a4.64,4.64,0,0,1-4.16,2.6h-12C213.26,110.58,212.61,108.89,213.52,107.2Zm53.41-27.68-6.11-28.33h-.26L246.39,79.52Z"/><path class="cls-1" d="M316.44,22.08a2.89,2.89,0,0,1,2.6-2.47h12.87a2.07,2.07,0,0,1,1.95,2.47l-7.8,54.71A23.07,23.07,0,0,0,325.8,81c0,8.58,4.42,13.77,13.26,13.77,10.65,0,16.63-6.88,18.19-17.8l7.8-54.84a2.78,2.78,0,0,1,2.59-2.47h12.87a2.15,2.15,0,0,1,1.95,2.47L374.53,77.7c-2.73,19.75-16.5,34.18-36.77,34.18-17.42,0-29.63-12-29.63-29a36.35,36.35,0,0,1,.39-5.2Z"/><path class="cls-1" d="M445.1,18.31a34.91,34.91,0,0,1,27,12.35,2.69,2.69,0,0,1-.52,3.64l-7,6.75a2.94,2.94,0,0,1-4.29,0,23.43,23.43,0,0,0-16.12-6.49c-15.59,0-29.1,16.11-29.1,34.69,0,13.78,7.4,25.6,19.88,25.6,7.54,0,13.38-3.76,17.8-7.66,1.69-1.43,3.12-1.17,4.16.13l6.76,8.44c.65.91.26,2.6-.65,3.51-9.1,8.71-19,12.61-29.37,12.61-22.48,0-37-18.07-37-40.42C396.63,40.92,418.2,18.31,445.1,18.31Z"/><path class="cls-1" d="M496.57,22.08A2.77,2.77,0,0,1,499,19.61h48.08a2.07,2.07,0,0,1,2,2.47l-1.56,10.66a2.77,2.77,0,0,1-2.6,2.47H511.65l-3,21.31h27.55A2.15,2.15,0,0,1,538.16,59L536.6,69.77a2.88,2.88,0,0,1-2.6,2.47H506.45L503.2,95h33.4c1.3,0,1.95,1.17,1.82,2.47L537,108.11a2.78,2.78,0,0,1-2.6,2.47H486.31a1.93,1.93,0,0,1-1.82-2.47Z"/><path class="cls-2" d="M580,22.08a2.89,2.89,0,0,1,2.6-2.47h5.59a2.15,2.15,0,0,1,1.94,2.47l-11.3,79.79H612a2.06,2.06,0,0,1,1.82,2.47l-.52,3.77a2.89,2.89,0,0,1-2.6,2.47H569.87a2.07,2.07,0,0,1-2-2.47Z"/><path class="cls-2" d="M624.46,107.2l47.95-87.46a2.48,2.48,0,0,1,2.21-1.43h1.17a2,2,0,0,1,1.82,1.43l23.13,87.46a2.68,2.68,0,0,1-2.47,3.38h-5.46a1.89,1.89,0,0,1-1.94-1.43l-5.2-21.44H645.12l-11,21.44a2.82,2.82,0,0,1-2.47,1.43H626C624.2,110.58,623.55,108.89,624.46,107.2ZM683.2,79.65,672.93,37h-.78L649.93,79.65Z"/><path class="cls-2" d="M763.64,64.84c5.07,2.72,11.05,8.18,11.05,17.67,0,16-11.3,28.07-29.24,28.07h-26.9a2.07,2.07,0,0,1-1.95-2.47l12.09-86a2.89,2.89,0,0,1,2.6-2.47h25.86c12.86,0,20.92,9.36,20.92,20.66,0,12.61-6.89,20.28-14.43,24.17Zm-16.37,37c9,0,16.5-8.32,16.5-18.45a13.63,13.63,0,0,0-13.9-14H731.68l-4.55,32.49Zm3.9-41.45c9.61,0,15.85-7.67,15.85-19.11,0-7.53-3.9-12.73-11.43-12.73H737.65l-4.54,31.84Z"/><path class="cls-2" d="M790.68,96.93l2.08-2.21c1.56-1.56,2.6-2.07,4.16-.64,3.9,3.5,8.32,9.09,19.23,9.09,8.58,0,16.38-5.72,16.38-15.72,0-8.19-6.11-13-16.9-19.24-10.39-6-17.41-11.69-17.41-23.65,0-10.91,6.89-26.25,28.2-26.25a33.29,33.29,0,0,1,20.14,6.63c.65.52,1.82,1.95.13,4.42l-1.43,2.08c-1.3,1.82-2.6,2.34-4.29,1.17-4.28-3-9.22-5.59-15.46-5.59-11.17,0-17.41,8.84-17.41,16.37,0,7.28,4.93,12.09,13.12,16.51,12.48,6.75,22,13.12,22,26.51,0,14.42-10.39,25.47-28.46,25.47-13,0-20.53-7.41-24.3-11.18C789.51,99.79,789,98.62,790.68,96.93Z"/><path class="cls-2" d="M16.8,78.47a47.12,47.12,0,0,1-3.14-17A47.71,47.71,0,0,1,68.12,14.27l-5.38,5.39c-.49,0-1,0-1.46,0a41.85,41.85,0,0,0-41.8,41.8A42.39,42.39,0,0,0,21.05,72.8H57.62L42.35,101.61l37-37.34H29L85.5,7.81A58.83,58.83,0,0,0,30.6,111.62L48.17,78.49Z"/><path class="cls-2" d="M92,11.24,74.38,44.38h31.36a47.64,47.64,0,0,1-51.43,64.18l5.32-5.37c.55,0,1.1,0,1.65,0a41.85,41.85,0,0,0,41.8-41.8,46.85,46.85,0,0,0-1.57-11.37H64.93L80.21,21.25,42.67,58.59H93.08l-56,56.46A58.83,58.83,0,0,0,92,11.24Z"/></svg>