<svg id="Layer_1" data-name="Layer 1" xmlns="http://www.w3.org/2000/svg" width="850" height="850" viewBox="0 0 850 850"><defs><style>.cls-1{fill:#5d9630;}.cls-2{fill:#373737;}.cls-3{fill-opacity:0;stroke:#000;stroke-opacity:0;stroke-width:2.11px;}</style></defs><title>seattlejs</title><path id="a1yJdMZ4fs" class="cls-1" d="M2,2H848V848H2Z"/><path id="c46x2urSi" class="cls-2" d="M194.55,638.25h.11l.11,0,.1,0,.11,0,.08,0,.09,0,.06,0,.08,0,.07,0,.06,0,.07,0,.06,0,0,0,0,0,.05,0,0,0,0,0,0,0,0,0,0,0,0,0,0,0v0l0,0,0,0,0,.05v.06l0,0v.06l0,0v0h0v16.92h-.78l.09,0h.08l.09,0,.08,0h.08l.09,0,.08,0,.09,0,.1,0,.09,0,.08,0,.09,0,.08,0,.09.06.08,0,.06.06.09,0,.08.06.07,0,.08.07.07.06.08.06.06.07.07.08.06.06.06.07,0,.08.06.07,0,.08,0,.06,0,.09,0,.06,0,.09,0,.08,0,.06,0,.09v.08l0,.07v.5l-.43.43h.17l0,0h.17l0,0h.07l0,0h0l0,0h0l0,0h0l0,0h0l0,0,.05,0h0l0,0h0l.07,0,0,0h0l.06,0,.07,0,.06,0h.06l.09,0,.08,0h.09l.08,0,.11,0,.1,0h.13l.13,0v.64l.1.06.13.06.11.09.1.06.11.06.08.07.09.08.08.07.06.06.07.08.06.07.07.06.06.08,0,.07,0,.06.05.09,0,.06,0,.06,0,.07,0,.06,0,.06,0,.07v.06l0,.06,0,0v.1l0,0v.26h0v0h.19l.19,0h.19l.17,0,.15,0,.17,0,.12.05.15,0,.11,0,.12,0,.11,0,.08,0,.11.06.06,0,.09,0,.06.06,0,0,.07.06,0,.07,0,0,0,.06,0,.05v.21l0,.06,0,0,0,0,0,0,0,0,0,0-.06,0-.07,0-.06,0-.06,0-.09,0-.08,0h-.17l-.17,0-.15,0-.15,0-.14,0-.15.06-.13.09-.13.08-.12.09-.13.08-.13.11-.12.1-.11.11-.11.12-.1.11-.11.13-.08.12-.11.13-.08.15-.09.13-.08.12-.09.13-.06.13-.06.12-.07.13-.06.13-.06.12-.07.11,0,.11,0,.1,0,.11,0,.08,0,.09,0,.08,0,.06,0,.07,0,.06,0,0v0l.31.12.26.11.29.1.38.15.41.15.48.19.51.19.55.21.61.24.64.25.65.25.7.26.72.27.72.3.76.27.76.3.76.29.79.32.78.3.76.29.78.3.74.3.74.29.74.28.7.27.68.28.63.25.62.25.59.24.53.21.48.19.45.19.38.17.34.13.27.12.21.09.13.08.06,0,0,.05,0,.06v0l0,.07v.44l0,0v.13l0,0v.06l0,0v.06l0,0v.07l0,0,0,0v0l0,.07v0l0,0,0,0v0l0,.05v0l0,0v0l0,.05,0,0h.45l.4,0h.36l.36,0,.31,0,.3,0,.28,0,.25,0,.23,0,.19.06.19,0,.17.07.13,0,.13.06.1.07.09.06.06.06.06.07,0,.06,0,.06v.15l0,.06,0,.07,0,.06-.06.07-.07.06-.08.06-.09.07-.08.06-.11,0-.12.06-.11,0-.13,0-.12,0-.13,0-.15.05-.13,0-.14,0-.15,0h-.68l-.23,0h-.47l-.23,0h-.23l-.26,0-.23,0-.25,0h-.23l-.26,0-.23,0-.25,0-.24,0-.25,0-.23,0-.24,0-.25,0-.23,0-.24,0-.23,0-.23.05-.23,0-.22,0-.23,0-.21,0-.21.07-.21,0-.21,0-.22,0-.19.07-.21,0-.19.06-.17.07-.19,0-.17.06-.17.07-.16.06-.09.1-.08.13-.09.11L213,681l-.07.13-.06.13-.06.12-.07.13,0,.13,0,.13,0,.12,0,.13,0,.13,0,.12,0,.13,0,.13v.1l0,.13,0,.13v.23l0,.1v.41l0,.08V684l0,.07v.17l0,0v.11l.93.06.8.08.68.09.55.1.47.11.36.11.25.12.17.13.08.15v.12l-.08.15-.15.15-.21.15-.3.17-.31.15-.39.16-.44.15-.46.17-.51.15-.53.17-.55.15-.59.17-.6.14-.59.15-.61.15-.59.13-.62.15-.57.12-.57.13-.55.11-.51.1-.48.11-.47.08-.4.09-.36.06-.3.06-.25,0-.17,0-.13,0h0l-.36.59-.33.72-.34.87-.32,1-.3,1.08-.27,1.2-.28,1.32-.25,1.39-.23,1.5-.23,1.59-.22,1.67-.21,1.73-.19,1.8-.17,1.88-.17,1.93-.17,2-.14,2-.13,2.07-.13,2.09-.1,2.12-.11,2.15-.1,2.16-.09,2.18-.08,2.18-.07,2.18-.06,2.15-.06,2.16-.05,2.14,0,2.11,0,2.08,0,2,0,2,0,2,0,1.9v6.9l0,1.54,0,1.44h9.94v22.63l6.74-2.75v-8h3.39V771l2.11,2.11,2.12-2.54h1.69l1.06,3.39h7v-34h13.53v-1.69h1.69v1.69h6.77v-3.39h3.39v3.39h1.69v23.9h8.46V723h7.19l4.86-8v-3.8h3.39v3.59L289.9,723h7.8v25.59H307l3.8,15.23h7.41v31.09l5.71-3.18,1.05-9.09h4.87l1.69,8.46,4.86,4,0,0h.25l.19,0h1.27l.42,0,.45,0,.48,0,.51.06.53.09.57.08.57.13.59.13.6.17.61.19.61.23.62.25.63.28.61.31.6.36.61.41.57.44.57.49.55.53.51.57.51.61.46.68.45.74.38.78.38.85.31.88.28,1,.21,1,.17,1.1.13,1.14.06,1.23v1.31l0,0,.07,0,.08.08.08.09.13.12.15.13.17.15.17.15.21.16.21.19.25.2.26.21.27.21.3.23.3.23.31.24.34.23.36.23.36.26.38.23.4.23.4.25.43.24.42.23.44.23.45.21.46.22.47.21.46.19.49.17.51.17.49.16.5.13.53.13.51.1.53.09.53.08.53.05.55,0,11.2-4,.22-5.92h0l0,0v-.39l0-.1v-.11l0-.12,0-.13,0-.13,0-.12,0-.15.07-.15,0-.15.06-.15L378,806l.08-.17.08-.15.11-.15.11-.17.12-.15.13-.15.15-.14.15-.13.19-.15.19-.12.19-.13.21-.13.25-.1.26-.11.25-.08.3-.09.29-.06.34-.07.34-.06.36,0,.38,0,.57,0,.53,0h1.56l.49,0,.51,0h1.39l.45,0h.42l.42,0,.41,0h.4l.38,0,.36,0,.36,0,.34,0,.33,0,.3,0,.32,0,.27,0,.28,0,.25,0h.26l.21,0,.21,0,.19,0,.19,0,.17,0h.15l.12,0,.11,0h.1l.09,0h.13v0h.29l.11,0h.1l.13,0,.13,0,.15,0,.14,0,.15,0,.17,0,.17,0,.17.07.19,0,.17.08.19.07.17.08.19.09.19.1.17.11.17.12.19.13.17.15.15.15.16.17.15.17.13.19.15.21.1.21.13.23.08.26.09.25.08.27.07.3,0,.3,0,.31v12h16.71v0l0-.08,0-.13,0-.17.08-.23.11-.25.1-.32.15-.34.15-.38.19-.4.21-.45.23-.46.28-.49.27-.51.34-.52.34-.53.38-.57.4-.57.45-.58.48-.57.51-.59.53-.59.59-.57.61-.57.66-.57.7-.58.72-.52.78-.53.82-.53.85-.49.91-.46.95-.45,1-.4,1.06-.38,1.08-.34,1.14-.32,1.17-.27,1.24-.21,1.29-.19,1.34-.13h0l0,0-.08.09-.11.08-.12.13-.15.17-.17.17-.19.21-.21.21-.24.25-.25.28-.25.27-.28.32-.27.32-.3.36-.3.36-.29.38-.3.38-.29.42-.32.4-.3.45-.29.44-.28.47-.3.46-.27.47-.25.48-.26.51-.23.49-.21.51-.21.5-.17.51-.17.53-.13.51-.1.53-.09.5-.06.53,0,.53v.51l0,.51.08.5h0l0-.06.05-.06,0-.13,0-.13.09-.17.08-.19.09-.21.12-.25.13-.25.13-.28.17-.32.16-.31.19-.34.22-.36.21-.38.23-.38.28-.41.27-.42.28-.42.31-.42.34-.45.34-.44.36-.47.4-.44.4-.47.43-.46.44-.47.46-.46.49-.47.53-.46.53-.47.55-.44.57-.45.61-.44.62-.45.63-.42.68-.4.7-.4.71-.38h52.46l.08,0,.13,0,.19.09.21.1.27.13.3.15.34.17.38.19.4.21.44.23.47.25.49.26.53.29.52.32.55.32.58.34.57.36.59.38.61.4.59.4.62.45.61.44.59.46.62.47.59.49.59.5.57.53.57.53.53.55.53.55.51.57.48.59.45.6.42.61.4.61.36.64.32.63.27.66.26.65v0l0-.06,0-.09,0-.14,0-.17-.08-.21-.09-.24-.08-.27-.13-.3-.13-.34-.12-.34-.17-.38-.17-.4-.19-.42-.21-.44-.22-.47-.25-.47-.25-.5-.28-.51-.29-.51-.3-.53-.34-.53-.34-.55-.38-.55-.38-.55-.4-.57-.42-.55-.45-.55-.46-.55-.51-.55-.51-.55-.53-.55-.55-.5-.57-.53-.61-.51-.61-.49-.66-.48-.66-.47-.69-.42-.72-.42,0,0h.11l.19,0,.27,0,.32,0,.4,0,.44,0,.51,0h1.16l.66,0,.7,0,.74,0,.76.07.8.06.85.11.87.12.88.13.89.19.93.19.93.23,1,.28,1,.29.95.34.93.38.95.43,1,.46.91.51.93.57.89.59.87.68.87.7.82.78.78.82.76.89.72,1,.68,1,.64,1.08.59,1.14.53,1.21v-5.93h11l1.7-11.82h4.23v-3.38h7.59v-.11l0,0v-.4l0-.09v-.1l0-.13,0-.11,0-.12,0-.13.06-.13.06-.12.07-.15.08-.13.11-.13.12-.14.13-.13.15-.13.15-.15.19-.12.19-.13.21-.13.23-.1.26-.13.27-.1.28-.11.31-.11.34-.08.38-.08.38-.07.4-.08.45-.05.46-.06.49,0V779.49h6.56l2.11-3.39H580V752.2h3.39l1.69-6.76h5.08l0-.87.08-.83.13-.76.17-.74.23-.69.25-.64.3-.61.34-.55.36-.53.4-.47.42-.42.45-.4.46-.34.49-.3.51-.27.52-.21.53-.17.53-.15.55-.08.55-.07H598l.55,0,.53.09.53.1.53.15.51.19.48.23.47.28.44.32.42.36.41.38.36.44.33.47.3.5.25.55.24.6.17.61.12.68.09.69,0,.74h2.11v8.46h3.39V759h3.38v5.08h7v6.77H624v-3.39h5.08V755.8l32.34.21v28.34h3.38V713.73l3.39-3.17v-12.9h1.69v15.23h3.38V709.5h5.08V718h23.9v44.18h3.38v-29h5.08v-1.69h1.69v1.69h11.82v52.66h30.67V796h3.38l1.48,3.39h3.6V792.6h-2.54l1.9-3.38h7.41v-3.39h5.07v-6.77h2.75l1.27-6.76h4.23l.42-5.71v-1.27h1.7v3.38H794v1.69h1.7v3.39h4.86l1.27,6.76h4v27.27h13.09L820,809.5h4.65v23.9H828l1.7,1.69h1.9l1.48,1.69h2.12l2.32,3.39h3.81l1.9,1.69h1.27l2.12,4.23v.21H850V848H0l13.32-10.15H24.11l0,0,.07-.07.08-.06.11-.11.12-.1.15-.15.17-.15L25,837l.19-.19.21-.21.24-.25.23-.26.23-.27.25-.3.28-.29.25-.34.28-.34.27-.36.28-.38.27-.4.28-.43.27-.42.28-.44.27-.47.26-.46.25-.49.25-.51.24-.53.23-.53.21-.55.21-.57.17-.57.17-.59.15-.59.15-.62.1-.63.09-.63.08-.64,0-.68v0l0,.08,0,.11,0,.14,0,.19.06.24.07.25.08.3.09.31.08.36.13.36.1.38.13.43.15.42.15.42.17.45.19.46.19.45.19.46.23.47.21.44.25.47.26.44.25.44.3.43.29.4.3.38.32.38.34.34.36.34.36.27.38.28.38.23.42.19.42.17.43.11.46.08.47,0,.48,0,.51-.06V804h5V790.49H59.62V763.2h3.81L70,754.74v-3.38h5.08v2.54l7.61,7.4,5.93.21v39.34h8.46V782.24h29v30.64h5.05V733h29.19v15.23l6.77,4.86v14h20.3v-1.1l0-.83V764l0-1.23v-1.42l0-1.58V749.65l0-2.39,0-2.48,0-2.54,0-2.62,0-2.66-.07-2.71-.06-2.73-.08-2.77L187,726l-.1-2.75-.11-2.73-.13-2.7-.14-2.67-.17-2.6-.17-2.54-.19-2.45-.21-2.37-.24-2.26-.25-2.14-.25-2-.3-1.88-.32-1.74-.34-1.56-.36-1.38-.38-1.2-.4-1-.42-.78,0,0-.11,0-.19,0-.25-.07-.3-.06-.36-.06-.4-.11-.45-.08-.48-.11-.53-.13-.53-.12-.57-.13-.59-.15-.59-.15-.6-.14-.61-.15-.59-.17-.59-.17-.58-.17-.55-.17-.52-.17-.51-.17-.47-.17-.42-.17-.38-.17L171,686l-.27-.17-.21-.15-.15-.15-.07-.15v-.15l.11-.14.17-.13.27-.11.36-.12.47-.09.59-.1.68-.07.82-.08.93,0v-.05l0,0v0l0,0v0l0-.07V684l0-.07v-.08l0-.08v-.09l0-.08v-.11l0-.08v-.81l0-.1v-.13l0-.13,0-.12,0-.13,0-.13,0-.12,0-.13,0-.13,0-.13-.07-.12-.06-.13-.06-.13-.07-.12-.08-.11-.09-.13-.08-.1-.17-.06-.17-.07-.17-.06-.17,0-.19-.07-.19,0-.19,0-.21-.07-.19,0-.21,0-.21,0-.22,0-.23,0-.21,0-.23,0-.24,0-.23,0-.23,0-.23,0-.24,0-.23,0-.25,0-.23,0-.24,0-.25,0-.23,0-.26,0-.23,0-.25,0-.24,0-.25,0-.23,0-.24,0h-.25l-.23,0-.23,0-.47,0h-.21l-.23,0H165l-.13,0h-.15l-.12,0-.15,0-.13,0-.1,0-.13,0L164,679l-.1,0-.11-.06-.08,0-.07-.07-.08-.06,0-.06-.07-.09,0-.06,0-.06,0-.09v-.06l0-.07,0-.08,0-.06.07-.07.08-.08.11-.06.13-.07.14-.06.15,0,.19-.07.21,0,.21-.06.26,0,.27,0,.3,0,.32,0,.36,0h.38l.4,0h.42v0l0-.05,0,0v0l0,0,0,0v-.05l0,0,0,0,0-.06,0,0v-.05l0,0,0-.06,0,0,0-.07v0l0-.06,0-.07,0,0v-.06l0-.07v-.1l0-.07V676l0,0v-.06l0,0v0l0,0,0,0,0,0,0-.05.06-.08.13-.08.19-.13.26-.15.31-.15.38-.19.45-.19.48-.21.53-.23.57-.24.62-.25.63-.25.68-.28.7-.27.74-.28.74-.27.76-.3.76-.29.78-.3.78-.3.79-.29.76-.28.78-.29.74-.28.74-.27.72-.28.7-.25.67-.24.64-.23.61-.23.55-.19.53-.19.47-.17.42-.15.38-.15.3-.1.25-.09.19-.06.15-.06,0,0v0l0,0,0-.06,0-.07,0-.06,0-.08,0-.09,0-.08,0-.11,0-.1,0-.11-.06-.11,0-.12-.06-.13-.06-.13-.09-.12-.06-.13-.09-.13-.08-.12-.08-.13-.09-.15-.08-.13-.11-.12-.1-.13-.11-.11-.11-.12-.1-.11-.13-.1-.1-.11-.13-.08-.13-.09-.15-.08-.12-.09-.15-.06-.15,0-.15,0-.15,0-.14,0h-.19l-.09,0-.08,0h-.09l-.06,0-.06,0-.07,0-.06,0-.07,0,0,0,0,0,0,0,0,0,0,0,0-.06,0-.05v-.1l0-.05,0-.06,0,0,0,0,0-.07.06,0,.05-.06.08,0,.09,0,.08-.06.11,0,.1,0,.13,0,.13,0,.14,0,.17,0,.15,0,.19-.05.19,0,.21,0,.22,0v0h0v-.06l0,0v-.38l0-.06v0l0-.07,0-.06,0-.06,0-.07,0-.06,0-.06,0-.07,0-.08.06-.06,0-.09.06-.06.07-.09.06-.06.07-.08.08-.07.08-.08.11-.09.08-.08.13-.07.11-.08.12-.08v-1.08h0v0l0,0v0l0,0v0l0,0v0l0,0,0,0v0l0,0,0,0,0,0,0,0,0,0,0,0,0,0h0l0,0,0,0,0,0,0,0,0,0h0l0,0,0,0h0l0,0,0,0h0l0,0h.08l.05,0h.14l.05,0h.12l0,0h.06l0,0h0l0,0h0l0,0,0,0h0l0,0,0,0h0l0,0,0,0,0,0,0,0,0,0,0,0,0,0,0,0v0l0,0,0,0V659l0,0v.06l0,0v.49l2.11-.42-.42-.43v-.8l0-.08v-.15l0-.09v-.06l0-.08v-.07l0-.08,0-.07,0-.06v-.08l0-.07,0-.06,0-.06,0-.07,0,0,0-.06,0,0,0-.06,0,0,0-.06,0,0,.05,0,0,0,0,0,.06,0,0,0,.06,0,.06,0h.07l.06,0,.06,0h.09l.06,0h.51V639.29h0v0h0v-.07l0,0v0l0,0v0l0,0,0,0,0,0,0,0,0,0,0,0,0,0,0,0,0,0,0,0,0,0,0,0,.07,0,0,0,.06,0,.06,0,.07,0,.08,0,.09,0,.08,0,.09,0,.08,0,.11,0,.1,0,.11,0,.13,0,.12,0,.13,0Zm78.09,88.34-.4.43-.24.55-.08.52.11.55.29.55.4.43.47.17h2.11l.47-.17.4-.43.3-.55.1-.55-.1-.52-.3-.55-.4-.43-.47-.19h-2.11Zm19.22,0-.38.43-.25.55-.06.52.1.55.28.55.42.43.46.17h2.12l.46-.17.41-.43.27-.55.13-.55-.13-.52-.27-.55-.41-.43-.46-.19h-2.12Z"/><path class="cls-3" d="M194.55,638.25h.11l.11,0,.1,0,.11,0,.08,0,.09,0,.06,0,.08,0,.07,0,.06,0,.07,0,.06,0,0,0,0,0,.05,0,0,0,0,0,0,0,0,0,0,0,0,0,0,0v0l0,0,0,0,0,.05v.06l0,0v.06l0,0v0h0v16.92h-.78l.09,0h.08l.09,0,.08,0h.08l.09,0,.08,0,.09,0,.1,0,.09,0,.08,0,.09,0,.08,0,.09.06.08,0,.06.06.09,0,.08.06.07,0,.08.07.07.06.08.06.06.07.07.08.06.06.06.07,0,.08.06.07,0,.08,0,.06,0,.09,0,.06,0,.09,0,.08,0,.06,0,.09v.08l0,.07v.5l-.43.43h.17l0,0h.17l0,0h.07l0,0h0l0,0h0l0,0h0l0,0h0l0,0,.05,0h0l0,0h0l.07,0,0,0h0l.06,0,.07,0,.06,0h.06l.09,0,.08,0h.09l.08,0,.11,0,.1,0h.13l.13,0v.64l.1.06.13.06.11.09.1.06.11.06.08.07.09.08.08.07.06.06.07.08.06.07.07.06.06.08,0,.07,0,.06.05.09,0,.06,0,.06,0,.07,0,.06,0,.06,0,.07v.06l0,.06,0,0v.1l0,0v.26h0v0h.19l.19,0h.19l.17,0,.15,0,.17,0,.12.05.15,0,.11,0,.12,0,.11,0,.08,0,.11.06.06,0,.09,0,.06.06,0,0,.07.06,0,.07,0,0,0,.06,0,.05v.21l0,.06,0,0,0,0,0,0,0,0,0,0-.06,0-.07,0-.06,0-.06,0-.09,0-.08,0h-.17l-.17,0-.15,0-.15,0-.14,0-.15.06-.13.09-.13.08-.12.09-.13.08-.13.11-.12.1-.11.11-.11.12-.1.11-.11.13-.08.12-.11.13-.08.15-.09.13-.08.12-.09.13-.06.13-.06.12-.07.13-.06.13-.06.12-.07.11,0,.11,0,.1,0,.11,0,.08,0,.09,0,.08,0,.06,0,.07,0,.06,0,0v0l.31.12.26.11.29.1.38.15.41.15.48.19.51.19.55.21.61.24.64.25.65.25.7.26.72.27.72.3.76.27.76.3.76.29.79.32.78.3.76.29.78.3.74.3.74.29.74.28.7.27.68.28.63.25.62.25.59.24.53.21.48.19.45.19.38.17.34.13.27.12.21.09.13.08.06,0,0,.05,0,.06v0l0,.07v.44l0,0v.13l0,0v.06l0,0v.06l0,0v.07l0,0,0,0v0l0,.07v0l0,0,0,0v0l0,.05v0l0,0v0l0,.05,0,0h.45l.4,0h.36l.36,0,.31,0,.3,0,.28,0,.25,0,.23,0,.19.06.19,0,.17.07.13,0,.13.06.1.07.09.06.06.06.06.07,0,.06,0,.06v.15l0,.06,0,.07,0,.06-.06.07-.07.06-.08.06-.09.07-.08.06-.11,0-.12.06-.11,0-.13,0-.12,0-.13,0-.15.05-.13,0-.14,0-.15,0h-.68l-.23,0h-.47l-.23,0h-.23l-.26,0-.23,0-.25,0h-.23l-.26,0-.23,0-.25,0-.24,0-.25,0-.23,0-.24,0-.25,0-.23,0-.24,0-.23,0-.23.05-.23,0-.22,0-.23,0-.21,0-.21.07-.21,0-.21,0-.22,0-.19.07-.21,0-.19.06-.17.07-.19,0-.17.06-.17.07-.16.06-.09.1-.08.13-.09.11L213,681l-.07.13-.06.13-.06.12-.07.13,0,.13,0,.13,0,.12,0,.13,0,.13,0,.12,0,.13,0,.13v.1l0,.13,0,.13v.23l0,.1v.41l0,.08V684l0,.07v.17l0,0v.11l.93.06.8.08.68.09.55.1.47.11.36.11.25.12.17.13.08.15v.12l-.08.15-.15.15-.21.15-.3.17-.31.15-.39.16-.44.15-.46.17-.51.15-.53.17-.55.15-.59.17-.6.14-.59.15-.61.15-.59.13-.62.15-.57.12-.57.13-.55.11-.51.1-.48.11-.47.08-.4.09-.36.06-.3.06-.25,0-.17,0-.13,0h0l-.36.59-.33.72-.34.87-.32,1-.3,1.08-.27,1.2-.28,1.32-.25,1.39-.23,1.5-.23,1.59-.22,1.67-.21,1.73-.19,1.8-.17,1.88-.17,1.93-.17,2-.14,2-.13,2.07-.13,2.09-.1,2.12-.11,2.15-.1,2.16-.09,2.18-.08,2.18-.07,2.18-.06,2.15-.06,2.16-.05,2.14,0,2.11,0,2.08,0,2,0,2,0,2,0,1.9v6.9l0,1.54,0,1.44h9.94v22.63l6.74-2.75v-8h3.39V771l2.11,2.11,2.12-2.54h1.69l1.06,3.39h7v-34h13.53v-1.69h1.69v1.69h6.77v-3.39h3.39v3.39h1.69v23.9h8.46V723h7.19l4.86-8v-3.8h3.39v3.59L289.9,723h7.8v25.59H307l3.8,15.23h7.41v31.09l5.71-3.18,1.05-9.09h4.87l1.69,8.46,4.86,4,0,0h.25l.19,0h1.27l.42,0,.45,0,.48,0,.51.06.53.09.57.08.57.13.59.13.6.17.61.19.61.23.62.25.63.28.61.31.6.36.61.41.57.44.57.49.55.53.51.57.51.61.46.68.45.74.38.78.38.85.31.88.28,1,.21,1,.17,1.1.13,1.14.06,1.23v1.31l0,0,.07,0,.08.08.08.09.13.12.15.13.17.15.17.15.21.16.21.19.25.2.26.21.27.21.3.23.3.23.31.24.34.23.36.23.36.26.38.23.4.23.4.25.43.24.42.23.44.23.45.21.46.22.47.21.46.19.49.17.51.17.49.16.5.13.53.13.51.1.53.09.53.08.53.05.55,0,11.2-4,.22-5.92h0l0,0v-.39l0-.1v-.11l0-.12,0-.13,0-.13,0-.12,0-.15.07-.15,0-.15.06-.15L378,806l.08-.17.08-.15.11-.15.11-.17.12-.15.13-.15.15-.14.15-.13.19-.15.19-.12.19-.13.21-.13.25-.1.26-.11.25-.08.3-.09.29-.06.34-.07.34-.06.36,0,.38,0,.57,0,.53,0h1.56l.49,0,.51,0h1.39l.45,0h.42l.42,0,.41,0h.4l.38,0,.36,0,.36,0,.34,0,.33,0,.3,0,.32,0,.27,0,.28,0,.25,0h.26l.21,0,.21,0,.19,0,.19,0,.17,0h.15l.12,0,.11,0h.1l.09,0h.13v0h.29l.11,0h.1l.13,0,.13,0,.15,0,.14,0,.15,0,.17,0,.17,0,.17.07.19,0,.17.08.19.07.17.08.19.09.19.1.17.11.17.12.19.13.17.15.15.15.16.17.15.17.13.19.15.21.1.21.13.23.08.26.09.25.08.27.07.3,0,.3,0,.31v12h16.71v0l0-.08,0-.13,0-.17.08-.23.11-.25.1-.32.15-.34.15-.38.19-.4.21-.45.23-.46.28-.49.27-.51.34-.52.34-.53.38-.57.4-.57.45-.58.48-.57.51-.59.53-.59.59-.57.61-.57.66-.57.7-.58.72-.52.78-.53.82-.53.85-.49.91-.46.95-.45,1-.4,1.06-.38,1.08-.34,1.14-.32,1.17-.27,1.24-.21,1.29-.19,1.34-.13h0l0,0-.08.09-.11.08-.12.13-.15.17-.17.17-.19.21-.21.21-.24.25-.25.28-.25.27-.28.32-.27.32-.3.36-.3.36-.29.38-.3.38-.29.42-.32.4-.3.45-.29.44-.28.47-.3.46-.27.47-.25.48-.26.51-.23.49-.21.51-.21.5-.17.51-.17.53-.13.51-.1.53-.09.5-.06.53,0,.53v.51l0,.51.08.5h0l0-.06.05-.06,0-.13,0-.13.09-.17.08-.19.09-.21.12-.25.13-.25.13-.28.17-.32.16-.31.19-.34.22-.36.21-.38.23-.38.28-.41.27-.42.28-.42.31-.42.34-.45.34-.44.36-.47.4-.44.4-.47.43-.46.44-.47.46-.46.49-.47.53-.46.53-.47.55-.44.57-.45.61-.44.62-.45.63-.42.68-.4.7-.4.71-.38h52.46l.08,0,.13,0,.19.09.21.1.27.13.3.15.34.17.38.19.4.21.44.23.47.25.49.26.53.29.52.32.55.32.58.34.57.36.59.38.61.4.59.4.62.45.61.44.59.46.62.47.59.49.59.5.57.53.57.53.53.55.53.55.51.57.48.59.45.6.42.61.4.61.36.64.32.63.27.66.26.65v0l0-.06,0-.09,0-.14,0-.17-.08-.21-.09-.24-.08-.27-.13-.3-.13-.34-.12-.34-.17-.38-.17-.4-.19-.42-.21-.44-.22-.47-.25-.47-.25-.5-.28-.51-.29-.51-.3-.53-.34-.53-.34-.55-.38-.55-.38-.55-.4-.57-.42-.55-.45-.55-.46-.55-.51-.55-.51-.55-.53-.55-.55-.5-.57-.53-.61-.51-.61-.49-.66-.48-.66-.47-.69-.42-.72-.42,0,0h.11l.19,0,.27,0,.32,0,.4,0,.44,0,.51,0h1.16l.66,0,.7,0,.74,0,.76.07.8.06.85.11.87.12.88.13.89.19.93.19.93.23,1,.28,1,.29.95.34.93.38.95.43,1,.46.91.51.93.57.89.59.87.68.87.7.82.78.78.82.76.89.72,1,.68,1,.64,1.08.59,1.14.53,1.21v-5.93h11l1.7-11.82h4.23v-3.38h7.59v-.11l0,0v-.4l0-.09v-.1l0-.13,0-.11,0-.12,0-.13.06-.13.06-.12.07-.15.08-.13.11-.13.12-.14.13-.13.15-.13.15-.15.19-.12.19-.13.21-.13.23-.1.26-.13.27-.1.28-.11.31-.11.34-.08.38-.08.38-.07.4-.08.45-.05.46-.06.49,0V779.49h6.56l2.11-3.39H580V752.2h3.39l1.69-6.76h5.08l0-.87.08-.83.13-.76.17-.74.23-.69.25-.64.3-.61.34-.55.36-.53.4-.47.42-.42.45-.4.46-.34.49-.3.51-.27.52-.21.53-.17.53-.15.55-.08.55-.07H598l.55,0,.53.09.53.1.53.15.51.19.48.23.47.28.44.32.42.36.41.38.36.44.33.47.3.5.25.55.24.6.17.61.12.68.09.69,0,.74h2.11v8.46h3.39V759h3.38v5.08h7v6.77H624v-3.39h5.08V755.8l32.34.21v28.34h3.38V713.73l3.39-3.17v-12.9h1.69v15.23h3.38V709.5h5.08V718h23.9v44.18h3.38v-29h5.08v-1.69h1.69v1.69h11.82v52.66h30.67V796h3.38l1.48,3.39h3.6V792.6h-2.54l1.9-3.38h7.41v-3.39h5.07v-6.77h2.75l1.27-6.76h4.23l.42-5.71v-1.27h1.7v3.38H794v1.69h1.7v3.39h4.86l1.27,6.76h4v27.27h13.09L820,809.5h4.65v23.9H828l1.7,1.69h1.9l1.48,1.69h2.12l2.32,3.39h3.81l1.9,1.69h1.27l2.12,4.23v.21H850V848H0l13.32-10.15H24.11l0,0,.07-.07.08-.06.11-.11.12-.1.15-.15.17-.15L25,837l.19-.19.21-.21.24-.25.23-.26.23-.27.25-.3.28-.29.25-.34.28-.34.27-.36.28-.38.27-.4.28-.43.27-.42.28-.44.27-.47.26-.46.25-.49.25-.51.24-.53.23-.53.21-.55.21-.57.17-.57.17-.59.15-.59.15-.62.1-.63.09-.63.08-.64,0-.68v0l0,.08,0,.11,0,.14,0,.19.06.24.07.25.08.3.09.31.08.36.13.36.1.38.13.43.15.42.15.42.17.45.19.46.19.45.19.46.23.47.21.44.25.47.26.44.25.44.3.43.29.4.3.38.32.38.34.34.36.34.36.27.38.28.38.23.42.19.42.17.43.11.46.08.47,0,.48,0,.51-.06V804h5V790.49H59.62V763.2h3.81L70,754.74v-3.38h5.08v2.54l7.61,7.4,5.93.21v39.34h8.46V782.24h29v30.64h5.05V733h29.19v15.23l6.77,4.86v14h20.3v-1.1l0-.83V764l0-1.23v-1.42l0-1.58V749.65l0-2.39,0-2.48,0-2.54,0-2.62,0-2.66-.07-2.71-.06-2.73-.08-2.77L187,726l-.1-2.75-.11-2.73-.13-2.7-.14-2.67-.17-2.6-.17-2.54-.19-2.45-.21-2.37-.24-2.26-.25-2.14-.25-2-.3-1.88-.32-1.74-.34-1.56-.36-1.38-.38-1.2-.4-1-.42-.78,0,0-.11,0-.19,0-.25-.07-.3-.06-.36-.06-.4-.11-.45-.08-.48-.11-.53-.13-.53-.12-.57-.13-.59-.15-.59-.15-.6-.14-.61-.15-.59-.17-.59-.17-.58-.17-.55-.17-.52-.17-.51-.17-.47-.17-.42-.17-.38-.17L171,686l-.27-.17-.21-.15-.15-.15-.07-.15v-.15l.11-.14.17-.13.27-.11.36-.12.47-.09.59-.1.68-.07.82-.08.93,0v-.05l0,0v0l0,0v0l0-.07V684l0-.07v-.08l0-.08v-.09l0-.08v-.11l0-.08v-.81l0-.1v-.13l0-.13,0-.12,0-.13,0-.13,0-.12,0-.13,0-.13,0-.13-.07-.12-.06-.13-.06-.13-.07-.12-.08-.11-.09-.13-.08-.1-.17-.06-.17-.07-.17-.06-.17,0-.19-.07-.19,0-.19,0-.21-.07-.19,0-.21,0-.21,0-.22,0-.23,0-.21,0-.23,0-.24,0-.23,0-.23,0-.23,0-.24,0-.23,0-.25,0-.23,0-.24,0-.25,0-.23,0-.26,0-.23,0-.25,0-.24,0-.25,0-.23,0-.24,0h-.25l-.23,0-.23,0-.47,0h-.21l-.23,0H165l-.13,0h-.15l-.12,0-.15,0-.13,0-.1,0-.13,0L164,679l-.1,0-.11-.06-.08,0-.07-.07-.08-.06,0-.06-.07-.09,0-.06,0-.06,0-.09v-.06l0-.07,0-.08,0-.06.07-.07.08-.08.11-.06.13-.07.14-.06.15,0,.19-.07.21,0,.21-.06.26,0,.27,0,.3,0,.32,0,.36,0h.38l.4,0h.42v0l0-.05,0,0v0l0,0,0,0v-.05l0,0,0,0,0-.06,0,0v-.05l0,0,0-.06,0,0,0-.07v0l0-.06,0-.07,0,0v-.06l0-.07v-.1l0-.07V676l0,0v-.06l0,0v0l0,0,0,0,0,0,0-.05.06-.08.13-.08.19-.13.26-.15.31-.15.38-.19.45-.19.48-.21.53-.23.57-.24.62-.25.63-.25.68-.28.7-.27.74-.28.74-.27.76-.3.76-.29.78-.3.78-.3.79-.29.76-.28.78-.29.74-.28.74-.27.72-.28.7-.25.67-.24.64-.23.61-.23.55-.19.53-.19.47-.17.42-.15.38-.15.3-.1.25-.09.19-.06.15-.06,0,0v0l0,0,0-.06,0-.07,0-.06,0-.08,0-.09,0-.08,0-.11,0-.1,0-.11-.06-.11,0-.12-.06-.13-.06-.13-.09-.12-.06-.13-.09-.13-.08-.12-.08-.13-.09-.15-.08-.13-.11-.12-.1-.13-.11-.11-.11-.12-.1-.11-.13-.1-.1-.11-.13-.08-.13-.09-.15-.08-.12-.09-.15-.06-.15,0-.15,0-.15,0-.14,0h-.19l-.09,0-.08,0h-.09l-.06,0-.06,0-.07,0-.06,0-.07,0,0,0,0,0,0,0,0,0,0,0,0-.06,0-.05v-.1l0-.05,0-.06,0,0,0,0,0-.07.06,0,.05-.06.08,0,.09,0,.08-.06.11,0,.1,0,.13,0,.13,0,.14,0,.17,0,.15,0,.19-.05.19,0,.21,0,.22,0v0h0v-.06l0,0v-.38l0-.06v0l0-.07,0-.06,0-.06,0-.07,0-.06,0-.06,0-.07,0-.08.06-.06,0-.09.06-.06.07-.09.06-.06.07-.08.08-.07.08-.08.11-.09.08-.08.13-.07.11-.08.12-.08v-1.08h0v0l0,0v0l0,0v0l0,0v0l0,0,0,0v0l0,0,0,0,0,0,0,0,0,0,0,0,0,0h0l0,0,0,0,0,0,0,0,0,0h0l0,0,0,0h0l0,0,0,0h0l0,0h.08l.05,0h.14l.05,0h.12l0,0h.06l0,0h0l0,0h0l0,0,0,0h0l0,0,0,0h0l0,0,0,0,0,0,0,0,0,0,0,0,0,0,0,0v0l0,0,0,0V659l0,0v.06l0,0v.49l2.11-.42-.42-.43v-.8l0-.08v-.15l0-.09v-.06l0-.08v-.07l0-.08,0-.07,0-.06v-.08l0-.07,0-.06,0-.06,0-.07,0,0,0-.06,0,0,0-.06,0,0,0-.06,0,0,.05,0,0,0,0,0,.06,0,0,0,.06,0,.06,0h.07l.06,0,.06,0h.09l.06,0h.51V639.29h0v0h0v-.07l0,0v0l0,0v0l0,0,0,0,0,0,0,0,0,0,0,0,0,0,0,0,0,0,0,0,0,0,0,0,.07,0,0,0,.06,0,.06,0,.07,0,.08,0,.09,0,.08,0,.09,0,.08,0,.11,0,.1,0,.11,0,.13,0,.12,0,.13,0Zm78.09,88.34-.4.43-.24.55-.08.52.11.55.29.55.4.43.47.17h2.11l.47-.17.4-.43.3-.55.1-.55-.1-.52-.3-.55-.4-.43-.47-.19h-2.11Zm19.22,0-.38.43-.25.55-.06.52.1.55.28.55.42.43.46.17h2.12l.46-.17.41-.43.27-.55.13-.55-.13-.52-.27-.55-.41-.43-.46-.19h-2.12Z"/><path id="i2E1qwMUzr" class="cls-2" d="M368.89,486.31l-.44,5.61-.6,5.45-.78,5.29-.93,5.12-1.1,5-1.25,4.82-1.41,4.65-1.59,4.49L359.08,531l-1.89,4.19-2,4L353,543.12l-2.33,3.72-2.43,3.56-2.6,3.4-2.73,3.26-2.86,3.11-3,3L334,565.92l-3.25,2.66-3.37,2.5-3.49,2.35-3.61,2.22-3.72,2.05-3.83,1.92-4,1.76L304.7,583l-4.17,1.48-4.27,1.33L291.88,587l-4.48,1-4.57.91-4.67.76-4.76.64-4.84.46-4.95.36-5,.21-5.09.07-4.61-.07-4.51-.16-4.4-.3-4.31-.4-4.23-.53-4.13-.61-4-.74-4-.83-3.85-1-3.74-1-3.68-1.12-3.58-1.23L201,582.18l-3.4-1.41-3.32-1.48L191,577.7l-3.13-1.65-3.06-1.76-3-1.81L179,570.59l-2.82-2-2.72-2-2.67-2.12-2.56-2.16-2.49-2.24-2.42-2.28-2.34-2.37L158.66,553l-2.17-2.46-2.12-2.51-2-2.56-2-2.62-1.88-2.65-1.82-2.7-1.73-2.73L143.25,532l-1.59-2.82-1.54-2.85-1.48-2.86-1.4-2.92,63.11-38.21.91,1.63.91,1.58.93,1.59.91,1.56.91,1.55.91,1.52.93,1.52.93,1.48.93,1.46.95,1.44,1,1.4,1,1.39,1,1.36,1,1.31,1,1.29,1,1.25,1.06,1.22,1.08,1.19,1.1,1.14,1.12,1.12,1.16,1.06,1.19,1,1.2,1,1.25,1,1.29.89,1.31.84,1.34.78,1.39.77,1.42.67,1.48.66,1.5.57,1.55.55,1.6.46,1.63.43,1.69.34,1.76.29,1.8.23,1.84.17,1.9.11,1.95,0,1.9,0,1.86,0,1.82-.11,1.8-.15,1.73-.19,1.71-.23,1.67-.27,1.63-.32,1.59-.38,1.56-.45,1.51-.48,1.46-.55,1.41-.62,1.38-.65,1.33-.74,1.29-.78,1.25-.87,1.2-.91,1.15-1,1.1-1.06,1.05-1.14,1-1.21.95-1.29.91-1.37.87-1.44.8-1.53.74-1.6.72-1.7.63-1.79.62-1.86.53-2,.48-2.05.45-2.14.38-2.24.31-2.33.26-2.43.21-2.54.15-2.64.08-2.75,0-2.83V210h77.54V474.6l-.09,5.94h0ZM556.89,206l3.53.24,3.47.29,3.4.38,3.37.43,3.32.5,3.28.6,3.21.65,3.17.72,3.13.8,3.07.89,3,1,3,1,2.94,1.12,2.87,1.21,2.86,1.27,2.79,1.35,2.75,1.44,2.71,1.52,2.66,1.63,2.62,1.69,2.58,1.78,2.52,1.88,2.5,1.95,2.45,2.07,2.41,2.13,2.35,2.23,2.32,2.34,2.29,2.41,2.24,2.52,2.2,2.62,2.16,2.71,2.13,2.81,2.08,2.9,2.05,3,2,3.11,2,3.22,2,3.32-60.43,38.68-1-1.75-1-1.72-1-1.65-1-1.58-1-1.55-1-1.5-1-1.44-1.06-1.39-1-1.36-1.08-1.29-1.07-1.24-1.08-1.21-1.1-1.14-1.12-1.1L580,285.37l-1.15-1-1.14-1-1.16-.93-1.19-.86-1.18-.83L573,280l-1.22-.74-1.25-.68-1.27-.65-1.27-.62-1.31-.55-1.33-.53-1.34-.48-1.37-.45-1.37-.38-1.42-.36-1.44-.34L557,274l-1.48-.23-1.52-.21-1.52-.17-1.57-.13-1.56-.08-1.63-.05-1.63,0-1.69,0-1.65.09-1.63.12-1.59.19-1.54.24-1.52.27-1.51.34-1.43.38-1.42.42-1.4.47-1.33.53-1.31.55-1.27.61-1.23.64-1.18.69-1.16.72-1.1.76-1.08.81-1,.84-1,.87-1,.91-.91,1-.85,1-.82,1-.76,1-.72,1.08-.68,1.1-.64,1.14-.59,1.16-.53,1.19-.48,1.2-.45,1.25-.38,1.27-.34,1.27-.29,1.31-.23,1.33-.19,1.35-.13,1.38L509,305l0,1.39,0,1.74.09,1.67.13,1.6.19,1.59.25,1.52.3,1.5.35,1.44.43,1.4.46,1.37.55,1.34.57,1.29.66,1.26.72,1.25.76,1.21.83,1.16.88,1.16,1,1.13,1,1.09,1.08,1.1,1.12,1.06,1.2,1.06,1.25,1,1.33,1,1.38,1,1.44,1,1.52,1,1.57,1,1.64,1,1.7,1,1.77,1,1.84,1,1.91,1,2,1,2.06,1,2.09,1,2.18,1,2.24,1,2.3,1,2.39,1.05,2.46,1.08,19.33,8.25,4.91,2.11,4.77,2.12,4.68,2.14,4.57,2.15,4.44,2.16,4.36,2.18,4.2,2.2L611.9,379l4,2.26,3.89,2.29,3.76,2.32,3.66,2.37,3.53,2.41,3.41,2.43,3.3,2.52,3.17,2.54,3.07,2.6,2.94,2.67,2.81,2.72,2.68,2.8,2.56,2.85,2.46,2.94,2.3,3,2.2,3.09,2.05,3.17,1.95,3.24,1.8,3.34,1.69,3.43,1.54,3.53,1.42,3.62,1.29,3.72,1.14,3.85,1,3.93.89,4,.74,4.17.63,4.27.47,4.42.36,4.53.21,4.65.06,4.78-.1,5.18-.3,5-.51,4.93-.7,4.82-.88,4.68-1.1,4.59-1.25,4.44-1.46,4.34-1.63,4.2-1.8,4.06-2,4-2.14,3.85-2.33,3.7-2.45,3.57-2.62,3.45-2.79,3.32-2.94,3.2-3.07,3.06-3.24,2.94-3.36,2.82-3.51,2.66-3.64,2.56-3.76,2.41-3.92,2.28-4,2.14-4.15,2-4.25,1.88-4.38,1.74-4.48,1.6-4.61,1.48-4.7,1.34-4.8,1.18L587.2,588l-5,.93-5.07.78-5.18.64-5.25.48-5.33.36-5.41.21-5.48.09-5.37-.07-5.27-.16-5.16-.32-5.07-.42-5-.53-4.88-.68-4.78-.78-4.7-.89-4.59-1-4.5-1.12-4.42-1.22L492.42,583l-4.23-1.44L484.07,580l-4-1.62-3.95-1.72-3.83-1.82-3.77-1.9-3.65-2-3.58-2.09-3.47-2.16-3.38-2.24-3.28-2.33L448,559.72l-3.11-2.47-3-2.56-2.91-2.62-2.84-2.69-2.73-2.77-2.64-2.81-2.56-2.9L425.66,538l-2.37-3L421,531.89l-2.2-3.11-2.09-3.17-2-3.22-1.92-3.25-1.84-3.3-1.76-3.34,63.13-36.64,1.25,2,1.27,2,1.31,2,1.31,1.92,1.35,1.91,1.36,1.86,1.39,1.84,1.42,1.8,1.46,1.75,1.46,1.74,1.5,1.69,1.55,1.63,1.56,1.6,1.59,1.57,1.62,1.52,1.68,1.48,1.71,1.42,1.73,1.4,1.78,1.33,1.82,1.27,1.86,1.22,1.9,1.19,1.95,1.14,2,1.06,2,1,2.09,1,2.11.88,2.18.85,2.22.78,2.27.72,2.32.66,2.37.59,2.43.53,2.48.46,2.56.41,2.58.31,2.66.26,2.71.19,2.77.1,2.83,0,2.39,0,2.35-.08,2.31-.15,2.26-.19,2.2-.28,2.16-.31,2.11-.36,2.08-.43,2-.48,1.95-.53,1.92-.57,1.84-.64,1.8-.67,1.76-.74,1.69-.76,1.63-.83,1.58-.87,1.51-.91,1.46-1,1.41-1,1.33-1,1.29-1.08,1.21-1.12,1.16-1.16,1.08-1.19,1-1.22,1-1.27.91-1.31.82-1.33.77-1.38.67-1.4.64-1.43.55-1.46.48-1.5.41-1.53.33-1.54.26-1.59.19-1.6.12-1.63,0-1.65,0-2-.12-1.9L601,479l-.28-1.8-.36-1.71-.42-1.67-.49-1.63-.59-1.59-.63-1.52-.72-1.48-.81-1.44-.86-1.4-.93-1.35-1-1.33-1.08-1.29-1.14-1.25-1.23-1.23-1.29-1.2L587.83,456l-1.42-1.14-1.48-1.14-1.56-1.1-1.61-1.1-1.69-1.08-1.74-1.08-1.81-1.06-1.87-1.05-1.94-1.06-2-1-2.05-1L566.55,443l-2.17-1-2.25-1.05-2.28-1.06-2.35-1.08-2.41-1.08-2.45-1.1-2.52-1.12-2.56-1.12-2.64-1.16L525.59,425l-4.17-1.8-4.1-1.82-4-1.84-4-1.88-3.85-1.93-3.79-1.94-3.7-2-3.62-2-3.53-2.07-3.47-2.12-3.34-2.15-3.28-2.23-3.17-2.28-3.09-2.33-3-2.36-2.9-2.46-2.79-2.52-2.71-2.58L460.55,384l-2.49-2.71-2.39-2.79-2.29-2.87-2.18-2.94-2.05-3-2-3.11-1.84-3.19-1.72-3.3-1.6-3.36-1.49-3.49-1.37-3.56L437.92,346l-1.12-3.76-1-3.87-.87-4-.74-4.08-.61-4.21-.47-4.31-.34-4.42-.21-4.55-.06-4.67.08-4.34.24-4.29.42-4.23.55-4.17.74-4.08.89-4,1-4,1.19-3.89,1.35-3.8,1.5-3.75,1.63-3.66,1.8-3.57,1.92-3.49,2.08-3.41,2.22-3.3,2.37-3.21,2.47-3.11,2.64-3,2.75-2.9,2.9-2.81,3-2.69,3.15-2.6,3.27-2.45,3.41-2.35,3.51-2.24,3.66-2.1,3.76-2,3.87-1.86,4-1.71,4.13-1.59,4.23-1.43,4.31-1.32,4.44-1.16,4.57-1,4.65-.89L526,207l4.86-.57,5-.4,5.06-.26,5.16-.08,3.68,0,3.62.09h0Z"/><path class="cls-3" d="M368.89,486.31l-.44,5.61-.6,5.45-.78,5.29-.93,5.12-1.1,5-1.25,4.82-1.41,4.65-1.59,4.49L359.08,531l-1.89,4.19-2,4L353,543.12l-2.33,3.72-2.43,3.56-2.6,3.4-2.73,3.26-2.86,3.11-3,3L334,565.92l-3.25,2.66-3.37,2.5-3.49,2.35-3.61,2.22-3.72,2.05-3.83,1.92-4,1.76L304.7,583l-4.17,1.48-4.27,1.33L291.88,587l-4.48,1-4.57.91-4.67.76-4.76.64-4.84.46-4.95.36-5,.21-5.09.07-4.61-.07-4.51-.16-4.4-.3-4.31-.4-4.23-.53-4.13-.61-4-.74-4-.83-3.85-1-3.74-1-3.68-1.12-3.58-1.23L201,582.18l-3.4-1.41-3.32-1.48L191,577.7l-3.13-1.65-3.06-1.76-3-1.81L179,570.59l-2.82-2-2.72-2-2.67-2.12-2.56-2.16-2.49-2.24-2.42-2.28-2.34-2.37L158.66,553l-2.17-2.46-2.12-2.51-2-2.56-2-2.62-1.88-2.65-1.82-2.7-1.73-2.73L143.25,532l-1.59-2.82-1.54-2.85-1.48-2.86-1.4-2.92,63.11-38.21.91,1.63.91,1.58.93,1.59.91,1.56.91,1.55.91,1.52.93,1.52.93,1.48.93,1.46.95,1.44,1,1.4,1,1.39,1,1.36,1,1.31,1,1.29,1,1.25,1.06,1.22,1.08,1.19,1.1,1.14,1.12,1.12,1.16,1.06,1.19,1,1.2,1,1.25,1,1.29.89,1.31.84,1.34.78,1.39.77,1.42.67,1.48.66,1.5.57,1.55.55,1.6.46,1.63.43,1.69.34,1.76.29,1.8.23,1.84.17,1.9.11,1.95,0,1.9,0,1.86,0,1.82-.11,1.8-.15,1.73-.19,1.71-.23,1.67-.27,1.63-.32,1.59-.38,1.56-.45,1.51-.48,1.46-.55,1.41-.62,1.38-.65,1.33-.74,1.29-.78,1.25-.87,1.2-.91,1.15-1,1.1-1.06,1.05-1.14,1-1.21.95-1.29.91-1.37.87-1.44.8-1.53.74-1.6.72-1.7.63-1.79.62-1.86.53-2,.48-2.05.45-2.14.38-2.24.31-2.33.26-2.43.21-2.54.15-2.64.08-2.75,0-2.83V210h77.54V474.6l-.09,5.94h0ZM556.89,206l3.53.24,3.47.29,3.4.38,3.37.43,3.32.5,3.28.6,3.21.65,3.17.72,3.13.8,3.07.89,3,1,3,1,2.94,1.12,2.87,1.21,2.86,1.27,2.79,1.35,2.75,1.44,2.71,1.52,2.66,1.63,2.62,1.69,2.58,1.78,2.52,1.88,2.5,1.95,2.45,2.07,2.41,2.13,2.35,2.23,2.32,2.34,2.29,2.41,2.24,2.52,2.2,2.62,2.16,2.71,2.13,2.81,2.08,2.9,2.05,3,2,3.11,2,3.22,2,3.32-60.43,38.68-1-1.75-1-1.72-1-1.65-1-1.58-1-1.55-1-1.5-1-1.44-1.06-1.39-1-1.36-1.08-1.29-1.07-1.24-1.08-1.21-1.1-1.14-1.12-1.1L580,285.37l-1.15-1-1.14-1-1.16-.93-1.19-.86-1.18-.83L573,280l-1.22-.74-1.25-.68-1.27-.65-1.27-.62-1.31-.55-1.33-.53-1.34-.48-1.37-.45-1.37-.38-1.42-.36-1.44-.34L557,274l-1.48-.23-1.52-.21-1.52-.17-1.57-.13-1.56-.08-1.63-.05-1.63,0-1.69,0-1.65.09-1.63.12-1.59.19-1.54.24-1.52.27-1.51.34-1.43.38-1.42.42-1.4.47-1.33.53-1.31.55-1.27.61-1.23.64-1.18.69-1.16.72-1.1.76-1.08.81-1,.84-1,.87-1,.91-.91,1-.85,1-.82,1-.76,1-.72,1.08-.68,1.1-.64,1.14-.59,1.16-.53,1.19-.48,1.2-.45,1.25-.38,1.27-.34,1.27-.29,1.31-.23,1.33-.19,1.35-.13,1.38L509,305l0,1.39,0,1.74.09,1.67.13,1.6.19,1.59.25,1.52.3,1.5.35,1.44.43,1.4.46,1.37.55,1.34.57,1.29.66,1.26.72,1.25.76,1.21.83,1.16.88,1.16,1,1.13,1,1.09,1.08,1.1,1.12,1.06,1.2,1.06,1.25,1,1.33,1,1.38,1,1.44,1,1.52,1,1.57,1,1.64,1,1.7,1,1.77,1,1.84,1,1.91,1,2,1,2.06,1,2.09,1,2.18,1,2.24,1,2.3,1,2.39,1.05,2.46,1.08,19.33,8.25,4.91,2.11,4.77,2.12,4.68,2.14,4.57,2.15,4.44,2.16,4.36,2.18,4.2,2.2L611.9,379l4,2.26,3.89,2.29,3.76,2.32,3.66,2.37,3.53,2.41,3.41,2.43,3.3,2.52,3.17,2.54,3.07,2.6,2.94,2.67,2.81,2.72,2.68,2.8,2.56,2.85,2.46,2.94,2.3,3,2.2,3.09,2.05,3.17,1.95,3.24,1.8,3.34,1.69,3.43,1.54,3.53,1.42,3.62,1.29,3.72,1.14,3.85,1,3.93.89,4,.74,4.17.63,4.27.47,4.42.36,4.53.21,4.65.06,4.78-.1,5.18-.3,5-.51,4.93-.7,4.82-.88,4.68-1.1,4.59-1.25,4.44-1.46,4.34-1.63,4.2-1.8,4.06-2,4-2.14,3.85-2.33,3.7-2.45,3.57-2.62,3.45-2.79,3.32-2.94,3.2-3.07,3.06-3.24,2.94-3.36,2.82-3.51,2.66-3.64,2.56-3.76,2.41-3.92,2.28-4,2.14-4.15,2-4.25,1.88-4.38,1.74-4.48,1.6-4.61,1.48-4.7,1.34-4.8,1.18L587.2,588l-5,.93-5.07.78-5.18.64-5.25.48-5.33.36-5.41.21-5.48.09-5.37-.07-5.27-.16-5.16-.32-5.07-.42-5-.53-4.88-.68-4.78-.78-4.7-.89-4.59-1-4.5-1.12-4.42-1.22L492.42,583l-4.23-1.44L484.07,580l-4-1.62-3.95-1.72-3.83-1.82-3.77-1.9-3.65-2-3.58-2.09-3.47-2.16-3.38-2.24-3.28-2.33L448,559.72l-3.11-2.47-3-2.56-2.91-2.62-2.84-2.69-2.73-2.77-2.64-2.81-2.56-2.9L425.66,538l-2.37-3L421,531.89l-2.2-3.11-2.09-3.17-2-3.22-1.92-3.25-1.84-3.3-1.76-3.34,63.13-36.64,1.25,2,1.27,2,1.31,2,1.31,1.92,1.35,1.91,1.36,1.86,1.39,1.84,1.42,1.8,1.46,1.75,1.46,1.74,1.5,1.69,1.55,1.63,1.56,1.6,1.59,1.57,1.62,1.52,1.68,1.48,1.71,1.42,1.73,1.4,1.78,1.33,1.82,1.27,1.86,1.22,1.9,1.19,1.95,1.14,2,1.06,2,1,2.09,1,2.11.88,2.18.85,2.22.78,2.27.72,2.32.66,2.37.59,2.43.53,2.48.46,2.56.41,2.58.31,2.66.26,2.71.19,2.77.1,2.83,0,2.39,0,2.35-.08,2.31-.15,2.26-.19,2.2-.28,2.16-.31,2.11-.36,2.08-.43,2-.48,1.95-.53,1.92-.57,1.84-.64,1.8-.67,1.76-.74,1.69-.76,1.63-.83,1.58-.87,1.51-.91,1.46-1,1.41-1,1.33-1,1.29-1.08,1.21-1.12,1.16-1.16,1.08-1.19,1-1.22,1-1.27.91-1.31.82-1.33.77-1.38.67-1.4.64-1.43.55-1.46.48-1.5.41-1.53.33-1.54.26-1.59.19-1.6.12-1.63,0-1.65,0-2-.12-1.9L601,479l-.28-1.8-.36-1.71-.42-1.67-.49-1.63-.59-1.59-.63-1.52-.72-1.48-.81-1.44-.86-1.4-.93-1.35-1-1.33-1.08-1.29-1.14-1.25-1.23-1.23-1.29-1.2L587.83,456l-1.42-1.14-1.48-1.14-1.56-1.1-1.61-1.1-1.69-1.08-1.74-1.08-1.81-1.06-1.87-1.05-1.94-1.06-2-1-2.05-1L566.55,443l-2.17-1-2.25-1.05-2.28-1.06-2.35-1.08-2.41-1.08-2.45-1.1-2.52-1.12-2.56-1.12-2.64-1.16L525.59,425l-4.17-1.8-4.1-1.82-4-1.84-4-1.88-3.85-1.93-3.79-1.94-3.7-2-3.62-2-3.53-2.07-3.47-2.12-3.34-2.15-3.28-2.23-3.17-2.28-3.09-2.33-3-2.36-2.9-2.46-2.79-2.52-2.71-2.58L460.55,384l-2.49-2.71-2.39-2.79-2.29-2.87-2.18-2.94-2.05-3-2-3.11-1.84-3.19-1.72-3.3-1.6-3.36-1.49-3.49-1.37-3.56L437.92,346l-1.12-3.76-1-3.87-.87-4-.74-4.08-.61-4.21-.47-4.31-.34-4.42-.21-4.55-.06-4.67.08-4.34.24-4.29.42-4.23.55-4.17.74-4.08.89-4,1-4,1.19-3.89,1.35-3.8,1.5-3.75,1.63-3.66,1.8-3.57,1.92-3.49,2.08-3.41,2.22-3.3,2.37-3.21,2.47-3.11,2.64-3,2.75-2.9,2.9-2.81,3-2.69,3.15-2.6,3.27-2.45,3.41-2.35,3.51-2.24,3.66-2.1,3.76-2,3.87-1.86,4-1.71,4.13-1.59,4.23-1.43,4.31-1.32,4.44-1.16,4.57-1,4.65-.89L526,207l4.86-.57,5-.4,5.06-.26,5.16-.08,3.68,0,3.62.09h0Z"/></svg>