<svg id="Layer_1" data-name="Layer 1" xmlns="http://www.w3.org/2000/svg" width="2.22in" height="2.1in" viewBox="0 0 159.8 151.19"><defs><style>.cls-1{fill:#00a1e0;}</style></defs><path d="M11.74,24.08q.38,7,3.86,10.47t10,3.49A38.34,38.34,0,0,0,34.62,37a27.86,27.86,0,0,0,7.58-2.91,2.22,2.22,0,0,1,2.47-.14,4.78,4.78,0,0,1,1.6,2.18,3.71,3.71,0,0,1,.27,2.65,3.49,3.49,0,0,1-1.89,2,36.13,36.13,0,0,1-4,1.62A44.54,44.54,0,0,1,36,43.61c-1.65.35-3.35.63-5.11.83a46.73,46.73,0,0,1-5.31.3,24.44,24.44,0,0,1-9-1.55,17.61,17.61,0,0,1-6.61-4.44,19.22,19.22,0,0,1-4.09-7,28.94,28.94,0,0,1-1.41-9.36,24.59,24.59,0,0,1,1.64-9.18,20.83,20.83,0,0,1,4.55-7.07,20.16,20.16,0,0,1,7-4.53A24.07,24.07,0,0,1,26.48,0a24,24,0,0,1,9.06,1.59A19.09,19.09,0,0,1,42.18,6a19.75,19.75,0,0,1,4.18,6.7,28.59,28.59,0,0,1,1.75,8.5,3,3,0,0,1-.67,2.22,3.15,3.15,0,0,1-2.24.65ZM26.48,6.7A14.81,14.81,0,0,0,17,9.59a13.63,13.63,0,0,0-4.83,8H40.44a13.24,13.24,0,0,0-4.39-8.07Q32.63,6.71,26.48,6.7Z"/><path d="M62.79,7.3H58.08a3,3,0,0,1-2.24-.69,3.49,3.49,0,0,1-.67-2.45,3.49,3.49,0,0,1,.67-2.45A3,3,0,0,1,58.08,1h8.27a3,3,0,0,1,2.24.69,3.49,3.49,0,0,1,.67,2.45V9.7a22.48,22.48,0,0,1,7.12-7.23A16.66,16.66,0,0,1,85.21,0a14.74,14.74,0,0,1,5.73,1.06,12.15,12.15,0,0,1,4.32,3A13,13,0,0,1,98,8.8a19.52,19.52,0,0,1,1,6.27V37.44h3.79a3,3,0,0,1,2.24.69,3.54,3.54,0,0,1,.67,2.45A3.54,3.54,0,0,1,105,43a3,3,0,0,1-2.24.69h-15A3,3,0,0,1,85.51,43a3.49,3.49,0,0,1-.67-2.45,3.49,3.49,0,0,1,.67-2.45,3,3,0,0,1,2.24-.69H92V15.76a13.31,13.31,0,0,0-.46-3.63,8.09,8.09,0,0,0-1.39-2.82,6.17,6.17,0,0,0-2.33-1.82,7.87,7.87,0,0,0-3.3-.65,12.8,12.8,0,0,0-5.64,1.29,15,15,0,0,0-4.72,3.61,17.67,17.67,0,0,0-3.23,5.5,19.42,19.42,0,0,0-1.21,7V37.44H74a3,3,0,0,1,2.24.69,3.54,3.54,0,0,1,.67,2.45A3.54,3.54,0,0,1,76.22,43a3,3,0,0,1-2.24.69H59A3,3,0,0,1,56.76,43a3.49,3.49,0,0,1-.67-2.45,3.49,3.49,0,0,1,.67-2.45A3,3,0,0,1,59,37.44h3.79Z"/><path d="M120.27,53.48a31.94,31.94,0,0,0,6.7,2,39.92,39.92,0,0,0,6.89.62,16.11,16.11,0,0,0,5.38-.81A9.93,9.93,0,0,0,143,52.94a9.42,9.42,0,0,0,2.24-3.58,13.57,13.57,0,0,0,.74-4.62V35.22a19.85,19.85,0,0,1-6.4,5.34,17.84,17.84,0,0,1-8.25,1.87,21.33,21.33,0,0,1-8-1.46,18,18,0,0,1-6.31-4.18,19.62,19.62,0,0,1-4.18-6.66,24.39,24.39,0,0,1-1.53-8.92,24.46,24.46,0,0,1,1.53-8.92,19.57,19.57,0,0,1,4.18-6.65,18,18,0,0,1,6.31-4.19,21.32,21.32,0,0,1,8-1.45,17.43,17.43,0,0,1,8.44,2.06,20.93,20.93,0,0,1,6.68,5.8V4.16a3.49,3.49,0,0,1,.67-2.45A3,3,0,0,1,149.39,1h7.35a3,3,0,0,1,2.24.69,3.54,3.54,0,0,1,.67,2.45A3.54,3.54,0,0,1,159,6.61a3,3,0,0,1-2.24.69H153v38a20.25,20.25,0,0,1-1.28,7.42,14.35,14.35,0,0,1-3.72,5.5,16.66,16.66,0,0,1-6,3.44,25.3,25.3,0,0,1-8.09,1.2,48.3,48.3,0,0,1-8.09-.69,41.3,41.3,0,0,1-7.72-2.08,2.76,2.76,0,0,1-1.64-1.52,4.2,4.2,0,0,1,.21-2.78,4,4,0,0,1,1.55-2.31A2.19,2.19,0,0,1,120.27,53.48ZM146,21.21a16.43,16.43,0,0,0-1.06-6.1,12.65,12.65,0,0,0-3-4.5,12.83,12.83,0,0,0-4.5-2.8,16.08,16.08,0,0,0-5.67-1,13.9,13.9,0,0,0-5.59,1.06,11.46,11.46,0,0,0-4.11,3,13.16,13.16,0,0,0-2.54,4.56,18,18,0,0,0-.88,5.77,18.06,18.06,0,0,0,.88,5.78,13,13,0,0,0,2.54,4.55,11.23,11.23,0,0,0,4.11,3,13.9,13.9,0,0,0,5.59,1.07,16.3,16.3,0,0,0,5.67-1,12.83,12.83,0,0,0,4.5-2.8,12.69,12.69,0,0,0,3-4.51A16.39,16.39,0,0,0,146,21.21Z"/><path d="M0,116.76a36.46,36.46,0,0,1,2.13-12.62A31.28,31.28,0,0,1,8,94a27.19,27.19,0,0,1,8.92-6.7,26.07,26.07,0,0,1,11.25-2.43,24.4,24.4,0,0,1,9.73,1.88A21,21,0,0,1,45.36,92a23.29,23.29,0,0,1,4.74,8,30.06,30.06,0,0,1,1.67,10.2,27.21,27.21,0,0,1-1,7.41,18.66,18.66,0,0,1-2.64,5.76,12,12,0,0,1-4.09,3.72,10.83,10.83,0,0,1-5.31,1.32,8.63,8.63,0,0,1-5.18-1.53,9.14,9.14,0,0,1-3.19-4.44c-.71.93-1.42,1.77-2.12,2.52a14.15,14.15,0,0,1-2.22,1.94,10,10,0,0,1-2.45,1.27,8.43,8.43,0,0,1-2.87.47,7.33,7.33,0,0,1-3.19-.7,7.51,7.51,0,0,1-2.59-2,10,10,0,0,1-1.73-3.26,14.45,14.45,0,0,1-.62-4.41,19.8,19.8,0,0,1,.51-4.35,26.27,26.27,0,0,1,1.43-4.46,25.2,25.2,0,0,1,2.26-4.18,20.33,20.33,0,0,1,3-3.49,14,14,0,0,1,3.51-2.4,9.19,9.19,0,0,1,4-.9,5.2,5.2,0,0,1,3.63,1.27,9.25,9.25,0,0,1,2.29,3.35l1.43-2.91c.15-.34.51-.51,1.06-.51a4.5,4.5,0,0,1,1.67.32,4.23,4.23,0,0,1,1.4.88,1.21,1.21,0,0,1,.4,1.25l-3.56,14a6.56,6.56,0,0,0,.14,4.76,3.14,3.14,0,0,0,3,1.75,5.68,5.68,0,0,0,3.15-.9,7.36,7.36,0,0,0,2.33-2.54,13.61,13.61,0,0,0,1.45-3.91,23,23,0,0,0,.51-5A24.52,24.52,0,0,0,44.9,102a17.12,17.12,0,0,0-3.63-6.17A15.68,15.68,0,0,0,35.54,92,20,20,0,0,0,28,90.6a19.74,19.74,0,0,0-8.87,2,21.94,21.94,0,0,0-7,5.52,26.12,26.12,0,0,0-4.67,8.3,31,31,0,0,0-1.69,10.33,25.75,25.75,0,0,0,1.18,8,16.94,16.94,0,0,0,3.45,6.1,15.06,15.06,0,0,0,5.61,3.88,20.19,20.19,0,0,0,7.65,1.36,41,41,0,0,0,6.38-.48,36.91,36.91,0,0,0,5.41-1.23c1.11-.33,1.91.33,2.4,2a3.27,3.27,0,0,1,.12,2,1.76,1.76,0,0,1-1,1A28.63,28.63,0,0,1,31,141.14a38.21,38.21,0,0,1-7.31.67,27,27,0,0,1-9.93-1.73,20.11,20.11,0,0,1-7.44-5,21.83,21.83,0,0,1-4.67-7.88A31.43,31.43,0,0,1,0,116.76Zm18.86,1.38a5.09,5.09,0,0,0,.85,3.29,2.76,2.76,0,0,0,2.2,1,5.25,5.25,0,0,0,3.37-1.27A11.69,11.69,0,0,0,28,117.91a18.24,18.24,0,0,0,1.87-4.41,16.78,16.78,0,0,0,.7-4.69,5.14,5.14,0,0,0-1-3.33,3.14,3.14,0,0,0-2.57-1.15,4.39,4.39,0,0,0-2.7,1.2,13.19,13.19,0,0,0-2.68,3.14,19.66,19.66,0,0,0-2,4.41A16.18,16.18,0,0,0,18.86,118.14Z"/><path class="cls-1" d="M103.12,90.64a17,17,0,0,1,12.31-5.29,17.21,17.21,0,0,1,15,8.88,20.79,20.79,0,0,1,8.46-1.8,21.12,21.12,0,0,1,0,42.23,20.71,20.71,0,0,1-4.12-.41,15.3,15.3,0,0,1-20,6.3,17.45,17.45,0,0,1-32.45-.79,15.94,15.94,0,0,1-3.33.35,16.41,16.41,0,0,1-8.1-30.56,18.86,18.86,0,0,1,32.3-18.91Z"/></svg>