<svg id="Layer_1" data-name="Layer 1" xmlns="http://www.w3.org/2000/svg" width="850" height="255" viewBox="0 0 850 255"><defs><style>.cls-1{fill:#f22f46;}</style></defs><title>twilio</title><path class="cls-1" d="M126.32,96.33a26.12,26.12,0,1,1-26.11-26.12A26.24,26.24,0,0,1,126.32,96.33Zm-26.11,36.23a26.12,26.12,0,1,0,26.11,26.11A26.24,26.24,0,0,0,100.21,132.56Zm157.55-5.06A126.38,126.38,0,1,1,131.38,1.12,126.21,126.21,0,0,1,257.76,127.5Zm-33.7,0a92.68,92.68,0,1,0-92.68,92.68A92.42,92.42,0,0,0,224.06,127.5Zm-61.51,5.06a26.12,26.12,0,1,0,26.12,26.11A26.25,26.25,0,0,0,162.55,132.56Zm0-62.35a26.12,26.12,0,1,0,26.12,26.12A26.25,26.25,0,0,0,162.55,70.21ZM597.3,50.83c.84,0,1.68.84,2.52,1.69v27A2.68,2.68,0,0,1,597.3,82H552.64a2.68,2.68,0,0,1-2.52-2.52V53.36a2.68,2.68,0,0,1,2.52-2.53Zm-.85,37.91H510.52A2.69,2.69,0,0,0,508,91.27L497,133.4l-.85,2.53L482.71,91.27a3.8,3.8,0,0,0-2.52-2.53H446.48A2.69,2.69,0,0,0,444,91.27L431.32,133.4l-.84,2.53-.85-2.53-5.05-21.07-5.06-21.06A3.8,3.8,0,0,0,417,88.74H349.59V52.52a2.48,2.48,0,0,0-3.37-1.69L304.1,64.31a2.23,2.23,0,0,0-2.53,2.53V89.59H290.62a2.68,2.68,0,0,0-2.53,2.52v32a2.69,2.69,0,0,0,2.53,2.53h10.95v39.6c0,27.8,15.17,40.44,43,40.44,11.79,0,22.75-2.53,30.33-6.74v-33.7c0-1.69-1.69-2.53-2.53-1.69a32.94,32.94,0,0,1-11.79,2.53c-7.59,0-11.8-3.37-11.8-11.8V126.66h24.43a2.69,2.69,0,0,0,2.53-2.53v-27l32,106.16a3.79,3.79,0,0,0,2.53,2.53h35.38a2.7,2.7,0,0,0,2.53-2.53l15.16-47.18,7.59,24.43,6.74,22.75a3.79,3.79,0,0,0,2.53,2.53h35.38a2.7,2.7,0,0,0,2.53-2.53l32-106.16V203.33a2.69,2.69,0,0,0,2.52,2.53h43a2.7,2.7,0,0,0,2.53-2.53V91.27C598.14,90.43,597.3,88.74,596.45,88.74ZM652.9,50.83h-43a2.68,2.68,0,0,0-2.52,2.53V202.48a2.68,2.68,0,0,0,2.52,2.53h43a2.69,2.69,0,0,0,2.53-2.53v-150C655.43,51.67,654.59,50.83,652.9,50.83Zm57.3,0H665.54A2.69,2.69,0,0,0,663,53.36V79.48A2.69,2.69,0,0,0,665.54,82H710.2a2.68,2.68,0,0,0,2.52-2.52v-27C712.72,51.67,711.88,50.83,710.2,50.83Zm-.85,37.91h-43a2.69,2.69,0,0,0-2.52,2.53V201.64a2.69,2.69,0,0,0,2.52,2.53h43a2.69,2.69,0,0,0,2.53-2.53V91.27A2.69,2.69,0,0,0,709.35,88.74ZM845,146c0,32-27,59.82-64.87,59.82-37.08,0-64-27.81-64-59.82s27-59.82,64.88-59.82C818,86.22,845,114,845,146Zm-45.5.84c0-11.8-8.42-21.07-18.53-20.22-11,0-18.54,9.27-18.54,20.22S770.86,167.1,781,167.1C791.92,167.1,799.5,157.83,799.5,146.88Z"/></svg>